<?xml version="1.0" encoding="UTF-8" standalone="no"?>
<!DOCTYPE svg PUBLIC "-//W3C//DTD SVG 1.1//EN"
 "http://www.w3.org/Graphics/SVG/1.1/DTD/svg11.dtd">
<!-- Generated by graphviz version 2.40.1 (20161225.0304)
 -->
<!-- Title: appointment_stm Pages: 1 -->
<svg width="367pt" height="422pt"
 viewBox="0.00 0.00 367.45 422.09" xmlns="http://www.w3.org/2000/svg" xmlns:xlink="http://www.w3.org/1999/xlink">
<g id="graph0" class="graph" transform="scale(1 1) rotate(0) translate(4 418.0948)">
<title>appointment_stm</title>
<polygon fill="#ffffff" stroke="transparent" points="-4,4 -4,-418.0948 363.4469,-418.0948 363.4469,4 -4,4"/>
<!-- After -->
<g id="node1" class="node">
<title>After</title>
<ellipse fill="none" stroke="#000000" cx="51.4469" cy="-128.2474" rx="29.4667" ry="29.4667"/>
<ellipse fill="none" stroke="#000000" cx="51.4469" cy="-128.2474" rx="33.4967" ry="33.4967"/>
<text text-anchor="middle" x="51.4469" y="-124.5474" font-family="Times,serif" font-size="14.00" fill="#000000">After</text>
</g>
<!-- Error -->
<g id="node3" class="node">
<title>Error</title>
<ellipse fill="none" stroke="#000000" cx="129.4469" cy="-18" rx="29.4969" ry="18"/>
<text text-anchor="middle" x="129.4469" y="-14.3" font-family="Times,serif" font-size="14.00" fill="#000000">Error</text>
</g>
<!-- After&#45;&gt;Error -->
<g id="edge6" class="edge">
<title>After&#45;&gt;Error</title>
<path fill="none" stroke="#000000" d="M60.2337,-95.9149C65.0249,-82.0966 71.9538,-66.3424 81.4469,-54 86.4482,-47.4978 92.9146,-41.5893 99.4716,-36.5246"/>
<polygon fill="#000000" stroke="#000000" points="101.6551,-39.2652 107.722,-30.5794 97.5627,-33.5861 101.6551,-39.2652"/>
<text text-anchor="start" x="85.4469" y="-62.3" font-family="Times,serif" font-style="italic" font-size="14.00" fill="#000000">&quot;After&quot; &#45;&gt; &quot;Error&quot;</text>
</g>
<!-- Before -->
<g id="node2" class="node">
<title>Before</title>
<ellipse fill="none" stroke="#000000" cx="34.4469" cy="-333.4948" rx="34.394" ry="18"/>
<text text-anchor="middle" x="34.4469" y="-329.7948" font-family="Times,serif" font-size="14.00" fill="#000000">Before</text>
</g>
<!-- Before&#45;&gt;After -->
<g id="edge3" class="edge">
<title>Before&#45;&gt;After</title>
<path fill="none" stroke="#000000" d="M32.3437,-315.479C30.6358,-299.8942 28.3654,-276.743 27.4469,-256.4948 26.7219,-240.5112 25.4162,-236.3654 27.4469,-220.4948 29.6006,-203.6635 33.8794,-185.5159 38.2355,-169.8067"/>
<polygon fill="#000000" stroke="#000000" points="41.6916,-170.4516 41.0876,-159.874 34.9635,-168.5196 41.6916,-170.4516"/>
<text text-anchor="start" x="31.9469" y="-235.2948" font-family="Times,serif" font-style="italic" font-size="14.00" fill="#000000">&quot;Before&quot; &#45;&gt; &quot;After&quot;</text>
</g>
<!-- InProgress -->
<g id="node4" class="node">
<title>InProgress</title>
<ellipse fill="none" stroke="#000000" cx="201.4469" cy="-238.4948" rx="48.1917" ry="18"/>
<text text-anchor="middle" x="201.4469" y="-234.7948" font-family="Times,serif" font-size="14.00" fill="#000000">InProgress</text>
</g>
<!-- Before&#45;&gt;InProgress -->
<g id="edge2" class="edge">
<title>Before&#45;&gt;InProgress</title>
<path fill="none" stroke="#000000" d="M58.0198,-320.0851C86.2085,-304.0496 133.6558,-277.0586 166.2057,-258.5422"/>
<polygon fill="#000000" stroke="#000000" points="168.0015,-261.5474 174.963,-253.5605 164.5403,-255.463 168.0015,-261.5474"/>
<text text-anchor="start" x="141.4469" y="-282.7948" font-family="Times,serif" font-style="italic" font-size="14.00" fill="#000000">&quot;Before&quot; &#45;&gt; &quot;InProgress&quot;</text>
</g>
<!-- InProgress&#45;&gt;After -->
<g id="edge4" class="edge">
<title>InProgress&#45;&gt;After</title>
<path fill="none" stroke="#000000" d="M163.87,-227.0726C155.8418,-224.7764 147.3881,-222.4658 139.4469,-220.4948 101.1242,-210.983 77.5847,-232.9448 52.4469,-202.4948 45.2209,-193.7417 42.8471,-182.2269 42.8427,-170.8854"/>
<polygon fill="#000000" stroke="#000000" points="46.354,-170.787 43.4334,-160.6026 39.3655,-170.3854 46.354,-170.787"/>
<text text-anchor="start" x="56.9469" y="-187.7948" font-family="Times,serif" font-style="italic" font-size="14.00" fill="#000000">&quot;InProgress&quot; &#45;&gt; &quot;After&quot;</text>
</g>
<!-- InProgress&#45;&gt;Error -->
<g id="edge5" class="edge">
<title>InProgress&#45;&gt;Error</title>
<path fill="none" stroke="#000000" d="M206.0557,-220.3261C213.873,-185.2166 225.9189,-106.8598 193.4469,-54 186.9305,-43.3922 176.0725,-35.6388 165.1335,-30.1057"/>
<polygon fill="#000000" stroke="#000000" points="166.5716,-26.9148 156.0193,-25.9662 163.6769,-33.2882 166.5716,-26.9148"/>
<text text-anchor="start" x="218.9469" y="-125.0474" font-family="Times,serif" font-style="italic" font-size="14.00" fill="#000000">&quot;InProgress&quot; &#45;&gt; &quot;Error&quot;</text>
</g>
<!-- _start -->
<g id="node5" class="node">
<title>_start</title>
<ellipse fill="#000000" stroke="#000000" cx="34.4469" cy="-412.2948" rx="1.8" ry="1.8"/>
</g>
<!-- _start&#45;&gt;Before -->
<g id="edge1" class="edge">
<title>_start&#45;&gt;Before</title>
<path fill="none" stroke="#000000" d="M34.4469,-410.3469C34.4469,-403.6279 34.4469,-380.7871 34.4469,-361.7382"/>
<polygon fill="#000000" stroke="#000000" points="37.947,-361.672 34.4469,-351.6721 30.947,-361.6721 37.947,-361.672"/>
<text text-anchor="start" x="38.9469" y="-377.7948" font-family="Times,serif" font-weight="bold" font-style="italic" font-size="14.00" fill="#000000"> &#45;&gt; &quot;Before&quot;</text>
</g>
</g>
</svg>
