<?xml version="1.0" encoding="UTF-8" standalone="no"?>
<!DOCTYPE svg PUBLIC "-//W3C//DTD SVG 1.1//EN"
 "http://www.w3.org/Graphics/SVG/1.1/DTD/svg11.dtd">
<!-- Generated by graphviz version 2.40.1 (20161225.0304)
 -->
<!-- Title: appointment_stm Pages: 1 -->
<svg width="364pt" height="392pt"
 viewBox="0.00 0.00 364.45 391.60" xmlns="http://www.w3.org/2000/svg" xmlns:xlink="http://www.w3.org/1999/xlink">
<g id="graph0" class="graph" transform="scale(1 1) rotate(0) translate(4 387.6)">
<title>appointment_stm</title>
<polygon fill="#ffffff" stroke="transparent" points="-4,4 -4,-387.6 360.4469,-387.6 360.4469,4 -4,4"/>
<!-- After -->
<g id="node1" class="node">
<title>After</title>
<ellipse fill="none" stroke="#000000" cx="51.4469" cy="-113" rx="29.4969" ry="18"/>
<text text-anchor="middle" x="51.4469" y="-109.3" font-family="Times,serif" font-size="14.00" fill="#000000">After</text>
</g>
<!-- Error -->
<g id="node3" class="node">
<title>Error</title>
<ellipse fill="none" stroke="#000000" cx="129.4469" cy="-18" rx="29.4969" ry="18"/>
<text text-anchor="middle" x="129.4469" y="-14.3" font-family="Times,serif" font-size="14.00" fill="#000000">Error</text>
</g>
<!-- After&#45;&gt;Error -->
<g id="edge6" class="edge">
<title>After&#45;&gt;Error</title>
<path fill="none" stroke="#000000" d="M57.9686,-95.2228C63.0953,-82.807 71.0972,-66.3164 81.4469,-54 86.7243,-47.7198 93.297,-41.8968 99.8688,-36.844"/>
<polygon fill="#000000" stroke="#000000" points="102.0537,-39.583 108.0948,-30.8792 97.9445,-33.916 102.0537,-39.583"/>
<text text-anchor="start" x="85.4469" y="-62.3" font-family="Times,serif" font-style="italic" font-size="14.00" fill="#000000">&quot;After&quot; &#45;&gt; &quot;Error&quot;</text>
</g>
<!-- Before -->
<g id="node2" class="node">
<title>Before</title>
<ellipse fill="none" stroke="#000000" cx="34.4469" cy="-303" rx="34.394" ry="18"/>
<text text-anchor="middle" x="34.4469" y="-299.3" font-family="Times,serif" font-size="14.00" fill="#000000">Before</text>
</g>
<!-- Before&#45;&gt;After -->
<g id="edge3" class="edge">
<title>Before&#45;&gt;After</title>
<path fill="none" stroke="#000000" d="M30.9713,-284.8894C27.2111,-262.4843 22.3885,-223.2284 27.4469,-190 30.0324,-173.0165 35.652,-154.6264 40.8037,-140.0786"/>
<polygon fill="#000000" stroke="#000000" points="44.0913,-141.2791 44.2525,-130.6854 37.5202,-138.8664 44.0913,-141.2791"/>
<text text-anchor="start" x="31.9469" y="-204.8" font-family="Times,serif" font-style="italic" font-size="14.00" fill="#000000">&quot;Before&quot; &#45;&gt; &quot;After&quot;</text>
</g>
<!-- InProgress -->
<g id="node4" class="node">
<title>InProgress</title>
<ellipse fill="none" stroke="#000000" cx="201.4469" cy="-208" rx="48.1917" ry="18"/>
<text text-anchor="middle" x="201.4469" y="-204.3" font-family="Times,serif" font-size="14.00" fill="#000000">InProgress</text>
</g>
<!-- Before&#45;&gt;InProgress -->
<g id="edge2" class="edge">
<title>Before&#45;&gt;InProgress</title>
<path fill="none" stroke="#000000" d="M58.0198,-289.5903C86.2085,-273.5548 133.6558,-246.5638 166.2057,-228.0474"/>
<polygon fill="#000000" stroke="#000000" points="168.0015,-231.0526 174.963,-223.0657 164.5403,-224.9681 168.0015,-231.0526"/>
<text text-anchor="start" x="141.4469" y="-252.3" font-family="Times,serif" font-style="italic" font-size="14.00" fill="#000000">&quot;Before&quot; &#45;&gt; &quot;InProgress&quot;</text>
</g>
<!-- InProgress&#45;&gt;After -->
<g id="edge4" class="edge">
<title>InProgress&#45;&gt;After</title>
<path fill="none" stroke="#000000" d="M163.87,-196.5778C155.8418,-194.2816 147.3881,-191.971 139.4469,-190 101.1242,-180.4882 77.6377,-202.4062 52.4469,-172 45.3644,-163.451 44.0988,-151.5675 44.9947,-140.7045"/>
<polygon fill="#000000" stroke="#000000" points="48.4686,-141.1344 46.3965,-130.7442 41.5369,-140.1588 48.4686,-141.1344"/>
<text text-anchor="start" x="56.9469" y="-157.3" font-family="Times,serif" font-style="italic" font-size="14.00" fill="#000000">&quot;InProgress&quot; &#45;&gt; &quot;After&quot;</text>
</g>
<!-- InProgress&#45;&gt;Error -->
<g id="edge5" class="edge">
<title>InProgress&#45;&gt;Error</title>
<path fill="none" stroke="#000000" d="M205.7676,-189.7403C211.9401,-159.1066 219.8344,-96.5453 193.4469,-54 186.8851,-43.4202 176.0163,-35.6734 165.0814,-30.1378"/>
<polygon fill="#000000" stroke="#000000" points="166.5253,-26.9496 155.9736,-25.9944 163.6266,-33.3212 166.5253,-26.9496"/>
<text text-anchor="start" x="215.9469" y="-109.8" font-family="Times,serif" font-style="italic" font-size="14.00" fill="#000000">&quot;InProgress&quot; &#45;&gt; &quot;Error&quot;</text>
</g>
<!-- _start -->
<g id="node5" class="node">
<title>_start</title>
<ellipse fill="#000000" stroke="#000000" cx="34.4469" cy="-381.8" rx="1.8" ry="1.8"/>
</g>
<!-- _start&#45;&gt;Before -->
<g id="edge1" class="edge">
<title>_start&#45;&gt;Before</title>
<path fill="none" stroke="#000000" d="M34.4469,-379.8521C34.4469,-373.1331 34.4469,-350.2923 34.4469,-331.2434"/>
<polygon fill="#000000" stroke="#000000" points="37.947,-331.1772 34.4469,-321.1773 30.947,-331.1773 37.947,-331.1772"/>
<text text-anchor="start" x="38.9469" y="-347.3" font-family="Times,serif" font-weight="bold" font-style="italic" font-size="14.00" fill="#000000"> &#45;&gt; &quot;Before&quot;</text>
</g>
</g>
</svg>
