<?xml version="1.0" encoding="UTF-8" standalone="no"?>
<!DOCTYPE svg PUBLIC "-//W3C//DTD SVG 1.1//EN"
 "http://www.w3.org/Graphics/SVG/1.1/DTD/svg11.dtd">
<!-- Generated by graphviz version 2.40.1 (20161225.0304)
 -->
<!-- Title: appointment_stm Pages: 1 -->
<svg width="662pt" height="444pt"
 viewBox="0.00 0.00 662.25 444.19" xmlns="http://www.w3.org/2000/svg" xmlns:xlink="http://www.w3.org/1999/xlink">
<g id="graph0" class="graph" transform="scale(1 1) rotate(0) translate(4 440.1928)">
<title>appointment_stm</title>
<polygon fill="#ffffff" stroke="transparent" points="-4,4 -4,-440.1928 658.2474,-440.1928 658.2474,4 -4,4"/>
<!-- After -->
<g id="node1" class="node">
<title>After</title>
<ellipse fill="none" stroke="#000000" cx="196.2474" cy="-165.5928" rx="29.4969" ry="18"/>
<text text-anchor="middle" x="196.2474" y="-161.8928" font-family="Times,serif" font-size="14.00" fill="#000000">After</text>
</g>
<!-- Chained -->
<g id="node3" class="node">
<title>Chained</title>
<ellipse fill="none" stroke="#000000" cx="332.2474" cy="-44.2964" rx="40.1121" ry="40.1121"/>
<ellipse fill="none" stroke="#000000" cx="332.2474" cy="-44.2964" rx="44.0938" ry="44.0938"/>
<text text-anchor="middle" x="332.2474" y="-40.5964" font-family="Times,serif" font-size="14.00" fill="#000000">Chained</text>
</g>
<!-- After&#45;&gt;Chained -->
<g id="edge7" class="edge">
<title>After&#45;&gt;Chained</title>
<path fill="none" stroke="#000000" d="M189.3373,-147.9239C185.6562,-135.4025 183.3358,-118.7377 191.2474,-106.5928 210.4917,-77.0514 247.2704,-61.417 278.4399,-53.1996"/>
<polygon fill="#000000" stroke="#000000" points="279.449,-56.5561 288.3334,-50.7839 277.7886,-49.7558 279.449,-56.5561"/>
<text text-anchor="start" x="195.7474" y="-114.8928" font-family="Times,serif" font-style="italic" font-size="14.00" fill="#000000">&quot;After&quot; &#45;&gt; &quot;Chained&quot;</text>
</g>
<!-- Error -->
<g id="node4" class="node">
<title>Error</title>
<ellipse fill="none" stroke="#000000" cx="33.2474" cy="-44.2964" rx="29.4667" ry="29.4667"/>
<ellipse fill="none" stroke="#000000" cx="33.2474" cy="-44.2964" rx="33.4967" ry="33.4967"/>
<text text-anchor="middle" x="33.2474" y="-40.5964" font-family="Times,serif" font-size="14.00" fill="#000000">Error</text>
</g>
<!-- After&#45;&gt;Error -->
<g id="edge9" class="edge">
<title>After&#45;&gt;Error</title>
<path fill="none" stroke="#000000" d="M172.4293,-154.712C166.264,-152.1486 159.5773,-149.5857 153.2474,-147.5928 117.2431,-136.2578 99.4183,-153.548 70.2474,-129.5928 57.0245,-118.7342 48.4082,-102.244 42.8508,-86.6475"/>
<polygon fill="#000000" stroke="#000000" points="46.1749,-85.5515 39.7719,-77.1104 39.5134,-87.7021 46.1749,-85.5515"/>
<text text-anchor="start" x="74.2474" y="-114.8928" font-family="Times,serif" font-style="italic" font-size="14.00" fill="#000000">&quot;After&quot; &#45;&gt; &quot;Error&quot;</text>
</g>
<!-- Before -->
<g id="node2" class="node">
<title>Before</title>
<ellipse fill="none" stroke="#000000" cx="357.2474" cy="-355.5928" rx="34.394" ry="18"/>
<text text-anchor="middle" x="357.2474" y="-351.8928" font-family="Times,serif" font-size="14.00" fill="#000000">Before</text>
</g>
<!-- Before&#45;&gt;After -->
<g id="edge3" class="edge">
<title>Before&#45;&gt;After</title>
<path fill="none" stroke="#000000" d="M358.6198,-337.455C359.9824,-305.5798 357.9658,-239.3251 322.2474,-201.5928 310.2164,-188.8835 267.1385,-178.448 234.6758,-172.1435"/>
<polygon fill="#000000" stroke="#000000" points="235.036,-168.6501 224.5618,-170.2441 233.7439,-175.5298 235.036,-168.6501"/>
<text text-anchor="start" x="360.7474" y="-257.3928" font-family="Times,serif" font-style="italic" font-size="14.00" fill="#000000">&quot;Before&quot; &#45;&gt; &quot;After&quot;</text>
</g>
<!-- Before&#45;&gt;Chained -->
<g id="edge5" class="edge">
<title>Before&#45;&gt;Chained</title>
<path fill="none" stroke="#000000" d="M384.8715,-344.6623C412.1806,-332.4872 453.2579,-310.2617 477.2474,-278.5928 513.2545,-231.0593 535.7492,-199.4156 506.2474,-147.5928 480.4226,-102.229 425.9576,-74.726 384.7993,-59.6328"/>
<polygon fill="#000000" stroke="#000000" points="385.7735,-56.2651 375.1787,-56.2393 383.4449,-62.8665 385.7735,-56.2651"/>
<text text-anchor="start" x="522.2474" y="-209.8928" font-family="Times,serif" font-style="italic" font-size="14.00" fill="#000000">&quot;Before&quot; &#45;&gt; &quot;Chained&quot;</text>
</g>
<!-- InProgress -->
<g id="node5" class="node">
<title>InProgress</title>
<ellipse fill="none" stroke="#000000" cx="184.2474" cy="-260.5928" rx="48.1917" ry="18"/>
<text text-anchor="middle" x="184.2474" y="-256.8928" font-family="Times,serif" font-size="14.00" fill="#000000">InProgress</text>
</g>
<!-- Before&#45;&gt;InProgress -->
<g id="edge2" class="edge">
<title>Before&#45;&gt;InProgress</title>
<path fill="none" stroke="#000000" d="M323.2538,-352.6122C280.5218,-348.135 210.6404,-338.1494 193.2474,-319.5928 185.5686,-311.4004 182.7782,-299.5716 182.1134,-288.653"/>
<polygon fill="#000000" stroke="#000000" points="185.6131,-288.5851 182.0372,-278.612 178.6133,-288.6383 185.6131,-288.5851"/>
<text text-anchor="start" x="197.2474" y="-304.8928" font-family="Times,serif" font-style="italic" font-size="14.00" fill="#000000">&quot;Before&quot; &#45;&gt; &quot;InProgress&quot;</text>
</g>
<!-- InProgress&#45;&gt;After -->
<g id="edge4" class="edge">
<title>InProgress&#45;&gt;After</title>
<path fill="none" stroke="#000000" d="M178.7903,-242.5694C176.0291,-230.7777 173.8994,-215.1095 177.2474,-201.5928 178.063,-198.3002 179.2407,-194.9766 180.6161,-191.7495"/>
<polygon fill="#000000" stroke="#000000" points="183.8997,-193.0033 185.1707,-182.485 177.6178,-189.915 183.8997,-193.0033"/>
<text text-anchor="start" x="181.7474" y="-209.8928" font-family="Times,serif" font-style="italic" font-size="14.00" fill="#000000">&quot;InProgress&quot; &#45;&gt; &quot;After&quot;</text>
</g>
<!-- InProgress&#45;&gt;Chained -->
<g id="edge6" class="edge">
<title>InProgress&#45;&gt;Chained</title>
<path fill="none" stroke="#000000" d="M229.2453,-254.1598C263.5622,-248.2638 306.8222,-238.3541 318.2474,-224.5928 347.1202,-189.8168 347.9461,-137.1337 343.1393,-97.6829"/>
<polygon fill="#000000" stroke="#000000" points="346.5968,-97.1336 341.7708,-87.7018 339.6617,-98.0845 346.5968,-97.1336"/>
<text text-anchor="start" x="349.2474" y="-162.3928" font-family="Times,serif" font-style="italic" font-size="14.00" fill="#000000">&quot;InProgress&quot; &#45;&gt; &quot;Chained&quot;</text>
</g>
<!-- InProgress&#45;&gt;Error -->
<g id="edge8" class="edge">
<title>InProgress&#45;&gt;Error</title>
<path fill="none" stroke="#000000" d="M138.9765,-254.0502C98.2876,-245.5103 40.8204,-226.2482 13.2474,-183.5928 -5.9374,-153.914 2.9431,-113.3021 14.2983,-83.5876"/>
<polygon fill="#000000" stroke="#000000" points="17.6883,-84.5419 18.2071,-73.9598 11.2024,-81.9087 17.6883,-84.5419"/>
<text text-anchor="start" x="17.7474" y="-162.3928" font-family="Times,serif" font-style="italic" font-size="14.00" fill="#000000">&quot;InProgress&quot; &#45;&gt; &quot;Error&quot;</text>
</g>
<!-- _start -->
<g id="node6" class="node">
<title>_start</title>
<ellipse fill="#000000" stroke="#000000" cx="357.2474" cy="-434.3928" rx="1.8" ry="1.8"/>
</g>
<!-- _start&#45;&gt;Before -->
<g id="edge1" class="edge">
<title>_start&#45;&gt;Before</title>
<path fill="none" stroke="#000000" d="M357.2474,-432.445C357.2474,-425.7259 357.2474,-402.8852 357.2474,-383.8363"/>
<polygon fill="#000000" stroke="#000000" points="360.7475,-383.7701 357.2474,-373.7701 353.7475,-383.7701 360.7475,-383.7701"/>
<text text-anchor="start" x="361.7474" y="-399.8928" font-family="Times,serif" font-weight="bold" font-style="italic" font-size="14.00" fill="#000000"> &#45;&gt; &quot;Before&quot;</text>
</g>
</g>
</svg>
