<?xml version="1.0" encoding="UTF-8" standalone="no"?>
<!DOCTYPE svg PUBLIC "-//W3C//DTD SVG 1.1//EN"
 "http://www.w3.org/Graphics/SVG/1.1/DTD/svg11.dtd">
<!-- Generated by graphviz version 2.40.1 (20161225.0304)
 -->
<!-- Title: cal_stm Pages: 1 -->
<svg width="1838pt" height="2096pt"
 viewBox="0.00 0.00 1838.00 2096.16" xmlns="http://www.w3.org/2000/svg" xmlns:xlink="http://www.w3.org/1999/xlink">
<g id="graph0" class="graph" transform="scale(1 1) rotate(0) translate(4 2092.1578)">
<title>cal_stm</title>
<polygon fill="#ffffff" stroke="transparent" points="-4,4 -4,-2092.1578 1834,-2092.1578 1834,4 -4,4"/>
<!-- CachedDisplay -->
<g id="node1" class="node">
<title>CachedDisplay</title>
<ellipse fill="none" stroke="#000000" cx="1286" cy="-2042.4385" rx="41.9204" ry="41.9204"/>
<ellipse fill="none" stroke="#000000" cx="1286" cy="-2042.4385" rx="45.9397" ry="45.9397"/>
<text text-anchor="middle" x="1286" y="-2046.2385" font-family="Times,serif" font-size="14.00" fill="#000000">Cached</text>
<text text-anchor="middle" x="1286" y="-2031.2385" font-family="Times,serif" font-size="14.00" fill="#000000">Display</text>
</g>
<!-- NetworkOutage -->
<g id="node6" class="node">
<title>NetworkOutage</title>
<ellipse fill="none" stroke="#000000" cx="932" cy="-1825.4644" rx="45.0307" ry="45.0307"/>
<ellipse fill="none" stroke="#000000" cx="932" cy="-1825.4644" rx="49.0109" ry="49.0109"/>
<text text-anchor="middle" x="932" y="-1829.2644" font-family="Times,serif" font-size="14.00" fill="#000000">Network</text>
<text text-anchor="middle" x="932" y="-1814.2644" font-family="Times,serif" font-size="14.00" fill="#000000">Outage</text>
</g>
<!-- CachedDisplay&#45;&gt;NetworkOutage -->
<g id="edge28" class="edge">
<title>CachedDisplay&#45;&gt;NetworkOutage</title>
<path fill="none" stroke="#000000" d="M1240.0878,-2041.1437C1153.6155,-2037.6368 971.7858,-2024.8264 933,-1978.7192 911.1306,-1952.7217 910.8275,-1914.5337 916.0182,-1882.7824"/>
<polygon fill="#000000" stroke="#000000" points="919.5015,-1883.1928 917.8761,-1872.7234 912.6179,-1881.9213 919.5015,-1883.1928"/>
<text text-anchor="start" x="937.5" y="-1964.5192" font-family="Times,serif" font-style="italic" font-size="14.00" fill="#000000">&quot;CachedDisplay&quot; &#45;&gt; &quot;NetworkOutage&quot;</text>
<text text-anchor="start" x="1006.5" y="-1942.5192" font-family="Times,serif" font-size="14.00" fill="#000000">RefreshToken</text>
<text text-anchor="start" x="1002.5" y="-1921.5192" font-family="Times,serif" font-size="14.00" fill="#000000">LastNetErrorAt</text>
<text text-anchor="start" x="1000.5" y="-1900.5192" font-family="Times,serif" font-size="14.00" fill="#000000">TimeUpdatedAt</text>
</g>
<!-- DeviceAuthPoll -->
<g id="node2" class="node">
<title>DeviceAuthPoll</title>
<ellipse fill="none" stroke="#000000" cx="550" cy="-1196.9562" rx="45.927" ry="45.927"/>
<ellipse fill="none" stroke="#000000" cx="550" cy="-1196.9562" rx="49.9239" ry="49.9239"/>
<text text-anchor="middle" x="550" y="-1200.7562" font-family="Times,serif" font-size="14.00" fill="#000000">Device</text>
<text text-anchor="middle" x="550" y="-1185.7562" font-family="Times,serif" font-size="14.00" fill="#000000">AuthPoll</text>
</g>
<!-- DisplayError -->
<g id="node3" class="node">
<title>DisplayError</title>
<ellipse fill="none" stroke="#000000" cx="596" cy="-363.6771" rx="41.9204" ry="41.9204"/>
<ellipse fill="none" stroke="#000000" cx="596" cy="-363.6771" rx="45.9397" ry="45.9397"/>
<text text-anchor="middle" x="596" y="-367.4771" font-family="Times,serif" font-size="14.00" fill="#000000">Display</text>
<text text-anchor="middle" x="596" y="-352.4771" font-family="Times,serif" font-size="14.00" fill="#000000">Error</text>
</g>
<!-- DeviceAuthPoll&#45;&gt;DisplayError -->
<g id="edge19" class="edge">
<title>DeviceAuthPoll&#45;&gt;DisplayError</title>
<path fill="none" stroke="#000000" d="M556.7418,-1147.0791C561.7444,-1108.1758 568.3126,-1052.7452 572,-1003.9943 588.2966,-788.5352 593.6799,-531.4155 595.3289,-419.8864"/>
<polygon fill="#000000" stroke="#000000" points="598.8332,-419.6032 595.477,-409.554 591.8339,-419.5027 598.8332,-419.6032"/>
<text text-anchor="start" x="592.5" y="-803.2135" font-family="Times,serif" font-style="italic" font-size="14.00" fill="#000000">&quot;DeviceAuthPoll&quot; &#45;&gt; &quot;DisplayError&quot;</text>
<text text-anchor="start" x="678" y="-781.2135" font-family="Times,serif" font-size="14.00" fill="#000000">String</text>
</g>
<!-- ReadFirstEvents -->
<g id="node9" class="node">
<title>ReadFirstEvents</title>
<ellipse fill="none" stroke="#000000" cx="1200" cy="-951.2039" rx="48.5974" ry="48.5974"/>
<ellipse fill="none" stroke="#000000" cx="1200" cy="-951.2039" rx="52.5816" ry="52.5816"/>
<text text-anchor="middle" x="1200" y="-955.0039" font-family="Times,serif" font-size="14.00" fill="#000000">ReadFirst</text>
<text text-anchor="middle" x="1200" y="-940.0039" font-family="Times,serif" font-size="14.00" fill="#000000">Events</text>
</g>
<!-- DeviceAuthPoll&#45;&gt;ReadFirstEvents -->
<g id="edge13" class="edge">
<title>DeviceAuthPoll&#45;&gt;ReadFirstEvents</title>
<path fill="none" stroke="#000000" d="M585.1604,-1161.1937C593.9162,-1151.2446 602.8381,-1140.1073 610,-1128.9943 638.2348,-1085.1829 614.8873,-1051.2848 658,-1021.9943 695.2589,-996.6808 1018.9089,-1013.2126 1063,-1003.9943 1090.0921,-998.33 1118.8496,-987.9731 1142.9854,-977.9236"/>
<polygon fill="#000000" stroke="#000000" points="1144.5032,-981.0816 1152.338,-973.9495 1141.7656,-974.6391 1144.5032,-981.0816"/>
<text text-anchor="start" x="662" y="-1114.2943" font-family="Times,serif" font-style="italic" font-size="14.00" fill="#000000">&quot;DeviceAuthPoll&quot; &#45;&gt; &quot;ReadFirstEvents&quot;</text>
<text text-anchor="start" x="733" y="-1092.2943" font-family="Times,serif" font-size="14.00" fill="#000000">Authenticators</text>
<text text-anchor="start" x="738.5" y="-1071.2943" font-family="Times,serif" font-size="14.00" fill="#000000">RefreshedAt</text>
<text text-anchor="start" x="738" y="-1050.2943" font-family="Times,serif" font-size="14.00" fill="#000000">RefreshType</text>
<text text-anchor="start" x="717" y="-1029.2943" font-family="Times,serif" font-size="14.00" fill="#000000">PendingDisplayDate</text>
</g>
<!-- ErrorWait -->
<g id="node4" class="node">
<title>ErrorWait</title>
<ellipse fill="none" stroke="#000000" cx="469" cy="-195.1116" rx="31.6605" ry="31.6605"/>
<ellipse fill="none" stroke="#000000" cx="469" cy="-195.1116" rx="35.6405" ry="35.6405"/>
<text text-anchor="middle" x="469" y="-198.9116" font-family="Times,serif" font-size="14.00" fill="#000000">Error</text>
<text text-anchor="middle" x="469" y="-183.9116" font-family="Times,serif" font-size="14.00" fill="#000000">Wait</text>
</g>
<!-- DisplayError&#45;&gt;ErrorWait -->
<g id="edge3" class="edge">
<title>DisplayError&#45;&gt;ErrorWait</title>
<path fill="none" stroke="#000000" d="M568.4429,-327.1009C547.1955,-298.8994 517.9426,-260.0725 496.6675,-231.8344"/>
<polygon fill="#000000" stroke="#000000" points="499.4287,-229.6827 490.6158,-223.8019 493.8378,-233.895 499.4287,-229.6827"/>
<text text-anchor="start" x="545" y="-278.7314" font-family="Times,serif" font-style="italic" font-size="14.00" fill="#000000">&quot;DisplayError&quot; &#45;&gt; &quot;ErrorWait&quot;</text>
<text text-anchor="start" x="591.5" y="-256.7314" font-family="Times,serif" font-size="14.00" fill="#000000">DownloadedAt</text>
</g>
<!-- LoadAuth -->
<g id="node5" class="node">
<title>LoadAuth</title>
<ellipse fill="none" stroke="#000000" cx="235" cy="-50.1459" rx="46.2806" ry="46.2806"/>
<ellipse fill="none" stroke="#000000" cx="235" cy="-50.1459" rx="50.2922" ry="50.2922"/>
<text text-anchor="middle" x="235" y="-46.4459" font-family="Times,serif" font-size="14.00" fill="#000000">LoadAuth</text>
</g>
<!-- ErrorWait&#45;&gt;LoadAuth -->
<g id="edge2" class="edge">
<title>ErrorWait&#45;&gt;LoadAuth</title>
<path fill="none" stroke="#000000" d="M441.1262,-172.169C434.2169,-167.3417 426.6046,-162.6892 419,-159.2918 385.3293,-144.2491 370.8536,-158.0441 338,-141.2918 315.2919,-129.7128 293.6121,-111.9418 276.0516,-95.1563"/>
<polygon fill="#000000" stroke="#000000" points="278.3809,-92.5386 268.7869,-88.0437 273.4838,-97.5405 278.3809,-92.5386"/>
<text text-anchor="start" x="342.5" y="-126.5918" font-family="Times,serif" font-style="italic" font-size="14.00" fill="#000000">&quot;ErrorWait&quot; &#45;&gt; &quot;LoadAuth&quot;</text>
</g>
<!-- RequestCodes -->
<g id="node11" class="node">
<title>RequestCodes</title>
<ellipse fill="none" stroke="#000000" cx="397" cy="-1436.3446" rx="42.3593" ry="42.3593"/>
<ellipse fill="none" stroke="#000000" cx="397" cy="-1436.3446" rx="46.3529" ry="46.3529"/>
<text text-anchor="middle" x="397" y="-1440.1446" font-family="Times,serif" font-size="14.00" fill="#000000">Request</text>
<text text-anchor="middle" x="397" y="-1425.1446" font-family="Times,serif" font-size="14.00" fill="#000000">Codes</text>
</g>
<!-- ErrorWait&#45;&gt;RequestCodes -->
<g id="edge4" class="edge">
<title>ErrorWait&#45;&gt;RequestCodes</title>
<path fill="none" stroke="#000000" d="M473.919,-230.898C484.1515,-320.9269 497.6328,-559.1217 377,-692.4135 357.7461,-713.6879 332.2302,-687.4695 315,-710.4135 138.0267,-946.0736 273.502,-1090.4945 361,-1371.9182 362.6643,-1377.271 364.8111,-1382.676 367.227,-1387.9588"/>
<polygon fill="#000000" stroke="#000000" points="364.2662,-1389.8695 371.82,-1397.2985 370.5478,-1386.7804 364.2662,-1389.8695"/>
<text text-anchor="start" x="319" y="-792.2135" font-family="Times,serif" font-style="italic" font-size="14.00" fill="#000000">&quot;ErrorWait&quot; &#45;&gt; &quot;RequestCodes&quot;</text>
</g>
<!-- LoadAuth&#45;&gt;DisplayError -->
<g id="edge17" class="edge">
<title>LoadAuth&#45;&gt;DisplayError</title>
<path fill="none" stroke="#000000" d="M223.885,-99.0607C217.8829,-138.4291 216.5084,-193.2224 244,-230.9314 280.0294,-280.3513 451.7318,-328.5079 541.3155,-350.8002"/>
<polygon fill="#000000" stroke="#000000" points="540.7475,-354.2649 551.2946,-353.2609 542.4235,-347.4685 540.7475,-354.2649"/>
<text text-anchor="start" x="248" y="-202.9116" font-family="Times,serif" font-style="italic" font-size="14.00" fill="#000000">&quot;LoadAuth&quot; &#45;&gt; &quot;DisplayError&quot;</text>
<text text-anchor="start" x="317" y="-180.9116" font-family="Times,serif" font-size="14.00" fill="#000000">String</text>
</g>
<!-- RefreshAuth -->
<g id="node10" class="node">
<title>RefreshAuth</title>
<ellipse fill="none" stroke="#000000" cx="945" cy="-1629.4903" rx="41.9204" ry="41.9204"/>
<ellipse fill="none" stroke="#000000" cx="945" cy="-1629.4903" rx="45.9397" ry="45.9397"/>
<text text-anchor="middle" x="945" y="-1633.2903" font-family="Times,serif" font-size="14.00" fill="#000000">Refresh</text>
<text text-anchor="middle" x="945" y="-1618.2903" font-family="Times,serif" font-size="14.00" fill="#000000">Auth</text>
</g>
<!-- LoadAuth&#45;&gt;RefreshAuth -->
<g id="edge9" class="edge">
<title>LoadAuth&#45;&gt;RefreshAuth</title>
<path fill="none" stroke="#000000" d="M185.4497,-58.0162C116.5034,-72.1087 0,-108.7055 0,-195.1116 0,-1436.3446 0,-1436.3446 0,-1436.3446 0,-1583.4067 503.2777,-1545.9648 649,-1565.771 703.0938,-1573.1233 843.7629,-1562.4068 894,-1583.771 897.9394,-1585.4463 901.7793,-1587.5545 905.47,-1589.9408"/>
<polygon fill="#000000" stroke="#000000" points="903.6292,-1592.9285 913.7869,-1595.9405 907.7245,-1587.2515 903.6292,-1592.9285"/>
<text text-anchor="start" x="4" y="-813.2135" font-family="Times,serif" font-style="italic" font-size="14.00" fill="#000000">&quot;LoadAuth&quot; &#45;&gt; &quot;RefreshAuth&quot;</text>
<text text-anchor="start" x="48.5" y="-791.2135" font-family="Times,serif" font-size="14.00" fill="#000000">RefreshToken</text>
<text text-anchor="start" x="31" y="-770.2135" font-family="Times,serif" font-size="14.00" fill="#000000">PendingDisplayDate</text>
</g>
<!-- LoadAuth&#45;&gt;RequestCodes -->
<g id="edge5" class="edge">
<title>LoadAuth&#45;&gt;RequestCodes</title>
<path fill="none" stroke="#000000" d="M212.8084,-95.3405C201.0454,-123.3725 189,-160.5219 189,-195.1116 189,-1196.9562 189,-1196.9562 189,-1196.9562 189,-1292.9879 285.5573,-1369.2884 347.0961,-1408.1652"/>
<polygon fill="#000000" stroke="#000000" points="345.5626,-1411.3325 355.9059,-1413.6274 349.2513,-1405.3832 345.5626,-1411.3325"/>
<text text-anchor="start" x="193" y="-633.2182" font-family="Times,serif" font-style="italic" font-size="14.00" fill="#000000">&quot;LoadAuth&quot; &#45;&gt; &quot;RequestCodes&quot;</text>
</g>
<!-- NetworkOutage&#45;&gt;RefreshAuth -->
<g id="edge10" class="edge">
<title>NetworkOutage&#45;&gt;RefreshAuth</title>
<path fill="none" stroke="#000000" d="M935.2637,-1776.2648C937.0924,-1748.6972 939.3799,-1714.2126 941.2781,-1685.5974"/>
<polygon fill="#000000" stroke="#000000" points="944.7886,-1685.554 941.9583,-1675.3442 937.804,-1685.0906 944.7886,-1685.554"/>
<text text-anchor="start" x="945.5" y="-1743.5096" font-family="Times,serif" font-style="italic" font-size="14.00" fill="#000000">&quot;NetworkOutage&quot; &#45;&gt; &quot;RefreshAuth&quot;</text>
<text text-anchor="start" x="1006.5" y="-1721.5096" font-family="Times,serif" font-size="14.00" fill="#000000">RefreshToken</text>
<text text-anchor="start" x="989" y="-1700.5096" font-family="Times,serif" font-size="14.00" fill="#000000">PendingDisplayDate</text>
</g>
<!-- NetworkOutage&#45;&gt;RequestCodes -->
<g id="edge6" class="edge">
<title>NetworkOutage&#45;&gt;RequestCodes</title>
<path fill="none" stroke="#000000" d="M888.0387,-1803.0656C835.4446,-1775.5528 745.5325,-1726.2219 674,-1675.2096 585.0537,-1611.7789 490.5571,-1525.7261 438.1401,-1476.1032"/>
<polygon fill="#000000" stroke="#000000" points="440.3786,-1473.4021 430.7175,-1469.0531 435.5579,-1478.4776 440.3786,-1473.4021"/>
<text text-anchor="start" x="678" y="-1626.2903" font-family="Times,serif" font-style="italic" font-size="14.00" fill="#000000">&quot;NetworkOutage&quot; &#45;&gt; &quot;RequestCodes&quot;</text>
</g>
<!-- PageEvents -->
<g id="node7" class="node">
<title>PageEvents</title>
<ellipse fill="none" stroke="#000000" cx="1193" cy="-636.4182" rx="51.9911" ry="51.9911"/>
<ellipse fill="none" stroke="#000000" cx="1193" cy="-636.4182" rx="55.9908" ry="55.9908"/>
<text text-anchor="middle" x="1193" y="-632.7182" font-family="Times,serif" font-size="14.00" fill="#000000">PageEvents</text>
</g>
<!-- PageEvents&#45;&gt;CachedDisplay -->
<g id="edge27" class="edge">
<title>PageEvents&#45;&gt;CachedDisplay</title>
<path fill="none" stroke="#000000" d="M1247.543,-650.1299C1284.8155,-661.5713 1333.6665,-680.8452 1369,-710.4135 1495.5658,-816.3284 1514.4209,-866.9599 1571,-1021.9943 1644.5211,-1223.4519 1617.6407,-1286.7334 1631,-1500.771 1646.0507,-1741.9077 1536.0956,-1801.3888 1372,-1978.7192 1360.6078,-1991.0303 1346.5572,-2002.5816 1333.1394,-2012.3783"/>
<polygon fill="#000000" stroke="#000000" points="1331.0157,-2009.5938 1324.8961,-2018.2426 1335.0735,-2015.2978 1331.0157,-2009.5938"/>
<text text-anchor="start" x="1633.5" y="-1454.1446" font-family="Times,serif" font-style="italic" font-size="14.00" fill="#000000">&quot;PageEvents&quot; &#45;&gt; &quot;CachedDisplay&quot;</text>
<text text-anchor="start" x="1691.5" y="-1432.1446" font-family="Times,serif" font-size="14.00" fill="#000000">RefreshToken</text>
<text text-anchor="start" x="1687.5" y="-1411.1446" font-family="Times,serif" font-size="14.00" fill="#000000">LastNetErrorAt</text>
</g>
<!-- PageEvents&#45;&gt;DisplayError -->
<g id="edge18" class="edge">
<title>PageEvents&#45;&gt;DisplayError</title>
<path fill="none" stroke="#000000" d="M1144.9661,-607.3861C1126.74,-597.4896 1105.4424,-587.2196 1085,-580.4228 1038.4073,-564.9313 1018.101,-587.6888 976,-562.4228 914.5659,-525.5543 937.8686,-473.7825 878,-434.4228 841.0161,-410.1082 722.3604,-385.9062 651.2896,-373.0734"/>
<polygon fill="#000000" stroke="#000000" points="651.6242,-369.5778 641.1643,-371.2639 650.3926,-376.4686 651.6242,-369.5778"/>
<text text-anchor="start" x="980.5" y="-506.2228" font-family="Times,serif" font-style="italic" font-size="14.00" fill="#000000">&quot;PageEvents&quot; &#45;&gt; &quot;DisplayError&quot;</text>
<text text-anchor="start" x="1055" y="-484.2228" font-family="Times,serif" font-size="14.00" fill="#000000">String</text>
</g>
<!-- PollEvents -->
<g id="node8" class="node">
<title>PollEvents</title>
<ellipse fill="none" stroke="#000000" cx="1283" cy="-363.6771" rx="48.9738" ry="48.9738"/>
<ellipse fill="none" stroke="#000000" cx="1283" cy="-363.6771" rx="52.9925" ry="52.9925"/>
<text text-anchor="middle" x="1283" y="-359.9771" font-family="Times,serif" font-size="14.00" fill="#000000">PollEvents</text>
</g>
<!-- PageEvents&#45;&gt;PollEvents -->
<g id="edge24" class="edge">
<title>PageEvents&#45;&gt;PollEvents</title>
<path fill="none" stroke="#000000" d="M1178.294,-581.9359C1169.8758,-539.4565 1165.0176,-480.1926 1188,-434.4228 1196.5645,-417.3664 1211.4059,-403.3786 1226.847,-392.4764"/>
<polygon fill="#000000" stroke="#000000" points="1229.0743,-395.198 1235.4511,-386.7371 1225.1898,-389.3746 1229.0743,-395.198"/>
<text text-anchor="start" x="1192.5" y="-548.2228" font-family="Times,serif" font-style="italic" font-size="14.00" fill="#000000">&quot;PageEvents&quot; &#45;&gt; &quot;PollEvents&quot;</text>
<text text-anchor="start" x="1237" y="-526.2228" font-family="Times,serif" font-size="14.00" fill="#000000">Authenticators</text>
<text text-anchor="start" x="1242.5" y="-505.2228" font-family="Times,serif" font-size="14.00" fill="#000000">RefreshedAt</text>
<text text-anchor="start" x="1235.5" y="-484.2228" font-family="Times,serif" font-size="14.00" fill="#000000">DownloadedAt</text>
<text text-anchor="start" x="1232.5" y="-463.2228" font-family="Times,serif" font-size="14.00" fill="#000000">TimeUpdatedAt</text>
<text text-anchor="start" x="1221" y="-442.2228" font-family="Times,serif" font-size="14.00" fill="#000000">PendingDisplayDate</text>
</g>
<!-- PageEvents&#45;&gt;RefreshAuth -->
<g id="edge11" class="edge">
<title>PageEvents&#45;&gt;RefreshAuth</title>
<path fill="none" stroke="#000000" d="M1156.1427,-678.7121C1149.3401,-688.5449 1143.0988,-699.3818 1139,-710.4135 1106.4966,-797.8947 1169.2361,-1061.2954 1105,-1128.9943 1063.6391,-1172.5849 1011.764,-1102.845 971,-1146.9943 915.0562,-1207.5841 929.7078,-1459.7055 939.5164,-1573.4211"/>
<polygon fill="#000000" stroke="#000000" points="936.054,-1574.0025 940.4186,-1583.6565 943.0269,-1573.3878 936.054,-1574.0025"/>
<text text-anchor="start" x="975.5" y="-1214.7562" font-family="Times,serif" font-style="italic" font-size="14.00" fill="#000000">&quot;PageEvents&quot; &#45;&gt; &quot;RefreshAuth&quot;</text>
<text text-anchor="start" x="1025.5" y="-1192.7562" font-family="Times,serif" font-size="14.00" fill="#000000">RefreshToken</text>
<text text-anchor="start" x="1008" y="-1171.7562" font-family="Times,serif" font-size="14.00" fill="#000000">PendingDisplayDate</text>
</g>
<!-- PollEvents&#45;&gt;ReadFirstEvents -->
<g id="edge15" class="edge">
<title>PollEvents&#45;&gt;ReadFirstEvents</title>
<path fill="none" stroke="#000000" d="M1328.0839,-391.0878C1342.661,-402.5033 1357.0927,-417.1572 1365,-434.4228 1385.6341,-479.477 1392.2713,-839.0381 1365,-880.4135 1342.3423,-914.7894 1299.1419,-932.5375 1262.6282,-941.665"/>
<polygon fill="#000000" stroke="#000000" points="1261.4745,-938.34 1252.5293,-944.0175 1263.0627,-945.1574 1261.4745,-938.34"/>
<text text-anchor="start" x="1387.5" y="-675.2182" font-family="Times,serif" font-style="italic" font-size="14.00" fill="#000000">&quot;PollEvents&quot; &#45;&gt; &quot;ReadFirstEvents&quot;</text>
<text text-anchor="start" x="1445" y="-653.2182" font-family="Times,serif" font-size="14.00" fill="#000000">Authenticators</text>
<text text-anchor="start" x="1450.5" y="-632.2182" font-family="Times,serif" font-size="14.00" fill="#000000">RefreshedAt</text>
<text text-anchor="start" x="1450" y="-611.2182" font-family="Times,serif" font-size="14.00" fill="#000000">RefreshType</text>
<text text-anchor="start" x="1429" y="-590.2182" font-family="Times,serif" font-size="14.00" fill="#000000">PendingDisplayDate</text>
</g>
<!-- PollEvents&#45;&gt;RefreshAuth -->
<g id="edge12" class="edge">
<title>PollEvents&#45;&gt;RefreshAuth</title>
<path fill="none" stroke="#000000" d="M1332.7092,-381.5432C1404.8995,-410.5335 1536.0125,-475.3952 1590,-580.4228 1612.755,-624.6905 1598.2482,-643.328 1590,-692.4135 1537.0456,-1007.548 1553.7939,-1121.7285 1355,-1371.9182 1257.3402,-1494.8268 1083.9805,-1575.4826 997.3356,-1610.1251"/>
<polygon fill="#000000" stroke="#000000" points="995.98,-1606.8973 987.9655,-1613.8269 998.552,-1613.4077 995.98,-1606.8973"/>
<text text-anchor="start" x="1539" y="-1093.2943" font-family="Times,serif" font-style="italic" font-size="14.00" fill="#000000">&quot;PollEvents&quot; &#45;&gt; &quot;RefreshAuth&quot;</text>
<text text-anchor="start" x="1586.5" y="-1071.2943" font-family="Times,serif" font-size="14.00" fill="#000000">RefreshToken</text>
<text text-anchor="start" x="1569" y="-1050.2943" font-family="Times,serif" font-size="14.00" fill="#000000">PendingDisplayDate</text>
</g>
<!-- PollEvents&#45;&gt;RequestCodes -->
<g id="edge7" class="edge">
<title>PollEvents&#45;&gt;RequestCodes</title>
<path fill="none" stroke="#000000" d="M1233.7363,-383.3943C1210.4122,-395.034 1184.0066,-411.9423 1167,-434.4228 1131.0895,-481.8918 1129.0531,-643.5949 1095,-692.4135 1023.366,-795.1083 698.8227,-912.5491 638,-1021.9943 562.2757,-1158.2536 711.4541,-1250.2486 614,-1371.9182 593.8364,-1397.092 510.3163,-1416.4707 452.9764,-1427.1362"/>
<polygon fill="#000000" stroke="#000000" points="452.1615,-1423.727 442.9507,-1428.9625 453.416,-1430.6137 452.1615,-1423.727"/>
<text text-anchor="start" x="789.5" y="-948.0039" font-family="Times,serif" font-style="italic" font-size="14.00" fill="#000000">&quot;PollEvents&quot; &#45;&gt; &quot;RequestCodes&quot;</text>
</g>
<!-- ReadFirstEvents&#45;&gt;CachedDisplay -->
<g id="edge26" class="edge">
<title>ReadFirstEvents&#45;&gt;CachedDisplay</title>
<path fill="none" stroke="#000000" d="M1252.8029,-953.9637C1341.1851,-959.8086 1513.0544,-976.828 1550,-1021.9943 1620.4675,-1108.1413 1426.0172,-1391.8803 1403,-1500.771 1368.6009,-1663.508 1436.0801,-1715.4869 1388,-1874.7192 1374.2094,-1920.3911 1345.0001,-1966.2661 1321.3589,-1998.4647"/>
<polygon fill="#000000" stroke="#000000" points="1318.345,-1996.6514 1315.1695,-2006.7591 1323.9552,-2000.8378 1318.345,-1996.6514"/>
<text text-anchor="start" x="1407" y="-1551.071" font-family="Times,serif" font-style="italic" font-size="14.00" fill="#000000">&quot;ReadFirstEvents&quot; &#45;&gt; &quot;CachedDisplay&quot;</text>
<text text-anchor="start" x="1478.5" y="-1529.071" font-family="Times,serif" font-size="14.00" fill="#000000">RefreshToken</text>
<text text-anchor="start" x="1474.5" y="-1508.071" font-family="Times,serif" font-size="14.00" fill="#000000">LastNetErrorAt</text>
</g>
<!-- ReadFirstEvents&#45;&gt;DisplayError -->
<g id="edge20" class="edge">
<title>ReadFirstEvents&#45;&gt;DisplayError</title>
<path fill="none" stroke="#000000" d="M1155.1815,-922.7962C1091.6796,-880.2809 976.0267,-794.1285 911,-692.4135 878.7039,-641.8959 874.5223,-476.6949 832,-434.4228 806.4619,-409.0349 712.4249,-386.4389 651.043,-373.945"/>
<polygon fill="#000000" stroke="#000000" points="651.6057,-370.4882 641.1126,-371.9536 650.2292,-377.3516 651.6057,-370.4882"/>
<text text-anchor="start" x="915.5" y="-644.2182" font-family="Times,serif" font-style="italic" font-size="14.00" fill="#000000">&quot;ReadFirstEvents&quot; &#45;&gt; &quot;DisplayError&quot;</text>
<text text-anchor="start" x="1003" y="-622.2182" font-family="Times,serif" font-size="14.00" fill="#000000">String</text>
</g>
<!-- ReadFirstEvents&#45;&gt;PageEvents -->
<g id="edge23" class="edge">
<title>ReadFirstEvents&#45;&gt;PageEvents</title>
<path fill="none" stroke="#000000" d="M1168.9688,-908.3642C1164.0311,-899.5151 1159.6745,-889.9682 1157,-880.4135 1136.6336,-807.6547 1140.0399,-784.041 1157,-710.4135 1158.1725,-705.3235 1159.7444,-700.178 1161.5777,-695.0967"/>
<polygon fill="#000000" stroke="#000000" points="1164.975,-696.0225 1165.3893,-685.4358 1158.4634,-693.4535 1164.975,-696.0225"/>
<text text-anchor="start" x="1161" y="-866.2135" font-family="Times,serif" font-style="italic" font-size="14.00" fill="#000000">&quot;ReadFirstEvents&quot; &#45;&gt; &quot;PageEvents&quot;</text>
<text text-anchor="start" x="1221" y="-844.2135" font-family="Times,serif" font-size="14.00" fill="#000000">Authenticators</text>
<text text-anchor="start" x="1203.5" y="-823.2135" font-family="Times,serif" font-size="14.00" fill="#000000">Option&lt;PageToken&gt;</text>
<text text-anchor="start" x="1222" y="-802.2135" font-family="Times,serif" font-size="14.00" fill="#000000">Appointments</text>
<text text-anchor="start" x="1226.5" y="-781.2135" font-family="Times,serif" font-size="14.00" fill="#000000">RefreshedAt</text>
<text text-anchor="start" x="1219.5" y="-760.2135" font-family="Times,serif" font-size="14.00" fill="#000000">DownloadedAt</text>
<text text-anchor="start" x="1226" y="-739.2135" font-family="Times,serif" font-size="14.00" fill="#000000">RefreshType</text>
<text text-anchor="start" x="1205" y="-718.2135" font-family="Times,serif" font-size="14.00" fill="#000000">PendingDisplayDate</text>
</g>
<!-- RefreshAuth&#45;&gt;CachedDisplay -->
<g id="edge25" class="edge">
<title>RefreshAuth&#45;&gt;CachedDisplay</title>
<path fill="none" stroke="#000000" d="M990.3214,-1637.7399C1044.5106,-1648.5381 1130.5961,-1668.9696 1152,-1693.2096 1206.219,-1754.6129 1155.1088,-1798.0682 1184,-1874.7192 1200.7715,-1919.2155 1229.562,-1965.0318 1252.2874,-1997.5105"/>
<polygon fill="#000000" stroke="#000000" points="1249.5851,-1999.7507 1258.2216,-2005.8876 1255.2971,-1995.7044 1249.5851,-1999.7507"/>
<text text-anchor="start" x="1188" y="-1843.2644" font-family="Times,serif" font-style="italic" font-size="14.00" fill="#000000">&quot;RefreshAuth&quot; &#45;&gt; &quot;CachedDisplay&quot;</text>
<text text-anchor="start" x="1247.5" y="-1821.2644" font-family="Times,serif" font-size="14.00" fill="#000000">RefreshToken</text>
<text text-anchor="start" x="1243.5" y="-1800.2644" font-family="Times,serif" font-size="14.00" fill="#000000">LastNetErrorAt</text>
</g>
<!-- RefreshAuth&#45;&gt;DisplayError -->
<g id="edge21" class="edge">
<title>RefreshAuth&#45;&gt;DisplayError</title>
<path fill="none" stroke="#000000" d="M934.3552,-1584.7262C933.0848,-1578.3879 931.9161,-1571.9327 931,-1565.771 926.5435,-1535.7963 906.3897,-1046.0808 888,-1021.9943 873.6675,-1003.2218 852.6405,-1022.5276 838,-1003.9943 797.3043,-952.4781 826.0993,-772.5817 805,-710.4135 764.7893,-591.9344 679.4472,-470.5748 631.1792,-407.6255"/>
<polygon fill="#000000" stroke="#000000" points="633.7913,-405.2815 624.9094,-399.5054 628.2507,-409.5596 633.7913,-405.2815"/>
<text text-anchor="start" x="908" y="-1083.2943" font-family="Times,serif" font-style="italic" font-size="14.00" fill="#000000">&quot;RefreshAuth&quot; &#45;&gt; &quot;DisplayError&quot;</text>
<text text-anchor="start" x="984" y="-1061.2943" font-family="Times,serif" font-size="14.00" fill="#000000">String</text>
</g>
<!-- RefreshAuth&#45;&gt;ReadFirstEvents -->
<g id="edge14" class="edge">
<title>RefreshAuth&#45;&gt;ReadFirstEvents</title>
<path fill="none" stroke="#000000" d="M969.7916,-1591.0201C974.9341,-1582.7593 980.2344,-1574.0294 985,-1565.771 1060.5902,-1434.779 1057.8061,-1389.1896 1144,-1264.9182 1150.1003,-1256.123 1155.5327,-1256.645 1160,-1246.9182 1194.4101,-1171.9966 1201.4962,-1075.9481 1201.9324,-1013.9923"/>
<polygon fill="#000000" stroke="#000000" points="1205.4323,-1013.9766 1201.947,-1003.9715 1198.4324,-1013.9663 1205.4323,-1013.9766"/>
<text text-anchor="start" x="1148.5" y="-1357.2182" font-family="Times,serif" font-style="italic" font-size="14.00" fill="#000000">&quot;RefreshAuth&quot; &#45;&gt; &quot;ReadFirstEvents&quot;</text>
<text text-anchor="start" x="1210" y="-1335.2182" font-family="Times,serif" font-size="14.00" fill="#000000">Authenticators</text>
<text text-anchor="start" x="1215.5" y="-1314.2182" font-family="Times,serif" font-size="14.00" fill="#000000">RefreshedAt</text>
<text text-anchor="start" x="1215" y="-1293.2182" font-family="Times,serif" font-size="14.00" fill="#000000">RefreshType</text>
<text text-anchor="start" x="1194" y="-1272.2182" font-family="Times,serif" font-size="14.00" fill="#000000">PendingDisplayDate</text>
</g>
<!-- RefreshAuth&#45;&gt;RequestCodes -->
<g id="edge8" class="edge">
<title>RefreshAuth&#45;&gt;RequestCodes</title>
<path fill="none" stroke="#000000" d="M906.1116,-1604.8159C891.8104,-1596.8369 875.1541,-1588.7677 859,-1583.771 790.214,-1562.4944 759.8192,-1602.6841 698,-1565.771 667.8324,-1547.7575 681.8818,-1520.7812 653,-1500.771 620.9063,-1478.5354 518.1313,-1457.3589 452.9778,-1445.6815"/>
<polygon fill="#000000" stroke="#000000" points="453.3178,-1442.1873 442.8607,-1443.8902 452.0973,-1449.0801 453.3178,-1442.1873"/>
<text text-anchor="start" x="702" y="-1530.071" font-family="Times,serif" font-style="italic" font-size="14.00" fill="#000000">&quot;RefreshAuth&quot; &#45;&gt; &quot;RequestCodes&quot;</text>
</g>
<!-- RequestCodes&#45;&gt;DeviceAuthPoll -->
<g id="edge16" class="edge">
<title>RequestCodes&#45;&gt;DeviceAuthPoll</title>
<path fill="none" stroke="#000000" d="M384.7519,-1391.3719C377.43,-1354.3861 373.6873,-1302.1825 398,-1264.9182 418.4696,-1233.5442 457.1669,-1216.5186 490.3916,-1207.3544"/>
<polygon fill="#000000" stroke="#000000" points="491.6872,-1210.6352 500.5008,-1204.7555 489.9443,-1203.8556 491.6872,-1210.6352"/>
<text text-anchor="start" x="402" y="-1336.2182" font-family="Times,serif" font-style="italic" font-size="14.00" fill="#000000">&quot;RequestCodes&quot; &#45;&gt; &quot;DeviceAuthPoll&quot;</text>
<text text-anchor="start" x="489" y="-1314.2182" font-family="Times,serif" font-size="14.00" fill="#000000">String</text>
<text text-anchor="start" x="465.5" y="-1293.2182" font-family="Times,serif" font-size="14.00" fill="#000000">PeriodSeconds</text>
</g>
<!-- RequestCodes&#45;&gt;DisplayError -->
<g id="edge22" class="edge">
<title>RequestCodes&#45;&gt;DisplayError</title>
<path fill="none" stroke="#000000" d="M382.3547,-1391.9689C380.6129,-1385.3102 379.0748,-1378.4777 378,-1371.9182 351.5404,-1210.4314 367.1117,-1167.6048 364,-1003.9943 363.1077,-957.078 332.9602,-933.6054 364,-898.4135 406.3725,-850.3731 460.6896,-924.6702 507,-880.4135 540.1665,-848.7179 576.2848,-546.5354 590.1412,-419.4998"/>
<polygon fill="#000000" stroke="#000000" points="593.6584,-419.5301 591.2565,-409.2111 586.6991,-418.7757 593.6584,-419.5301"/>
<text text-anchor="start" x="368" y="-959.0039" font-family="Times,serif" font-style="italic" font-size="14.00" fill="#000000">&quot;RequestCodes&quot; &#45;&gt; &quot;DisplayError&quot;</text>
<text text-anchor="start" x="449" y="-937.0039" font-family="Times,serif" font-size="14.00" fill="#000000">String</text>
</g>
<!-- _start -->
<g id="node12" class="node">
<title>_start</title>
<ellipse fill="#000000" stroke="#000000" cx="525" cy="-195.1116" rx="1.8" ry="1.8"/>
</g>
<!-- _start&#45;&gt;LoadAuth -->
<g id="edge1" class="edge">
<title>_start&#45;&gt;LoadAuth</title>
<path fill="none" stroke="#000000" d="M525.1,-192.8253C525.4187,-182.5176 525.2998,-139.9342 503,-118.2918 473.6116,-89.7698 364.3634,-68.9977 294.7522,-58.3136"/>
<polygon fill="#000000" stroke="#000000" points="295.1935,-54.8407 284.7835,-56.8107 294.15,-61.7625 295.1935,-54.8407"/>
<text text-anchor="start" x="521" y="-126.5918" font-family="Times,serif" font-weight="bold" font-style="italic" font-size="14.00" fill="#000000"> &#45;&gt; &quot;LoadAuth&quot;</text>
</g>
</g>
</svg>
