<?xml version="1.0" encoding="UTF-8" standalone="no"?>
<!DOCTYPE svg PUBLIC "-//W3C//DTD SVG 1.1//EN"
 "http://www.w3.org/Graphics/SVG/1.1/DTD/svg11.dtd">
<!-- Generated by graphviz version 2.40.1 (20161225.0304)
 -->
<!-- Title: cal_stm Pages: 1 -->
<svg width="599pt" height="914pt"
 viewBox="0.00 0.00 599.00 914.00" xmlns="http://www.w3.org/2000/svg" xmlns:xlink="http://www.w3.org/1999/xlink">
<g id="graph0" class="graph" transform="scale(1 1) rotate(0) translate(4 910)">
<title>cal_stm</title>
<polygon fill="#ffffff" stroke="transparent" points="-4,4 -4,-910 595,-910 595,4 -4,4"/>
<!-- DisplayError -->
<g id="node1" class="node">
<title>DisplayError</title>
<ellipse fill="none" stroke="#000000" cx="220" cy="-888" rx="56.59" ry="18"/>
<text text-anchor="middle" x="220" y="-884.3" font-family="Times,serif" font-size="14.00" fill="#000000">DisplayError</text>
</g>
<!-- ErrorWait -->
<g id="node2" class="node">
<title>ErrorWait</title>
<ellipse fill="none" stroke="#000000" cx="243" cy="-801" rx="46.5926" ry="18"/>
<text text-anchor="middle" x="243" y="-797.3" font-family="Times,serif" font-size="14.00" fill="#000000">ErrorWait</text>
</g>
<!-- DisplayError&#45;&gt;ErrorWait -->
<g id="edge3" class="edge">
<title>DisplayError&#45;&gt;ErrorWait</title>
<path fill="none" stroke="#000000" d="M218.0686,-869.7128C217.5915,-859.8361 217.9223,-847.5412 221,-837 221.9443,-833.7657 223.2596,-830.5314 224.7821,-827.4015"/>
<polygon fill="#000000" stroke="#000000" points="227.9742,-828.8645 229.8071,-818.4294 221.8668,-825.4439 227.9742,-828.8645"/>
<text text-anchor="middle" x="262.5" y="-840.8" font-family="Times,serif" font-size="14.00" fill="#000000">DownloadedAt</text>
</g>
<!-- Load -->
<g id="node3" class="node">
<title>Load</title>
<ellipse fill="none" stroke="#000000" cx="176" cy="-714" rx="28.6953" ry="18"/>
<text text-anchor="middle" x="176" y="-710.3" font-family="Times,serif" font-size="14.00" fill="#000000">Load</text>
</g>
<!-- ErrorWait&#45;&gt;Load -->
<g id="edge2" class="edge">
<title>ErrorWait&#45;&gt;Load</title>
<path fill="none" stroke="#000000" d="M229.4416,-783.3943C219.4687,-770.4445 205.7888,-752.681 194.7663,-738.3682"/>
<polygon fill="#000000" stroke="#000000" points="197.5063,-736.1897 188.6317,-730.4024 191.9602,-740.4608 197.5063,-736.1897"/>
</g>
<!-- RequestCodes -->
<g id="node9" class="node">
<title>RequestCodes</title>
<ellipse fill="none" stroke="#000000" cx="257" cy="-627" rx="61.1893" ry="18"/>
<text text-anchor="middle" x="257" y="-623.3" font-family="Times,serif" font-size="14.00" fill="#000000">RequestCodes</text>
</g>
<!-- ErrorWait&#45;&gt;RequestCodes -->
<g id="edge4" class="edge">
<title>ErrorWait&#45;&gt;RequestCodes</title>
<path fill="none" stroke="#000000" d="M244.4718,-782.7078C246.9149,-752.3436 251.8246,-691.3226 254.7193,-655.3464"/>
<polygon fill="#000000" stroke="#000000" points="258.2346,-655.2956 255.5479,-645.0471 251.2571,-654.7341 258.2346,-655.2956"/>
</g>
<!-- Load&#45;&gt;DisplayError -->
<g id="edge15" class="edge">
<title>Load&#45;&gt;DisplayError</title>
<path fill="none" stroke="#000000" d="M160.7486,-729.5231C142.3636,-750.2111 115.727,-787.8338 131,-819 141.2496,-839.9154 161.2337,-856.3071 179.6724,-867.8559"/>
<polygon fill="#000000" stroke="#000000" points="177.8892,-870.8676 188.2718,-872.9773 181.471,-864.8533 177.8892,-870.8676"/>
<text text-anchor="middle" x="148" y="-797.3" font-family="Times,serif" font-size="14.00" fill="#000000">String</text>
</g>
<!-- Refresh -->
<g id="node7" class="node">
<title>Refresh</title>
<ellipse fill="none" stroke="#000000" cx="160" cy="-18" rx="38.1938" ry="18"/>
<text text-anchor="middle" x="160" y="-14.3" font-family="Times,serif" font-size="14.00" fill="#000000">Refresh</text>
</g>
<!-- Load&#45;&gt;Refresh -->
<g id="edge8" class="edge">
<title>Load&#45;&gt;Refresh</title>
<path fill="none" stroke="#000000" d="M165.7991,-696.9492C135.1528,-644.0527 46,-477.2591 46,-327 46,-327 46,-327 46,-120 46,-81.2415 73.6292,-79.2899 103,-54 110.0241,-47.9518 118.1573,-42.2005 126.0412,-37.1411"/>
<polygon fill="#000000" stroke="#000000" points="128.1017,-39.9821 134.7639,-31.7441 124.4185,-34.0294 128.1017,-39.9821"/>
<text text-anchor="middle" x="96.5" y="-404.3" font-family="Times,serif" font-size="14.00" fill="#000000">RefreshToken</text>
</g>
<!-- Load&#45;&gt;RequestCodes -->
<g id="edge5" class="edge">
<title>Load&#45;&gt;RequestCodes</title>
<path fill="none" stroke="#000000" d="M190.4812,-698.4461C202.4937,-685.5438 219.8023,-666.9531 233.7523,-651.9698"/>
<polygon fill="#000000" stroke="#000000" points="236.4427,-654.2165 240.6952,-644.5125 231.3194,-649.4465 236.4427,-654.2165"/>
</g>
<!-- Page -->
<g id="node4" class="node">
<title>Page</title>
<ellipse fill="none" stroke="#000000" cx="201" cy="-241.5" rx="27.8951" ry="18"/>
<text text-anchor="middle" x="201" y="-237.8" font-family="Times,serif" font-size="14.00" fill="#000000">Page</text>
</g>
<!-- Page&#45;&gt;DisplayError -->
<g id="edge16" class="edge">
<title>Page&#45;&gt;DisplayError</title>
<path fill="none" stroke="#000000" d="M195.5602,-259.2173C185.2945,-292.2839 162.0219,-365.5231 139,-426 113.2136,-493.7391 75,-503.5188 75,-576 75,-801 75,-801 75,-801 75,-843.0376 120.3663,-865.2676 160.3478,-876.6964"/>
<polygon fill="#000000" stroke="#000000" points="159.5342,-880.1018 170.0992,-879.3082 161.3452,-873.3401 159.5342,-880.1018"/>
<text text-anchor="middle" x="92" y="-623.3" font-family="Times,serif" font-size="14.00" fill="#000000">String</text>
</g>
<!-- RefreshingWait -->
<g id="node8" class="node">
<title>RefreshingWait</title>
<ellipse fill="none" stroke="#000000" cx="168" cy="-120" rx="66.8882" ry="18"/>
<text text-anchor="middle" x="168" y="-116.3" font-family="Times,serif" font-size="14.00" fill="#000000">RefreshingWait</text>
</g>
<!-- Page&#45;&gt;RefreshingWait -->
<g id="edge25" class="edge">
<title>Page&#45;&gt;RefreshingWait</title>
<path fill="none" stroke="#000000" d="M185.1974,-226.4527C178.8959,-219.3947 172.3519,-210.4602 169,-201 163.0849,-184.3056 162.7475,-164.434 163.9316,-148.5513"/>
<polygon fill="#000000" stroke="#000000" points="167.4461,-148.5762 164.9446,-138.2809 160.4799,-147.8891 167.4461,-148.5762"/>
<text text-anchor="middle" x="211.5" y="-182.3" font-family="Times,serif" font-size="14.00" fill="#000000">RefreshToken</text>
<text text-anchor="middle" x="211.5" y="-167.3" font-family="Times,serif" font-size="14.00" fill="#000000">LastNetErrorAt</text>
</g>
<!-- Wait -->
<g id="node10" class="node">
<title>Wait</title>
<ellipse fill="none" stroke="#000000" cx="350" cy="-120" rx="28.6953" ry="18"/>
<text text-anchor="middle" x="350" y="-116.3" font-family="Times,serif" font-size="14.00" fill="#000000">Wait</text>
</g>
<!-- Page&#45;&gt;Wait -->
<g id="edge22" class="edge">
<title>Page&#45;&gt;Wait</title>
<path fill="none" stroke="#000000" d="M220.9062,-228.6429C232.1603,-221.0622 246.2801,-211.0165 258,-201 279.2638,-182.8266 280.9719,-174.4456 302,-156 308.387,-150.3974 315.5766,-144.7105 322.409,-139.5617"/>
<polygon fill="#000000" stroke="#000000" points="324.821,-142.1314 330.785,-133.3747 320.6619,-136.5009 324.821,-142.1314"/>
<text text-anchor="middle" x="343.5" y="-189.8" font-family="Times,serif" font-size="14.00" fill="#000000">Authenticators</text>
<text text-anchor="middle" x="343.5" y="-174.8" font-family="Times,serif" font-size="14.00" fill="#000000">RefreshedAt</text>
<text text-anchor="middle" x="343.5" y="-159.8" font-family="Times,serif" font-size="14.00" fill="#000000">DownloadedAt</text>
</g>
<!-- Poll -->
<g id="node5" class="node">
<title>Poll</title>
<ellipse fill="none" stroke="#000000" cx="447" cy="-525" rx="27" ry="18"/>
<text text-anchor="middle" x="447" y="-521.3" font-family="Times,serif" font-size="14.00" fill="#000000">Poll</text>
</g>
<!-- Poll&#45;&gt;DisplayError -->
<g id="edge17" class="edge">
<title>Poll&#45;&gt;DisplayError</title>
<path fill="none" stroke="#000000" d="M446.1483,-543.0519C445.2614,-563.4341 444,-597.5915 444,-627 444,-801 444,-801 444,-801 444,-829.2668 429.937,-836.9656 406,-852 385.8671,-864.6451 329.1573,-874.4889 283.602,-880.6628"/>
<polygon fill="#000000" stroke="#000000" points="282.9334,-877.2206 273.4779,-882.0002 283.8502,-884.1603 282.9334,-877.2206"/>
<text text-anchor="middle" x="461" y="-710.3" font-family="Times,serif" font-size="14.00" fill="#000000">String</text>
</g>
<!-- ReadFirst -->
<g id="node6" class="node">
<title>ReadFirst</title>
<ellipse fill="none" stroke="#000000" cx="398" cy="-408" rx="44.6926" ry="18"/>
<text text-anchor="middle" x="398" y="-404.3" font-family="Times,serif" font-size="14.00" fill="#000000">ReadFirst</text>
</g>
<!-- Poll&#45;&gt;ReadFirst -->
<g id="edge11" class="edge">
<title>Poll&#45;&gt;ReadFirst</title>
<path fill="none" stroke="#000000" d="M439.6642,-507.4839C431.664,-488.3814 418.7568,-457.5621 409.4267,-435.2842"/>
<polygon fill="#000000" stroke="#000000" points="412.6385,-433.8926 405.5472,-426.0208 406.1819,-436.5967 412.6385,-433.8926"/>
<text text-anchor="middle" x="471" y="-477.8" font-family="Times,serif" font-size="14.00" fill="#000000">Authenticators</text>
<text text-anchor="middle" x="471" y="-462.8" font-family="Times,serif" font-size="14.00" fill="#000000">RefreshedAt</text>
<text text-anchor="middle" x="471" y="-447.8" font-family="Times,serif" font-size="14.00" fill="#000000">RefreshType</text>
</g>
<!-- ReadFirst&#45;&gt;DisplayError -->
<g id="edge18" class="edge">
<title>ReadFirst&#45;&gt;DisplayError</title>
<path fill="none" stroke="#000000" d="M396.4859,-426.2245C394.7085,-449.2265 392,-490.0166 392,-525 392,-801 392,-801 392,-801 392,-851.091 333.1943,-872.3487 284.3522,-881.3659"/>
<polygon fill="#000000" stroke="#000000" points="283.6905,-877.9281 274.4219,-883.0607 284.8682,-884.8283 283.6905,-877.9281"/>
<text text-anchor="middle" x="409" y="-666.8" font-family="Times,serif" font-size="14.00" fill="#000000">String</text>
</g>
<!-- ReadFirst&#45;&gt;Page -->
<g id="edge21" class="edge">
<title>ReadFirst&#45;&gt;Page</title>
<path fill="none" stroke="#000000" d="M355.0787,-402.3048C316.5302,-396.3874 263.6614,-386.0248 248,-372 218.6021,-345.6741 207.5821,-299.5769 203.4578,-269.8088"/>
<polygon fill="#000000" stroke="#000000" points="206.9043,-269.1547 202.2291,-259.6473 199.955,-269.9951 206.9043,-269.1547"/>
<text text-anchor="middle" x="305.5" y="-360.8" font-family="Times,serif" font-size="14.00" fill="#000000">Authenticators</text>
<text text-anchor="middle" x="305.5" y="-345.8" font-family="Times,serif" font-size="14.00" fill="#000000">Option&lt;PageToken&gt;</text>
<text text-anchor="middle" x="305.5" y="-330.8" font-family="Times,serif" font-size="14.00" fill="#000000">Appointments</text>
<text text-anchor="middle" x="305.5" y="-315.8" font-family="Times,serif" font-size="14.00" fill="#000000">RefreshedAt</text>
<text text-anchor="middle" x="305.5" y="-300.8" font-family="Times,serif" font-size="14.00" fill="#000000">DownloadedAt</text>
<text text-anchor="middle" x="305.5" y="-285.8" font-family="Times,serif" font-size="14.00" fill="#000000">RefreshType</text>
</g>
<!-- ReadFirst&#45;&gt;RefreshingWait -->
<g id="edge24" class="edge">
<title>ReadFirst&#45;&gt;RefreshingWait</title>
<path fill="none" stroke="#000000" d="M396.0351,-389.6801C392.6177,-364.0164 383.8355,-316.6265 363,-282 357.0027,-272.033 352.3031,-272.1466 344,-264 315.9584,-236.4868 306.3029,-231.8655 282,-201 267.4278,-182.4928 271.9353,-171.2705 254,-156 244.9495,-148.2942 234.0145,-142.047 223.0209,-137.0556"/>
<polygon fill="#000000" stroke="#000000" points="224.3857,-133.8327 213.8127,-133.1538 221.6546,-140.278 224.3857,-133.8327"/>
<text text-anchor="middle" x="386.5" y="-245.3" font-family="Times,serif" font-size="14.00" fill="#000000">RefreshToken</text>
<text text-anchor="middle" x="386.5" y="-230.3" font-family="Times,serif" font-size="14.00" fill="#000000">LastNetErrorAt</text>
</g>
<!-- Refresh&#45;&gt;DisplayError -->
<g id="edge19" class="edge">
<title>Refresh&#45;&gt;DisplayError</title>
<path fill="none" stroke="#000000" d="M124.0929,-24.3966C76.9196,-35.1037 0,-61.5276 0,-120 0,-801 0,-801 0,-801 0,-835.6983 95.8331,-862.4922 160.9988,-876.7008"/>
<polygon fill="#000000" stroke="#000000" points="160.6646,-880.2082 171.1749,-878.8724 162.1256,-873.3624 160.6646,-880.2082"/>
<text text-anchor="middle" x="17" y="-521.3" font-family="Times,serif" font-size="14.00" fill="#000000">String</text>
</g>
<!-- Refresh&#45;&gt;ReadFirst -->
<g id="edge12" class="edge">
<title>Refresh&#45;&gt;ReadFirst</title>
<path fill="none" stroke="#000000" d="M198.3992,-20.2683C256.7286,-24.3022 364.3356,-34.2242 397,-54 474.7925,-101.0973 489.7069,-132.5747 518,-219 539.88,-285.8357 470.8853,-352.6088 428.5438,-386.0201"/>
<polygon fill="#000000" stroke="#000000" points="426.2486,-383.3702 420.4657,-392.2476 430.5225,-388.914 426.2486,-383.3702"/>
<text text-anchor="middle" x="551" y="-189.8" font-family="Times,serif" font-size="14.00" fill="#000000">Authenticators</text>
<text text-anchor="middle" x="551" y="-174.8" font-family="Times,serif" font-size="14.00" fill="#000000">RefreshedAt</text>
<text text-anchor="middle" x="551" y="-159.8" font-family="Times,serif" font-size="14.00" fill="#000000">RefreshType</text>
</g>
<!-- Refresh&#45;&gt;RefreshingWait -->
<g id="edge23" class="edge">
<title>Refresh&#45;&gt;RefreshingWait</title>
<path fill="none" stroke="#000000" d="M176.5451,-34.5457C181.1678,-40.2363 185.5845,-46.96 188,-54 192.3272,-66.6116 191.3446,-71.093 188,-84 187.2182,-87.0172 186.1226,-90.0507 184.8429,-93.0075"/>
<polygon fill="#000000" stroke="#000000" points="181.6482,-91.5703 180.2862,-102.0773 187.9031,-94.7129 181.6482,-91.5703"/>
<text text-anchor="middle" x="232.5" y="-72.8" font-family="Times,serif" font-size="14.00" fill="#000000">RefreshToken</text>
<text text-anchor="middle" x="232.5" y="-57.8" font-family="Times,serif" font-size="14.00" fill="#000000">LastNetErrorAt</text>
</g>
<!-- RefreshingWait&#45;&gt;Refresh -->
<g id="edge9" class="edge">
<title>RefreshingWait&#45;&gt;Refresh</title>
<path fill="none" stroke="#000000" d="M131.8104,-104.7449C123.5141,-99.4461 115.7458,-92.6103 111,-84 104.5639,-72.3229 104.9784,-65.8961 111,-54 114.3431,-47.3955 119.5314,-41.708 125.3032,-36.9307"/>
<polygon fill="#000000" stroke="#000000" points="127.4232,-39.7162 133.4169,-30.9797 123.2833,-34.0717 127.4232,-39.7162"/>
<text text-anchor="middle" x="149.5" y="-65.3" font-family="Times,serif" font-size="14.00" fill="#000000">RefreshToken</text>
</g>
<!-- RefreshingWait&#45;&gt;RequestCodes -->
<g id="edge6" class="edge">
<title>RefreshingWait&#45;&gt;RequestCodes</title>
<path fill="none" stroke="#000000" d="M163.1483,-138.1847C161.8567,-143.8487 160.6427,-150.1449 160,-156 154.7588,-203.7461 156.4848,-216.5586 164,-264 184.1582,-391.2525 228.7847,-538.8615 247.9579,-599.1749"/>
<polygon fill="#000000" stroke="#000000" points="244.639,-600.2877 251.0202,-608.7453 251.306,-598.1543 244.639,-600.2877"/>
</g>
<!-- RequestCodes&#45;&gt;DisplayError -->
<g id="edge20" class="edge">
<title>RequestCodes&#45;&gt;DisplayError</title>
<path fill="none" stroke="#000000" d="M268.8798,-644.7218C294.2676,-685.0209 348.0452,-785.2037 304,-852 297.5824,-861.7325 287.9289,-868.8439 277.4257,-874.037"/>
<polygon fill="#000000" stroke="#000000" points="275.8085,-870.9236 268.0368,-878.1244 278.6027,-877.3418 275.8085,-870.9236"/>
<text text-anchor="middle" x="335" y="-753.8" font-family="Times,serif" font-size="14.00" fill="#000000">String</text>
</g>
<!-- RequestCodes&#45;&gt;Poll -->
<g id="edge14" class="edge">
<title>RequestCodes&#45;&gt;Poll</title>
<path fill="none" stroke="#000000" d="M277.4976,-609.8115C295.4757,-595.3608 322.7709,-574.8952 349,-561 369.1862,-550.3061 393.2488,-541.4164 412.4785,-535.1462"/>
<polygon fill="#000000" stroke="#000000" points="413.5743,-538.4706 422.0478,-532.1104 411.4575,-531.7983 413.5743,-538.4706"/>
<text text-anchor="middle" x="389.5" y="-579.8" font-family="Times,serif" font-size="14.00" fill="#000000">String</text>
<text text-anchor="middle" x="389.5" y="-564.8" font-family="Times,serif" font-size="14.00" fill="#000000">PeriodSeconds</text>
</g>
<!-- Wait&#45;&gt;ReadFirst -->
<g id="edge13" class="edge">
<title>Wait&#45;&gt;ReadFirst</title>
<path fill="none" stroke="#000000" d="M376.0749,-127.8013C389.647,-133.3362 405.0331,-142.2717 413,-156 454.6908,-227.8408 426.4324,-331.4237 408.944,-380.3776"/>
<polygon fill="#000000" stroke="#000000" points="405.5851,-379.3702 405.4047,-389.9635 412.1518,-381.7948 405.5851,-379.3702"/>
<text text-anchor="middle" x="474" y="-252.8" font-family="Times,serif" font-size="14.00" fill="#000000">Authenticators</text>
<text text-anchor="middle" x="474" y="-237.8" font-family="Times,serif" font-size="14.00" fill="#000000">RefreshedAt</text>
<text text-anchor="middle" x="474" y="-222.8" font-family="Times,serif" font-size="14.00" fill="#000000">RefreshType</text>
</g>
<!-- Wait&#45;&gt;Refresh -->
<g id="edge10" class="edge">
<title>Wait&#45;&gt;Refresh</title>
<path fill="none" stroke="#000000" d="M336.6377,-103.927C323.4252,-89.0016 301.9122,-67.1595 279,-54 256.5002,-41.0773 228.8916,-32.353 205.9333,-26.7335"/>
<polygon fill="#000000" stroke="#000000" points="206.6113,-23.2978 196.0781,-24.4392 205.0241,-30.1155 206.6113,-23.2978"/>
<text text-anchor="middle" x="354.5" y="-65.3" font-family="Times,serif" font-size="14.00" fill="#000000">RefreshToken</text>
</g>
<!-- Wait&#45;&gt;RequestCodes -->
<g id="edge7" class="edge">
<title>Wait&#45;&gt;RequestCodes</title>
<path fill="none" stroke="#000000" d="M368.7575,-134.1194C375.174,-140.0839 381.5898,-147.6002 385,-156 392.5234,-174.531 387.6743,-181.1796 385,-201 364.0796,-356.0521 296.1031,-532.4992 268.6542,-599.3646"/>
<polygon fill="#000000" stroke="#000000" points="265.3485,-598.1997 264.7592,-608.7781 271.8166,-600.8761 265.3485,-598.1997"/>
</g>
<!-- _start -->
<g id="node11" class="node">
<title>_start</title>
<ellipse fill="#000000" stroke="#000000" cx="176" cy="-801" rx="1.8" ry="1.8"/>
</g>
<!-- _start&#45;&gt;Load -->
<g id="edge1" class="edge">
<title>_start&#45;&gt;Load</title>
<path fill="none" stroke="#000000" d="M176,-799.1829C176,-791.8854 176,-764.0502 176,-742.1595"/>
<polygon fill="#000000" stroke="#000000" points="179.5001,-742.0066 176,-732.0067 172.5001,-742.0067 179.5001,-742.0066"/>
</g>
</g>
</svg>
