<?xml version="1.0" encoding="UTF-8" standalone="no"?>
<!DOCTYPE svg PUBLIC "-//W3C//DTD SVG 1.1//EN"
 "http://www.w3.org/Graphics/SVG/1.1/DTD/svg11.dtd">
<!-- Generated by graphviz version 2.40.1 (20161225.0304)
 -->
<!-- Title: cal_stm Pages: 1 -->
<svg width="1901pt" height="1432pt"
 viewBox="0.00 0.00 1901.00 1432.00" xmlns="http://www.w3.org/2000/svg" xmlns:xlink="http://www.w3.org/1999/xlink">
<g id="graph0" class="graph" transform="scale(1 1) rotate(0) translate(4 1428)">
<title>cal_stm</title>
<polygon fill="#ffffff" stroke="transparent" points="-4,4 -4,-1428 1897,-1428 1897,4 -4,4"/>
<!-- DeviceAuthPoll -->
<g id="node1" class="node">
<title>DeviceAuthPoll</title>
<ellipse fill="none" stroke="#000000" cx="895" cy="-1406" rx="67.6881" ry="18"/>
<text text-anchor="middle" x="895" y="-1402.3" font-family="Times,serif" font-size="14.00" fill="#000000">DeviceAuthPoll</text>
</g>
<!-- DisplayError -->
<g id="node2" class="node">
<title>DisplayError</title>
<ellipse fill="none" stroke="#000000" cx="895" cy="-1290" rx="56.59" ry="18"/>
<text text-anchor="middle" x="895" y="-1286.3" font-family="Times,serif" font-size="14.00" fill="#000000">DisplayError</text>
</g>
<!-- DeviceAuthPoll&#45;&gt;DisplayError -->
<g id="edge18" class="edge">
<title>DeviceAuthPoll&#45;&gt;DisplayError</title>
<path fill="none" stroke="#000000" d="M895,-1387.875C895,-1369.3412 895,-1340.2787 895,-1318.6311"/>
<polygon fill="#000000" stroke="#000000" points="898.5001,-1318.3805 895,-1308.3805 891.5001,-1318.3806 898.5001,-1318.3805"/>
<text text-anchor="start" x="899.5" y="-1355.8" font-family="Times,serif" font-style="italic" font-size="14.00" fill="#000000">&quot;DeviceAuthPoll&quot; &#45;&gt; &quot;DisplayError&quot;</text>
<text text-anchor="start" x="985" y="-1333.8" font-family="Times,serif" font-size="14.00" fill="#000000">String</text>
</g>
<!-- ReadFirstEvents -->
<g id="node8" class="node">
<title>ReadFirstEvents</title>
<ellipse fill="none" stroke="#000000" cx="243" cy="-619.5" rx="68.7879" ry="18"/>
<text text-anchor="middle" x="243" y="-615.8" font-family="Times,serif" font-size="14.00" fill="#000000">ReadFirstEvents</text>
</g>
<!-- DeviceAuthPoll&#45;&gt;ReadFirstEvents -->
<g id="edge12" class="edge">
<title>DeviceAuthPoll&#45;&gt;ReadFirstEvents</title>
<path fill="none" stroke="#000000" d="M827.3627,-1404.3324C618.86,-1398.303 0,-1373.384 0,-1290 0,-1290 0,-1290 0,-827.5 0,-727.9224 119.2241,-665.7917 190.6506,-637.5045"/>
<polygon fill="#000000" stroke="#000000" points="192.3295,-640.608 200.3946,-633.7373 189.8052,-634.0789 192.3295,-640.608"/>
<text text-anchor="start" x="4" y="-1115.3" font-family="Times,serif" font-style="italic" font-size="14.00" fill="#000000">&quot;DeviceAuthPoll&quot; &#45;&gt; &quot;ReadFirstEvents&quot;</text>
<text text-anchor="start" x="75" y="-1093.3" font-family="Times,serif" font-size="14.00" fill="#000000">Authenticators</text>
<text text-anchor="start" x="80.5" y="-1072.3" font-family="Times,serif" font-size="14.00" fill="#000000">RefreshedAt</text>
<text text-anchor="start" x="80" y="-1051.3" font-family="Times,serif" font-size="14.00" fill="#000000">RefreshType</text>
<text text-anchor="start" x="59" y="-1030.3" font-family="Times,serif" font-size="14.00" fill="#000000">PendingDisplayDate</text>
</g>
<!-- ErrorWait -->
<g id="node3" class="node">
<title>ErrorWait</title>
<ellipse fill="none" stroke="#000000" cx="1029" cy="-1170" rx="46.5926" ry="18"/>
<text text-anchor="middle" x="1029" y="-1166.3" font-family="Times,serif" font-size="14.00" fill="#000000">ErrorWait</text>
</g>
<!-- DisplayError&#45;&gt;ErrorWait -->
<g id="edge3" class="edge">
<title>DisplayError&#45;&gt;ErrorWait</title>
<path fill="none" stroke="#000000" d="M914.1989,-1272.8069C937.4154,-1252.0161 976.6097,-1216.9166 1002.6439,-1193.6025"/>
<polygon fill="#000000" stroke="#000000" points="1005.1541,-1196.0529 1010.2687,-1186.7743 1000.4842,-1190.8382 1005.1541,-1196.0529"/>
<text text-anchor="start" x="985" y="-1239.8" font-family="Times,serif" font-style="italic" font-size="14.00" fill="#000000">&quot;DisplayError&quot; &#45;&gt; &quot;ErrorWait&quot;</text>
<text text-anchor="start" x="1031.5" y="-1217.8" font-family="Times,serif" font-size="14.00" fill="#000000">DownloadedAt</text>
</g>
<!-- LoadAuth -->
<g id="node4" class="node">
<title>LoadAuth</title>
<ellipse fill="none" stroke="#000000" cx="898" cy="-983" rx="46.2923" ry="18"/>
<text text-anchor="middle" x="898" y="-979.3" font-family="Times,serif" font-size="14.00" fill="#000000">LoadAuth</text>
</g>
<!-- ErrorWait&#45;&gt;LoadAuth -->
<g id="edge2" class="edge">
<title>ErrorWait&#45;&gt;LoadAuth</title>
<path fill="none" stroke="#000000" d="M1025.7677,-1151.833C1018.9017,-1113.6061 1003.1512,-1027.9534 999,-1023 986.6836,-1008.3034 968.2192,-998.9712 950.433,-993.0605"/>
<polygon fill="#000000" stroke="#000000" points="951.2495,-989.6511 940.6649,-990.1164 949.2295,-996.3533 951.2495,-989.6511"/>
<text text-anchor="start" x="1025.5" y="-1073.3" font-family="Times,serif" font-style="italic" font-size="14.00" fill="#000000">&quot;ErrorWait&quot; &#45;&gt; &quot;LoadAuth&quot;</text>
</g>
<!-- RequestCodes -->
<g id="node10" class="node">
<title>RequestCodes</title>
<ellipse fill="none" stroke="#000000" cx="1320" cy="-18" rx="61.1893" ry="18"/>
<text text-anchor="middle" x="1320" y="-14.3" font-family="Times,serif" font-size="14.00" fill="#000000">RequestCodes</text>
</g>
<!-- ErrorWait&#45;&gt;RequestCodes -->
<g id="edge4" class="edge">
<title>ErrorWait&#45;&gt;RequestCodes</title>
<path fill="none" stroke="#000000" d="M1073.8587,-1164.3452C1115.1614,-1158.1676 1172.2024,-1146.849 1187,-1130 1224.2145,-1087.6264 1209.9209,-933.9494 1217,-878 1233.3799,-748.5425 1163.0955,-678.6314 1256,-587 1303.8051,-539.85 1361.4395,-619.2275 1406,-569 1476.0397,-490.053 1364.4152,-145.9615 1329.7455,-45.5817"/>
<polygon fill="#000000" stroke="#000000" points="1333.0466,-44.4182 1326.4563,-36.1226 1326.4349,-46.7174 1333.0466,-44.4182"/>
<text text-anchor="start" x="1260" y="-616.3" font-family="Times,serif" font-style="italic" font-size="14.00" fill="#000000">&quot;ErrorWait&quot; &#45;&gt; &quot;RequestCodes&quot;</text>
</g>
<!-- LoadAuth&#45;&gt;DisplayError -->
<g id="edge16" class="edge">
<title>LoadAuth&#45;&gt;DisplayError</title>
<path fill="none" stroke="#000000" d="M879.0836,-999.4259C849.2733,-1026.7145 792.5434,-1084.6901 771,-1148 764.7003,-1166.5131 762.4765,-1174.3997 771,-1192 788.0509,-1227.2089 824.5692,-1253.5962 853.5831,-1270.0675"/>
<polygon fill="#000000" stroke="#000000" points="852.2535,-1273.3299 862.7053,-1275.0655 855.6171,-1267.1909 852.2535,-1273.3299"/>
<text text-anchor="start" x="775" y="-1177.8" font-family="Times,serif" font-style="italic" font-size="14.00" fill="#000000">&quot;LoadAuth&quot; &#45;&gt; &quot;DisplayError&quot;</text>
<text text-anchor="start" x="844" y="-1155.8" font-family="Times,serif" font-size="14.00" fill="#000000">String</text>
</g>
<!-- RefreshAuth -->
<g id="node9" class="node">
<title>RefreshAuth</title>
<ellipse fill="none" stroke="#000000" cx="553" cy="-827.5" rx="55.7903" ry="18"/>
<text text-anchor="middle" x="553" y="-823.8" font-family="Times,serif" font-size="14.00" fill="#000000">RefreshAuth</text>
</g>
<!-- LoadAuth&#45;&gt;RefreshAuth -->
<g id="edge8" class="edge">
<title>LoadAuth&#45;&gt;RefreshAuth</title>
<path fill="none" stroke="#000000" d="M867.6859,-969.3367C805.9691,-941.5194 665.6191,-878.2602 595.0959,-846.4737"/>
<polygon fill="#000000" stroke="#000000" points="596.1786,-843.1226 585.6237,-842.2043 593.3022,-849.5044 596.1786,-843.1226"/>
<text text-anchor="start" x="810" y="-928.3" font-family="Times,serif" font-style="italic" font-size="14.00" fill="#000000">&quot;LoadAuth&quot; &#45;&gt; &quot;RefreshAuth&quot;</text>
<text text-anchor="start" x="854.5" y="-906.3" font-family="Times,serif" font-size="14.00" fill="#000000">RefreshToken</text>
<text text-anchor="start" x="837" y="-885.3" font-family="Times,serif" font-size="14.00" fill="#000000">PendingDisplayDate</text>
</g>
<!-- LoadAuth&#45;&gt;RequestCodes -->
<g id="edge5" class="edge">
<title>LoadAuth&#45;&gt;RequestCodes</title>
<path fill="none" stroke="#000000" d="M934.6522,-972.0498C951.2542,-965.6635 970.2052,-956.212 984,-943 1119.2347,-813.479 1111.0956,-743.894 1178,-569 1178.6097,-567.4061 1284.1046,-157.4948 1312.8429,-45.8145"/>
<polygon fill="#000000" stroke="#000000" points="1316.2758,-46.5182 1315.3783,-35.9615 1309.4966,-44.7738 1316.2758,-46.5182"/>
<text text-anchor="start" x="1225" y="-480.8" font-family="Times,serif" font-style="italic" font-size="14.00" fill="#000000">&quot;LoadAuth&quot; &#45;&gt; &quot;RequestCodes&quot;</text>
</g>
<!-- NetworkOutage -->
<g id="node5" class="node">
<title>NetworkOutage</title>
<ellipse fill="none" stroke="#000000" cx="851" cy="-113" rx="66.8882" ry="18"/>
<text text-anchor="middle" x="851" y="-109.3" font-family="Times,serif" font-size="14.00" fill="#000000">NetworkOutage</text>
</g>
<!-- NetworkOutage&#45;&gt;RefreshAuth -->
<g id="edge9" class="edge">
<title>NetworkOutage&#45;&gt;RefreshAuth</title>
<path fill="none" stroke="#000000" d="M851.7991,-131.1529C852.4531,-158.849 851.49,-212.9744 837,-256 816.1746,-317.8375 803.4854,-332.3523 760,-381 751.3492,-390.6777 742.6855,-387.3309 737,-399 703.9065,-466.9225 712.4795,-497.534 737,-569 740.2891,-578.5863 747.7109,-577.4137 751,-587 760.3755,-614.3252 762.8531,-625.6548 751,-652 718.3327,-724.6077 639.1343,-779.3475 591.3894,-807.1301"/>
<polygon fill="#000000" stroke="#000000" points="589.5207,-804.1666 582.5708,-812.1635 592.9907,-810.246 589.5207,-804.1666"/>
<text text-anchor="start" x="741.5" y="-501.8" font-family="Times,serif" font-style="italic" font-size="14.00" fill="#000000">&quot;NetworkOutage&quot; &#45;&gt; &quot;RefreshAuth&quot;</text>
<text text-anchor="start" x="802.5" y="-479.8" font-family="Times,serif" font-size="14.00" fill="#000000">RefreshToken</text>
<text text-anchor="start" x="785" y="-458.8" font-family="Times,serif" font-size="14.00" fill="#000000">PendingDisplayDate</text>
</g>
<!-- NetworkOutage&#45;&gt;RequestCodes -->
<g id="edge6" class="edge">
<title>NetworkOutage&#45;&gt;RequestCodes</title>
<path fill="none" stroke="#000000" d="M881.7833,-96.9556C909.5611,-83.2315 951.939,-64.137 991,-54 1038.4019,-41.6984 1168.5454,-29.8179 1250.2259,-23.2517"/>
<polygon fill="#000000" stroke="#000000" points="1250.7397,-26.722 1260.4301,-22.4388 1250.1837,-19.7441 1250.7397,-26.722"/>
<text text-anchor="start" x="995" y="-62.3" font-family="Times,serif" font-style="italic" font-size="14.00" fill="#000000">&quot;NetworkOutage&quot; &#45;&gt; &quot;RequestCodes&quot;</text>
</g>
<!-- PageEvents -->
<g id="node6" class="node">
<title>PageEvents</title>
<ellipse fill="none" stroke="#000000" cx="699" cy="-327.5" rx="51.9908" ry="18"/>
<text text-anchor="middle" x="699" y="-323.8" font-family="Times,serif" font-size="14.00" fill="#000000">PageEvents</text>
</g>
<!-- PageEvents&#45;&gt;DisplayError -->
<g id="edge17" class="edge">
<title>PageEvents&#45;&gt;DisplayError</title>
<path fill="none" stroke="#000000" d="M749.992,-331.719C866.5275,-341.843 1144.6017,-368.9175 1174,-399 1184.0104,-409.2434 1239,-896.1774 1239,-910.5 1239,-1170 1239,-1170 1239,-1170 1239,-1218.5971 1211.5697,-1230.5586 1169,-1254 1134.3712,-1273.0686 1030.788,-1282.505 961.3731,-1286.8085"/>
<polygon fill="#000000" stroke="#000000" points="960.74,-1283.3401 950.967,-1287.4313 961.1583,-1290.3276 960.74,-1283.3401"/>
<text text-anchor="start" x="1243.5" y="-918.3" font-family="Times,serif" font-style="italic" font-size="14.00" fill="#000000">&quot;PageEvents&quot; &#45;&gt; &quot;DisplayError&quot;</text>
<text text-anchor="start" x="1318" y="-896.3" font-family="Times,serif" font-size="14.00" fill="#000000">String</text>
</g>
<!-- PageEvents&#45;&gt;NetworkOutage -->
<g id="edge26" class="edge">
<title>PageEvents&#45;&gt;NetworkOutage</title>
<path fill="none" stroke="#000000" d="M676.916,-311.1564C661.3596,-298.1721 641.7967,-278.4988 633,-256 615.6831,-211.7094 602.2343,-185.263 633,-149 642.4864,-137.8186 718.4114,-127.1512 778.0255,-120.3728"/>
<polygon fill="#000000" stroke="#000000" points="778.6428,-123.8256 788.192,-119.236 777.8649,-116.869 778.6428,-123.8256"/>
<text text-anchor="start" x="637" y="-220.3" font-family="Times,serif" font-style="italic" font-size="14.00" fill="#000000">&quot;PageEvents&quot; &#45;&gt; &quot;NetworkOutage&quot;</text>
<text text-anchor="start" x="696.5" y="-198.3" font-family="Times,serif" font-size="14.00" fill="#000000">RefreshToken</text>
<text text-anchor="start" x="692.5" y="-177.3" font-family="Times,serif" font-size="14.00" fill="#000000">LastNetErrorAt</text>
</g>
<!-- PollEvents -->
<g id="node7" class="node">
<title>PollEvents</title>
<ellipse fill="none" stroke="#000000" cx="392" cy="-113" rx="48.9926" ry="18"/>
<text text-anchor="middle" x="392" y="-109.3" font-family="Times,serif" font-size="14.00" fill="#000000">PollEvents</text>
</g>
<!-- PageEvents&#45;&gt;PollEvents -->
<g id="edge23" class="edge">
<title>PageEvents&#45;&gt;PollEvents</title>
<path fill="none" stroke="#000000" d="M683.1975,-310.0688C670.8467,-297.6986 652.5431,-281.935 633,-274 591.8591,-257.2957 468.3113,-284.184 434,-256 400.2282,-228.2592 392.7374,-174.8734 391.5494,-141.7595"/>
<polygon fill="#000000" stroke="#000000" points="395.0418,-141.3073 391.3593,-131.373 388.043,-141.4354 395.0418,-141.3073"/>
<text text-anchor="start" x="438.5" y="-241.3" font-family="Times,serif" font-style="italic" font-size="14.00" fill="#000000">&quot;PageEvents&quot; &#45;&gt; &quot;PollEvents&quot;</text>
<text text-anchor="start" x="483" y="-219.3" font-family="Times,serif" font-size="14.00" fill="#000000">Authenticators</text>
<text text-anchor="start" x="488.5" y="-198.3" font-family="Times,serif" font-size="14.00" fill="#000000">RefreshedAt</text>
<text text-anchor="start" x="481.5" y="-177.3" font-family="Times,serif" font-size="14.00" fill="#000000">DownloadedAt</text>
<text text-anchor="start" x="467" y="-156.3" font-family="Times,serif" font-size="14.00" fill="#000000">PendingDisplayDate</text>
</g>
<!-- PageEvents&#45;&gt;RefreshAuth -->
<g id="edge10" class="edge">
<title>PageEvents&#45;&gt;RefreshAuth</title>
<path fill="none" stroke="#000000" d="M700.7477,-345.6521C705.1889,-396.1276 714.5697,-536.5696 685,-569 648.9601,-608.5267 601.9627,-547.4031 566,-587 512.4586,-645.9521 531.3871,-750.2987 544.5902,-799.8682"/>
<polygon fill="#000000" stroke="#000000" points="541.2395,-800.8829 547.2925,-809.5784 547.9832,-799.0061 541.2395,-800.8829"/>
<text text-anchor="start" x="570.5" y="-637.3" font-family="Times,serif" font-style="italic" font-size="14.00" fill="#000000">&quot;PageEvents&quot; &#45;&gt; &quot;RefreshAuth&quot;</text>
<text text-anchor="start" x="620.5" y="-615.3" font-family="Times,serif" font-size="14.00" fill="#000000">RefreshToken</text>
<text text-anchor="start" x="603" y="-594.3" font-family="Times,serif" font-size="14.00" fill="#000000">PendingDisplayDate</text>
</g>
<!-- PollEvents&#45;&gt;ReadFirstEvents -->
<g id="edge14" class="edge">
<title>PollEvents&#45;&gt;ReadFirstEvents</title>
<path fill="none" stroke="#000000" d="M353.2421,-124.1335C293.9189,-143.5127 182.5861,-189.6686 136,-274 75.0815,-384.2765 175.3709,-533.9138 221.6012,-593.482"/>
<polygon fill="#000000" stroke="#000000" points="219.0638,-595.9167 228.0042,-601.6018 224.5604,-591.5823 219.0638,-595.9167"/>
<text text-anchor="start" x="140.5" y="-366.3" font-family="Times,serif" font-style="italic" font-size="14.00" fill="#000000">&quot;PollEvents&quot; &#45;&gt; &quot;ReadFirstEvents&quot;</text>
<text text-anchor="start" x="198" y="-344.3" font-family="Times,serif" font-size="14.00" fill="#000000">Authenticators</text>
<text text-anchor="start" x="203.5" y="-323.3" font-family="Times,serif" font-size="14.00" fill="#000000">RefreshedAt</text>
<text text-anchor="start" x="203" y="-302.3" font-family="Times,serif" font-size="14.00" fill="#000000">RefreshType</text>
<text text-anchor="start" x="182" y="-281.3" font-family="Times,serif" font-size="14.00" fill="#000000">PendingDisplayDate</text>
</g>
<!-- PollEvents&#45;&gt;RefreshAuth -->
<g id="edge11" class="edge">
<title>PollEvents&#45;&gt;RefreshAuth</title>
<path fill="none" stroke="#000000" d="M387.0841,-131.0749C372.8946,-185.0203 334.8723,-343.4524 367,-381 400.6339,-420.3078 446.2318,-361.6238 482,-399 508.282,-426.4635 496.5313,-531.2506 501,-569 511.952,-661.5179 499.4765,-687.9946 527,-777 529.4581,-784.9489 533.1202,-793.1439 536.9257,-800.5592"/>
<polygon fill="#000000" stroke="#000000" points="533.9042,-802.3298 541.7428,-809.4577 540.0601,-798.9974 533.9042,-802.3298"/>
<text text-anchor="start" x="505" y="-501.8" font-family="Times,serif" font-style="italic" font-size="14.00" fill="#000000">&quot;PollEvents&quot; &#45;&gt; &quot;RefreshAuth&quot;</text>
<text text-anchor="start" x="552.5" y="-479.8" font-family="Times,serif" font-size="14.00" fill="#000000">RefreshToken</text>
<text text-anchor="start" x="535" y="-458.8" font-family="Times,serif" font-size="14.00" fill="#000000">PendingDisplayDate</text>
</g>
<!-- PollEvents&#45;&gt;RequestCodes -->
<g id="edge7" class="edge">
<title>PollEvents&#45;&gt;RequestCodes</title>
<path fill="none" stroke="#000000" d="M434.6882,-104.1442C499.5024,-91.0472 626.7569,-66.6975 736,-54 920.1977,-32.5904 1138.6588,-23.4088 1248.8534,-19.9027"/>
<polygon fill="#000000" stroke="#000000" points="1248.9669,-23.4009 1258.8529,-19.5907 1248.7486,-16.4043 1248.9669,-23.4009"/>
<text text-anchor="start" x="740.5" y="-62.3" font-family="Times,serif" font-style="italic" font-size="14.00" fill="#000000">&quot;PollEvents&quot; &#45;&gt; &quot;RequestCodes&quot;</text>
</g>
<!-- ReadFirstEvents&#45;&gt;DisplayError -->
<g id="edge19" class="edge">
<title>ReadFirstEvents&#45;&gt;DisplayError</title>
<path fill="none" stroke="#000000" d="M243.2908,-637.5839C243.8455,-673.6855 245,-757.2606 245,-827.5 245,-1170 245,-1170 245,-1170 245,-1229.0456 665.1369,-1270.7134 829.8575,-1284.7808"/>
<polygon fill="#000000" stroke="#000000" points="829.6021,-1288.2716 839.8618,-1285.628 830.1928,-1281.2966 829.6021,-1288.2716"/>
<text text-anchor="start" x="249.5" y="-990.8" font-family="Times,serif" font-style="italic" font-size="14.00" fill="#000000">&quot;ReadFirstEvents&quot; &#45;&gt; &quot;DisplayError&quot;</text>
<text text-anchor="start" x="337" y="-968.8" font-family="Times,serif" font-size="14.00" fill="#000000">String</text>
</g>
<!-- ReadFirstEvents&#45;&gt;NetworkOutage -->
<g id="edge25" class="edge">
<title>ReadFirstEvents&#45;&gt;NetworkOutage</title>
<path fill="none" stroke="#000000" d="M237.3468,-601.4264C225.6272,-560.0245 203.7504,-457.3977 254,-399 280.3223,-368.4095 313.1615,-408.1718 343,-381 422.6323,-308.4845 329.2456,-216.7127 413,-149 440.3489,-126.8893 655.5011,-117.9539 773.7511,-114.6848"/>
<polygon fill="#000000" stroke="#000000" points="773.9344,-118.1812 783.8365,-114.4132 773.7459,-111.1838 773.9344,-118.1812"/>
<text text-anchor="start" x="383" y="-345.3" font-family="Times,serif" font-style="italic" font-size="14.00" fill="#000000">&quot;ReadFirstEvents&quot; &#45;&gt; &quot;NetworkOutage&quot;</text>
<text text-anchor="start" x="455.5" y="-323.3" font-family="Times,serif" font-size="14.00" fill="#000000">RefreshToken</text>
<text text-anchor="start" x="451.5" y="-302.3" font-family="Times,serif" font-size="14.00" fill="#000000">LastNetErrorAt</text>
</g>
<!-- ReadFirstEvents&#45;&gt;PageEvents -->
<g id="edge22" class="edge">
<title>ReadFirstEvents&#45;&gt;PageEvents</title>
<path fill="none" stroke="#000000" d="M245.9879,-601.2829C247.5361,-591.6861 249.4267,-579.7147 251,-569 256.5383,-531.2825 245.9307,-424.7954 274,-399 303.4071,-371.9751 595.7011,-395.2799 633,-381 649.2717,-374.7703 664.5794,-362.8989 676.3482,-351.9185"/>
<polygon fill="#000000" stroke="#000000" points="678.8297,-354.3872 683.5455,-344.8997 673.9425,-349.3757 678.8297,-354.3872"/>
<text text-anchor="start" x="278" y="-554.8" font-family="Times,serif" font-style="italic" font-size="14.00" fill="#000000">&quot;ReadFirstEvents&quot; &#45;&gt; &quot;PageEvents&quot;</text>
<text text-anchor="start" x="338" y="-532.8" font-family="Times,serif" font-size="14.00" fill="#000000">Authenticators</text>
<text text-anchor="start" x="320.5" y="-511.8" font-family="Times,serif" font-size="14.00" fill="#000000">Option&lt;PageToken&gt;</text>
<text text-anchor="start" x="339" y="-490.8" font-family="Times,serif" font-size="14.00" fill="#000000">Appointments</text>
<text text-anchor="start" x="343.5" y="-469.8" font-family="Times,serif" font-size="14.00" fill="#000000">RefreshedAt</text>
<text text-anchor="start" x="336.5" y="-448.8" font-family="Times,serif" font-size="14.00" fill="#000000">DownloadedAt</text>
<text text-anchor="start" x="343" y="-427.8" font-family="Times,serif" font-size="14.00" fill="#000000">RefreshType</text>
<text text-anchor="start" x="322" y="-406.8" font-family="Times,serif" font-size="14.00" fill="#000000">PendingDisplayDate</text>
</g>
<!-- RefreshAuth&#45;&gt;DisplayError -->
<g id="edge20" class="edge">
<title>RefreshAuth&#45;&gt;DisplayError</title>
<path fill="none" stroke="#000000" d="M549.6155,-845.5562C541.3061,-895.2448 524.5349,-1036.5123 582,-1130 637.3986,-1220.1259 761.2869,-1261.5589 835.5103,-1278.9185"/>
<polygon fill="#000000" stroke="#000000" points="835.1158,-1282.4177 845.6417,-1281.2109 836.6606,-1275.5903 835.1158,-1282.4177"/>
<text text-anchor="start" x="586" y="-1084.3" font-family="Times,serif" font-style="italic" font-size="14.00" fill="#000000">&quot;RefreshAuth&quot; &#45;&gt; &quot;DisplayError&quot;</text>
<text text-anchor="start" x="662" y="-1062.3" font-family="Times,serif" font-size="14.00" fill="#000000">String</text>
</g>
<!-- RefreshAuth&#45;&gt;NetworkOutage -->
<g id="edge24" class="edge">
<title>RefreshAuth&#45;&gt;NetworkOutage</title>
<path fill="none" stroke="#000000" d="M599.207,-817.2351C630.4047,-809.1094 671.7898,-795.9471 705,-777 827.3104,-707.2195 885.6413,-697.1538 944,-569 1013.3793,-416.6455 909.5308,-212.1994 867.4149,-139.7868"/>
<polygon fill="#000000" stroke="#000000" points="870.2353,-137.6796 862.1368,-130.8484 864.2077,-141.2389 870.2353,-137.6796"/>
<text text-anchor="start" x="971.5" y="-501.8" font-family="Times,serif" font-style="italic" font-size="14.00" fill="#000000">&quot;RefreshAuth&quot; &#45;&gt; &quot;NetworkOutage&quot;</text>
<text text-anchor="start" x="1032.5" y="-479.8" font-family="Times,serif" font-size="14.00" fill="#000000">RefreshToken</text>
<text text-anchor="start" x="1028.5" y="-458.8" font-family="Times,serif" font-size="14.00" fill="#000000">LastNetErrorAt</text>
</g>
<!-- RefreshAuth&#45;&gt;ReadFirstEvents -->
<g id="edge13" class="edge">
<title>RefreshAuth&#45;&gt;ReadFirstEvents</title>
<path fill="none" stroke="#000000" d="M497.7926,-824.4311C426.9247,-819.3291 309.4523,-806.5678 279,-777 244.102,-743.1156 267.1765,-717.3404 256,-670 254.2751,-662.6938 252.3037,-654.8223 250.4264,-647.5182"/>
<polygon fill="#000000" stroke="#000000" points="253.7745,-646.486 247.8707,-637.6885 246.9997,-648.2475 253.7745,-646.486"/>
<text text-anchor="start" x="283.5" y="-762.3" font-family="Times,serif" font-style="italic" font-size="14.00" fill="#000000">&quot;RefreshAuth&quot; &#45;&gt; &quot;ReadFirstEvents&quot;</text>
<text text-anchor="start" x="345" y="-740.3" font-family="Times,serif" font-size="14.00" fill="#000000">Authenticators</text>
<text text-anchor="start" x="350.5" y="-719.3" font-family="Times,serif" font-size="14.00" fill="#000000">RefreshedAt</text>
<text text-anchor="start" x="350" y="-698.3" font-family="Times,serif" font-size="14.00" fill="#000000">RefreshType</text>
<text text-anchor="start" x="329" y="-677.3" font-family="Times,serif" font-size="14.00" fill="#000000">PendingDisplayDate</text>
</g>
<!-- RequestCodes&#45;&gt;DeviceAuthPoll -->
<g id="edge15" class="edge">
<title>RequestCodes&#45;&gt;DeviceAuthPoll</title>
<path fill="none" stroke="#000000" d="M1380.1565,-21.63C1481.8987,-29.4341 1677,-52.3112 1677,-113 1677,-1290 1677,-1290 1677,-1290 1677,-1360.7824 1169.2197,-1392.8129 972.0115,-1402.5836"/>
<polygon fill="#000000" stroke="#000000" points="971.8278,-1399.0883 962.0109,-1403.0731 972.1701,-1406.0799 971.8278,-1399.0883"/>
<text text-anchor="start" x="1681" y="-845.3" font-family="Times,serif" font-style="italic" font-size="14.00" fill="#000000">&quot;RequestCodes&quot; &#45;&gt; &quot;DeviceAuthPoll&quot;</text>
<text text-anchor="start" x="1768" y="-823.3" font-family="Times,serif" font-size="14.00" fill="#000000">String</text>
<text text-anchor="start" x="1744.5" y="-802.3" font-family="Times,serif" font-size="14.00" fill="#000000">PeriodSeconds</text>
</g>
<!-- RequestCodes&#45;&gt;DisplayError -->
<g id="edge21" class="edge">
<title>RequestCodes&#45;&gt;DisplayError</title>
<path fill="none" stroke="#000000" d="M1367.1058,-29.5159C1407.0833,-42.4365 1458,-67.7705 1458,-113 1458,-1170 1458,-1170 1458,-1170 1458,-1285.5316 1324.7201,-1228.6675 1212,-1254 1126.5916,-1273.1945 1025.8187,-1282.41 961.2046,-1286.6521"/>
<polygon fill="#000000" stroke="#000000" points="960.9106,-1283.1636 951.1528,-1287.291 961.3547,-1290.1495 960.9106,-1283.1636"/>
<text text-anchor="start" x="1462" y="-731.3" font-family="Times,serif" font-style="italic" font-size="14.00" fill="#000000">&quot;RequestCodes&quot; &#45;&gt; &quot;DisplayError&quot;</text>
<text text-anchor="start" x="1543" y="-709.3" font-family="Times,serif" font-size="14.00" fill="#000000">String</text>
</g>
<!-- _start -->
<g id="node11" class="node">
<title>_start</title>
<ellipse fill="#000000" stroke="#000000" cx="962" cy="-1170" rx="1.8" ry="1.8"/>
</g>
<!-- _start&#45;&gt;LoadAuth -->
<g id="edge1" class="edge">
<title>_start&#45;&gt;LoadAuth</title>
<path fill="none" stroke="#000000" d="M961.1143,-1168.1271C959.0456,-1163.9413 953.4972,-1153.7454 946,-1148 928.2454,-1134.3941 911.7393,-1148.3863 899,-1130 874.7106,-1094.9438 881.7059,-1043.0168 889.4924,-1011.1823"/>
<polygon fill="#000000" stroke="#000000" points="892.9565,-1011.7716 892.1193,-1001.2099 886.1874,-1009.9885 892.9565,-1011.7716"/>
<text text-anchor="start" x="903" y="-1073.3" font-family="Times,serif" font-weight="bold" font-style="italic" font-size="14.00" fill="#000000"> &#45;&gt; &quot;LoadAuth&quot;</text>
</g>
</g>
</svg>
