<?xml version="1.0" encoding="UTF-8" standalone="no"?>
<!DOCTYPE svg PUBLIC "-//W3C//DTD SVG 1.1//EN"
 "http://www.w3.org/Graphics/SVG/1.1/DTD/svg11.dtd">
<!-- Generated by graphviz version 2.40.1 (20161225.0304)
 -->
<!-- Title: cal_stm Pages: 1 -->
<svg width="930pt" height="990pt"
 viewBox="0.00 0.00 930.00 990.00" xmlns="http://www.w3.org/2000/svg" xmlns:xlink="http://www.w3.org/1999/xlink">
<g id="graph0" class="graph" transform="scale(1 1) rotate(0) translate(4 986)">
<title>cal_stm</title>
<polygon fill="#ffffff" stroke="transparent" points="-4,4 -4,-986 926,-986 926,4 -4,4"/>
<!-- DeviceAuthPoll -->
<g id="node1" class="node">
<title>DeviceAuthPoll</title>
<ellipse fill="none" stroke="#000000" cx="596" cy="-964" rx="67.6881" ry="18"/>
<text text-anchor="middle" x="596" y="-960.3" font-family="Times,serif" font-size="14.00" fill="#000000">DeviceAuthPoll</text>
</g>
<!-- DisplayError -->
<g id="node2" class="node">
<title>DisplayError</title>
<ellipse fill="none" stroke="#000000" cx="596" cy="-877" rx="56.59" ry="18"/>
<text text-anchor="middle" x="596" y="-873.3" font-family="Times,serif" font-size="14.00" fill="#000000">DisplayError</text>
</g>
<!-- DeviceAuthPoll&#45;&gt;DisplayError -->
<g id="edge18" class="edge">
<title>DeviceAuthPoll&#45;&gt;DisplayError</title>
<path fill="none" stroke="#000000" d="M596,-945.9735C596,-934.1918 596,-918.5607 596,-905.1581"/>
<polygon fill="#000000" stroke="#000000" points="599.5001,-905.0033 596,-895.0034 592.5001,-905.0034 599.5001,-905.0033"/>
<text text-anchor="middle" x="613" y="-916.8" font-family="Times,serif" font-size="14.00" fill="#000000">String</text>
</g>
<!-- ReadFirstEvents -->
<g id="node8" class="node">
<title>ReadFirstEvents</title>
<ellipse fill="none" stroke="#000000" cx="121" cy="-424" rx="68.7879" ry="18"/>
<text text-anchor="middle" x="121" y="-420.3" font-family="Times,serif" font-size="14.00" fill="#000000">ReadFirstEvents</text>
</g>
<!-- DeviceAuthPoll&#45;&gt;ReadFirstEvents -->
<g id="edge12" class="edge">
<title>DeviceAuthPoll&#45;&gt;ReadFirstEvents</title>
<path fill="none" stroke="#000000" d="M529.0782,-961.1392C373.3811,-953.592 0,-929.9706 0,-877 0,-877 0,-877 0,-556 0,-506.8493 46.1506,-468.0619 81.4481,-445.5839"/>
<polygon fill="#000000" stroke="#000000" points="83.473,-448.4474 90.1535,-440.2241 79.803,-442.4866 83.473,-448.4474"/>
<text text-anchor="middle" x="56" y="-742.8" font-family="Times,serif" font-size="14.00" fill="#000000">Authenticators</text>
<text text-anchor="middle" x="56" y="-727.8" font-family="Times,serif" font-size="14.00" fill="#000000">RefreshedAt</text>
<text text-anchor="middle" x="56" y="-712.8" font-family="Times,serif" font-size="14.00" fill="#000000">RefreshType</text>
<text text-anchor="middle" x="56" y="-697.8" font-family="Times,serif" font-size="14.00" fill="#000000">PendingDisplayDate</text>
</g>
<!-- ErrorWait -->
<g id="node3" class="node">
<title>ErrorWait</title>
<ellipse fill="none" stroke="#000000" cx="668" cy="-790" rx="46.5926" ry="18"/>
<text text-anchor="middle" x="668" y="-786.3" font-family="Times,serif" font-size="14.00" fill="#000000">ErrorWait</text>
</g>
<!-- DisplayError&#45;&gt;ErrorWait -->
<g id="edge3" class="edge">
<title>DisplayError&#45;&gt;ErrorWait</title>
<path fill="none" stroke="#000000" d="M610.5703,-859.3943C621.0812,-846.6935 635.4242,-829.3624 647.1467,-815.1977"/>
<polygon fill="#000000" stroke="#000000" points="650.0178,-817.2181 653.6971,-807.2827 644.625,-812.7551 650.0178,-817.2181"/>
<text text-anchor="middle" x="677.5" y="-829.8" font-family="Times,serif" font-size="14.00" fill="#000000">DownloadedAt</text>
</g>
<!-- LoadAuth -->
<g id="node4" class="node">
<title>LoadAuth</title>
<ellipse fill="none" stroke="#000000" cx="601" cy="-658" rx="46.2923" ry="18"/>
<text text-anchor="middle" x="601" y="-654.3" font-family="Times,serif" font-size="14.00" fill="#000000">LoadAuth</text>
</g>
<!-- ErrorWait&#45;&gt;LoadAuth -->
<g id="edge2" class="edge">
<title>ErrorWait&#45;&gt;LoadAuth</title>
<path fill="none" stroke="#000000" d="M658.9641,-772.1979C647.5753,-749.7603 627.8922,-710.9816 614.6618,-684.9158"/>
<polygon fill="#000000" stroke="#000000" points="617.7539,-683.2746 610.1067,-675.9416 611.5119,-686.4429 617.7539,-683.2746"/>
</g>
<!-- RequestCodes -->
<g id="node10" class="node">
<title>RequestCodes</title>
<ellipse fill="none" stroke="#000000" cx="735" cy="-18" rx="61.1893" ry="18"/>
<text text-anchor="middle" x="735" y="-14.3" font-family="Times,serif" font-size="14.00" fill="#000000">RequestCodes</text>
</g>
<!-- ErrorWait&#45;&gt;RequestCodes -->
<g id="edge4" class="edge">
<title>ErrorWait&#45;&gt;RequestCodes</title>
<path fill="none" stroke="#000000" d="M670.5533,-771.7925C680.711,-698.6019 718.546,-418.6424 736,-187 740.4434,-128.0293 744.0775,-112.9971 740,-54 739.8249,-51.4663 739.5812,-48.8394 739.2949,-46.2112"/>
<polygon fill="#000000" stroke="#000000" points="742.7638,-45.7437 738.0341,-36.2632 735.8193,-46.6239 742.7638,-45.7437"/>
</g>
<!-- LoadAuth&#45;&gt;DisplayError -->
<g id="edge16" class="edge">
<title>LoadAuth&#45;&gt;DisplayError</title>
<path fill="none" stroke="#000000" d="M589.2408,-675.4572C571.9399,-703.3352 543.0095,-759.6896 556,-808 560.1085,-823.2791 568.5185,-838.6653 576.5715,-851.0189"/>
<polygon fill="#000000" stroke="#000000" points="573.7819,-853.1408 582.3056,-859.4335 579.5665,-849.1988 573.7819,-853.1408"/>
<text text-anchor="middle" x="573" y="-786.3" font-family="Times,serif" font-size="14.00" fill="#000000">String</text>
</g>
<!-- RefreshAuth -->
<g id="node9" class="node">
<title>RefreshAuth</title>
<ellipse fill="none" stroke="#000000" cx="498" cy="-556" rx="55.7903" ry="18"/>
<text text-anchor="middle" x="498" y="-552.3" font-family="Times,serif" font-size="14.00" fill="#000000">RefreshAuth</text>
</g>
<!-- LoadAuth&#45;&gt;RefreshAuth -->
<g id="edge8" class="edge">
<title>LoadAuth&#45;&gt;RefreshAuth</title>
<path fill="none" stroke="#000000" d="M571.6714,-643.9252C561.2597,-638.0595 549.9223,-630.5979 541,-622 529.2723,-610.6986 519.1502,-595.6285 511.6779,-582.742"/>
<polygon fill="#000000" stroke="#000000" points="514.6401,-580.8672 506.7202,-573.8297 508.5229,-584.2701 514.6401,-580.8672"/>
<text text-anchor="middle" x="597" y="-610.8" font-family="Times,serif" font-size="14.00" fill="#000000">RefreshToken</text>
<text text-anchor="middle" x="597" y="-595.8" font-family="Times,serif" font-size="14.00" fill="#000000">PendingDisplayDate</text>
</g>
<!-- LoadAuth&#45;&gt;RequestCodes -->
<g id="edge5" class="edge">
<title>LoadAuth&#45;&gt;RequestCodes</title>
<path fill="none" stroke="#000000" d="M630.0893,-643.921C638.7994,-638.2948 647.4895,-630.9859 653,-622 683.5167,-572.2365 722.346,-159.539 732.4871,-46.5199"/>
<polygon fill="#000000" stroke="#000000" points="736.0007,-46.5223 733.4034,-36.2507 729.0284,-45.9001 736.0007,-46.5223"/>
</g>
<!-- NetworkOutage -->
<g id="node5" class="node">
<title>NetworkOutage</title>
<ellipse fill="none" stroke="#000000" cx="521" cy="-91" rx="66.8882" ry="18"/>
<text text-anchor="middle" x="521" y="-87.3" font-family="Times,serif" font-size="14.00" fill="#000000">NetworkOutage</text>
</g>
<!-- NetworkOutage&#45;&gt;RefreshAuth -->
<g id="edge9" class="edge">
<title>NetworkOutage&#45;&gt;RefreshAuth</title>
<path fill="none" stroke="#000000" d="M519.5555,-109.2887C517.7332,-128.7853 513.9608,-160.4431 507,-187 501.2032,-209.1159 474.1816,-260.5227 470,-283 461.4646,-328.8795 443.4189,-349.6435 470,-388 482.9777,-406.7268 505.0223,-387.2732 518,-406 527.1135,-419.1508 519.3876,-426.0603 518,-442 515.4274,-471.5511 509.1714,-504.9284 504.3354,-527.8929"/>
<polygon fill="#000000" stroke="#000000" points="500.8505,-527.4506 502.1649,-537.9636 507.6933,-528.9255 500.8505,-527.4506"/>
<text text-anchor="middle" x="526" y="-339.3" font-family="Times,serif" font-size="14.00" fill="#000000">RefreshToken</text>
<text text-anchor="middle" x="526" y="-324.3" font-family="Times,serif" font-size="14.00" fill="#000000">PendingDisplayDate</text>
</g>
<!-- NetworkOutage&#45;&gt;RequestCodes -->
<g id="edge6" class="edge">
<title>NetworkOutage&#45;&gt;RequestCodes</title>
<path fill="none" stroke="#000000" d="M562.5151,-76.8383C597.6618,-64.849 648.1251,-47.6349 685.3939,-34.9217"/>
<polygon fill="#000000" stroke="#000000" points="686.7143,-38.1694 695.0487,-31.6282 684.4542,-31.5443 686.7143,-38.1694"/>
</g>
<!-- PageEvents -->
<g id="node6" class="node">
<title>PageEvents</title>
<ellipse fill="none" stroke="#000000" cx="414" cy="-235" rx="51.9908" ry="18"/>
<text text-anchor="middle" x="414" y="-231.3" font-family="Times,serif" font-size="14.00" fill="#000000">PageEvents</text>
</g>
<!-- PageEvents&#45;&gt;DisplayError -->
<g id="edge17" class="edge">
<title>PageEvents&#45;&gt;DisplayError</title>
<path fill="none" stroke="#000000" d="M465.5843,-237.6988C533.4894,-242.3454 647.7009,-254.2935 677,-283 781.9706,-385.8475 743,-460.0427 743,-607 743,-790 743,-790 743,-790 743,-814.3473 741.0347,-824.6434 723,-841 712.5602,-850.4684 682.8352,-859.1487 654.7665,-865.6126"/>
<polygon fill="#000000" stroke="#000000" points="653.9398,-862.2109 644.9417,-867.8041 655.4639,-869.043 653.9398,-862.2109"/>
<text text-anchor="middle" x="760" y="-603.3" font-family="Times,serif" font-size="14.00" fill="#000000">String</text>
</g>
<!-- PageEvents&#45;&gt;NetworkOutage -->
<g id="edge26" class="edge">
<title>PageEvents&#45;&gt;NetworkOutage</title>
<path fill="none" stroke="#000000" d="M409.8588,-216.8847C405.6546,-193.6029 402.2543,-153.0833 422,-127 427.6165,-119.5808 444.411,-112.3715 462.6093,-106.3776"/>
<polygon fill="#000000" stroke="#000000" points="463.7136,-109.6994 472.2021,-103.3593 461.6126,-103.0221 463.7136,-109.6994"/>
<text text-anchor="middle" x="464.5" y="-160.8" font-family="Times,serif" font-size="14.00" fill="#000000">RefreshToken</text>
<text text-anchor="middle" x="464.5" y="-145.8" font-family="Times,serif" font-size="14.00" fill="#000000">LastNetErrorAt</text>
</g>
<!-- PollEvents -->
<g id="node7" class="node">
<title>PollEvents</title>
<ellipse fill="none" stroke="#000000" cx="247" cy="-91" rx="48.9926" ry="18"/>
<text text-anchor="middle" x="247" y="-87.3" font-family="Times,serif" font-size="14.00" fill="#000000">PollEvents</text>
</g>
<!-- PageEvents&#45;&gt;PollEvents -->
<g id="edge23" class="edge">
<title>PageEvents&#45;&gt;PollEvents</title>
<path fill="none" stroke="#000000" d="M381.1786,-220.8737C368.9415,-215.7261 354.8925,-209.9567 342,-205 319.564,-196.3742 308.7479,-203.2108 291,-187 271.2233,-168.9362 259.6893,-140.2249 253.4308,-118.9017"/>
<polygon fill="#000000" stroke="#000000" points="256.7689,-117.8388 250.7692,-109.1064 250.0139,-119.6743 256.7689,-117.8388"/>
<text text-anchor="middle" x="347" y="-175.8" font-family="Times,serif" font-size="14.00" fill="#000000">Authenticators</text>
<text text-anchor="middle" x="347" y="-160.8" font-family="Times,serif" font-size="14.00" fill="#000000">RefreshedAt</text>
<text text-anchor="middle" x="347" y="-145.8" font-family="Times,serif" font-size="14.00" fill="#000000">DownloadedAt</text>
<text text-anchor="middle" x="347" y="-130.8" font-family="Times,serif" font-size="14.00" fill="#000000">PendingDisplayDate</text>
</g>
<!-- PageEvents&#45;&gt;RefreshAuth -->
<g id="edge10" class="edge">
<title>PageEvents&#45;&gt;RefreshAuth</title>
<path fill="none" stroke="#000000" d="M411.5911,-253.1932C406.0569,-297.0441 393.8136,-407.495 406,-442 418.7281,-478.039 448.2168,-511.0513 470.4016,-532.171"/>
<polygon fill="#000000" stroke="#000000" points="468.1929,-534.8961 477.9046,-539.1308 472.9534,-529.7641 468.1929,-534.8961"/>
<text text-anchor="middle" x="462" y="-427.8" font-family="Times,serif" font-size="14.00" fill="#000000">RefreshToken</text>
<text text-anchor="middle" x="462" y="-412.8" font-family="Times,serif" font-size="14.00" fill="#000000">PendingDisplayDate</text>
</g>
<!-- PollEvents&#45;&gt;ReadFirstEvents -->
<g id="edge14" class="edge">
<title>PollEvents&#45;&gt;ReadFirstEvents</title>
<path fill="none" stroke="#000000" d="M211.6346,-103.5487C171.5564,-119.9153 108.2676,-152.7814 81,-205 47.9852,-268.2246 83.3554,-354.1001 105.6734,-397.1147"/>
<polygon fill="#000000" stroke="#000000" points="102.6796,-398.9387 110.478,-406.1105 108.8541,-395.6409 102.6796,-398.9387"/>
<text text-anchor="middle" x="137" y="-253.8" font-family="Times,serif" font-size="14.00" fill="#000000">Authenticators</text>
<text text-anchor="middle" x="137" y="-238.8" font-family="Times,serif" font-size="14.00" fill="#000000">RefreshedAt</text>
<text text-anchor="middle" x="137" y="-223.8" font-family="Times,serif" font-size="14.00" fill="#000000">RefreshType</text>
<text text-anchor="middle" x="137" y="-208.8" font-family="Times,serif" font-size="14.00" fill="#000000">PendingDisplayDate</text>
</g>
<!-- PollEvents&#45;&gt;RefreshAuth -->
<g id="edge11" class="edge">
<title>PollEvents&#45;&gt;RefreshAuth</title>
<path fill="none" stroke="#000000" d="M236.9452,-108.7956C219.443,-142.3973 188.2273,-216.184 221,-265 232.7769,-282.5421 251.6268,-266.6422 265,-283 295.0684,-319.7788 263.3501,-345.7144 285,-388 321.8219,-459.919 343.3368,-474.3468 410,-520 421.3954,-527.804 434.7426,-534.3523 447.5483,-539.6322"/>
<polygon fill="#000000" stroke="#000000" points="446.6067,-543.0227 457.194,-543.4223 449.1667,-536.5076 446.6067,-543.0227"/>
<text text-anchor="middle" x="341" y="-339.3" font-family="Times,serif" font-size="14.00" fill="#000000">RefreshToken</text>
<text text-anchor="middle" x="341" y="-324.3" font-family="Times,serif" font-size="14.00" fill="#000000">PendingDisplayDate</text>
</g>
<!-- PollEvents&#45;&gt;RequestCodes -->
<g id="edge7" class="edge">
<title>PollEvents&#45;&gt;RequestCodes</title>
<path fill="none" stroke="#000000" d="M292.4716,-84.1979C379.5137,-71.1773 569.9229,-42.6939 670.2297,-27.689"/>
<polygon fill="#000000" stroke="#000000" points="670.8655,-31.1329 680.2377,-26.1919 669.8299,-24.2099 670.8655,-31.1329"/>
</g>
<!-- ReadFirstEvents&#45;&gt;DisplayError -->
<g id="edge19" class="edge">
<title>ReadFirstEvents&#45;&gt;DisplayError</title>
<path fill="none" stroke="#000000" d="M122.3615,-442.3526C124.1317,-467.8379 127,-515.3956 127,-556 127,-790 127,-790 127,-790 127,-830.5665 401.761,-860.0019 530.6763,-871.5801"/>
<polygon fill="#000000" stroke="#000000" points="530.5501,-875.0826 540.8206,-872.4813 531.1696,-868.1101 530.5501,-875.0826"/>
<text text-anchor="middle" x="144" y="-654.3" font-family="Times,serif" font-size="14.00" fill="#000000">String</text>
</g>
<!-- ReadFirstEvents&#45;&gt;NetworkOutage -->
<g id="edge25" class="edge">
<title>ReadFirstEvents&#45;&gt;NetworkOutage</title>
<path fill="none" stroke="#000000" d="M116.0594,-405.5814C109.3547,-376.111 101.2536,-318.1122 130,-283 149.5325,-259.1421 173.0617,-284.4339 197,-265 250.3929,-221.654 211.0707,-167.0198 267,-127 294.7628,-107.1345 380.3573,-98.1517 444.5661,-94.1414"/>
<polygon fill="#000000" stroke="#000000" points="444.9012,-97.6278 454.6755,-93.5396 444.4851,-90.6401 444.9012,-97.6278"/>
<text text-anchor="middle" x="272.5" y="-238.8" font-family="Times,serif" font-size="14.00" fill="#000000">RefreshToken</text>
<text text-anchor="middle" x="272.5" y="-223.8" font-family="Times,serif" font-size="14.00" fill="#000000">LastNetErrorAt</text>
</g>
<!-- ReadFirstEvents&#45;&gt;PageEvents -->
<g id="edge22" class="edge">
<title>ReadFirstEvents&#45;&gt;PageEvents</title>
<path fill="none" stroke="#000000" d="M124.1312,-405.9214C130.6397,-368.8035 145.4054,-287.1177 150,-283 181.9131,-254.3993 300.417,-275.3584 342,-265 352.9658,-262.2684 364.4335,-258.1297 374.9106,-253.7915"/>
<polygon fill="#000000" stroke="#000000" points="376.411,-256.9562 384.211,-249.7861 373.6421,-250.5271 376.411,-256.9562"/>
<text text-anchor="middle" x="207.5" y="-376.8" font-family="Times,serif" font-size="14.00" fill="#000000">Authenticators</text>
<text text-anchor="middle" x="207.5" y="-361.8" font-family="Times,serif" font-size="14.00" fill="#000000">Option&lt;PageToken&gt;</text>
<text text-anchor="middle" x="207.5" y="-346.8" font-family="Times,serif" font-size="14.00" fill="#000000">Appointments</text>
<text text-anchor="middle" x="207.5" y="-331.8" font-family="Times,serif" font-size="14.00" fill="#000000">RefreshedAt</text>
<text text-anchor="middle" x="207.5" y="-316.8" font-family="Times,serif" font-size="14.00" fill="#000000">DownloadedAt</text>
<text text-anchor="middle" x="207.5" y="-301.8" font-family="Times,serif" font-size="14.00" fill="#000000">RefreshType</text>
<text text-anchor="middle" x="207.5" y="-286.8" font-family="Times,serif" font-size="14.00" fill="#000000">PendingDisplayDate</text>
</g>
<!-- RefreshAuth&#45;&gt;DisplayError -->
<g id="edge20" class="edge">
<title>RefreshAuth&#45;&gt;DisplayError</title>
<path fill="none" stroke="#000000" d="M497.9732,-574.1099C498.3439,-609.386 501.2678,-689.5045 519,-754 530.282,-795.0351 534.4452,-806.2405 559,-841 561.8247,-844.9986 565.1286,-848.9299 568.5785,-852.6405"/>
<polygon fill="#000000" stroke="#000000" points="566.2373,-855.2506 575.7585,-859.8981 571.2136,-850.3275 566.2373,-855.2506"/>
<text text-anchor="middle" x="536" y="-720.3" font-family="Times,serif" font-size="14.00" fill="#000000">String</text>
</g>
<!-- RefreshAuth&#45;&gt;NetworkOutage -->
<g id="edge24" class="edge">
<title>RefreshAuth&#45;&gt;NetworkOutage</title>
<path fill="none" stroke="#000000" d="M513.2078,-538.3395C517.6564,-532.6968 522.3103,-526.2809 526,-520 558.279,-465.0518 569.3009,-450.4497 582,-388 602.2013,-288.6572 557.4849,-170.6977 534.0926,-118.3552"/>
<polygon fill="#000000" stroke="#000000" points="537.1938,-116.7201 529.8586,-109.0751 530.8253,-119.6257 537.1938,-116.7201"/>
<text text-anchor="middle" x="630.5" y="-339.3" font-family="Times,serif" font-size="14.00" fill="#000000">RefreshToken</text>
<text text-anchor="middle" x="630.5" y="-324.3" font-family="Times,serif" font-size="14.00" fill="#000000">LastNetErrorAt</text>
</g>
<!-- RefreshAuth&#45;&gt;ReadFirstEvents -->
<g id="edge13" class="edge">
<title>RefreshAuth&#45;&gt;ReadFirstEvents</title>
<path fill="none" stroke="#000000" d="M442.5034,-553.2186C352.5723,-548.2487 182.8051,-536.7692 161,-520 138.3616,-502.59 149.2164,-486.264 138,-460 136.7903,-457.1674 135.4866,-454.2301 134.1584,-451.3105"/>
<polygon fill="#000000" stroke="#000000" points="137.3084,-449.7838 129.9165,-442.1936 130.9617,-452.7367 137.3084,-449.7838"/>
<text text-anchor="middle" x="217" y="-508.8" font-family="Times,serif" font-size="14.00" fill="#000000">Authenticators</text>
<text text-anchor="middle" x="217" y="-493.8" font-family="Times,serif" font-size="14.00" fill="#000000">RefreshedAt</text>
<text text-anchor="middle" x="217" y="-478.8" font-family="Times,serif" font-size="14.00" fill="#000000">RefreshType</text>
<text text-anchor="middle" x="217" y="-463.8" font-family="Times,serif" font-size="14.00" fill="#000000">PendingDisplayDate</text>
</g>
<!-- RequestCodes&#45;&gt;DeviceAuthPoll -->
<g id="edge15" class="edge">
<title>RequestCodes&#45;&gt;DeviceAuthPoll</title>
<path fill="none" stroke="#000000" d="M780.5687,-30.1133C809.2983,-40.818 841,-59.7175 841,-91 841,-877 841,-877 841,-877 841,-914.5589 737.4597,-940.0521 664.9995,-953.2941"/>
<polygon fill="#000000" stroke="#000000" points="664.224,-949.8772 654.9954,-955.0813 665.4551,-956.7681 664.224,-949.8772"/>
<text text-anchor="middle" x="881.5" y="-559.8" font-family="Times,serif" font-size="14.00" fill="#000000">String</text>
<text text-anchor="middle" x="881.5" y="-544.8" font-family="Times,serif" font-size="14.00" fill="#000000">PeriodSeconds</text>
</g>
<!-- RequestCodes&#45;&gt;DisplayError -->
<g id="edge21" class="edge">
<title>RequestCodes&#45;&gt;DisplayError</title>
<path fill="none" stroke="#000000" d="M758.5132,-34.6732C774.2145,-47.923 792,-68.0064 792,-91 792,-790 792,-790 792,-790 792,-821.4333 770.2348,-825.3056 743,-841 717.7667,-855.541 686.827,-864.239 659.8526,-869.4279"/>
<polygon fill="#000000" stroke="#000000" points="658.9507,-866.0338 649.7287,-871.2496 660.1905,-872.9232 658.9507,-866.0338"/>
<text text-anchor="middle" x="809" y="-486.3" font-family="Times,serif" font-size="14.00" fill="#000000">String</text>
</g>
<!-- _start -->
<g id="node11" class="node">
<title>_start</title>
<ellipse fill="#000000" stroke="#000000" cx="601" cy="-790" rx="1.8" ry="1.8"/>
</g>
<!-- _start&#45;&gt;LoadAuth -->
<g id="edge1" class="edge">
<title>_start&#45;&gt;LoadAuth</title>
<path fill="none" stroke="#000000" d="M601,-788.134C601,-777.2292 601,-721.0294 601,-686.1453"/>
<polygon fill="#000000" stroke="#000000" points="604.5001,-686.0772 601,-676.0773 597.5001,-686.0773 604.5001,-686.0772"/>
</g>
</g>
</svg>
