<?xml version="1.0" encoding="UTF-8" standalone="no"?>
<!DOCTYPE svg PUBLIC "-//W3C//DTD SVG 1.1//EN"
 "http://www.w3.org/Graphics/SVG/1.1/DTD/svg11.dtd">
<!-- Generated by graphviz version 2.40.1 (20161225.0304)
 -->
<!-- Title: cal_stm Pages: 1 -->
<svg width="768pt" height="900pt"
 viewBox="0.00 0.00 768.15 900.00" xmlns="http://www.w3.org/2000/svg" xmlns:xlink="http://www.w3.org/1999/xlink">
<g id="graph0" class="graph" transform="scale(1 1) rotate(0) translate(4 896)">
<title>cal_stm</title>
<polygon fill="#ffffff" stroke="transparent" points="-4,4 -4,-896 764.1546,-896 764.1546,4 -4,4"/>
<!-- DeviceAuthPoll -->
<g id="node1" class="node">
<title>DeviceAuthPoll</title>
<ellipse fill="none" stroke="#000000" cx="275.1546" cy="-874" rx="67.6881" ry="18"/>
<text text-anchor="middle" x="275.1546" y="-870.3" font-family="Times,serif" font-size="14.00" fill="#000000">DeviceAuthPoll</text>
</g>
<!-- DisplayError -->
<g id="node2" class="node">
<title>DisplayError</title>
<ellipse fill="none" stroke="#000000" cx="275.1546" cy="-787" rx="56.59" ry="18"/>
<text text-anchor="middle" x="275.1546" y="-783.3" font-family="Times,serif" font-size="14.00" fill="#000000">DisplayError</text>
</g>
<!-- DeviceAuthPoll&#45;&gt;DisplayError -->
<g id="edge17" class="edge">
<title>DeviceAuthPoll&#45;&gt;DisplayError</title>
<path fill="none" stroke="#000000" d="M275.1546,-855.9735C275.1546,-844.1918 275.1546,-828.5607 275.1546,-815.1581"/>
<polygon fill="#000000" stroke="#000000" points="278.6547,-815.0033 275.1546,-805.0034 271.6547,-815.0034 278.6547,-815.0033"/>
<text text-anchor="middle" x="292.1546" y="-826.8" font-family="Times,serif" font-size="14.00" fill="#000000">String</text>
</g>
<!-- ReadFirstEvents -->
<g id="node8" class="node">
<title>ReadFirstEvents</title>
<ellipse fill="none" stroke="#000000" cx="159.1546" cy="-379" rx="68.7879" ry="18"/>
<text text-anchor="middle" x="159.1546" y="-375.3" font-family="Times,serif" font-size="14.00" fill="#000000">ReadFirstEvents</text>
</g>
<!-- DeviceAuthPoll&#45;&gt;ReadFirstEvents -->
<g id="edge11" class="edge">
<title>DeviceAuthPoll&#45;&gt;ReadFirstEvents</title>
<path fill="none" stroke="#000000" d="M231.0096,-860.3532C159.3783,-835.1603 23.7248,-773.6488 3.1546,-664 -16.8369,-557.4362 81.141,-450.2239 131.205,-403.4145"/>
<polygon fill="#000000" stroke="#000000" points="133.8098,-405.7742 138.8032,-396.4298 129.0724,-400.6207 133.8098,-405.7742"/>
<text text-anchor="middle" x="43.1546" y="-652.8" font-family="Times,serif" font-size="14.00" fill="#000000">Authenticators</text>
<text text-anchor="middle" x="43.1546" y="-637.8" font-family="Times,serif" font-size="14.00" fill="#000000">RefreshedAt</text>
<text text-anchor="middle" x="43.1546" y="-622.8" font-family="Times,serif" font-size="14.00" fill="#000000">RefreshType</text>
</g>
<!-- ErrorWait -->
<g id="node3" class="node">
<title>ErrorWait</title>
<ellipse fill="none" stroke="#000000" cx="80.1546" cy="-700" rx="46.5926" ry="18"/>
<text text-anchor="middle" x="80.1546" y="-696.3" font-family="Times,serif" font-size="14.00" fill="#000000">ErrorWait</text>
</g>
<!-- DisplayError&#45;&gt;ErrorWait -->
<g id="edge3" class="edge">
<title>DisplayError&#45;&gt;ErrorWait</title>
<path fill="none" stroke="#000000" d="M219.5801,-783.2595C171.1727,-778.7986 106.0139,-769.488 88.1546,-751 82.3753,-745.0173 79.735,-736.6691 78.7173,-728.457"/>
<polygon fill="#000000" stroke="#000000" points="82.2044,-728.1176 78.1818,-718.3161 75.2141,-728.4868 82.2044,-728.1176"/>
<text text-anchor="middle" x="129.6546" y="-739.8" font-family="Times,serif" font-size="14.00" fill="#000000">DownloadedAt</text>
</g>
<!-- LoadAuth -->
<g id="node4" class="node">
<title>LoadAuth</title>
<ellipse fill="none" stroke="#000000" cx="147.1546" cy="-583" rx="46.2923" ry="18"/>
<text text-anchor="middle" x="147.1546" y="-579.3" font-family="Times,serif" font-size="14.00" fill="#000000">LoadAuth</text>
</g>
<!-- ErrorWait&#45;&gt;LoadAuth -->
<g id="edge2" class="edge">
<title>ErrorWait&#45;&gt;LoadAuth</title>
<path fill="none" stroke="#000000" d="M94.8908,-682.5967C99.4167,-676.8602 104.2334,-670.3261 108.1546,-664 118.7774,-646.8621 128.6106,-626.3936 135.7459,-610.3204"/>
<polygon fill="#000000" stroke="#000000" points="139.0428,-611.5157 139.823,-600.9496 132.624,-608.7229 139.0428,-611.5157"/>
</g>
<!-- RequestCodes -->
<g id="node10" class="node">
<title>RequestCodes</title>
<ellipse fill="none" stroke="#000000" cx="301.1546" cy="-18" rx="61.1893" ry="18"/>
<text text-anchor="middle" x="301.1546" y="-14.3" font-family="Times,serif" font-size="14.00" fill="#000000">RequestCodes</text>
</g>
<!-- ErrorWait&#45;&gt;RequestCodes -->
<g id="edge4" class="edge">
<title>ErrorWait&#45;&gt;RequestCodes</title>
<path fill="none" stroke="#000000" d="M83.0438,-681.8258C85.1476,-665.3046 87.018,-640.3239 83.1546,-619 67.7975,-534.2377 15.1546,-523.6423 15.1546,-437.5 15.1546,-437.5 15.1546,-437.5 15.1546,-91 15.1546,-46.6198 146.0809,-28.8764 230.7647,-22.0416"/>
<polygon fill="#000000" stroke="#000000" points="231.1507,-25.5223 240.8508,-21.2611 230.6106,-18.5431 231.1507,-25.5223"/>
</g>
<!-- LoadAuth&#45;&gt;DisplayError -->
<g id="edge15" class="edge">
<title>LoadAuth&#45;&gt;DisplayError</title>
<path fill="none" stroke="#000000" d="M154.1488,-600.9392C156.3918,-606.7044 158.8828,-613.12 161.1546,-619 178.1401,-662.9628 173.192,-678.6658 199.1546,-718 210.834,-735.6946 228.0715,-751.8448 243.1788,-764.0645"/>
<polygon fill="#000000" stroke="#000000" points="241.2743,-767.0188 251.3037,-770.4337 245.593,-761.5097 241.2743,-767.0188"/>
<text text-anchor="middle" x="216.1546" y="-696.3" font-family="Times,serif" font-size="14.00" fill="#000000">String</text>
</g>
<!-- RefreshAuth -->
<g id="node9" class="node">
<title>RefreshAuth</title>
<ellipse fill="none" stroke="#000000" cx="304.1546" cy="-496" rx="55.7903" ry="18"/>
<text text-anchor="middle" x="304.1546" y="-492.3" font-family="Times,serif" font-size="14.00" fill="#000000">RefreshAuth</text>
</g>
<!-- LoadAuth&#45;&gt;RefreshAuth -->
<g id="edge8" class="edge">
<title>LoadAuth&#45;&gt;RefreshAuth</title>
<path fill="none" stroke="#000000" d="M165.7817,-566.3074C178.4805,-555.5241 196.0377,-541.7392 213.1546,-532 226.2326,-524.5589 241.1528,-517.9577 255.0755,-512.506"/>
<polygon fill="#000000" stroke="#000000" points="256.4141,-515.7416 264.52,-508.9191 253.9288,-509.1976 256.4141,-515.7416"/>
<text text-anchor="middle" x="251.6546" y="-535.8" font-family="Times,serif" font-size="14.00" fill="#000000">RefreshToken</text>
</g>
<!-- LoadAuth&#45;&gt;RequestCodes -->
<g id="edge5" class="edge">
<title>LoadAuth&#45;&gt;RequestCodes</title>
<path fill="none" stroke="#000000" d="M115.854,-569.6933C88.5093,-555.7236 53.1546,-530.9112 53.1546,-496 53.1546,-496 53.1546,-496 53.1546,-91 53.1546,-53.4388 159.1692,-33.7881 232.5698,-24.684"/>
<polygon fill="#000000" stroke="#000000" points="233.1845,-28.1355 242.6961,-23.4686 232.3502,-21.1853 233.1845,-28.1355"/>
</g>
<!-- NetworkOutage -->
<g id="node5" class="node">
<title>NetworkOutage</title>
<ellipse fill="none" stroke="#000000" cx="392.1546" cy="-91" rx="66.8882" ry="18"/>
<text text-anchor="middle" x="392.1546" y="-87.3" font-family="Times,serif" font-size="14.00" fill="#000000">NetworkOutage</text>
</g>
<!-- NetworkOutage&#45;&gt;RefreshAuth -->
<g id="edge9" class="edge">
<title>NetworkOutage&#45;&gt;RefreshAuth</title>
<path fill="none" stroke="#000000" d="M445.3569,-102.2107C458.2069,-107.5464 470.4428,-115.4116 478.1546,-127 504.8394,-167.0989 497.732,-196.2272 469.1546,-235 458.067,-250.0433 444.5664,-239.9862 431.1546,-253 398.9152,-284.2826 405.8866,-303.1483 385.1546,-343 362.1246,-387.269 334.8963,-438.4722 318.6024,-468.9942"/>
<polygon fill="#000000" stroke="#000000" points="315.3403,-467.6727 313.7156,-478.1422 321.5146,-470.971 315.3403,-467.6727"/>
<text text-anchor="middle" x="469.6546" y="-294.3" font-family="Times,serif" font-size="14.00" fill="#000000">RefreshToken</text>
</g>
<!-- NetworkOutage&#45;&gt;RequestCodes -->
<g id="edge6" class="edge">
<title>NetworkOutage&#45;&gt;RequestCodes</title>
<path fill="none" stroke="#000000" d="M370.5889,-73.7C358.4889,-63.9935 343.232,-51.7544 330.1036,-41.2228"/>
<polygon fill="#000000" stroke="#000000" points="332.2421,-38.4513 322.2516,-34.924 327.8618,-43.9115 332.2421,-38.4513"/>
</g>
<!-- PageEvents -->
<g id="node6" class="node">
<title>PageEvents</title>
<ellipse fill="none" stroke="#000000" cx="408.1546" cy="-212.5" rx="51.9908" ry="18"/>
<text text-anchor="middle" x="408.1546" y="-208.8" font-family="Times,serif" font-size="14.00" fill="#000000">PageEvents</text>
</g>
<!-- PageEvents&#45;&gt;DisplayError -->
<g id="edge16" class="edge">
<title>PageEvents&#45;&gt;DisplayError</title>
<path fill="none" stroke="#000000" d="M406.3322,-230.5067C404.26,-255.9375 402.2206,-303.663 411.1546,-343 427.6756,-415.7427 480.1546,-421.4048 480.1546,-496 480.1546,-700 480.1546,-700 480.1546,-700 480.1546,-732.3205 392.7153,-759.5327 332.049,-774.5232"/>
<polygon fill="#000000" stroke="#000000" points="331.0809,-771.1564 322.1857,-776.9119 332.7286,-777.9597 331.0809,-771.1564"/>
<text text-anchor="middle" x="497.1546" y="-535.8" font-family="Times,serif" font-size="14.00" fill="#000000">String</text>
</g>
<!-- PageEvents&#45;&gt;NetworkOutage -->
<g id="edge25" class="edge">
<title>PageEvents&#45;&gt;NetworkOutage</title>
<path fill="none" stroke="#000000" d="M399.9161,-194.3284C397.2151,-187.4764 394.5503,-179.5195 393.1546,-172 389.9432,-154.6985 389.6322,-134.9593 390.1535,-119.2987"/>
<polygon fill="#000000" stroke="#000000" points="393.6552,-119.3397 390.6219,-109.1884 386.6627,-119.0156 393.6552,-119.3397"/>
<text text-anchor="middle" x="435.6546" y="-153.3" font-family="Times,serif" font-size="14.00" fill="#000000">RefreshToken</text>
<text text-anchor="middle" x="435.6546" y="-138.3" font-family="Times,serif" font-size="14.00" fill="#000000">LastNetErrorAt</text>
</g>
<!-- PollEvents -->
<g id="node7" class="node">
<title>PollEvents</title>
<ellipse fill="none" stroke="#000000" cx="232.1546" cy="-91" rx="48.9926" ry="18"/>
<text text-anchor="middle" x="232.1546" y="-87.3" font-family="Times,serif" font-size="14.00" fill="#000000">PollEvents</text>
</g>
<!-- PageEvents&#45;&gt;PollEvents -->
<g id="edge22" class="edge">
<title>PageEvents&#45;&gt;PollEvents</title>
<path fill="none" stroke="#000000" d="M371.7952,-199.6008C343.5559,-189.417 308.2033,-176.2414 302.1546,-172 281.1613,-157.2793 262.4664,-134.9023 249.689,-117.3954"/>
<polygon fill="#000000" stroke="#000000" points="252.202,-114.888 243.5658,-108.7507 246.4898,-118.934 252.202,-114.888"/>
<text text-anchor="middle" x="343.6546" y="-160.8" font-family="Times,serif" font-size="14.00" fill="#000000">Authenticators</text>
<text text-anchor="middle" x="343.6546" y="-145.8" font-family="Times,serif" font-size="14.00" fill="#000000">RefreshedAt</text>
<text text-anchor="middle" x="343.6546" y="-130.8" font-family="Times,serif" font-size="14.00" fill="#000000">DownloadedAt</text>
</g>
<!-- PollEvents&#45;&gt;ReadFirstEvents -->
<g id="edge13" class="edge">
<title>PollEvents&#45;&gt;ReadFirstEvents</title>
<path fill="none" stroke="#000000" d="M203.0119,-105.4467C174.1179,-121.5874 131.5801,-150.7031 113.1546,-190 84.2564,-251.6326 90.8497,-281.5598 120.1546,-343 122.1269,-347.1351 124.8041,-351.0218 127.8381,-354.6008"/>
<polygon fill="#000000" stroke="#000000" points="125.4477,-357.1638 134.9146,-361.9209 130.4806,-352.2985 125.4477,-357.1638"/>
<text text-anchor="middle" x="153.1546" y="-223.8" font-family="Times,serif" font-size="14.00" fill="#000000">Authenticators</text>
<text text-anchor="middle" x="153.1546" y="-208.8" font-family="Times,serif" font-size="14.00" fill="#000000">RefreshedAt</text>
<text text-anchor="middle" x="153.1546" y="-193.8" font-family="Times,serif" font-size="14.00" fill="#000000">RefreshType</text>
</g>
<!-- PollEvents&#45;&gt;RefreshAuth -->
<g id="edge10" class="edge">
<title>PollEvents&#45;&gt;RefreshAuth</title>
<path fill="none" stroke="#000000" d="M223.8555,-109.0473C211.6465,-138.5899 193.1502,-197.709 221.1546,-235 238.3848,-257.944 264.9517,-230.8197 283.1546,-253 309.527,-285.1348 307.7987,-410.9215 305.5612,-467.7993"/>
<polygon fill="#000000" stroke="#000000" points="302.06,-467.7539 305.1296,-477.8943 309.0537,-468.0529 302.06,-467.7539"/>
<text text-anchor="middle" x="342.6546" y="-294.3" font-family="Times,serif" font-size="14.00" fill="#000000">RefreshToken</text>
</g>
<!-- PollEvents&#45;&gt;RequestCodes -->
<g id="edge7" class="edge">
<title>PollEvents&#45;&gt;RequestCodes</title>
<path fill="none" stroke="#000000" d="M248.5066,-73.7C257.2081,-64.4941 268.0627,-53.0103 277.6515,-42.8656"/>
<polygon fill="#000000" stroke="#000000" points="280.3552,-45.1004 284.6808,-35.4288 275.268,-40.292 280.3552,-45.1004"/>
</g>
<!-- ReadFirstEvents&#45;&gt;DisplayError -->
<g id="edge18" class="edge">
<title>ReadFirstEvents&#45;&gt;DisplayError</title>
<path fill="none" stroke="#000000" d="M165.8819,-397.1787C172.1041,-413.7029 181.78,-438.6855 191.1546,-460 205.4794,-492.5695 214.923,-498.2387 226.1546,-532 252.7568,-611.9644 266.6361,-711.1188 272.1885,-758.7973"/>
<polygon fill="#000000" stroke="#000000" points="268.737,-759.4243 273.3366,-768.9687 275.6928,-758.6392 268.737,-759.4243"/>
<text text-anchor="middle" x="262.1546" y="-579.3" font-family="Times,serif" font-size="14.00" fill="#000000">String</text>
</g>
<!-- ReadFirstEvents&#45;&gt;NetworkOutage -->
<g id="edge24" class="edge">
<title>ReadFirstEvents&#45;&gt;NetworkOutage</title>
<path fill="none" stroke="#000000" d="M150.8404,-360.8481C140.1609,-334.5362 125.5324,-285.4105 148.1546,-253 161.4336,-233.9753 179.0255,-249.4778 197.1546,-235 241.8513,-199.3054 221.2084,-161.0712 267.1546,-127 283.2199,-115.0868 303.1297,-107.1078 322.3013,-101.7668"/>
<polygon fill="#000000" stroke="#000000" points="323.4247,-105.0917 332.2352,-99.2073 321.6782,-98.3131 323.4247,-105.0917"/>
<text text-anchor="middle" x="270.6546" y="-216.3" font-family="Times,serif" font-size="14.00" fill="#000000">RefreshToken</text>
<text text-anchor="middle" x="270.6546" y="-201.3" font-family="Times,serif" font-size="14.00" fill="#000000">LastNetErrorAt</text>
</g>
<!-- ReadFirstEvents&#45;&gt;PageEvents -->
<g id="edge21" class="edge">
<title>ReadFirstEvents&#45;&gt;PageEvents</title>
<path fill="none" stroke="#000000" d="M154.0144,-360.6883C147.5503,-333.2583 140.3831,-281.6682 168.1546,-253 195.2018,-225.0794 304.1834,-243.3245 342.1546,-235 349.2275,-233.4494 356.5981,-231.3951 363.7414,-229.1572"/>
<polygon fill="#000000" stroke="#000000" points="364.8826,-232.4664 373.2918,-226.0216 362.699,-225.8157 364.8826,-232.4664"/>
<text text-anchor="middle" x="225.6546" y="-331.8" font-family="Times,serif" font-size="14.00" fill="#000000">Authenticators</text>
<text text-anchor="middle" x="225.6546" y="-316.8" font-family="Times,serif" font-size="14.00" fill="#000000">Option&lt;PageToken&gt;</text>
<text text-anchor="middle" x="225.6546" y="-301.8" font-family="Times,serif" font-size="14.00" fill="#000000">Appointments</text>
<text text-anchor="middle" x="225.6546" y="-286.8" font-family="Times,serif" font-size="14.00" fill="#000000">RefreshedAt</text>
<text text-anchor="middle" x="225.6546" y="-271.8" font-family="Times,serif" font-size="14.00" fill="#000000">DownloadedAt</text>
<text text-anchor="middle" x="225.6546" y="-256.8" font-family="Times,serif" font-size="14.00" fill="#000000">RefreshType</text>
</g>
<!-- RefreshAuth&#45;&gt;DisplayError -->
<g id="edge19" class="edge">
<title>RefreshAuth&#45;&gt;DisplayError</title>
<path fill="none" stroke="#000000" d="M302.3412,-514.1965C297.4392,-563.3859 283.896,-699.2843 277.9806,-758.6421"/>
<polygon fill="#000000" stroke="#000000" points="274.4777,-758.4988 276.9687,-768.7966 281.4432,-759.193 274.4777,-758.4988"/>
<text text-anchor="middle" x="308.1546" y="-637.8" font-family="Times,serif" font-size="14.00" fill="#000000">String</text>
</g>
<!-- RefreshAuth&#45;&gt;NetworkOutage -->
<g id="edge23" class="edge">
<title>RefreshAuth&#45;&gt;NetworkOutage</title>
<path fill="none" stroke="#000000" d="M339.2066,-481.8568C387.5765,-460.1804 472.8142,-413.6807 508.1546,-343 520.3167,-318.6759 504.0145,-132.0124 500.1546,-127 493.8305,-118.7876 474.5585,-111.2615 454.0103,-105.2378"/>
<polygon fill="#000000" stroke="#000000" points="454.7711,-101.8163 444.1979,-102.4922 452.8849,-108.5574 454.7711,-101.8163"/>
<text text-anchor="middle" x="554.6546" y="-301.8" font-family="Times,serif" font-size="14.00" fill="#000000">RefreshToken</text>
<text text-anchor="middle" x="554.6546" y="-286.8" font-family="Times,serif" font-size="14.00" fill="#000000">LastNetErrorAt</text>
</g>
<!-- RefreshAuth&#45;&gt;ReadFirstEvents -->
<g id="edge12" class="edge">
<title>RefreshAuth&#45;&gt;ReadFirstEvents</title>
<path fill="none" stroke="#000000" d="M258.3957,-485.5912C242.039,-480.103 224.3976,-471.9427 211.1546,-460 194.4746,-444.9577 200.3754,-433.8453 188.1546,-415 185.9576,-411.6121 183.504,-408.1654 180.9796,-404.8138"/>
<polygon fill="#000000" stroke="#000000" points="183.5913,-402.4724 174.6643,-396.7662 178.0845,-406.7939 183.5913,-402.4724"/>
<text text-anchor="middle" x="251.1546" y="-448.8" font-family="Times,serif" font-size="14.00" fill="#000000">Authenticators</text>
<text text-anchor="middle" x="251.1546" y="-433.8" font-family="Times,serif" font-size="14.00" fill="#000000">RefreshedAt</text>
<text text-anchor="middle" x="251.1546" y="-418.8" font-family="Times,serif" font-size="14.00" fill="#000000">RefreshType</text>
</g>
<!-- RequestCodes&#45;&gt;DeviceAuthPoll -->
<g id="edge14" class="edge">
<title>RequestCodes&#45;&gt;DeviceAuthPoll</title>
<path fill="none" stroke="#000000" d="M359.8024,-23.3499C465.9755,-33.8313 679.1546,-58.8762 679.1546,-91 679.1546,-787 679.1546,-787 679.1546,-787 679.1546,-820.5166 463.9083,-851.4566 347.6422,-865.7243"/>
<polygon fill="#000000" stroke="#000000" points="346.8987,-862.2888 337.3942,-866.9702 347.7436,-869.2377 346.8987,-862.2888"/>
<text text-anchor="middle" x="719.6546" y="-499.8" font-family="Times,serif" font-size="14.00" fill="#000000">String</text>
<text text-anchor="middle" x="719.6546" y="-484.8" font-family="Times,serif" font-size="14.00" fill="#000000">PeriodSeconds</text>
</g>
<!-- RequestCodes&#45;&gt;DisplayError -->
<g id="edge20" class="edge">
<title>RequestCodes&#45;&gt;DisplayError</title>
<path fill="none" stroke="#000000" d="M358.0864,-24.8467C452.2505,-36.9517 630.1546,-63.465 630.1546,-91 630.1546,-700 630.1546,-700 630.1546,-700 630.1546,-758.7415 444.4783,-778.022 341.6914,-784.1949"/>
<polygon fill="#000000" stroke="#000000" points="341.1883,-780.7179 331.4054,-784.7856 341.5897,-787.7064 341.1883,-780.7179"/>
<text text-anchor="middle" x="647.1546" y="-433.8" font-family="Times,serif" font-size="14.00" fill="#000000">String</text>
</g>
<!-- _start -->
<g id="node11" class="node">
<title>_start</title>
<ellipse fill="#000000" stroke="#000000" cx="147.1546" cy="-700" rx="1.8" ry="1.8"/>
</g>
<!-- _start&#45;&gt;LoadAuth -->
<g id="edge1" class="edge">
<title>_start&#45;&gt;LoadAuth</title>
<path fill="none" stroke="#000000" d="M147.1546,-697.9692C147.1546,-687.8174 147.1546,-641.8444 147.1546,-611.1979"/>
<polygon fill="#000000" stroke="#000000" points="150.6547,-611.0808 147.1546,-601.0808 143.6547,-611.0809 150.6547,-611.0808"/>
</g>
</g>
</svg>
