<?xml version="1.0" encoding="UTF-8" standalone="no"?>
<!DOCTYPE svg PUBLIC "-//W3C//DTD SVG 1.1//EN"
 "http://www.w3.org/Graphics/SVG/1.1/DTD/svg11.dtd">
<!-- Generated by graphviz version 2.40.1 (20161225.0304)
 -->
<!-- Title: cal_stm Pages: 1 -->
<svg width="1361pt" height="2206pt"
 viewBox="0.00 0.00 1361.00 2206.11" xmlns="http://www.w3.org/2000/svg" xmlns:xlink="http://www.w3.org/1999/xlink">
<g id="graph0" class="graph" transform="scale(1 1) rotate(0) translate(4 2202.1051)">
<title>cal_stm</title>
<polygon fill="#ffffff" stroke="transparent" points="-4,4 -4,-2202.1051 1357,-2202.1051 1357,4 -4,4"/>
<!-- CachedDisplay -->
<g id="node1" class="node">
<title>CachedDisplay</title>
<ellipse fill="none" stroke="#000000" cx="548" cy="-2152.3858" rx="41.9204" ry="41.9204"/>
<ellipse fill="none" stroke="#000000" cx="548" cy="-2152.3858" rx="45.9397" ry="45.9397"/>
<text text-anchor="middle" x="548" y="-2156.1858" font-family="Times,serif" font-size="14.00" fill="#000000">Cached</text>
<text text-anchor="middle" x="548" y="-2141.1858" font-family="Times,serif" font-size="14.00" fill="#000000">Display</text>
</g>
<!-- NetworkOutage -->
<g id="node6" class="node">
<title>NetworkOutage</title>
<ellipse fill="none" stroke="#000000" cx="915" cy="-1935.4117" rx="45.0307" ry="45.0307"/>
<ellipse fill="none" stroke="#000000" cx="915" cy="-1935.4117" rx="49.0109" ry="49.0109"/>
<text text-anchor="middle" x="915" y="-1939.2117" font-family="Times,serif" font-size="14.00" fill="#000000">Network</text>
<text text-anchor="middle" x="915" y="-1924.2117" font-family="Times,serif" font-size="14.00" fill="#000000">Outage</text>
</g>
<!-- CachedDisplay&#45;&gt;NetworkOutage -->
<g id="edge27" class="edge">
<title>CachedDisplay&#45;&gt;NetworkOutage</title>
<path fill="none" stroke="#000000" d="M589.9231,-2133.3809C615.7178,-2121.3101 649.2329,-2104.9422 678,-2088.6665 744.8459,-2050.8467 818.6834,-2001.8861 865.8911,-1969.6056"/>
<polygon fill="#000000" stroke="#000000" points="868.1205,-1972.3207 874.3882,-1963.7786 864.1616,-1966.5477 868.1205,-1972.3207"/>
<text text-anchor="start" x="818.5" y="-2074.4665" font-family="Times,serif" font-style="italic" font-size="14.00" fill="#000000">&quot;CachedDisplay&quot; &#45;&gt; &quot;NetworkOutage&quot;</text>
<text text-anchor="start" x="887.5" y="-2052.4665" font-family="Times,serif" font-size="14.00" fill="#000000">RefreshToken</text>
<text text-anchor="start" x="883.5" y="-2031.4665" font-family="Times,serif" font-size="14.00" fill="#000000">LastNetErrorAt</text>
<text text-anchor="start" x="881.5" y="-2010.4665" font-family="Times,serif" font-size="14.00" fill="#000000">TimeUpdatedAt</text>
</g>
<!-- DeviceAuthPoll -->
<g id="node2" class="node">
<title>DeviceAuthPoll</title>
<ellipse fill="none" stroke="#000000" cx="616" cy="-532.332" rx="45.927" ry="45.927"/>
<ellipse fill="none" stroke="#000000" cx="616" cy="-532.332" rx="49.9239" ry="49.9239"/>
<text text-anchor="middle" x="616" y="-536.132" font-family="Times,serif" font-size="14.00" fill="#000000">Device</text>
<text text-anchor="middle" x="616" y="-521.132" font-family="Times,serif" font-size="14.00" fill="#000000">AuthPoll</text>
</g>
<!-- DisplayError -->
<g id="node3" class="node">
<title>DisplayError</title>
<ellipse fill="none" stroke="#000000" cx="474" cy="-356.6507" rx="41.9204" ry="41.9204"/>
<ellipse fill="none" stroke="#000000" cx="474" cy="-356.6507" rx="45.9397" ry="45.9397"/>
<text text-anchor="middle" x="474" y="-360.4507" font-family="Times,serif" font-size="14.00" fill="#000000">Display</text>
<text text-anchor="middle" x="474" y="-345.4507" font-family="Times,serif" font-size="14.00" fill="#000000">Error</text>
</g>
<!-- DeviceAuthPoll&#45;&gt;DisplayError -->
<g id="edge18" class="edge">
<title>DeviceAuthPoll&#45;&gt;DisplayError</title>
<path fill="none" stroke="#000000" d="M566.9003,-522.6065C534.7822,-513.4335 495.166,-496.1479 475,-464.37 465.1955,-448.9199 462.7394,-429.5449 463.4468,-411.5019"/>
<polygon fill="#000000" stroke="#000000" points="466.9497,-411.5845 464.1676,-401.3614 459.9673,-411.0881 466.9497,-411.5845"/>
<text text-anchor="start" x="479.5" y="-450.17" font-family="Times,serif" font-style="italic" font-size="14.00" fill="#000000">&quot;DeviceAuthPoll&quot; &#45;&gt; &quot;DisplayError&quot;</text>
<text text-anchor="start" x="565" y="-428.17" font-family="Times,serif" font-size="14.00" fill="#000000">String</text>
</g>
<!-- ReadFirstEvents -->
<g id="node9" class="node">
<title>ReadFirstEvents</title>
<ellipse fill="none" stroke="#000000" cx="532" cy="-1497.9279" rx="48.5974" ry="48.5974"/>
<ellipse fill="none" stroke="#000000" cx="532" cy="-1497.9279" rx="52.5816" ry="52.5816"/>
<text text-anchor="middle" x="532" y="-1501.7279" font-family="Times,serif" font-size="14.00" fill="#000000">ReadFirst</text>
<text text-anchor="middle" x="532" y="-1486.7279" font-family="Times,serif" font-size="14.00" fill="#000000">Events</text>
</g>
<!-- DeviceAuthPoll&#45;&gt;ReadFirstEvents -->
<g id="edge12" class="edge">
<title>DeviceAuthPoll&#45;&gt;ReadFirstEvents</title>
<path fill="none" stroke="#000000" d="M619.7285,-582.487C623.4435,-635.1601 628.8898,-720.4208 631,-794.1467 631.5595,-813.6943 643.398,-823.0236 631,-838.1467 605.1382,-869.693 567.0823,-824.7825 541,-856.1467 504.6523,-899.8552 520.5326,-1281.6645 528.4726,-1434.7926"/>
<polygon fill="#000000" stroke="#000000" points="524.9878,-1435.1758 529.0066,-1444.9788 531.9782,-1434.8093 524.9878,-1435.1758"/>
<text text-anchor="start" x="545" y="-948.4467" font-family="Times,serif" font-style="italic" font-size="14.00" fill="#000000">&quot;DeviceAuthPoll&quot; &#45;&gt; &quot;ReadFirstEvents&quot;</text>
<text text-anchor="start" x="616" y="-926.4467" font-family="Times,serif" font-size="14.00" fill="#000000">Authenticators</text>
<text text-anchor="start" x="621.5" y="-905.4467" font-family="Times,serif" font-size="14.00" fill="#000000">RefreshedAt</text>
<text text-anchor="start" x="621" y="-884.4467" font-family="Times,serif" font-size="14.00" fill="#000000">RefreshType</text>
<text text-anchor="start" x="600" y="-863.4467" font-family="Times,serif" font-size="14.00" fill="#000000">PendingDisplayDate</text>
</g>
<!-- ErrorWait -->
<g id="node4" class="node">
<title>ErrorWait</title>
<ellipse fill="none" stroke="#000000" cx="950" cy="-195.1116" rx="31.6605" ry="31.6605"/>
<ellipse fill="none" stroke="#000000" cx="950" cy="-195.1116" rx="35.6405" ry="35.6405"/>
<text text-anchor="middle" x="950" y="-198.9116" font-family="Times,serif" font-size="14.00" fill="#000000">Error</text>
<text text-anchor="middle" x="950" y="-183.9116" font-family="Times,serif" font-size="14.00" fill="#000000">Wait</text>
</g>
<!-- DisplayError&#45;&gt;ErrorWait -->
<g id="edge3" class="edge">
<title>DisplayError&#45;&gt;ErrorWait</title>
<path fill="none" stroke="#000000" d="M517.5037,-341.887C607.9792,-311.1825 815.5321,-240.7457 906.2337,-209.9645"/>
<polygon fill="#000000" stroke="#000000" points="907.5845,-213.2022 915.9292,-206.6741 905.3348,-206.5735 907.5845,-213.2022"/>
<text text-anchor="start" x="786" y="-278.7314" font-family="Times,serif" font-style="italic" font-size="14.00" fill="#000000">&quot;DisplayError&quot; &#45;&gt; &quot;ErrorWait&quot;</text>
<text text-anchor="start" x="832.5" y="-256.7314" font-family="Times,serif" font-size="14.00" fill="#000000">DownloadedAt</text>
</g>
<!-- LoadAuth -->
<g id="node5" class="node">
<title>LoadAuth</title>
<ellipse fill="none" stroke="#000000" cx="950" cy="-50.1459" rx="46.2806" ry="46.2806"/>
<ellipse fill="none" stroke="#000000" cx="950" cy="-50.1459" rx="50.2922" ry="50.2922"/>
<text text-anchor="middle" x="950" y="-46.4459" font-family="Times,serif" font-size="14.00" fill="#000000">LoadAuth</text>
</g>
<!-- ErrorWait&#45;&gt;LoadAuth -->
<g id="edge2" class="edge">
<title>ErrorWait&#45;&gt;LoadAuth</title>
<path fill="none" stroke="#000000" d="M950,-159.2774C950,-144.5574 950,-127.1009 950,-110.5152"/>
<polygon fill="#000000" stroke="#000000" points="953.5001,-110.333 950,-100.3331 946.5001,-110.3331 953.5001,-110.333"/>
<text text-anchor="start" x="954.5" y="-126.5918" font-family="Times,serif" font-style="italic" font-size="14.00" fill="#000000">&quot;ErrorWait&quot; &#45;&gt; &quot;LoadAuth&quot;</text>
</g>
<!-- RequestCodes -->
<g id="node11" class="node">
<title>RequestCodes</title>
<ellipse fill="none" stroke="#000000" cx="914" cy="-729.7203" rx="42.3593" ry="42.3593"/>
<ellipse fill="none" stroke="#000000" cx="914" cy="-729.7203" rx="46.3529" ry="46.3529"/>
<text text-anchor="middle" x="914" y="-733.5203" font-family="Times,serif" font-size="14.00" fill="#000000">Request</text>
<text text-anchor="middle" x="914" y="-718.5203" font-family="Times,serif" font-size="14.00" fill="#000000">Codes</text>
</g>
<!-- ErrorWait&#45;&gt;RequestCodes -->
<g id="edge4" class="edge">
<title>ErrorWait&#45;&gt;RequestCodes</title>
<path fill="none" stroke="#000000" d="M975.0799,-221.1511C1011.9445,-262.6557 1072.0656,-344.973 1030,-402.37 1014.2958,-423.7979 989.7733,-399.7682 973,-420.37 938.4575,-462.7969 963.836,-612.9256 948,-665.2939 946.4831,-670.3102 944.5664,-675.3906 942.4192,-680.3829"/>
<polygon fill="#000000" stroke="#000000" points="939.069,-679.289 938.0502,-689.8347 945.4231,-682.2261 939.069,-679.289"/>
<text text-anchor="start" x="977" y="-439.17" font-family="Times,serif" font-style="italic" font-size="14.00" fill="#000000">&quot;ErrorWait&quot; &#45;&gt; &quot;RequestCodes&quot;</text>
</g>
<!-- LoadAuth&#45;&gt;DisplayError -->
<g id="edge16" class="edge">
<title>LoadAuth&#45;&gt;DisplayError</title>
<path fill="none" stroke="#000000" d="M900.7657,-59.9532C837.9392,-74.1741 727.8517,-104.9537 648,-159.2918 588.3972,-199.8508 536.1505,-265.4138 504.8442,-309.7339"/>
<polygon fill="#000000" stroke="#000000" points="501.9099,-307.8228 499.0558,-318.026 507.6497,-311.8296 501.9099,-307.8228"/>
<text text-anchor="start" x="652" y="-202.9116" font-family="Times,serif" font-style="italic" font-size="14.00" fill="#000000">&quot;LoadAuth&quot; &#45;&gt; &quot;DisplayError&quot;</text>
<text text-anchor="start" x="721" y="-180.9116" font-family="Times,serif" font-size="14.00" fill="#000000">String</text>
</g>
<!-- RefreshAuth -->
<g id="node10" class="node">
<title>RefreshAuth</title>
<ellipse fill="none" stroke="#000000" cx="532" cy="-1739.4375" rx="41.9204" ry="41.9204"/>
<ellipse fill="none" stroke="#000000" cx="532" cy="-1739.4375" rx="45.9397" ry="45.9397"/>
<text text-anchor="middle" x="532" y="-1743.2375" font-family="Times,serif" font-size="14.00" fill="#000000">Refresh</text>
<text text-anchor="middle" x="532" y="-1728.2375" font-family="Times,serif" font-size="14.00" fill="#000000">Auth</text>
</g>
<!-- LoadAuth&#45;&gt;RefreshAuth -->
<g id="edge8" class="edge">
<title>LoadAuth&#45;&gt;RefreshAuth</title>
<path fill="none" stroke="#000000" d="M999.3772,-59.1538C1065.6096,-74.4113 1175,-112.1659 1175,-195.1116 1175,-816.1467 1175,-816.1467 1175,-816.1467 1175,-885.2266 1093.2786,-1366.6018 1060,-1427.1375 982.0497,-1568.9337 936.3825,-1598.8441 794,-1675.7182 728.2712,-1711.206 642.6895,-1727.21 587.541,-1734.2315"/>
<polygon fill="#000000" stroke="#000000" points="587.113,-1730.7576 577.6093,-1735.4407 587.9591,-1737.7063 587.113,-1730.7576"/>
<text text-anchor="start" x="1179" y="-747.5203" font-family="Times,serif" font-style="italic" font-size="14.00" fill="#000000">&quot;LoadAuth&quot; &#45;&gt; &quot;RefreshAuth&quot;</text>
<text text-anchor="start" x="1223.5" y="-725.5203" font-family="Times,serif" font-size="14.00" fill="#000000">RefreshToken</text>
<text text-anchor="start" x="1206" y="-704.5203" font-family="Times,serif" font-size="14.00" fill="#000000">PendingDisplayDate</text>
</g>
<!-- LoadAuth&#45;&gt;RequestCodes -->
<g id="edge5" class="edge">
<title>LoadAuth&#45;&gt;RequestCodes</title>
<path fill="none" stroke="#000000" d="M925.4643,-94.1397C898.813,-144.6622 857.9151,-230.9066 842,-310.9314 834.073,-350.7902 826.6859,-364.7265 842,-402.37 860.7128,-448.3679 901.2872,-436.3721 920,-482.37 936.7352,-523.5068 920.9032,-537.8925 920,-582.2939 919.3903,-612.2705 918.0838,-645.6544 916.8452,-673.0634"/>
<polygon fill="#000000" stroke="#000000" points="913.3396,-673.1055 916.3754,-683.256 920.3322,-673.4278 913.3396,-673.1055"/>
<text text-anchor="start" x="846" y="-353.4507" font-family="Times,serif" font-style="italic" font-size="14.00" fill="#000000">&quot;LoadAuth&quot; &#45;&gt; &quot;RequestCodes&quot;</text>
</g>
<!-- NetworkOutage&#45;&gt;RefreshAuth -->
<g id="edge9" class="edge">
<title>NetworkOutage&#45;&gt;RefreshAuth</title>
<path fill="none" stroke="#000000" d="M912.632,-1886.0356C910.0083,-1853.4782 904.5052,-1814.7761 893,-1803.1568 851.2298,-1760.9723 678.621,-1746.4319 588.054,-1741.6475"/>
<polygon fill="#000000" stroke="#000000" points="588.1247,-1738.1467 577.9605,-1741.1368 587.7709,-1745.1378 588.1247,-1738.1467"/>
<text text-anchor="start" x="914.5" y="-1853.4568" font-family="Times,serif" font-style="italic" font-size="14.00" fill="#000000">&quot;NetworkOutage&quot; &#45;&gt; &quot;RefreshAuth&quot;</text>
<text text-anchor="start" x="975.5" y="-1831.4568" font-family="Times,serif" font-size="14.00" fill="#000000">RefreshToken</text>
<text text-anchor="start" x="958" y="-1810.4568" font-family="Times,serif" font-size="14.00" fill="#000000">PendingDisplayDate</text>
</g>
<!-- NetworkOutage&#45;&gt;RequestCodes -->
<g id="edge6" class="edge">
<title>NetworkOutage&#45;&gt;RequestCodes</title>
<path fill="none" stroke="#000000" d="M963.6802,-1925.783C1017.9715,-1914.0122 1100.8377,-1892.6136 1121,-1868.1568 1157.671,-1823.6751 1137,-1797.0864 1137,-1739.4375 1137,-1739.4375 1137,-1739.4375 1137,-909.6467 1137,-851.594 1119.1934,-832.934 1076,-794.1467 1046.0746,-767.274 1003.5673,-750.9402 969.603,-741.4449"/>
<polygon fill="#000000" stroke="#000000" points="970.3796,-738.0297 959.815,-738.8294 968.5724,-744.7924 970.3796,-738.0297"/>
<text text-anchor="start" x="1141" y="-1338.9375" font-family="Times,serif" font-style="italic" font-size="14.00" fill="#000000">&quot;NetworkOutage&quot; &#45;&gt; &quot;RequestCodes&quot;</text>
</g>
<!-- PageEvents -->
<g id="node7" class="node">
<title>PageEvents</title>
<ellipse fill="none" stroke="#000000" cx="245" cy="-1183.1421" rx="51.9911" ry="51.9911"/>
<ellipse fill="none" stroke="#000000" cx="245" cy="-1183.1421" rx="55.9908" ry="55.9908"/>
<text text-anchor="middle" x="245" y="-1179.4421" font-family="Times,serif" font-size="14.00" fill="#000000">PageEvents</text>
</g>
<!-- PageEvents&#45;&gt;CachedDisplay -->
<g id="edge26" class="edge">
<title>PageEvents&#45;&gt;CachedDisplay</title>
<path fill="none" stroke="#000000" d="M232.1253,-1237.6642C218.5168,-1300.1546 199,-1405.8306 199,-1497.9279 199,-1935.4117 199,-1935.4117 199,-1935.4117 199,-2072.0192 394.2381,-2125.6569 492.6596,-2144.0173"/>
<polygon fill="#000000" stroke="#000000" points="492.2693,-2147.5034 502.7321,-2145.8362 493.5133,-2140.6148 492.2693,-2147.5034"/>
<text text-anchor="start" x="203.5" y="-1757.2375" font-family="Times,serif" font-style="italic" font-size="14.00" fill="#000000">&quot;PageEvents&quot; &#45;&gt; &quot;CachedDisplay&quot;</text>
<text text-anchor="start" x="261.5" y="-1735.2375" font-family="Times,serif" font-size="14.00" fill="#000000">RefreshToken</text>
<text text-anchor="start" x="257.5" y="-1714.2375" font-family="Times,serif" font-size="14.00" fill="#000000">LastNetErrorAt</text>
</g>
<!-- PageEvents&#45;&gt;DisplayError -->
<g id="edge17" class="edge">
<title>PageEvents&#45;&gt;DisplayError</title>
<path fill="none" stroke="#000000" d="M237.5643,-1127.4722C230.8445,-1072.2894 222,-985.2902 222,-909.6467 222,-909.6467 222,-909.6467 222,-532.332 222,-436.9535 344.9821,-389.0987 419.1189,-368.9157"/>
<polygon fill="#000000" stroke="#000000" points="420.4597,-372.1819 429.2378,-366.2494 418.6761,-365.413 420.4597,-372.1819"/>
<text text-anchor="start" x="226.5" y="-737.5203" font-family="Times,serif" font-style="italic" font-size="14.00" fill="#000000">&quot;PageEvents&quot; &#45;&gt; &quot;DisplayError&quot;</text>
<text text-anchor="start" x="301" y="-715.5203" font-family="Times,serif" font-size="14.00" fill="#000000">String</text>
</g>
<!-- PollEvents -->
<g id="node8" class="node">
<title>PollEvents</title>
<ellipse fill="none" stroke="#000000" cx="833" cy="-909.6467" rx="48.9738" ry="48.9738"/>
<ellipse fill="none" stroke="#000000" cx="833" cy="-909.6467" rx="52.9925" ry="52.9925"/>
<text text-anchor="middle" x="833" y="-905.9467" font-family="Times,serif" font-size="14.00" fill="#000000">PollEvents</text>
</g>
<!-- PageEvents&#45;&gt;PollEvents -->
<g id="edge23" class="edge">
<title>PageEvents&#45;&gt;PollEvents</title>
<path fill="none" stroke="#000000" d="M287.7832,-1146.7519C346.2842,-1099.3341 456.5178,-1018.1232 566,-981.1467 650.5558,-952.5889 683.1779,-996.3993 766,-963.1467 772.9327,-960.3633 779.7222,-956.615 786.1582,-952.3872"/>
<polygon fill="#000000" stroke="#000000" points="788.5379,-954.9919 794.6957,-946.3703 784.5054,-949.2701 788.5379,-954.9919"/>
<text text-anchor="start" x="570.5" y="-1094.9467" font-family="Times,serif" font-style="italic" font-size="14.00" fill="#000000">&quot;PageEvents&quot; &#45;&gt; &quot;PollEvents&quot;</text>
<text text-anchor="start" x="615" y="-1072.9467" font-family="Times,serif" font-size="14.00" fill="#000000">Authenticators</text>
<text text-anchor="start" x="620.5" y="-1051.9467" font-family="Times,serif" font-size="14.00" fill="#000000">RefreshedAt</text>
<text text-anchor="start" x="613.5" y="-1030.9467" font-family="Times,serif" font-size="14.00" fill="#000000">DownloadedAt</text>
<text text-anchor="start" x="610.5" y="-1009.9467" font-family="Times,serif" font-size="14.00" fill="#000000">TimeUpdatedAt</text>
<text text-anchor="start" x="599" y="-988.9467" font-family="Times,serif" font-size="14.00" fill="#000000">PendingDisplayDate</text>
</g>
<!-- PageEvents&#45;&gt;RefreshAuth -->
<g id="edge10" class="edge">
<title>PageEvents&#45;&gt;RefreshAuth</title>
<path fill="none" stroke="#000000" d="M236.7907,-1238.7742C228.4706,-1315.302 224.2854,-1454.4908 285,-1550.7182 333.2826,-1627.242 424.2718,-1684.4798 481.3156,-1714.869"/>
<polygon fill="#000000" stroke="#000000" points="480.0321,-1718.148 490.5136,-1719.6934 483.2835,-1711.9489 480.0321,-1718.148"/>
<text text-anchor="start" x="289.5" y="-1515.7279" font-family="Times,serif" font-style="italic" font-size="14.00" fill="#000000">&quot;PageEvents&quot; &#45;&gt; &quot;RefreshAuth&quot;</text>
<text text-anchor="start" x="339.5" y="-1493.7279" font-family="Times,serif" font-size="14.00" fill="#000000">RefreshToken</text>
<text text-anchor="start" x="322" y="-1472.7279" font-family="Times,serif" font-size="14.00" fill="#000000">PendingDisplayDate</text>
</g>
<!-- PollEvents&#45;&gt;ReadFirstEvents -->
<g id="edge14" class="edge">
<title>PollEvents&#45;&gt;ReadFirstEvents</title>
<path fill="none" stroke="#000000" d="M816.4718,-960.2168C798.2113,-1012.8916 768.0704,-1090.3283 743,-1109.1467 697.4068,-1143.37 657.9294,-1088.5216 616,-1127.1467 610.2669,-1132.428 567.2327,-1331.9202 545.086,-1436.0456"/>
<polygon fill="#000000" stroke="#000000" points="541.6003,-1435.6105 542.9451,-1446.1197 548.4474,-1437.0656 541.6003,-1435.6105"/>
<text text-anchor="start" x="620.5" y="-1221.9421" font-family="Times,serif" font-style="italic" font-size="14.00" fill="#000000">&quot;PollEvents&quot; &#45;&gt; &quot;ReadFirstEvents&quot;</text>
<text text-anchor="start" x="678" y="-1199.9421" font-family="Times,serif" font-size="14.00" fill="#000000">Authenticators</text>
<text text-anchor="start" x="683.5" y="-1178.9421" font-family="Times,serif" font-size="14.00" fill="#000000">RefreshedAt</text>
<text text-anchor="start" x="683" y="-1157.9421" font-family="Times,serif" font-size="14.00" fill="#000000">RefreshType</text>
<text text-anchor="start" x="662" y="-1136.9421" font-family="Times,serif" font-size="14.00" fill="#000000">PendingDisplayDate</text>
</g>
<!-- PollEvents&#45;&gt;RefreshAuth -->
<g id="edge11" class="edge">
<title>PollEvents&#45;&gt;RefreshAuth</title>
<path fill="none" stroke="#000000" d="M845.1084,-961.2537C873.6757,-1097.125 929.8673,-1468.5025 747,-1675.7182 725.8581,-1699.6751 643.4365,-1719.1067 587.0109,-1729.9669"/>
<polygon fill="#000000" stroke="#000000" points="586.3242,-1726.5347 577.1473,-1731.8295 587.6231,-1733.4131 586.3242,-1726.5347"/>
<text text-anchor="start" x="880" y="-1359.9375" font-family="Times,serif" font-style="italic" font-size="14.00" fill="#000000">&quot;PollEvents&quot; &#45;&gt; &quot;RefreshAuth&quot;</text>
<text text-anchor="start" x="927.5" y="-1337.9375" font-family="Times,serif" font-size="14.00" fill="#000000">RefreshToken</text>
<text text-anchor="start" x="910" y="-1316.9375" font-family="Times,serif" font-size="14.00" fill="#000000">PendingDisplayDate</text>
</g>
<!-- PollEvents&#45;&gt;RequestCodes -->
<g id="edge7" class="edge">
<title>PollEvents&#45;&gt;RequestCodes</title>
<path fill="none" stroke="#000000" d="M854.7065,-861.4297C865.8012,-836.785 879.3136,-806.7697 890.6355,-781.6202"/>
<polygon fill="#000000" stroke="#000000" points="893.9442,-782.7964 894.8578,-772.241 887.5612,-779.9229 893.9442,-782.7964"/>
<text text-anchor="start" x="887.5" y="-812.9467" font-family="Times,serif" font-style="italic" font-size="14.00" fill="#000000">&quot;PollEvents&quot; &#45;&gt; &quot;RequestCodes&quot;</text>
</g>
<!-- ReadFirstEvents&#45;&gt;CachedDisplay -->
<g id="edge25" class="edge">
<title>ReadFirstEvents&#45;&gt;CachedDisplay</title>
<path fill="none" stroke="#000000" d="M583.8901,-1507.7912C641.1038,-1519.8451 727.6496,-1541.9746 747,-1568.7182 774.877,-1607.2462 760.909,-1630.2422 747,-1675.7182 727.015,-1741.0601 682.9531,-1738.4496 661,-1803.1568 635.0344,-1879.6911 674.1509,-1907.5404 650,-1984.6665 635.7434,-2030.1951 606.5778,-2076.0835 583.0719,-2108.3237"/>
<polygon fill="#000000" stroke="#000000" points="580.0593,-2106.5106 576.9205,-2116.6298 585.6847,-2110.6766 580.0593,-2106.5106"/>
<text text-anchor="start" x="665" y="-1853.4568" font-family="Times,serif" font-style="italic" font-size="14.00" fill="#000000">&quot;ReadFirstEvents&quot; &#45;&gt; &quot;CachedDisplay&quot;</text>
<text text-anchor="start" x="736.5" y="-1831.4568" font-family="Times,serif" font-size="14.00" fill="#000000">RefreshToken</text>
<text text-anchor="start" x="732.5" y="-1810.4568" font-family="Times,serif" font-size="14.00" fill="#000000">LastNetErrorAt</text>
</g>
<!-- ReadFirstEvents&#45;&gt;DisplayError -->
<g id="edge19" class="edge">
<title>ReadFirstEvents&#45;&gt;DisplayError</title>
<path fill="none" stroke="#000000" d="M520.8184,-1446.1624C519.4987,-1439.7619 518.197,-1433.3038 517,-1427.1375 502.3792,-1351.8205 500.6005,-1332.6454 487,-1257.1375 450.0219,-1051.8411 371.5374,-999.1701 410,-794.1467 411.5827,-785.7102 414.9246,-784.4757 417,-776.1467 455.4964,-621.6496 431.3798,-577.177 459,-420.37 459.5348,-417.3341 460.1246,-414.2261 460.7518,-411.0955"/>
<polygon fill="#000000" stroke="#000000" points="464.2251,-411.5868 462.8608,-401.0801 457.3753,-410.1443 464.2251,-411.5868"/>
<text text-anchor="start" x="414.5" y="-823.9467" font-family="Times,serif" font-style="italic" font-size="14.00" fill="#000000">&quot;ReadFirstEvents&quot; &#45;&gt; &quot;DisplayError&quot;</text>
<text text-anchor="start" x="502" y="-801.9467" font-family="Times,serif" font-size="14.00" fill="#000000">String</text>
</g>
<!-- ReadFirstEvents&#45;&gt;PageEvents -->
<g id="edge22" class="edge">
<title>ReadFirstEvents&#45;&gt;PageEvents</title>
<path fill="none" stroke="#000000" d="M487.2247,-1469.1956C471.0407,-1460.0761 452.2499,-1450.8802 434,-1445.1375 400.923,-1434.7292 303.7498,-1451.4247 279,-1427.1375 251.7906,-1400.4367 261.3584,-1294.881 256,-1257.1375 255.6195,-1254.4573 255.228,-1251.7229 254.8299,-1248.9611"/>
<polygon fill="#000000" stroke="#000000" points="258.2679,-1248.281 253.3669,-1238.8879 251.3406,-1249.2871 258.2679,-1248.281"/>
<text text-anchor="start" x="283" y="-1412.9375" font-family="Times,serif" font-style="italic" font-size="14.00" fill="#000000">&quot;ReadFirstEvents&quot; &#45;&gt; &quot;PageEvents&quot;</text>
<text text-anchor="start" x="343" y="-1390.9375" font-family="Times,serif" font-size="14.00" fill="#000000">Authenticators</text>
<text text-anchor="start" x="325.5" y="-1369.9375" font-family="Times,serif" font-size="14.00" fill="#000000">Option&lt;PageToken&gt;</text>
<text text-anchor="start" x="344" y="-1348.9375" font-family="Times,serif" font-size="14.00" fill="#000000">Appointments</text>
<text text-anchor="start" x="348.5" y="-1327.9375" font-family="Times,serif" font-size="14.00" fill="#000000">RefreshedAt</text>
<text text-anchor="start" x="341.5" y="-1306.9375" font-family="Times,serif" font-size="14.00" fill="#000000">DownloadedAt</text>
<text text-anchor="start" x="348" y="-1285.9375" font-family="Times,serif" font-size="14.00" fill="#000000">RefreshType</text>
<text text-anchor="start" x="327" y="-1264.9375" font-family="Times,serif" font-size="14.00" fill="#000000">PendingDisplayDate</text>
</g>
<!-- RefreshAuth&#45;&gt;CachedDisplay -->
<g id="edge24" class="edge">
<title>RefreshAuth&#45;&gt;CachedDisplay</title>
<path fill="none" stroke="#000000" d="M503.4168,-1775.5529C482.9576,-1803.8314 457.1391,-1845.1254 446,-1886.1568 434.5294,-1928.4096 434.187,-1942.5082 446,-1984.6665 458.9146,-2030.7563 488.36,-2076.7562 512.3103,-2108.8921"/>
<polygon fill="#000000" stroke="#000000" points="509.7527,-2111.3118 518.5837,-2117.1653 515.3304,-2107.0823 509.7527,-2111.3118"/>
<text text-anchor="start" x="450" y="-1953.2117" font-family="Times,serif" font-style="italic" font-size="14.00" fill="#000000">&quot;RefreshAuth&quot; &#45;&gt; &quot;CachedDisplay&quot;</text>
<text text-anchor="start" x="509.5" y="-1931.2117" font-family="Times,serif" font-size="14.00" fill="#000000">RefreshToken</text>
<text text-anchor="start" x="505.5" y="-1910.2117" font-family="Times,serif" font-size="14.00" fill="#000000">LastNetErrorAt</text>
</g>
<!-- RefreshAuth&#45;&gt;DisplayError -->
<g id="edge20" class="edge">
<title>RefreshAuth&#45;&gt;DisplayError</title>
<path fill="none" stroke="#000000" d="M489.6405,-1722.1443C464.9902,-1712.6298 433.126,-1701.2596 404,-1693.7182 356.4669,-1681.4108 341.0726,-1692.6941 295,-1675.7182 151.3588,-1622.7923 0,-1651.0094 0,-1497.9279 0,-1497.9279 0,-1497.9279 0,-532.332 0,-443.982 293.1959,-385.9348 418.4,-365.1746"/>
<polygon fill="#000000" stroke="#000000" points="419.248,-368.5825 428.5509,-363.5123 418.1167,-361.6745 419.248,-368.5825"/>
<text text-anchor="start" x="4" y="-917.4467" font-family="Times,serif" font-style="italic" font-size="14.00" fill="#000000">&quot;RefreshAuth&quot; &#45;&gt; &quot;DisplayError&quot;</text>
<text text-anchor="start" x="80" y="-895.4467" font-family="Times,serif" font-size="14.00" fill="#000000">String</text>
</g>
<!-- RefreshAuth&#45;&gt;ReadFirstEvents -->
<g id="edge13" class="edge">
<title>RefreshAuth&#45;&gt;ReadFirstEvents</title>
<path fill="none" stroke="#000000" d="M532,-1693.4429C532,-1655.892 532,-1602.4394 532,-1560.9122"/>
<polygon fill="#000000" stroke="#000000" points="535.5001,-1560.899 532,-1550.899 528.5001,-1560.899 535.5001,-1560.899"/>
<text text-anchor="start" x="536.5" y="-1661.0182" font-family="Times,serif" font-style="italic" font-size="14.00" fill="#000000">&quot;RefreshAuth&quot; &#45;&gt; &quot;ReadFirstEvents&quot;</text>
<text text-anchor="start" x="598" y="-1639.0182" font-family="Times,serif" font-size="14.00" fill="#000000">Authenticators</text>
<text text-anchor="start" x="603.5" y="-1618.0182" font-family="Times,serif" font-size="14.00" fill="#000000">RefreshedAt</text>
<text text-anchor="start" x="603" y="-1597.0182" font-family="Times,serif" font-size="14.00" fill="#000000">RefreshType</text>
<text text-anchor="start" x="582" y="-1576.0182" font-family="Times,serif" font-size="14.00" fill="#000000">PendingDisplayDate</text>
</g>
<!-- RequestCodes&#45;&gt;DeviceAuthPoll -->
<g id="edge15" class="edge">
<title>RequestCodes&#45;&gt;DeviceAuthPoll</title>
<path fill="none" stroke="#000000" d="M867.783,-723.0937C804.0233,-713.09 693.5839,-692.3859 664,-665.2939 641.4004,-644.598 651.401,-629.1189 641,-600.2939 639.6699,-596.6076 638.293,-592.8114 636.9005,-588.9867"/>
<polygon fill="#000000" stroke="#000000" points="640.1422,-587.6601 633.4246,-579.4672 633.5668,-590.0611 640.1422,-587.6601"/>
<text text-anchor="start" x="668" y="-650.5939" font-family="Times,serif" font-style="italic" font-size="14.00" fill="#000000">&quot;RequestCodes&quot; &#45;&gt; &quot;DeviceAuthPoll&quot;</text>
<text text-anchor="start" x="755" y="-628.5939" font-family="Times,serif" font-size="14.00" fill="#000000">String</text>
<text text-anchor="start" x="731.5" y="-607.5939" font-family="Times,serif" font-size="14.00" fill="#000000">PeriodSeconds</text>
</g>
<!-- RequestCodes&#45;&gt;DisplayError -->
<g id="edge21" class="edge">
<title>RequestCodes&#45;&gt;DisplayError</title>
<path fill="none" stroke="#000000" d="M914.2297,-683.089C911.7249,-654.8751 903.488,-620.5484 880,-600.2939 824.469,-552.4076 769.4296,-632.5141 716,-582.2939 662.7834,-532.274 736.5034,-474.9724 688,-420.37 666.9753,-396.7016 585.6653,-377.2968 529.5555,-366.3497"/>
<polygon fill="#000000" stroke="#000000" points="529.8716,-362.8468 519.392,-364.405 528.556,-369.7221 529.8716,-362.8468"/>
<text text-anchor="start" x="720" y="-540.132" font-family="Times,serif" font-style="italic" font-size="14.00" fill="#000000">&quot;RequestCodes&quot; &#45;&gt; &quot;DisplayError&quot;</text>
<text text-anchor="start" x="801" y="-518.132" font-family="Times,serif" font-size="14.00" fill="#000000">String</text>
</g>
<!-- _start -->
<g id="node12" class="node">
<title>_start</title>
<ellipse fill="#000000" stroke="#000000" cx="1208" cy="-195.1116" rx="1.8" ry="1.8"/>
</g>
<!-- _start&#45;&gt;LoadAuth -->
<g id="edge1" class="edge">
<title>_start&#45;&gt;LoadAuth</title>
<path fill="none" stroke="#000000" d="M1208.0836,-192.8419C1208.3311,-182.6064 1207.9495,-140.2894 1186,-118.2918 1161.2469,-93.4844 1071.0075,-72.4427 1009.5676,-60.556"/>
<polygon fill="#000000" stroke="#000000" points="1010.0687,-57.0886 999.5905,-58.6569 1008.7596,-63.9652 1010.0687,-57.0886"/>
<text text-anchor="start" x="1203" y="-126.5918" font-family="Times,serif" font-weight="bold" font-style="italic" font-size="14.00" fill="#000000"> &#45;&gt; &quot;LoadAuth&quot;</text>
</g>
</g>
</svg>
