<?xml version="1.0" encoding="UTF-8" standalone="no"?>
<!DOCTYPE svg PUBLIC "-//W3C//DTD SVG 1.1//EN"
 "http://www.w3.org/Graphics/SVG/1.1/DTD/svg11.dtd">
<!-- Generated by graphviz version 2.40.1 (20161225.0304)
 -->
<!-- Title: cal_stm Pages: 1 -->
<svg width="1361pt" height="1772pt"
 viewBox="0.00 0.00 1361.00 1772.00" xmlns="http://www.w3.org/2000/svg" xmlns:xlink="http://www.w3.org/1999/xlink">
<g id="graph0" class="graph" transform="scale(1 1) rotate(0) translate(4 1768)">
<title>cal_stm</title>
<polygon fill="#ffffff" stroke="transparent" points="-4,4 -4,-1768 1357,-1768 1357,4 -4,4"/>
<!-- CachedDisplay -->
<g id="node1" class="node">
<title>CachedDisplay</title>
<ellipse fill="none" stroke="#000000" cx="548" cy="-1746" rx="64.189" ry="18"/>
<text text-anchor="middle" x="548" y="-1742.3" font-family="Times,serif" font-size="14.00" fill="#000000">CachedDisplay</text>
</g>
<!-- NetworkOutage -->
<g id="node6" class="node">
<title>NetworkOutage</title>
<ellipse fill="none" stroke="#000000" cx="915" cy="-1594.5" rx="66.8882" ry="18"/>
<text text-anchor="middle" x="915" y="-1590.8" font-family="Times,serif" font-size="14.00" fill="#000000">NetworkOutage</text>
</g>
<!-- CachedDisplay&#45;&gt;NetworkOutage -->
<g id="edge27" class="edge">
<title>CachedDisplay&#45;&gt;NetworkOutage</title>
<path fill="none" stroke="#000000" d="M597.7604,-1734.5013C622.2642,-1728.2658 652.0454,-1719.8231 678,-1710 750.4893,-1682.5648 830.7757,-1640.8894 876.8279,-1615.8163"/>
<polygon fill="#000000" stroke="#000000" points="878.7535,-1618.7524 885.8448,-1610.8806 875.3924,-1612.6121 878.7535,-1618.7524"/>
<text text-anchor="start" x="824.5" y="-1695.3" font-family="Times,serif" font-style="italic" font-size="14.00" fill="#000000">&quot;CachedDisplay&quot; &#45;&gt; &quot;NetworkOutage&quot;</text>
<text text-anchor="start" x="893.5" y="-1673.3" font-family="Times,serif" font-size="14.00" fill="#000000">RefreshToken</text>
<text text-anchor="start" x="889.5" y="-1652.3" font-family="Times,serif" font-size="14.00" fill="#000000">LastNetErrorAt</text>
</g>
<!-- DeviceAuthPoll -->
<g id="node2" class="node">
<title>DeviceAuthPoll</title>
<ellipse fill="none" stroke="#000000" cx="598" cy="-357" rx="67.6881" ry="18"/>
<text text-anchor="middle" x="598" y="-353.3" font-family="Times,serif" font-size="14.00" fill="#000000">DeviceAuthPoll</text>
</g>
<!-- DisplayError -->
<g id="node3" class="node">
<title>DisplayError</title>
<ellipse fill="none" stroke="#000000" cx="474" cy="-237" rx="56.59" ry="18"/>
<text text-anchor="middle" x="474" y="-233.3" font-family="Times,serif" font-size="14.00" fill="#000000">DisplayError</text>
</g>
<!-- DeviceAuthPoll&#45;&gt;DisplayError -->
<g id="edge18" class="edge">
<title>DeviceAuthPoll&#45;&gt;DisplayError</title>
<path fill="none" stroke="#000000" d="M544.2286,-346.0119C515.2345,-338.8867 483.6513,-328.7555 475,-317 464.2618,-302.4088 464.206,-281.9193 466.7349,-265.3293"/>
<polygon fill="#000000" stroke="#000000" points="470.2519,-265.5698 468.6837,-255.0917 463.3754,-264.2607 470.2519,-265.5698"/>
<text text-anchor="start" x="479.5" y="-302.8" font-family="Times,serif" font-style="italic" font-size="14.00" fill="#000000">&quot;DeviceAuthPoll&quot; &#45;&gt; &quot;DisplayError&quot;</text>
<text text-anchor="start" x="565" y="-280.8" font-family="Times,serif" font-size="14.00" fill="#000000">String</text>
</g>
<!-- ReadFirstEvents -->
<g id="node9" class="node">
<title>ReadFirstEvents</title>
<ellipse fill="none" stroke="#000000" cx="525" cy="-1220.5" rx="68.7879" ry="18"/>
<text text-anchor="middle" x="525" y="-1216.8" font-family="Times,serif" font-size="14.00" fill="#000000">ReadFirstEvents</text>
</g>
<!-- DeviceAuthPoll&#45;&gt;ReadFirstEvents -->
<g id="edge12" class="edge">
<title>DeviceAuthPoll&#45;&gt;ReadFirstEvents</title>
<path fill="none" stroke="#000000" d="M603.4352,-375.0358C619.5939,-429.4189 665.2873,-589.1576 650,-607 616.0545,-646.6192 568.2439,-585.6385 534,-625 496.5632,-668.0316 516.9755,-1079.2872 523.3262,-1192.0365"/>
<polygon fill="#000000" stroke="#000000" points="519.8467,-1192.4982 523.9111,-1202.2824 526.8353,-1192.0991 519.8467,-1192.4982"/>
<text text-anchor="start" x="538" y="-717.3" font-family="Times,serif" font-style="italic" font-size="14.00" fill="#000000">&quot;DeviceAuthPoll&quot; &#45;&gt; &quot;ReadFirstEvents&quot;</text>
<text text-anchor="start" x="609" y="-695.3" font-family="Times,serif" font-size="14.00" fill="#000000">Authenticators</text>
<text text-anchor="start" x="614.5" y="-674.3" font-family="Times,serif" font-size="14.00" fill="#000000">RefreshedAt</text>
<text text-anchor="start" x="614" y="-653.3" font-family="Times,serif" font-size="14.00" fill="#000000">RefreshType</text>
<text text-anchor="start" x="593" y="-632.3" font-family="Times,serif" font-size="14.00" fill="#000000">PendingDisplayDate</text>
</g>
<!-- ErrorWait -->
<g id="node4" class="node">
<title>ErrorWait</title>
<ellipse fill="none" stroke="#000000" cx="982" cy="-117" rx="46.5926" ry="18"/>
<text text-anchor="middle" x="982" y="-113.3" font-family="Times,serif" font-size="14.00" fill="#000000">ErrorWait</text>
</g>
<!-- DisplayError&#45;&gt;ErrorWait -->
<g id="edge3" class="edge">
<title>DisplayError&#45;&gt;ErrorWait</title>
<path fill="none" stroke="#000000" d="M519.5287,-226.2452C614.5533,-203.7984 833.3393,-152.1167 932.0625,-128.7963"/>
<polygon fill="#000000" stroke="#000000" points="933.1543,-132.1348 942.0818,-126.4295 931.545,-125.3222 933.1543,-132.1348"/>
<text text-anchor="start" x="807" y="-186.8" font-family="Times,serif" font-style="italic" font-size="14.00" fill="#000000">&quot;DisplayError&quot; &#45;&gt; &quot;ErrorWait&quot;</text>
<text text-anchor="start" x="853.5" y="-164.8" font-family="Times,serif" font-size="14.00" fill="#000000">DownloadedAt</text>
</g>
<!-- LoadAuth -->
<g id="node5" class="node">
<title>LoadAuth</title>
<ellipse fill="none" stroke="#000000" cx="982" cy="-18" rx="46.2923" ry="18"/>
<text text-anchor="middle" x="982" y="-14.3" font-family="Times,serif" font-size="14.00" fill="#000000">LoadAuth</text>
</g>
<!-- ErrorWait&#45;&gt;LoadAuth -->
<g id="edge2" class="edge">
<title>ErrorWait&#45;&gt;LoadAuth</title>
<path fill="none" stroke="#000000" d="M982,-98.8419C982,-84.1888 982,-63.311 982,-46.443"/>
<polygon fill="#000000" stroke="#000000" points="985.5001,-46.043 982,-36.043 978.5001,-46.043 985.5001,-46.043"/>
<text text-anchor="start" x="986.5" y="-62.3" font-family="Times,serif" font-style="italic" font-size="14.00" fill="#000000">&quot;ErrorWait&quot; &#45;&gt; &quot;LoadAuth&quot;</text>
</g>
<!-- RequestCodes -->
<g id="node11" class="node">
<title>RequestCodes</title>
<ellipse fill="none" stroke="#000000" cx="908" cy="-512.5" rx="61.1893" ry="18"/>
<text text-anchor="middle" x="908" y="-508.8" font-family="Times,serif" font-size="14.00" fill="#000000">RequestCodes</text>
</g>
<!-- ErrorWait&#45;&gt;RequestCodes -->
<g id="edge4" class="edge">
<title>ErrorWait&#45;&gt;RequestCodes</title>
<path fill="none" stroke="#000000" d="M1004.7142,-132.8114C1040.2645,-159.4501 1101.6747,-214.3457 1068,-255 1040.5872,-288.0946 1002.5282,-241.7782 973,-273 914.7786,-334.5607 981.0509,-383.9801 948,-462 944.2195,-470.9243 938.4151,-479.5933 932.3901,-487.1572"/>
<polygon fill="#000000" stroke="#000000" points="929.6351,-484.9948 925.8512,-494.8909 934.9805,-489.5144 929.6351,-484.9948"/>
<text text-anchor="start" x="977" y="-291.8" font-family="Times,serif" font-style="italic" font-size="14.00" fill="#000000">&quot;ErrorWait&quot; &#45;&gt; &quot;RequestCodes&quot;</text>
</g>
<!-- LoadAuth&#45;&gt;DisplayError -->
<g id="edge16" class="edge">
<title>LoadAuth&#45;&gt;DisplayError</title>
<path fill="none" stroke="#000000" d="M938.8241,-24.5512C879.7967,-34.539 771.4853,-56.5849 686,-95 615.001,-126.9053 541.591,-181.9098 502.5277,-213.2735"/>
<polygon fill="#000000" stroke="#000000" points="499.8366,-210.9492 494.2699,-219.9637 504.2432,-216.3882 499.8366,-210.9492"/>
<text text-anchor="start" x="690" y="-124.8" font-family="Times,serif" font-style="italic" font-size="14.00" fill="#000000">&quot;LoadAuth&quot; &#45;&gt; &quot;DisplayError&quot;</text>
<text text-anchor="start" x="759" y="-102.8" font-family="Times,serif" font-size="14.00" fill="#000000">String</text>
</g>
<!-- RefreshAuth -->
<g id="node10" class="node">
<title>RefreshAuth</title>
<ellipse fill="none" stroke="#000000" cx="525" cy="-1428.5" rx="55.7903" ry="18"/>
<text text-anchor="middle" x="525" y="-1424.8" font-family="Times,serif" font-size="14.00" fill="#000000">RefreshAuth</text>
</g>
<!-- LoadAuth&#45;&gt;RefreshAuth -->
<g id="edge8" class="edge">
<title>LoadAuth&#45;&gt;RefreshAuth</title>
<path fill="none" stroke="#000000" d="M1026.9696,-22.7027C1070.5452,-28.1008 1132.6605,-38.2892 1151,-54 1173.755,-73.4933 1175,-87.0371 1175,-117 1175,-585 1175,-585 1175,-585 1175,-718.1232 1116.0027,-1056.7684 1046,-1170 968.7293,-1294.9877 922.2777,-1316.1151 789,-1378 725.4483,-1407.509 645.6241,-1419.775 590.48,-1424.8736"/>
<polygon fill="#000000" stroke="#000000" points="590.1386,-1421.3899 580.4801,-1425.7447 590.7461,-1428.3635 590.1386,-1421.3899"/>
<text text-anchor="start" x="1179" y="-530.3" font-family="Times,serif" font-style="italic" font-size="14.00" fill="#000000">&quot;LoadAuth&quot; &#45;&gt; &quot;RefreshAuth&quot;</text>
<text text-anchor="start" x="1223.5" y="-508.3" font-family="Times,serif" font-size="14.00" fill="#000000">RefreshToken</text>
<text text-anchor="start" x="1206" y="-487.3" font-family="Times,serif" font-size="14.00" fill="#000000">PendingDisplayDate</text>
</g>
<!-- LoadAuth&#45;&gt;RequestCodes -->
<g id="edge5" class="edge">
<title>LoadAuth&#45;&gt;RequestCodes</title>
<path fill="none" stroke="#000000" d="M967.4164,-35.1322C955.1556,-50.1644 937.791,-73.001 926,-95 898.2317,-146.8086 890.3856,-161.1437 880,-219 877.1731,-234.7483 876.324,-239.428 880,-255 889.1332,-293.6889 910.8668,-296.3111 920,-335 924.4929,-354.0324 920.8763,-359.4641 920,-379 918.3687,-415.3691 914.2497,-457.1439 911.2928,-484.1349"/>
<polygon fill="#000000" stroke="#000000" points="907.7784,-484.0697 910.1463,-494.3965 914.7351,-484.847 907.7784,-484.0697"/>
<text text-anchor="start" x="884" y="-233.8" font-family="Times,serif" font-style="italic" font-size="14.00" fill="#000000">&quot;LoadAuth&quot; &#45;&gt; &quot;RequestCodes&quot;</text>
</g>
<!-- NetworkOutage&#45;&gt;RefreshAuth -->
<g id="edge9" class="edge">
<title>NetworkOutage&#45;&gt;RefreshAuth</title>
<path fill="none" stroke="#000000" d="M914.0528,-1576.2474C912.1424,-1547.1199 906.7669,-1492.0711 893,-1479 871.4106,-1458.5018 689.495,-1441.2998 589.7797,-1433.3041"/>
<polygon fill="#000000" stroke="#000000" points="590.0521,-1429.8148 579.8067,-1432.5131 589.4986,-1436.7929 590.0521,-1429.8148"/>
<text text-anchor="start" x="915.5" y="-1529.3" font-family="Times,serif" font-style="italic" font-size="14.00" fill="#000000">&quot;NetworkOutage&quot; &#45;&gt; &quot;RefreshAuth&quot;</text>
<text text-anchor="start" x="976.5" y="-1507.3" font-family="Times,serif" font-size="14.00" fill="#000000">RefreshToken</text>
<text text-anchor="start" x="959" y="-1486.3" font-family="Times,serif" font-size="14.00" fill="#000000">PendingDisplayDate</text>
</g>
<!-- NetworkOutage&#45;&gt;RequestCodes -->
<g id="edge6" class="edge">
<title>NetworkOutage&#45;&gt;RequestCodes</title>
<path fill="none" stroke="#000000" d="M976.2695,-1587.2424C1030.0952,-1579.5451 1102.7515,-1565.4945 1122,-1544 1156.5328,-1505.4378 1137,-1480.2644 1137,-1428.5 1137,-1428.5 1137,-1428.5 1137,-678.5 1137,-619.8127 1118.6002,-599.9434 1073,-563 1045.1548,-540.441 1007.3043,-527.938 974.8792,-521.0189"/>
<polygon fill="#000000" stroke="#000000" points="975.4996,-517.5737 965.0075,-519.0459 974.1276,-524.438 975.4996,-517.5737"/>
<text text-anchor="start" x="1141" y="-1081.8" font-family="Times,serif" font-style="italic" font-size="14.00" fill="#000000">&quot;NetworkOutage&quot; &#45;&gt; &quot;RequestCodes&quot;</text>
</g>
<!-- PageEvents -->
<g id="node7" class="node">
<title>PageEvents</title>
<ellipse fill="none" stroke="#000000" cx="234" cy="-928.5" rx="51.9908" ry="18"/>
<text text-anchor="middle" x="234" y="-924.8" font-family="Times,serif" font-size="14.00" fill="#000000">PageEvents</text>
</g>
<!-- PageEvents&#45;&gt;CachedDisplay -->
<g id="edge26" class="edge">
<title>PageEvents&#45;&gt;CachedDisplay</title>
<path fill="none" stroke="#000000" d="M228.1159,-946.5327C223.6398,-960.8784 217.6476,-981.538 214,-1000 194.8735,-1096.8076 188,-1121.8211 188,-1220.5 188,-1594.5 188,-1594.5 188,-1594.5 188,-1658.319 382.6297,-1710.1949 485.6741,-1733.1878"/>
<polygon fill="#000000" stroke="#000000" points="485.1338,-1736.6526 495.6529,-1735.388 486.6411,-1729.8168 485.1338,-1736.6526"/>
<text text-anchor="start" x="192.5" y="-1446.3" font-family="Times,serif" font-style="italic" font-size="14.00" fill="#000000">&quot;PageEvents&quot; &#45;&gt; &quot;CachedDisplay&quot;</text>
<text text-anchor="start" x="250.5" y="-1424.3" font-family="Times,serif" font-size="14.00" fill="#000000">RefreshToken</text>
<text text-anchor="start" x="246.5" y="-1403.3" font-family="Times,serif" font-size="14.00" fill="#000000">LastNetErrorAt</text>
</g>
<!-- PageEvents&#45;&gt;DisplayError -->
<g id="edge17" class="edge">
<title>PageEvents&#45;&gt;DisplayError</title>
<path fill="none" stroke="#000000" d="M232.5286,-910.3208C229.3242,-869.109 222,-765.4055 222,-678.5 222,-678.5 222,-678.5 222,-357 222,-313.4655 346.146,-271.9263 420.1655,-251.0284"/>
<polygon fill="#000000" stroke="#000000" points="421.1225,-254.3952 429.8166,-248.3401 419.2441,-247.6519 421.1225,-254.3952"/>
<text text-anchor="start" x="226.5" y="-520.3" font-family="Times,serif" font-style="italic" font-size="14.00" fill="#000000">&quot;PageEvents&quot; &#45;&gt; &quot;DisplayError&quot;</text>
<text text-anchor="start" x="301" y="-498.3" font-family="Times,serif" font-size="14.00" fill="#000000">String</text>
</g>
<!-- PollEvents -->
<g id="node8" class="node">
<title>PollEvents</title>
<ellipse fill="none" stroke="#000000" cx="822" cy="-678.5" rx="48.9926" ry="18"/>
<text text-anchor="middle" x="822" y="-674.8" font-family="Times,serif" font-size="14.00" fill="#000000">PollEvents</text>
</g>
<!-- PageEvents&#45;&gt;PollEvents -->
<g id="edge23" class="edge">
<title>PageEvents&#45;&gt;PollEvents</title>
<path fill="none" stroke="#000000" d="M256.1729,-912.0037C306.7584,-875.3784 435.8518,-787.5558 559,-750 644.3667,-723.9662 676.6895,-766.4995 759,-732 774.4835,-725.5103 788.9734,-713.7776 800.1438,-702.9499"/>
<polygon fill="#000000" stroke="#000000" points="802.7891,-705.252 807.3182,-695.674 797.8047,-700.3372 802.7891,-705.252"/>
<text text-anchor="start" x="563.5" y="-842.3" font-family="Times,serif" font-style="italic" font-size="14.00" fill="#000000">&quot;PageEvents&quot; &#45;&gt; &quot;PollEvents&quot;</text>
<text text-anchor="start" x="608" y="-820.3" font-family="Times,serif" font-size="14.00" fill="#000000">Authenticators</text>
<text text-anchor="start" x="613.5" y="-799.3" font-family="Times,serif" font-size="14.00" fill="#000000">RefreshedAt</text>
<text text-anchor="start" x="606.5" y="-778.3" font-family="Times,serif" font-size="14.00" fill="#000000">DownloadedAt</text>
<text text-anchor="start" x="592" y="-757.3" font-family="Times,serif" font-size="14.00" fill="#000000">PendingDisplayDate</text>
</g>
<!-- PageEvents&#45;&gt;RefreshAuth -->
<g id="edge10" class="edge">
<title>PageEvents&#45;&gt;RefreshAuth</title>
<path fill="none" stroke="#000000" d="M230.1346,-946.5125C219.9602,-998.8213 197.4484,-1153.331 262,-1253 314.2587,-1333.6884 418.1004,-1386.1121 478.4917,-1411.1809"/>
<polygon fill="#000000" stroke="#000000" points="477.2149,-1414.44 487.7965,-1414.9696 479.8547,-1407.9569 477.2149,-1414.44"/>
<text text-anchor="start" x="266.5" y="-1238.3" font-family="Times,serif" font-style="italic" font-size="14.00" fill="#000000">&quot;PageEvents&quot; &#45;&gt; &quot;RefreshAuth&quot;</text>
<text text-anchor="start" x="316.5" y="-1216.3" font-family="Times,serif" font-size="14.00" fill="#000000">RefreshToken</text>
<text text-anchor="start" x="299" y="-1195.3" font-family="Times,serif" font-size="14.00" fill="#000000">PendingDisplayDate</text>
</g>
<!-- PollEvents&#45;&gt;ReadFirstEvents -->
<g id="edge14" class="edge">
<title>PollEvents&#45;&gt;ReadFirstEvents</title>
<path fill="none" stroke="#000000" d="M819.0789,-696.499C812.0728,-733.3416 790.6499,-817.2221 736,-857 688.4846,-891.5849 648.2555,-835.2157 605,-875 506.1136,-965.9508 571.6232,-1039.6685 539,-1170 537.1681,-1177.3185 535.0541,-1185.1943 533.0329,-1192.4986"/>
<polygon fill="#000000" stroke="#000000" points="529.6071,-1191.7526 530.2765,-1202.3263 536.3471,-1193.643 529.6071,-1191.7526"/>
<text text-anchor="start" x="609.5" y="-967.3" font-family="Times,serif" font-style="italic" font-size="14.00" fill="#000000">&quot;PollEvents&quot; &#45;&gt; &quot;ReadFirstEvents&quot;</text>
<text text-anchor="start" x="667" y="-945.3" font-family="Times,serif" font-size="14.00" fill="#000000">Authenticators</text>
<text text-anchor="start" x="672.5" y="-924.3" font-family="Times,serif" font-size="14.00" fill="#000000">RefreshedAt</text>
<text text-anchor="start" x="672" y="-903.3" font-family="Times,serif" font-size="14.00" fill="#000000">RefreshType</text>
<text text-anchor="start" x="651" y="-882.3" font-family="Times,serif" font-size="14.00" fill="#000000">PendingDisplayDate</text>
</g>
<!-- PollEvents&#45;&gt;RefreshAuth -->
<g id="edge11" class="edge">
<title>PollEvents&#45;&gt;RefreshAuth</title>
<path fill="none" stroke="#000000" d="M826.6166,-696.4826C848.1148,-784.8097 929.5948,-1176.5443 740,-1378 719.4984,-1399.7841 644.1126,-1413.7741 588.3658,-1421.3781"/>
<polygon fill="#000000" stroke="#000000" points="587.6567,-1417.9414 578.2028,-1422.7241 588.5758,-1424.8808 587.6567,-1417.9414"/>
<text text-anchor="start" x="866" y="-1102.8" font-family="Times,serif" font-style="italic" font-size="14.00" fill="#000000">&quot;PollEvents&quot; &#45;&gt; &quot;RefreshAuth&quot;</text>
<text text-anchor="start" x="913.5" y="-1080.8" font-family="Times,serif" font-size="14.00" fill="#000000">RefreshToken</text>
<text text-anchor="start" x="896" y="-1059.8" font-family="Times,serif" font-size="14.00" fill="#000000">PendingDisplayDate</text>
</g>
<!-- PollEvents&#45;&gt;RequestCodes -->
<g id="edge7" class="edge">
<title>PollEvents&#45;&gt;RequestCodes</title>
<path fill="none" stroke="#000000" d="M831.2035,-660.7351C846.294,-631.607 876.3863,-573.5218 894.0905,-539.3486"/>
<polygon fill="#000000" stroke="#000000" points="897.2403,-540.8773 898.7327,-530.3881 891.0249,-537.6572 897.2403,-540.8773"/>
<text text-anchor="start" x="884.5" y="-581.8" font-family="Times,serif" font-style="italic" font-size="14.00" fill="#000000">&quot;PollEvents&quot; &#45;&gt; &quot;RequestCodes&quot;</text>
</g>
<!-- ReadFirstEvents&#45;&gt;CachedDisplay -->
<g id="edge25" class="edge">
<title>ReadFirstEvents&#45;&gt;CachedDisplay</title>
<path fill="none" stroke="#000000" d="M589.5583,-1226.9007C645.895,-1233.978 721.4569,-1247.5967 740,-1271 769.5331,-1308.2737 755.495,-1333.0396 740,-1378 721.4311,-1431.8795 681.5543,-1425.8462 661,-1479 637.2107,-1540.5198 675.1627,-1566.0291 650,-1627 634.1701,-1665.3568 601.0055,-1700.2427 576.7754,-1722.1821"/>
<polygon fill="#000000" stroke="#000000" points="574.4238,-1719.5895 569.2558,-1728.8384 579.0635,-1724.831 574.4238,-1719.5895"/>
<text text-anchor="start" x="665" y="-1529.3" font-family="Times,serif" font-style="italic" font-size="14.00" fill="#000000">&quot;ReadFirstEvents&quot; &#45;&gt; &quot;CachedDisplay&quot;</text>
<text text-anchor="start" x="736.5" y="-1507.3" font-family="Times,serif" font-size="14.00" fill="#000000">RefreshToken</text>
<text text-anchor="start" x="732.5" y="-1486.3" font-family="Times,serif" font-size="14.00" fill="#000000">LastNetErrorAt</text>
</g>
<!-- ReadFirstEvents&#45;&gt;DisplayError -->
<g id="edge19" class="edge">
<title>ReadFirstEvents&#45;&gt;DisplayError</title>
<path fill="none" stroke="#000000" d="M518.937,-1202.4346C515.9081,-1192.8793 512.3894,-1180.8992 510,-1170 480.859,-1037.0722 421.5259,-698.8792 429,-563 436.1219,-433.5245 431.6627,-399.3089 461,-273 461.6267,-270.3017 462.3941,-267.5275 463.2396,-264.7738"/>
<polygon fill="#000000" stroke="#000000" points="466.6361,-265.6562 466.533,-255.0618 460.0069,-263.4081 466.6361,-265.6562"/>
<text text-anchor="start" x="433.5" y="-592.8" font-family="Times,serif" font-style="italic" font-size="14.00" fill="#000000">&quot;ReadFirstEvents&quot; &#45;&gt; &quot;DisplayError&quot;</text>
<text text-anchor="start" x="521" y="-570.8" font-family="Times,serif" font-size="14.00" fill="#000000">String</text>
</g>
<!-- ReadFirstEvents&#45;&gt;PageEvents -->
<g id="edge22" class="edge">
<title>ReadFirstEvents&#45;&gt;PageEvents</title>
<path fill="none" stroke="#000000" d="M484.785,-1205.7103C466.2054,-1199.3914 443.713,-1192.4589 423,-1188 389.1006,-1180.7025 292.7498,-1194.2872 268,-1170 240.7906,-1143.2992 250.4541,-1037.7298 245,-1000 242.93,-985.6802 240.4954,-969.769 238.4436,-956.5987"/>
<polygon fill="#000000" stroke="#000000" points="241.8996,-956.0447 236.8944,-946.7067 234.9839,-957.1278 241.8996,-956.0447"/>
<text text-anchor="start" x="272" y="-1155.8" font-family="Times,serif" font-style="italic" font-size="14.00" fill="#000000">&quot;ReadFirstEvents&quot; &#45;&gt; &quot;PageEvents&quot;</text>
<text text-anchor="start" x="332" y="-1133.8" font-family="Times,serif" font-size="14.00" fill="#000000">Authenticators</text>
<text text-anchor="start" x="314.5" y="-1112.8" font-family="Times,serif" font-size="14.00" fill="#000000">Option&lt;PageToken&gt;</text>
<text text-anchor="start" x="333" y="-1091.8" font-family="Times,serif" font-size="14.00" fill="#000000">Appointments</text>
<text text-anchor="start" x="337.5" y="-1070.8" font-family="Times,serif" font-size="14.00" fill="#000000">RefreshedAt</text>
<text text-anchor="start" x="330.5" y="-1049.8" font-family="Times,serif" font-size="14.00" fill="#000000">DownloadedAt</text>
<text text-anchor="start" x="337" y="-1028.8" font-family="Times,serif" font-size="14.00" fill="#000000">RefreshType</text>
<text text-anchor="start" x="316" y="-1007.8" font-family="Times,serif" font-size="14.00" fill="#000000">PendingDisplayDate</text>
</g>
<!-- RefreshAuth&#45;&gt;CachedDisplay -->
<g id="edge24" class="edge">
<title>RefreshAuth&#45;&gt;CachedDisplay</title>
<path fill="none" stroke="#000000" d="M508.9503,-1445.9141C479.2757,-1480.3167 421.0351,-1559.5135 446,-1627 460.3965,-1665.9174 493.8354,-1700.696 518.5216,-1722.4571"/>
<polygon fill="#000000" stroke="#000000" points="516.3294,-1725.188 526.1938,-1729.0537 520.8931,-1719.8802 516.3294,-1725.188"/>
<text text-anchor="start" x="450" y="-1612.3" font-family="Times,serif" font-style="italic" font-size="14.00" fill="#000000">&quot;RefreshAuth&quot; &#45;&gt; &quot;CachedDisplay&quot;</text>
<text text-anchor="start" x="509.5" y="-1590.3" font-family="Times,serif" font-size="14.00" fill="#000000">RefreshToken</text>
<text text-anchor="start" x="505.5" y="-1569.3" font-family="Times,serif" font-size="14.00" fill="#000000">LastNetErrorAt</text>
</g>
<!-- RefreshAuth&#45;&gt;DisplayError -->
<g id="edge20" class="edge">
<title>RefreshAuth&#45;&gt;DisplayError</title>
<path fill="none" stroke="#000000" d="M482.1262,-1416.8637C456.4134,-1410.1558 422.9868,-1401.9085 393,-1396 205.317,-1359.0197 0,-1411.7915 0,-1220.5 0,-1220.5 0,-1220.5 0,-357 0,-273.9372 277.0007,-247.743 407.4936,-240.0116"/>
<polygon fill="#000000" stroke="#000000" points="407.9811,-243.4895 417.7646,-239.4233 407.5808,-236.5009 407.9811,-243.4895"/>
<text text-anchor="start" x="4" y="-686.3" font-family="Times,serif" font-style="italic" font-size="14.00" fill="#000000">&quot;RefreshAuth&quot; &#45;&gt; &quot;DisplayError&quot;</text>
<text text-anchor="start" x="80" y="-664.3" font-family="Times,serif" font-size="14.00" fill="#000000">String</text>
</g>
<!-- RefreshAuth&#45;&gt;ReadFirstEvents -->
<g id="edge13" class="edge">
<title>RefreshAuth&#45;&gt;ReadFirstEvents</title>
<path fill="none" stroke="#000000" d="M525,-1410.4052C525,-1374.1409 525,-1292.3286 525,-1248.8719"/>
<polygon fill="#000000" stroke="#000000" points="528.5001,-1248.701 525,-1238.7011 521.5001,-1248.7011 528.5001,-1248.701"/>
<text text-anchor="start" x="529.5" y="-1363.3" font-family="Times,serif" font-style="italic" font-size="14.00" fill="#000000">&quot;RefreshAuth&quot; &#45;&gt; &quot;ReadFirstEvents&quot;</text>
<text text-anchor="start" x="591" y="-1341.3" font-family="Times,serif" font-size="14.00" fill="#000000">Authenticators</text>
<text text-anchor="start" x="596.5" y="-1320.3" font-family="Times,serif" font-size="14.00" fill="#000000">RefreshedAt</text>
<text text-anchor="start" x="596" y="-1299.3" font-family="Times,serif" font-size="14.00" fill="#000000">RefreshType</text>
<text text-anchor="start" x="575" y="-1278.3" font-family="Times,serif" font-size="14.00" fill="#000000">PendingDisplayDate</text>
</g>
<!-- RequestCodes&#45;&gt;DeviceAuthPoll -->
<g id="edge15" class="edge">
<title>RequestCodes&#45;&gt;DeviceAuthPoll</title>
<path fill="none" stroke="#000000" d="M848.9091,-507.6393C782.4635,-501.0368 680.0364,-487.0772 651,-462 627.8079,-441.9703 642.4705,-424.0123 628,-397 625.5021,-392.3372 622.4936,-387.6278 619.359,-383.1581"/>
<polygon fill="#000000" stroke="#000000" points="622.037,-380.8929 613.277,-374.9336 616.4087,-385.055 622.037,-380.8929"/>
<text text-anchor="start" x="655" y="-447.3" font-family="Times,serif" font-style="italic" font-size="14.00" fill="#000000">&quot;RequestCodes&quot; &#45;&gt; &quot;DeviceAuthPoll&quot;</text>
<text text-anchor="start" x="742" y="-425.3" font-family="Times,serif" font-size="14.00" fill="#000000">String</text>
<text text-anchor="start" x="718.5" y="-404.3" font-family="Times,serif" font-size="14.00" fill="#000000">PeriodSeconds</text>
</g>
<!-- RequestCodes&#45;&gt;DisplayError -->
<g id="edge21" class="edge">
<title>RequestCodes&#45;&gt;DisplayError</title>
<path fill="none" stroke="#000000" d="M907.2163,-494.3271C905.0355,-468.2974 896.9212,-420.909 867,-397 814.1999,-354.8094 767.0076,-423.3411 716,-379 679.2256,-347.0318 723.9964,-305.8418 688,-273 666.7445,-253.6072 594.6704,-244.5402 539.9867,-240.3808"/>
<polygon fill="#000000" stroke="#000000" points="540.2206,-236.8887 529.9946,-239.6599 539.7168,-243.8705 540.2206,-236.8887"/>
<text text-anchor="start" x="720" y="-364.8" font-family="Times,serif" font-style="italic" font-size="14.00" fill="#000000">&quot;RequestCodes&quot; &#45;&gt; &quot;DisplayError&quot;</text>
<text text-anchor="start" x="801" y="-342.8" font-family="Times,serif" font-size="14.00" fill="#000000">String</text>
</g>
<!-- _start -->
<g id="node12" class="node">
<title>_start</title>
<ellipse fill="#000000" stroke="#000000" cx="1208" cy="-117" rx="1.8" ry="1.8"/>
</g>
<!-- _start&#45;&gt;LoadAuth -->
<g id="edge1" class="edge">
<title>_start&#45;&gt;LoadAuth</title>
<path fill="none" stroke="#000000" d="M1207.9813,-115.081C1207.7859,-106.4374 1205.7687,-70.8121 1186,-54 1164.1685,-35.4336 1090.4536,-26.0317 1037.9177,-21.5794"/>
<polygon fill="#000000" stroke="#000000" points="1037.9643,-18.0718 1027.7145,-20.7536 1037.3996,-25.049 1037.9643,-18.0718"/>
<text text-anchor="start" x="1204" y="-62.3" font-family="Times,serif" font-weight="bold" font-style="italic" font-size="14.00" fill="#000000"> &#45;&gt; &quot;LoadAuth&quot;</text>
</g>
</g>
</svg>
