<?xml version="1.0" encoding="UTF-8" standalone="no"?>
<!DOCTYPE svg PUBLIC "-//W3C//DTD SVG 1.1//EN"
 "http://www.w3.org/Graphics/SVG/1.1/DTD/svg11.dtd">
<!-- Generated by graphviz version 2.40.1 (20161225.0304)
 -->
<!-- Title: cal_stm Pages: 1 -->
<svg width="751pt" height="1257pt"
 viewBox="0.00 0.00 751.35 1257.00" xmlns="http://www.w3.org/2000/svg" xmlns:xlink="http://www.w3.org/1999/xlink">
<g id="graph0" class="graph" transform="scale(1 1) rotate(0) translate(4 1253)">
<title>cal_stm</title>
<polygon fill="#ffffff" stroke="transparent" points="-4,4 -4,-1253 747.3466,-1253 747.3466,4 -4,4"/>
<!-- Display -->
<g id="node1" class="node">
<title>Display</title>
<ellipse fill="none" stroke="#000000" cx="38.3466" cy="-1231" rx="38.1938" ry="18"/>
<text text-anchor="middle" x="38.3466" y="-1227.3" font-family="Times,serif" font-size="14.00" fill="#000000">Display</text>
</g>
<!-- Wait -->
<g id="node12" class="node">
<title>Wait</title>
<ellipse fill="none" stroke="#000000" cx="175.3466" cy="-1114" rx="28.6953" ry="18"/>
<text text-anchor="middle" x="175.3466" y="-1110.3" font-family="Times,serif" font-size="14.00" fill="#000000">Wait</text>
</g>
<!-- Display&#45;&gt;Wait -->
<g id="edge24" class="edge">
<title>Display&#45;&gt;Wait</title>
<path fill="none" stroke="#000000" d="M56.823,-1215.2209C80.9162,-1194.6449 123.1634,-1158.5652 150.1705,-1135.5007"/>
<polygon fill="#000000" stroke="#000000" points="152.6945,-1137.9479 158.0258,-1128.7922 148.1485,-1132.6249 152.6945,-1137.9479"/>
<text text-anchor="middle" x="172.8466" y="-1183.8" font-family="Times,serif" font-size="14.00" fill="#000000">Authenticators</text>
<text text-anchor="middle" x="172.8466" y="-1168.8" font-family="Times,serif" font-size="14.00" fill="#000000">RefreshedAt</text>
<text text-anchor="middle" x="172.8466" y="-1153.8" font-family="Times,serif" font-size="14.00" fill="#000000">DownloadedAt</text>
</g>
<!-- DisplayError -->
<g id="node2" class="node">
<title>DisplayError</title>
<ellipse fill="none" stroke="#000000" cx="353.3466" cy="-718" rx="56.59" ry="18"/>
<text text-anchor="middle" x="353.3466" y="-714.3" font-family="Times,serif" font-size="14.00" fill="#000000">DisplayError</text>
</g>
<!-- ErrorWait -->
<g id="node3" class="node">
<title>ErrorWait</title>
<ellipse fill="none" stroke="#000000" cx="436.3466" cy="-601" rx="46.5926" ry="18"/>
<text text-anchor="middle" x="436.3466" y="-597.3" font-family="Times,serif" font-size="14.00" fill="#000000">ErrorWait</text>
</g>
<!-- DisplayError&#45;&gt;ErrorWait -->
<g id="edge3" class="edge">
<title>DisplayError&#45;&gt;ErrorWait</title>
<path fill="none" stroke="#000000" d="M360.0126,-700.0904C366.9582,-682.8538 378.9727,-656.5908 394.3466,-637 397.9928,-632.3536 402.3111,-627.862 406.7681,-623.719"/>
<polygon fill="#000000" stroke="#000000" points="409.0941,-626.3344 414.3056,-617.1099 404.4791,-621.0711 409.0941,-626.3344"/>
<text text-anchor="middle" x="435.8466" y="-655.8" font-family="Times,serif" font-size="14.00" fill="#000000">DownloadedAt</text>
</g>
<!-- Load -->
<g id="node4" class="node">
<title>Load</title>
<ellipse fill="none" stroke="#000000" cx="369.3466" cy="-499" rx="28.6953" ry="18"/>
<text text-anchor="middle" x="369.3466" y="-495.3" font-family="Times,serif" font-size="14.00" fill="#000000">Load</text>
</g>
<!-- ErrorWait&#45;&gt;Load -->
<g id="edge2" class="edge">
<title>ErrorWait&#45;&gt;Load</title>
<path fill="none" stroke="#000000" d="M424.6761,-583.233C413.9791,-566.948 398.0226,-542.6559 385.9899,-524.3376"/>
<polygon fill="#000000" stroke="#000000" points="388.854,-522.3227 380.4385,-515.8861 383.0033,-526.1658 388.854,-522.3227"/>
</g>
<!-- RequestCodes -->
<g id="node10" class="node">
<title>RequestCodes</title>
<ellipse fill="none" stroke="#000000" cx="471.3466" cy="-207" rx="61.1893" ry="18"/>
<text text-anchor="middle" x="471.3466" y="-203.3" font-family="Times,serif" font-size="14.00" fill="#000000">RequestCodes</text>
</g>
<!-- ErrorWait&#45;&gt;RequestCodes -->
<g id="edge4" class="edge">
<title>ErrorWait&#45;&gt;RequestCodes</title>
<path fill="none" stroke="#000000" d="M437.9645,-582.7868C443.5514,-519.8941 462.0602,-311.5381 468.8344,-235.2798"/>
<polygon fill="#000000" stroke="#000000" points="472.3472,-235.2906 469.7458,-225.0201 465.3746,-234.6711 472.3472,-235.2906"/>
</g>
<!-- Load&#45;&gt;DisplayError -->
<g id="edge15" class="edge">
<title>Load&#45;&gt;DisplayError</title>
<path fill="none" stroke="#000000" d="M357.4095,-515.3585C346.3599,-531.5915 330.7099,-557.6466 324.3466,-583 315.0433,-620.0672 328.5735,-663.3218 340.1064,-690.6826"/>
<polygon fill="#000000" stroke="#000000" points="336.9798,-692.2669 344.219,-700.0028 343.384,-689.4409 336.9798,-692.2669"/>
<text text-anchor="middle" x="341.3466" y="-597.3" font-family="Times,serif" font-size="14.00" fill="#000000">String</text>
</g>
<!-- Refresh -->
<g id="node8" class="node">
<title>Refresh</title>
<ellipse fill="none" stroke="#000000" cx="291.3466" cy="-382" rx="38.1938" ry="18"/>
<text text-anchor="middle" x="291.3466" y="-378.3" font-family="Times,serif" font-size="14.00" fill="#000000">Refresh</text>
</g>
<!-- Load&#45;&gt;Refresh -->
<g id="edge8" class="edge">
<title>Load&#45;&gt;Refresh</title>
<path fill="none" stroke="#000000" d="M346.5509,-488.0949C336.0211,-482.0265 324.1508,-473.5533 316.3466,-463 305.005,-447.6633 298.7395,-427.0938 295.3173,-410.5212"/>
<polygon fill="#000000" stroke="#000000" points="298.6912,-409.5129 293.4542,-400.3029 291.8047,-410.7686 298.6912,-409.5129"/>
<text text-anchor="middle" x="354.8466" y="-436.8" font-family="Times,serif" font-size="14.00" fill="#000000">RefreshToken</text>
</g>
<!-- Load&#45;&gt;RequestCodes -->
<g id="edge5" class="edge">
<title>Load&#45;&gt;RequestCodes</title>
<path fill="none" stroke="#000000" d="M383.9391,-483.0857C388.7768,-477.1334 393.8206,-470.0895 397.3466,-463 442.4275,-372.3589 423.6957,-338.8228 456.3466,-243 457.2884,-240.2361 458.3385,-237.3818 459.4338,-234.546"/>
<polygon fill="#000000" stroke="#000000" points="462.7356,-235.7169 463.2396,-225.134 456.2461,-233.0928 462.7356,-235.7169"/>
</g>
<!-- Page -->
<g id="node5" class="node">
<title>Page</title>
<ellipse fill="none" stroke="#000000" cx="201.3466" cy="-805" rx="27.8951" ry="18"/>
<text text-anchor="middle" x="201.3466" y="-801.3" font-family="Times,serif" font-size="14.00" fill="#000000">Page</text>
</g>
<!-- Page&#45;&gt;Display -->
<g id="edge23" class="edge">
<title>Page&#45;&gt;Display</title>
<path fill="none" stroke="#000000" d="M182.0555,-818.3026C142.808,-846.7219 54.7292,-917.7644 23.3466,-1003 -1.9042,-1071.5814 16.957,-1159.534 29.517,-1203.4587"/>
<polygon fill="#000000" stroke="#000000" points="26.19,-1204.5502 32.3903,-1213.1413 32.9007,-1202.5588 26.19,-1204.5502"/>
<text text-anchor="middle" x="64.8466" y="-1066.8" font-family="Times,serif" font-size="14.00" fill="#000000">Authenticators</text>
<text text-anchor="middle" x="64.8466" y="-1051.8" font-family="Times,serif" font-size="14.00" fill="#000000">Appointments</text>
<text text-anchor="middle" x="64.8466" y="-1036.8" font-family="Times,serif" font-size="14.00" fill="#000000">RefreshedAt</text>
<text text-anchor="middle" x="64.8466" y="-1021.8" font-family="Times,serif" font-size="14.00" fill="#000000">DownloadedAt</text>
<text text-anchor="middle" x="64.8466" y="-1006.8" font-family="Times,serif" font-size="14.00" fill="#000000">RefreshType</text>
</g>
<!-- Page&#45;&gt;DisplayError -->
<g id="edge16" class="edge">
<title>Page&#45;&gt;DisplayError</title>
<path fill="none" stroke="#000000" d="M222.4815,-792.903C246.877,-778.9398 287.422,-755.7332 316.9271,-738.8454"/>
<polygon fill="#000000" stroke="#000000" points="318.7591,-741.8296 325.6993,-733.8244 315.2818,-735.7544 318.7591,-741.8296"/>
<text text-anchor="middle" x="304.3466" y="-757.8" font-family="Times,serif" font-size="14.00" fill="#000000">String</text>
</g>
<!-- RefreshingWait -->
<g id="node9" class="node">
<title>RefreshingWait</title>
<ellipse fill="none" stroke="#000000" cx="205.3466" cy="-280" rx="66.8882" ry="18"/>
<text text-anchor="middle" x="205.3466" y="-276.3" font-family="Times,serif" font-size="14.00" fill="#000000">RefreshingWait</text>
</g>
<!-- Page&#45;&gt;RefreshingWait -->
<g id="edge27" class="edge">
<title>Page&#45;&gt;RefreshingWait</title>
<path fill="none" stroke="#000000" d="M205.8945,-787.2122C210.4781,-765.4262 215.0975,-727.9749 201.3466,-700 175.3468,-647.1059 132.3985,-665.6266 96.3466,-619 76.4859,-593.3139 72.3466,-582.4688 72.3466,-550 72.3466,-550 72.3466,-550 72.3466,-382 72.3466,-340.1959 114.2314,-313.1889 150.9911,-297.5364"/>
<polygon fill="#000000" stroke="#000000" points="152.7339,-300.6068 160.6895,-293.6098 150.1069,-294.1185 152.7339,-300.6068"/>
<text text-anchor="middle" x="115.8466" y="-553.8" font-family="Times,serif" font-size="14.00" fill="#000000">RefreshToken</text>
<text text-anchor="middle" x="115.8466" y="-538.8" font-family="Times,serif" font-size="14.00" fill="#000000">LastNetErrorAt</text>
</g>
<!-- Poll -->
<g id="node6" class="node">
<title>Poll</title>
<ellipse fill="none" stroke="#000000" cx="587.3466" cy="-105" rx="27" ry="18"/>
<text text-anchor="middle" x="587.3466" y="-101.3" font-family="Times,serif" font-size="14.00" fill="#000000">Poll</text>
</g>
<!-- Poll&#45;&gt;DisplayError -->
<g id="edge17" class="edge">
<title>Poll&#45;&gt;DisplayError</title>
<path fill="none" stroke="#000000" d="M587.3466,-123.0566C587.3466,-143.443 587.3466,-177.6042 587.3466,-207 587.3466,-550 587.3466,-550 587.3466,-550 587.3466,-596.2265 555.5339,-598.2381 530.3466,-637 517.3824,-656.9512 520.7326,-668.2048 501.3466,-682 487.1296,-692.1169 448.2385,-701.3702 413.8915,-707.9617"/>
<polygon fill="#000000" stroke="#000000" points="413.067,-704.5551 403.881,-709.8341 414.3541,-711.4358 413.067,-704.5551"/>
<text text-anchor="middle" x="604.3466" y="-378.3" font-family="Times,serif" font-size="14.00" fill="#000000">String</text>
</g>
<!-- Save -->
<g id="node11" class="node">
<title>Save</title>
<ellipse fill="none" stroke="#000000" cx="637.3466" cy="-18" rx="27.8951" ry="18"/>
<text text-anchor="middle" x="637.3466" y="-14.3" font-family="Times,serif" font-size="14.00" fill="#000000">Save</text>
</g>
<!-- Poll&#45;&gt;Save -->
<g id="edge21" class="edge">
<title>Poll&#45;&gt;Save</title>
<path fill="none" stroke="#000000" d="M586.2352,-87.0064C586.3647,-76.7586 587.8647,-64.0086 593.3466,-54 596.9974,-47.3345 602.4327,-41.4218 608.2487,-36.4121"/>
<polygon fill="#000000" stroke="#000000" points="610.5446,-39.0603 616.2837,-30.1545 606.2435,-33.5375 610.5446,-39.0603"/>
<text text-anchor="middle" x="633.3466" y="-57.8" font-family="Times,serif" font-size="14.00" fill="#000000">Authenticators</text>
</g>
<!-- ReadFirst -->
<g id="node7" class="node">
<title>ReadFirst</title>
<ellipse fill="none" stroke="#000000" cx="330.3466" cy="-967" rx="44.6926" ry="18"/>
<text text-anchor="middle" x="330.3466" y="-963.3" font-family="Times,serif" font-size="14.00" fill="#000000">ReadFirst</text>
</g>
<!-- ReadFirst&#45;&gt;DisplayError -->
<g id="edge18" class="edge">
<title>ReadFirst&#45;&gt;DisplayError</title>
<path fill="none" stroke="#000000" d="M332.0378,-948.6904C336.0185,-905.5957 346.0006,-797.5283 350.7532,-746.0767"/>
<polygon fill="#000000" stroke="#000000" points="354.2492,-746.2801 351.6839,-736.0006 347.2789,-745.6362 354.2492,-746.2801"/>
<text text-anchor="middle" x="363.3466" y="-801.3" font-family="Times,serif" font-size="14.00" fill="#000000">String</text>
</g>
<!-- ReadFirst&#45;&gt;Page -->
<g id="edge22" class="edge">
<title>ReadFirst&#45;&gt;Page</title>
<path fill="none" stroke="#000000" d="M286.7978,-962.6475C246.7682,-957.6407 191.6778,-947.8574 178.3466,-931 153.5348,-899.6253 167.1286,-879.3948 178.3466,-841 179.4295,-837.2937 181.0232,-833.6059 182.8751,-830.0825"/>
<polygon fill="#000000" stroke="#000000" points="186.0407,-831.6106 188.2071,-821.2396 180.0461,-827.9961 186.0407,-831.6106"/>
<text text-anchor="middle" x="235.8466" y="-919.8" font-family="Times,serif" font-size="14.00" fill="#000000">Authenticators</text>
<text text-anchor="middle" x="235.8466" y="-904.8" font-family="Times,serif" font-size="14.00" fill="#000000">Option&lt;PageToken&gt;</text>
<text text-anchor="middle" x="235.8466" y="-889.8" font-family="Times,serif" font-size="14.00" fill="#000000">Appointments</text>
<text text-anchor="middle" x="235.8466" y="-874.8" font-family="Times,serif" font-size="14.00" fill="#000000">RefreshedAt</text>
<text text-anchor="middle" x="235.8466" y="-859.8" font-family="Times,serif" font-size="14.00" fill="#000000">DownloadedAt</text>
<text text-anchor="middle" x="235.8466" y="-844.8" font-family="Times,serif" font-size="14.00" fill="#000000">RefreshType</text>
</g>
<!-- ReadFirst&#45;&gt;RefreshingWait -->
<g id="edge26" class="edge">
<title>ReadFirst&#45;&gt;RefreshingWait</title>
<path fill="none" stroke="#000000" d="M329.8249,-948.8841C328.1838,-911.2019 321.3941,-822.2109 293.3466,-754 265.5425,-686.3811 222.1325,-688.4708 199.3466,-619 161.5199,-503.6718 193.9023,-467.3632 192.3466,-346 192.1757,-332.6678 190.0479,-329.1337 192.3466,-316 192.8242,-313.2713 193.4909,-310.4767 194.2726,-307.71"/>
<polygon fill="#000000" stroke="#000000" points="197.6734,-308.5723 197.4744,-297.9794 191.0241,-306.3844 197.6734,-308.5723"/>
<text text-anchor="middle" x="241.8466" y="-604.8" font-family="Times,serif" font-size="14.00" fill="#000000">RefreshToken</text>
<text text-anchor="middle" x="241.8466" y="-589.8" font-family="Times,serif" font-size="14.00" fill="#000000">LastNetErrorAt</text>
</g>
<!-- Refresh&#45;&gt;DisplayError -->
<g id="edge19" class="edge">
<title>Refresh&#45;&gt;DisplayError</title>
<path fill="none" stroke="#000000" d="M288.4113,-400.2747C281.465,-449.3145 268.2132,-586.5528 319.3466,-682 321.4018,-685.8363 323.9738,-689.5632 326.7778,-693.0738"/>
<polygon fill="#000000" stroke="#000000" points="324.3697,-695.635 333.6075,-700.8228 329.6211,-691.0065 324.3697,-695.635"/>
<text text-anchor="middle" x="302.3466" y="-546.3" font-family="Times,serif" font-size="14.00" fill="#000000">String</text>
</g>
<!-- Refresh&#45;&gt;ReadFirst -->
<g id="edge11" class="edge">
<title>Refresh&#45;&gt;ReadFirst</title>
<path fill="none" stroke="#000000" d="M327.2261,-388.5847C348.1817,-393.826 374.1854,-402.8731 393.3466,-418 493.6392,-497.1766 549.3466,-531.7207 549.3466,-659.5 549.3466,-805 549.3466,-805 549.3466,-805 549.3466,-889.2831 443.2121,-934.7284 378.7153,-954.5638"/>
<polygon fill="#000000" stroke="#000000" points="377.3314,-951.3238 368.7441,-957.5294 379.3269,-958.0334 377.3314,-951.3238"/>
<text text-anchor="middle" x="589.3466" y="-670.8" font-family="Times,serif" font-size="14.00" fill="#000000">Authenticators</text>
<text text-anchor="middle" x="589.3466" y="-655.8" font-family="Times,serif" font-size="14.00" fill="#000000">RefreshedAt</text>
<text text-anchor="middle" x="589.3466" y="-640.8" font-family="Times,serif" font-size="14.00" fill="#000000">RefreshType</text>
</g>
<!-- Refresh&#45;&gt;RefreshingWait -->
<g id="edge25" class="edge">
<title>Refresh&#45;&gt;RefreshingWait</title>
<path fill="none" stroke="#000000" d="M254.432,-376.9379C235.4858,-372.2628 213.9936,-363.2749 202.3466,-346 194.9827,-335.0778 194.8295,-320.6727 196.8995,-308.1077"/>
<polygon fill="#000000" stroke="#000000" points="200.3704,-308.6152 199.0517,-298.1028 193.5269,-307.1431 200.3704,-308.6152"/>
<text text-anchor="middle" x="244.8466" y="-334.8" font-family="Times,serif" font-size="14.00" fill="#000000">RefreshToken</text>
<text text-anchor="middle" x="244.8466" y="-319.8" font-family="Times,serif" font-size="14.00" fill="#000000">LastNetErrorAt</text>
</g>
<!-- RefreshingWait&#45;&gt;Refresh -->
<g id="edge9" class="edge">
<title>RefreshingWait&#45;&gt;Refresh</title>
<path fill="none" stroke="#000000" d="M258.5489,-291.2107C271.3989,-296.5464 283.6348,-304.4116 291.3466,-316 298.637,-326.9551 299.3863,-341.3636 297.9961,-353.9223"/>
<polygon fill="#000000" stroke="#000000" points="294.52,-353.4974 296.4218,-363.9201 301.4348,-354.5863 294.52,-353.4974"/>
<text text-anchor="middle" x="337.8466" y="-327.3" font-family="Times,serif" font-size="14.00" fill="#000000">RefreshToken</text>
</g>
<!-- RefreshingWait&#45;&gt;RequestCodes -->
<g id="edge6" class="edge">
<title>RefreshingWait&#45;&gt;RequestCodes</title>
<path fill="none" stroke="#000000" d="M252.2897,-267.1171C298.1965,-254.5186 368.0747,-235.3415 416.5123,-222.0485"/>
<polygon fill="#000000" stroke="#000000" points="417.4862,-225.4107 426.2033,-219.3889 415.6336,-218.6603 417.4862,-225.4107"/>
</g>
<!-- RequestCodes&#45;&gt;DisplayError -->
<g id="edge20" class="edge">
<title>RequestCodes&#45;&gt;DisplayError</title>
<path fill="none" stroke="#000000" d="M487.3856,-224.4526C498.514,-238.4088 511.3466,-259.0453 511.3466,-280 511.3466,-550 511.3466,-550 511.3466,-550 511.3466,-580.2908 498.4367,-660.2575 477.3466,-682 467.8941,-691.7448 439.6271,-700.3274 412.4656,-706.666"/>
<polygon fill="#000000" stroke="#000000" points="411.5335,-703.2881 402.5456,-708.8978 413.07,-710.1174 411.5335,-703.2881"/>
<text text-anchor="middle" x="528.3466" y="-436.8" font-family="Times,serif" font-size="14.00" fill="#000000">String</text>
</g>
<!-- RequestCodes&#45;&gt;Poll -->
<g id="edge14" class="edge">
<title>RequestCodes&#45;&gt;Poll</title>
<path fill="none" stroke="#000000" d="M472.8284,-188.8652C474.9331,-174.2314 480.0256,-154.0072 492.3466,-141 507.6333,-124.8619 530.8934,-115.8884 550.5712,-110.9365"/>
<polygon fill="#000000" stroke="#000000" points="551.4921,-114.3167 560.4737,-108.6969 549.9479,-107.4891 551.4921,-114.3167"/>
<text text-anchor="middle" x="532.8466" y="-159.8" font-family="Times,serif" font-size="14.00" fill="#000000">String</text>
<text text-anchor="middle" x="532.8466" y="-144.8" font-family="Times,serif" font-size="14.00" fill="#000000">PeriodSeconds</text>
</g>
<!-- Save&#45;&gt;ReadFirst -->
<g id="edge12" class="edge">
<title>Save&#45;&gt;ReadFirst</title>
<path fill="none" stroke="#000000" d="M655.091,-32.2526C661.6557,-38.3362 668.6372,-45.9004 673.3466,-54 685.1613,-74.3201 687.3466,-81.4948 687.3466,-105 687.3466,-331 687.3466,-331 687.3466,-331 687.3466,-408.0736 644.3466,-421.9264 644.3466,-499 644.3466,-805 644.3466,-805 644.3466,-805 644.3466,-920.4724 474.5624,-953.7192 384.6897,-963.2292"/>
<polygon fill="#000000" stroke="#000000" points="384.2734,-959.7533 374.6692,-964.2263 384.9666,-966.7189 384.2734,-959.7533"/>
<text text-anchor="middle" x="703.3466" y="-451.8" font-family="Times,serif" font-size="14.00" fill="#000000">Authenticators</text>
<text text-anchor="middle" x="703.3466" y="-436.8" font-family="Times,serif" font-size="14.00" fill="#000000">RefreshedAt</text>
<text text-anchor="middle" x="703.3466" y="-421.8" font-family="Times,serif" font-size="14.00" fill="#000000">RefreshType</text>
</g>
<!-- Wait&#45;&gt;ReadFirst -->
<g id="edge13" class="edge">
<title>Wait&#45;&gt;ReadFirst</title>
<path fill="none" stroke="#000000" d="M191.3505,-1098.8221C218.3039,-1073.2598 272.954,-1021.4304 305.1145,-990.9298"/>
<polygon fill="#000000" stroke="#000000" points="307.9285,-993.0848 312.7758,-983.6639 303.1115,-988.0057 307.9285,-993.0848"/>
<text text-anchor="middle" x="329.3466" y="-1051.8" font-family="Times,serif" font-size="14.00" fill="#000000">Authenticators</text>
<text text-anchor="middle" x="329.3466" y="-1036.8" font-family="Times,serif" font-size="14.00" fill="#000000">RefreshedAt</text>
<text text-anchor="middle" x="329.3466" y="-1021.8" font-family="Times,serif" font-size="14.00" fill="#000000">RefreshType</text>
</g>
<!-- Wait&#45;&gt;Refresh -->
<g id="edge10" class="edge">
<title>Wait&#45;&gt;Refresh</title>
<path fill="none" stroke="#000000" d="M164.4804,-1097.1217C148.4517,-1070.5559 120.3466,-1016.865 120.3466,-967 120.3466,-967 120.3466,-967 120.3466,-761.5 120.3466,-687.2961 175.4471,-685.9974 207.3466,-619 216.663,-599.4331 262.0687,-467.6195 281.9697,-409.4703"/>
<polygon fill="#000000" stroke="#000000" points="285.3412,-410.4277 285.2652,-399.8332 278.7178,-408.1628 285.3412,-410.4277"/>
<text text-anchor="middle" x="179.8466" y="-714.3" font-family="Times,serif" font-size="14.00" fill="#000000">RefreshToken</text>
</g>
<!-- Wait&#45;&gt;RequestCodes -->
<g id="edge7" class="edge">
<title>Wait&#45;&gt;RequestCodes</title>
<path fill="none" stroke="#000000" d="M204.0908,-1112.7782C319.0231,-1107.1262 739.3466,-1078.8126 739.3466,-967 739.3466,-967 739.3466,-967 739.3466,-499 739.3466,-462.4662 743.6382,-449.6249 725.3466,-418 673.4448,-328.2653 568.1358,-260.0242 510.7637,-227.6843"/>
<polygon fill="#000000" stroke="#000000" points="512.4241,-224.6029 501.983,-222.8044 509.0236,-230.7215 512.4241,-224.6029"/>
</g>
<!-- _start -->
<g id="node13" class="node">
<title>_start</title>
<ellipse fill="#000000" stroke="#000000" cx="369.3466" cy="-601" rx="1.8" ry="1.8"/>
</g>
<!-- _start&#45;&gt;Load -->
<g id="edge1" class="edge">
<title>_start&#45;&gt;Load</title>
<path fill="none" stroke="#000000" d="M369.3466,-598.8696C369.3466,-589.7674 369.3466,-553.4125 369.3466,-527.1901"/>
<polygon fill="#000000" stroke="#000000" points="372.8467,-527.0264 369.3466,-517.0264 365.8467,-527.0264 372.8467,-527.0264"/>
</g>
</g>
</svg>
