<?xml version="1.0" encoding="UTF-8" standalone="no"?>
<!DOCTYPE svg PUBLIC "-//W3C//DTD SVG 1.1//EN"
 "http://www.w3.org/Graphics/SVG/1.1/DTD/svg11.dtd">
<!-- Generated by graphviz version 2.40.1 (20161225.0304)
 -->
<!-- Title: display_stm Pages: 1 -->
<svg width="293pt" height="396pt"
 viewBox="0.00 0.00 292.69 395.99" xmlns="http://www.w3.org/2000/svg" xmlns:xlink="http://www.w3.org/1999/xlink">
<g id="graph0" class="graph" transform="scale(1 1) rotate(0) translate(4 391.9887)">
<title>display_stm</title>
<polygon fill="#ffffff" stroke="transparent" points="-4,4 -4,-391.9887 288.6943,-391.9887 288.6943,4 -4,4"/>
<!-- AllDisplayable -->
<g id="node1" class="node">
<title>AllDisplayable</title>
<ellipse fill="none" stroke="#000000" cx="67.6943" cy="-67.6943" rx="63.8777" ry="63.8777"/>
<ellipse fill="none" stroke="#000000" cx="67.6943" cy="-67.6943" rx="67.8893" ry="67.8893"/>
<text text-anchor="middle" x="67.6943" y="-63.9943" font-family="Times,serif" font-size="14.00" fill="#000000">AllDisplayable</text>
</g>
<!-- EventsQueued -->
<g id="node2" class="node">
<title>EventsQueued</title>
<ellipse fill="none" stroke="#000000" cx="67.6943" cy="-212.3887" rx="61.99" ry="18"/>
<text text-anchor="middle" x="67.6943" y="-208.6887" font-family="Times,serif" font-size="14.00" fill="#000000">EventsQueued</text>
</g>
<!-- EventsQueued&#45;&gt;AllDisplayable -->
<g id="edge3" class="edge">
<title>EventsQueued&#45;&gt;AllDisplayable</title>
<path fill="none" stroke="#000000" d="M67.6943,-194.3556C67.6943,-181.7633 67.6943,-163.9976 67.6943,-145.7447"/>
<polygon fill="#000000" stroke="#000000" points="71.1944,-145.5838 67.6943,-135.5839 64.1944,-145.5839 71.1944,-145.5838"/>
<text text-anchor="start" x="72.1943" y="-161.6887" font-family="Times,serif" font-style="italic" font-size="14.00" fill="#000000">&quot;EventsQueued&quot; &#45;&gt; &quot;AllDisplayable&quot;</text>
</g>
<!-- NotDisplayable -->
<g id="node3" class="node">
<title>NotDisplayable</title>
<ellipse fill="none" stroke="#000000" cx="67.6943" cy="-307.3887" rx="65.7887" ry="18"/>
<text text-anchor="middle" x="67.6943" y="-303.6887" font-family="Times,serif" font-size="14.00" fill="#000000">NotDisplayable</text>
</g>
<!-- NotDisplayable&#45;&gt;EventsQueued -->
<g id="edge2" class="edge">
<title>NotDisplayable&#45;&gt;EventsQueued</title>
<path fill="none" stroke="#000000" d="M67.6943,-289.0717C67.6943,-275.4036 67.6943,-256.4719 67.6943,-240.8395"/>
<polygon fill="#000000" stroke="#000000" points="71.1944,-240.6494 67.6943,-230.6494 64.1944,-240.6495 71.1944,-240.6494"/>
<text text-anchor="start" x="72.1943" y="-256.6887" font-family="Times,serif" font-style="italic" font-size="14.00" fill="#000000">&quot;NotDisplayable&quot; &#45;&gt; &quot;EventsQueued&quot;</text>
</g>
<!-- _start -->
<g id="node4" class="node">
<title>_start</title>
<ellipse fill="#000000" stroke="#000000" cx="67.6943" cy="-386.1887" rx="1.8" ry="1.8"/>
</g>
<!-- _start&#45;&gt;NotDisplayable -->
<g id="edge1" class="edge">
<title>_start&#45;&gt;NotDisplayable</title>
<path fill="none" stroke="#000000" d="M67.6943,-384.2408C67.6943,-377.5218 67.6943,-354.681 67.6943,-335.6321"/>
<polygon fill="#000000" stroke="#000000" points="71.1944,-335.5659 67.6943,-325.566 64.1944,-335.566 71.1944,-335.5659"/>
<text text-anchor="start" x="72.1943" y="-351.6887" font-family="Times,serif" font-weight="bold" font-style="italic" font-size="14.00" fill="#000000"> &#45;&gt; &quot;NotDisplayable&quot;</text>
</g>
</g>
</svg>
