<?xml version="1.0" encoding="UTF-8" standalone="no"?>
<!DOCTYPE svg PUBLIC "-//W3C//DTD SVG 1.1//EN"
 "http://www.w3.org/Graphics/SVG/1.1/DTD/svg11.dtd">
<!-- Generated by graphviz version 2.40.1 (20161225.0304)
 -->
<!-- Title: display_stm Pages: 1 -->
<svg width="1798pt" height="723pt"
 viewBox="0.00 0.00 1798.38 723.36" xmlns="http://www.w3.org/2000/svg" xmlns:xlink="http://www.w3.org/1999/xlink">
<g id="graph0" class="graph" transform="scale(1 1) rotate(0) translate(4 719.361)">
<title>display_stm</title>
<polygon fill="#ffffff" stroke="transparent" points="-4,4 -4,-719.361 1794.3809,-719.361 1794.3809,4 -4,4"/>
<!-- Empty -->
<g id="node1" class="node">
<title>Empty</title>
<ellipse fill="none" stroke="#000000" cx="1027.3809" cy="-676.9141" rx="34.3995" ry="34.3995"/>
<ellipse fill="none" stroke="#000000" cx="1027.3809" cy="-676.9141" rx="38.394" ry="38.394"/>
<text text-anchor="middle" x="1027.3809" y="-673.2141" font-family="Times,serif" font-size="14.00" fill="#000000">Empty</text>
</g>
<!-- Events -->
<g id="node2" class="node">
<title>Events</title>
<ellipse fill="none" stroke="#000000" cx="438.3809" cy="-541.0202" rx="34.3995" ry="34.3995"/>
<ellipse fill="none" stroke="#000000" cx="438.3809" cy="-541.0202" rx="38.394" ry="38.394"/>
<text text-anchor="middle" x="438.3809" y="-537.3202" font-family="Times,serif" font-size="14.00" fill="#000000">Events</text>
</g>
<!-- Empty&#45;&gt;Events -->
<g id="edge14" class="edge">
<title>Empty&#45;&gt;Events</title>
<path fill="none" stroke="#000000" d="M988.9054,-673.7254C901.2704,-666.1136 689.2392,-645.6276 622.3809,-620.4671 604.96,-613.9112 603.9614,-605.9261 587.3809,-597.4671 554.2845,-580.5821 514.9006,-565.8765 484.9379,-555.7115"/>
<polygon fill="#000000" stroke="#000000" points="485.7543,-552.294 475.1605,-552.4417 483.5342,-558.9326 485.7543,-552.294"/>
<text text-anchor="start" x="626.8809" y="-605.7671" font-family="Times,serif" font-style="italic" font-size="14.00" fill="#000000">&quot;Empty&quot; &#45;&gt; &quot;Events&quot;</text>
</g>
<!-- SaveWarning -->
<g id="node3" class="node">
<title>SaveWarning</title>
<ellipse fill="none" stroke="#000000" cx="617.3809" cy="-63.1448" rx="59.2806" ry="59.2806"/>
<ellipse fill="none" stroke="#000000" cx="617.3809" cy="-63.1448" rx="63.2898" ry="63.2898"/>
<text text-anchor="middle" x="617.3809" y="-59.4448" font-family="Times,serif" font-size="14.00" fill="#000000">SaveWarning</text>
</g>
<!-- Empty&#45;&gt;SaveWarning -->
<g id="edge6" class="edge">
<title>Empty&#45;&gt;SaveWarning</title>
<path fill="none" stroke="#000000" d="M1065.6575,-672.3308C1166.253,-659.2261 1430.3809,-617.5327 1430.3809,-541.0202 1430.3809,-541.0202 1430.3809,-541.0202 1430.3809,-234.7855 1430.3809,-159.5472 890.4556,-92.948 690.6102,-70.8742"/>
<polygon fill="#000000" stroke="#000000" points="690.8216,-67.3764 680.4991,-69.7634 690.0571,-74.3346 690.8216,-67.3764"/>
<text text-anchor="start" x="1434.3809" y="-390.2273" font-family="Times,serif" font-style="italic" font-size="14.00" fill="#000000">&quot;Empty&quot; &#45;&gt; &quot;SaveWarning&quot;</text>
</g>
<!-- Unknown -->
<g id="node4" class="node">
<title>Unknown</title>
<ellipse fill="none" stroke="#000000" cx="844.3809" cy="-234.7855" rx="45.4923" ry="45.4923"/>
<ellipse fill="none" stroke="#000000" cx="844.3809" cy="-234.7855" rx="49.4919" ry="49.4919"/>
<text text-anchor="middle" x="844.3809" y="-231.0855" font-family="Times,serif" font-size="14.00" fill="#000000">Unknown</text>
</g>
<!-- Empty&#45;&gt;Unknown -->
<g id="edge2" class="edge">
<title>Empty&#45;&gt;Unknown</title>
<path fill="none" stroke="#000000" d="M1054.8438,-649.8547C1071.2496,-631.6834 1090.5633,-606.2391 1099.3809,-579.4671 1108.4269,-552.0014 1117.6906,-329.6235 1096.3809,-302.2814 1072.8444,-272.0822 970.4812,-252.3323 903.6768,-242.4016"/>
<polygon fill="#000000" stroke="#000000" points="904.0846,-238.9242 893.6852,-240.9498 903.078,-245.8514 904.0846,-238.9242"/>
<text text-anchor="start" x="1112.8809" y="-469.8732" font-family="Times,serif" font-style="italic" font-size="14.00" fill="#000000">&quot;Empty&quot; &#45;&gt; &quot;Unknown&quot;</text>
</g>
<!-- UserCode -->
<g id="node5" class="node">
<title>UserCode</title>
<ellipse fill="none" stroke="#000000" cx="610.3809" cy="-393.4273" rx="46.2806" ry="46.2806"/>
<ellipse fill="none" stroke="#000000" cx="610.3809" cy="-393.4273" rx="50.2922" ry="50.2922"/>
<text text-anchor="middle" x="610.3809" y="-389.7273" font-family="Times,serif" font-size="14.00" fill="#000000">UserCode</text>
</g>
<!-- Empty&#45;&gt;UserCode -->
<g id="edge10" class="edge">
<title>Empty&#45;&gt;UserCode</title>
<path fill="none" stroke="#000000" d="M988.8826,-672.8325C933.5252,-664.8856 831.9019,-642.1909 775.3809,-579.4671 739.0359,-539.1336 777.5695,-503.7501 743.3809,-461.5732 724.2469,-437.9685 694.7837,-421.6989 668.4469,-410.9933"/>
<polygon fill="#000000" stroke="#000000" points="669.4993,-407.6476 658.9103,-407.2976 666.9699,-414.1746 669.4993,-407.6476"/>
<text text-anchor="start" x="779.3809" y="-537.8202" font-family="Times,serif" font-style="italic" font-size="14.00" fill="#000000">&quot;Empty&quot; &#45;&gt; &quot;UserCode&quot;</text>
</g>
<!-- Events&#45;&gt;Empty -->
<g id="edge20" class="edge">
<title>Events&#45;&gt;Empty</title>
<path fill="none" stroke="#000000" d="M438.9765,-579.5093C441.2706,-594.438 446.6393,-610.3436 458.3809,-620.4671 497.4518,-654.1538 848.2337,-670.3511 978.7505,-675.2508"/>
<polygon fill="#000000" stroke="#000000" points="978.7366,-678.7526 988.859,-675.6242 978.995,-671.7574 978.7366,-678.7526"/>
<text text-anchor="start" x="462.8809" y="-605.7671" font-family="Times,serif" font-style="italic" font-size="14.00" fill="#000000">&quot;Events&quot; &#45;&gt; &quot;Empty&quot;</text>
</g>
<!-- Events&#45;&gt;SaveWarning -->
<g id="edge8" class="edge">
<title>Events&#45;&gt;SaveWarning</title>
<path fill="none" stroke="#000000" d="M400.042,-537.1199C282.1889,-523.2947 -62.5079,-468.2057 10.3809,-302.2814 52.1285,-207.247 89.5418,-190.7148 182.3809,-144.2895 244.7848,-113.0837 437.6289,-85.3097 544.3933,-71.8077"/>
<polygon fill="#000000" stroke="#000000" points="544.9629,-75.2638 554.4493,-70.546 544.0914,-68.3182 544.9629,-75.2638"/>
<text text-anchor="start" x="14.3809" y="-310.5814" font-family="Times,serif" font-style="italic" font-size="14.00" fill="#000000">&quot;Events&quot; &#45;&gt; &quot;SaveWarning&quot;</text>
</g>
<!-- Events&#45;&gt;Unknown -->
<g id="edge5" class="edge">
<title>Events&#45;&gt;Unknown</title>
<path fill="none" stroke="#000000" d="M477.1934,-539.6778C536.884,-536.3522 653.708,-524.7877 743.3809,-484.5732 836.8183,-442.6705 843.9724,-405.4027 925.3809,-343.2814 935.9806,-335.193 943.418,-337.2071 949.3809,-325.2814 964.2355,-295.5723 932.5501,-271.5927 900.1911,-255.8006"/>
<polygon fill="#000000" stroke="#000000" points="901.6278,-252.6088 891.0845,-251.5656 898.676,-258.956 901.6278,-252.6088"/>
<text text-anchor="start" x="929.3809" y="-390.2273" font-family="Times,serif" font-style="italic" font-size="14.00" fill="#000000">&quot;Events&quot; &#45;&gt; &quot;Unknown&quot;</text>
</g>
<!-- Events&#45;&gt;UserCode -->
<g id="edge12" class="edge">
<title>Events&#45;&gt;UserCode</title>
<path fill="none" stroke="#000000" d="M426.3477,-504.2554C423.881,-489.4305 424.528,-473.1361 434.3809,-461.5732 467.0802,-423.199 500.1828,-463.7615 546.3809,-443.5732 552.6379,-440.839 558.8156,-437.3474 564.7204,-433.4825"/>
<polygon fill="#000000" stroke="#000000" points="566.956,-436.1904 573.1538,-427.5975 562.9501,-430.4499 566.956,-436.1904"/>
<text text-anchor="start" x="438.8809" y="-469.8732" font-family="Times,serif" font-style="italic" font-size="14.00" fill="#000000">&quot;Events&quot; &#45;&gt; &quot;UserCode&quot;</text>
</g>
<!-- SaveWarning&#45;&gt;Empty -->
<g id="edge18" class="edge">
<title>SaveWarning&#45;&gt;Empty</title>
<path fill="none" stroke="#000000" d="M680.6235,-67.157C901.956,-82.0305 1628.3809,-138.2029 1628.3809,-234.7855 1628.3809,-541.0202 1628.3809,-541.0202 1628.3809,-541.0202 1628.3809,-597.5065 1219.2697,-653.2894 1076.1266,-671.0784"/>
<polygon fill="#000000" stroke="#000000" points="1075.3863,-667.6431 1065.8904,-672.3419 1076.2439,-674.5904 1075.3863,-667.6431"/>
<text text-anchor="start" x="1632.3809" y="-390.2273" font-family="Times,serif" font-style="italic" font-size="14.00" fill="#000000">&quot;SaveWarning&quot; &#45;&gt; &quot;Empty&quot;</text>
</g>
<!-- SaveWarning&#45;&gt;Events -->
<g id="edge15" class="edge">
<title>SaveWarning&#45;&gt;Events</title>
<path fill="none" stroke="#000000" d="M555.8226,-78.3259C463.1639,-105.1185 292.7933,-170.8383 237.3809,-302.2814 197.9005,-395.9323 324.1915,-480.5183 394.5201,-519.0435"/>
<polygon fill="#000000" stroke="#000000" points="393.1703,-522.2917 403.6344,-523.9507 396.4887,-516.1283 393.1703,-522.2917"/>
<text text-anchor="start" x="241.3809" y="-310.5814" font-family="Times,serif" font-style="italic" font-size="14.00" fill="#000000">&quot;SaveWarning&quot; &#45;&gt; &quot;Events&quot;</text>
</g>
<!-- SaveWarning&#45;&gt;Unknown -->
<g id="edge3" class="edge">
<title>SaveWarning&#45;&gt;Unknown</title>
<path fill="none" stroke="#000000" d="M679.8285,-74.2681C723.3754,-85.1108 779.8301,-105.8198 815.3809,-144.2895 823.6038,-153.1876 829.4955,-164.4276 833.7167,-175.9337"/>
<polygon fill="#000000" stroke="#000000" points="830.4482,-177.1998 836.8841,-185.6159 837.1013,-175.0233 830.4482,-177.1998"/>
<text text-anchor="start" x="834.3809" y="-152.5895" font-family="Times,serif" font-style="italic" font-size="14.00" fill="#000000">&quot;SaveWarning&quot; &#45;&gt; &quot;Unknown&quot;</text>
</g>
<!-- SaveWarning&#45;&gt;UserCode -->
<g id="edge11" class="edge">
<title>SaveWarning&#45;&gt;UserCode</title>
<path fill="none" stroke="#000000" d="M603.1234,-124.7359C592.7488,-177.9543 582.0212,-256.8616 591.3809,-325.2814 591.8444,-328.6697 592.4318,-332.127 593.1108,-335.5984"/>
<polygon fill="#000000" stroke="#000000" points="589.6916,-336.3465 595.2395,-345.3726 596.5312,-334.8568 589.6916,-336.3465"/>
<text text-anchor="start" x="597.8809" y="-231.5855" font-family="Times,serif" font-style="italic" font-size="14.00" fill="#000000">&quot;SaveWarning&quot; &#45;&gt; &quot;UserCode&quot;</text>
</g>
<!-- Unknown&#45;&gt;Empty -->
<g id="edge21" class="edge">
<title>Unknown&#45;&gt;Empty</title>
<path fill="none" stroke="#000000" d="M893.9409,-238.3043C950.6703,-244.2602 1044.6073,-260.1558 1113.3809,-302.2814 1193.5053,-351.3598 1219.3919,-373.594 1252.3809,-461.5732 1288.2446,-557.2194 1148.6413,-628.9719 1073.018,-660.0077"/>
<polygon fill="#000000" stroke="#000000" points="1071.654,-656.7837 1063.6846,-663.7651 1074.2682,-663.2773 1071.654,-656.7837"/>
<text text-anchor="start" x="1261.8809" y="-469.8732" font-family="Times,serif" font-style="italic" font-size="14.00" fill="#000000">&quot;Unknown&quot; &#45;&gt; &quot;Empty&quot;</text>
</g>
<!-- Unknown&#45;&gt;Events -->
<g id="edge17" class="edge">
<title>Unknown&#45;&gt;Events</title>
<path fill="none" stroke="#000000" d="M807.9883,-268.4687C799.472,-274.7101 790.0466,-280.4586 780.3809,-284.2814 702.7514,-314.984 461.5222,-278.0873 409.3809,-343.2814 374.3513,-387.0802 395.1189,-454.4024 415.1878,-498.081"/>
<polygon fill="#000000" stroke="#000000" points="412.1149,-499.7691 419.5719,-507.2953 418.4359,-496.7615 412.1149,-499.7691"/>
<text text-anchor="start" x="413.3809" y="-390.2273" font-family="Times,serif" font-style="italic" font-size="14.00" fill="#000000">&quot;Unknown&quot; &#45;&gt; &quot;Events&quot;</text>
</g>
<!-- Unknown&#45;&gt;SaveWarning -->
<g id="edge9" class="edge">
<title>Unknown&#45;&gt;SaveWarning</title>
<path fill="none" stroke="#000000" d="M807.8674,-200.7721C799.6647,-194.7136 790.6334,-189.1218 781.3809,-185.2895 750.3637,-172.4425 655.2881,-190.8597 631.3809,-167.2895 622.8046,-158.8342 617.7206,-147.8142 614.898,-136.1145"/>
<polygon fill="#000000" stroke="#000000" points="618.3159,-135.3513 613.0318,-126.1682 611.436,-136.6422 618.3159,-135.3513"/>
<text text-anchor="start" x="635.3809" y="-152.5895" font-family="Times,serif" font-style="italic" font-size="14.00" fill="#000000">&quot;Unknown&quot; &#45;&gt; &quot;SaveWarning&quot;</text>
</g>
<!-- Unknown&#45;&gt;UserCode -->
<g id="edge13" class="edge">
<title>Unknown&#45;&gt;UserCode</title>
<path fill="none" stroke="#000000" d="M812.5588,-272.7783C793.1954,-295.6188 771.1161,-321.0675 765.3809,-325.2814 735.9896,-346.8765 698.6794,-363.5462 668.0299,-374.9921"/>
<polygon fill="#000000" stroke="#000000" points="666.5298,-371.8135 658.3313,-378.5244 668.9253,-378.3909 666.5298,-371.8135"/>
<text text-anchor="start" x="789.8809" y="-310.5814" font-family="Times,serif" font-style="italic" font-size="14.00" fill="#000000">&quot;Unknown&quot; &#45;&gt; &quot;UserCode&quot;</text>
</g>
<!-- UserCode&#45;&gt;Empty -->
<g id="edge19" class="edge">
<title>UserCode&#45;&gt;Empty</title>
<path fill="none" stroke="#000000" d="M659.1913,-405.7204C735.9908,-425.86 880.3315,-467.1862 919.3809,-502.5732 947.3426,-527.9125 936.0738,-547.0453 955.3809,-579.4671 967.497,-599.8134 982.8807,-621.1098 996.315,-638.586"/>
<polygon fill="#000000" stroke="#000000" points="993.8293,-641.0911 1002.7305,-646.8374 999.3555,-636.7945 993.8293,-641.0911"/>
<text text-anchor="start" x="959.3809" y="-537.8202" font-family="Times,serif" font-style="italic" font-size="14.00" fill="#000000">&quot;UserCode&quot; &#45;&gt; &quot;Empty&quot;</text>
</g>
<!-- UserCode&#45;&gt;Events -->
<g id="edge16" class="edge">
<title>UserCode&#45;&gt;Events</title>
<path fill="none" stroke="#000000" d="M601.8389,-443.036C597.2439,-457.8565 590.1924,-473.1735 579.3809,-484.5732 554.8464,-510.4425 516.8935,-524.7318 486.5416,-532.4568"/>
<polygon fill="#000000" stroke="#000000" points="485.4867,-529.1101 476.57,-534.8322 487.1089,-535.9195 485.4867,-529.1101"/>
<text text-anchor="start" x="598.8809" y="-469.8732" font-family="Times,serif" font-style="italic" font-size="14.00" fill="#000000">&quot;UserCode&quot; &#45;&gt; &quot;Events&quot;</text>
</g>
<!-- UserCode&#45;&gt;SaveWarning -->
<g id="edge7" class="edge">
<title>UserCode&#45;&gt;SaveWarning</title>
<path fill="none" stroke="#000000" d="M572.1065,-360.4066C563.931,-354.2357 555.1176,-348.1918 546.3809,-343.2814 481.399,-306.7588 431.8184,-345.5644 389.3809,-284.2814 364.3334,-248.1109 366.78,-223.0371 389.3809,-185.2895 423.0412,-129.0706 492.4045,-97.2566 545.8339,-80.2914"/>
<polygon fill="#000000" stroke="#000000" points="547.0776,-83.5709 555.6127,-77.2938 545.026,-76.8783 547.0776,-83.5709"/>
<text text-anchor="start" x="393.8809" y="-231.5855" font-family="Times,serif" font-style="italic" font-size="14.00" fill="#000000">&quot;UserCode&quot; &#45;&gt; &quot;SaveWarning&quot;</text>
</g>
<!-- UserCode&#45;&gt;Unknown -->
<g id="edge4" class="edge">
<title>UserCode&#45;&gt;Unknown</title>
<path fill="none" stroke="#000000" d="M594.5033,-345.7761C592.3689,-330.2011 593.8561,-313.9308 604.3809,-302.2814 630.8853,-272.945 744.7186,-299.0797 781.3809,-284.2814 787.7071,-281.7279 793.9217,-278.3361 799.8353,-274.5208"/>
<polygon fill="#000000" stroke="#000000" points="802.0396,-277.2515 808.262,-268.6764 798.0502,-271.4995 802.0396,-277.2515"/>
<text text-anchor="start" x="608.8809" y="-310.5814" font-family="Times,serif" font-style="italic" font-size="14.00" fill="#000000">&quot;UserCode&quot; &#45;&gt; &quot;Unknown&quot;</text>
</g>
<!-- _start -->
<g id="node6" class="node">
<title>_start</title>
<ellipse fill="#000000" stroke="#000000" cx="1078.3809" cy="-393.4273" rx="1.8" ry="1.8"/>
</g>
<!-- _start&#45;&gt;Unknown -->
<g id="edge1" class="edge">
<title>_start&#45;&gt;Unknown</title>
<path fill="none" stroke="#000000" d="M1078.3802,-391.5582C1078.2721,-384.2355 1076.8692,-357.2195 1062.3809,-343.2814 1040.7784,-322.4993 1023.2781,-340.3778 997.3809,-325.2814 984.8916,-318.001 986.0438,-310.8234 974.3809,-302.2814 951.2883,-285.3683 923.3708,-270.2796 899.3356,-258.6807"/>
<polygon fill="#000000" stroke="#000000" points="900.525,-255.3712 889.9897,-254.2501 897.5264,-261.6965 900.525,-255.3712"/>
<text text-anchor="start" x="1001.8809" y="-310.5814" font-family="Times,serif" font-weight="bold" font-style="italic" font-size="14.00" fill="#000000"> &#45;&gt; &quot;Unknown&quot;</text>
</g>
</g>
</svg>
