<?xml version="1.0" encoding="UTF-8" standalone="no"?>
<!DOCTYPE svg PUBLIC "-//W3C//DTD SVG 1.1//EN"
 "http://www.w3.org/Graphics/SVG/1.1/DTD/svg11.dtd">
<!-- Generated by graphviz version 2.40.1 (20161225.0304)
 -->
<!-- Title: display_stm Pages: 1 -->
<svg width="447pt" height="426pt"
 viewBox="0.00 0.00 447.25 426.48" xmlns="http://www.w3.org/2000/svg" xmlns:xlink="http://www.w3.org/1999/xlink">
<g id="graph0" class="graph" transform="scale(1 1) rotate(0) translate(4 422.4835)">
<title>display_stm</title>
<polygon fill="#ffffff" stroke="transparent" points="-4,4 -4,-422.4835 443.2474,-422.4835 443.2474,4 -4,4"/>
<!-- AllDisplayable -->
<g id="node1" class="node">
<title>AllDisplayable</title>
<ellipse fill="none" stroke="#000000" cx="226.2474" cy="-67.6943" rx="63.8777" ry="63.8777"/>
<ellipse fill="none" stroke="#000000" cx="226.2474" cy="-67.6943" rx="67.8893" ry="67.8893"/>
<text text-anchor="middle" x="226.2474" y="-63.9943" font-family="Times,serif" font-size="14.00" fill="#000000">AllDisplayable</text>
</g>
<!-- Error -->
<g id="node2" class="node">
<title>Error</title>
<ellipse fill="none" stroke="#000000" cx="33.2474" cy="-227.6361" rx="29.4667" ry="29.4667"/>
<ellipse fill="none" stroke="#000000" cx="33.2474" cy="-227.6361" rx="33.4967" ry="33.4967"/>
<text text-anchor="middle" x="33.2474" y="-223.9361" font-family="Times,serif" font-size="14.00" fill="#000000">Error</text>
</g>
<!-- EventsQueued -->
<g id="node3" class="node">
<title>EventsQueued</title>
<ellipse fill="none" stroke="#000000" cx="226.2474" cy="-227.6361" rx="61.99" ry="18"/>
<text text-anchor="middle" x="226.2474" y="-223.9361" font-family="Times,serif" font-size="14.00" fill="#000000">EventsQueued</text>
</g>
<!-- EventsQueued&#45;&gt;AllDisplayable -->
<g id="edge3" class="edge">
<title>EventsQueued&#45;&gt;AllDisplayable</title>
<path fill="none" stroke="#000000" d="M226.2474,-209.5997C226.2474,-193.8015 226.2474,-169.6945 226.2474,-145.8086"/>
<polygon fill="#000000" stroke="#000000" points="229.7475,-145.6101 226.2474,-135.6101 222.7475,-145.6101 229.7475,-145.6101"/>
<text text-anchor="start" x="230.7474" y="-161.6887" font-family="Times,serif" font-style="italic" font-size="14.00" fill="#000000">&quot;EventsQueued&quot; &#45;&gt; &quot;AllDisplayable&quot;</text>
</g>
<!-- NotDisplayable -->
<g id="node4" class="node">
<title>NotDisplayable</title>
<ellipse fill="none" stroke="#000000" cx="129.2474" cy="-337.8835" rx="65.7887" ry="18"/>
<text text-anchor="middle" x="129.2474" y="-334.1835" font-family="Times,serif" font-size="14.00" fill="#000000">NotDisplayable</text>
</g>
<!-- NotDisplayable&#45;&gt;Error -->
<g id="edge4" class="edge">
<title>NotDisplayable&#45;&gt;Error</title>
<path fill="none" stroke="#000000" d="M81.9187,-325.3733C61.2189,-318.8623 40.268,-310.479 34.2474,-301.8835 27.8489,-292.7485 25.6609,-281.3079 25.5684,-270.1635"/>
<polygon fill="#000000" stroke="#000000" points="29.0687,-270.231 26.0118,-260.0867 22.0755,-269.9232 29.0687,-270.231"/>
<text text-anchor="start" x="38.2474" y="-287.1835" font-family="Times,serif" font-style="italic" font-size="14.00" fill="#000000">&quot;NotDisplayable&quot; &#45;&gt; &quot;Error&quot;</text>
</g>
<!-- NotDisplayable&#45;&gt;EventsQueued -->
<g id="edge2" class="edge">
<title>NotDisplayable&#45;&gt;EventsQueued</title>
<path fill="none" stroke="#000000" d="M173.1035,-324.2201C184.5662,-318.8352 196.0044,-311.558 204.2474,-301.8835 215.228,-288.9959 220.7292,-270.8197 223.4846,-255.6773"/>
<polygon fill="#000000" stroke="#000000" points="226.9463,-256.1931 224.9871,-245.781 220.0256,-255.1423 226.9463,-256.1931"/>
<text text-anchor="start" x="221.7474" y="-287.1835" font-family="Times,serif" font-style="italic" font-size="14.00" fill="#000000">&quot;NotDisplayable&quot; &#45;&gt; &quot;EventsQueued&quot;</text>
</g>
<!-- _start -->
<g id="node5" class="node">
<title>_start</title>
<ellipse fill="#000000" stroke="#000000" cx="129.2474" cy="-416.6835" rx="1.8" ry="1.8"/>
</g>
<!-- _start&#45;&gt;NotDisplayable -->
<g id="edge1" class="edge">
<title>_start&#45;&gt;NotDisplayable</title>
<path fill="none" stroke="#000000" d="M129.2474,-414.7356C129.2474,-408.0166 129.2474,-385.1758 129.2474,-366.1269"/>
<polygon fill="#000000" stroke="#000000" points="132.7475,-366.0607 129.2474,-356.0608 125.7475,-366.0608 132.7475,-366.0607"/>
<text text-anchor="start" x="133.7474" y="-382.1835" font-family="Times,serif" font-weight="bold" font-style="italic" font-size="14.00" fill="#000000"> &#45;&gt; &quot;NotDisplayable&quot;</text>
</g>
</g>
</svg>
