<?xml version="1.0" encoding="UTF-8" standalone="no"?>
<!DOCTYPE svg PUBLIC "-//W3C//DTD SVG 1.1//EN"
 "http://www.w3.org/Graphics/SVG/1.1/DTD/svg11.dtd">
<!-- Generated by graphviz version 2.40.1 (20161225.0304)
 -->
<!-- Title: ev_stm Pages: 1 -->
<svg width="268pt" height="449pt"
 viewBox="0.00 0.00 268.00 449.03" xmlns="http://www.w3.org/2000/svg" xmlns:xlink="http://www.w3.org/1999/xlink">
<g id="graph0" class="graph" transform="scale(1 1) rotate(0) translate(4 445.0294)">
<title>ev_stm</title>
<polygon fill="#ffffff" stroke="transparent" points="-4,4 -4,-445.0294 263.9954,-445.0294 263.9954,4 -4,4"/>
<!-- NotOneCreator -->
<g id="node1" class="node">
<title>NotOneCreator</title>
<ellipse fill="none" stroke="#000000" cx="55.9954" cy="-45.7193" rx="41.9204" ry="41.9204"/>
<ellipse fill="none" stroke="#000000" cx="55.9954" cy="-45.7193" rx="45.9397" ry="45.9397"/>
<text text-anchor="middle" x="55.9954" y="-49.5193" font-family="Times,serif" font-size="14.00" fill="#000000">NotOne</text>
<text text-anchor="middle" x="55.9954" y="-34.5193" font-family="Times,serif" font-size="14.00" fill="#000000">Creator</text>
</g>
<!-- OneCreator -->
<g id="node2" class="node">
<title>OneCreator</title>
<ellipse fill="none" stroke="#000000" cx="55.9954" cy="-206.434" rx="51.9911" ry="51.9911"/>
<ellipse fill="none" stroke="#000000" cx="55.9954" cy="-206.434" rx="55.9908" ry="55.9908"/>
<text text-anchor="middle" x="55.9954" y="-202.734" font-family="Times,serif" font-size="14.00" fill="#000000">OneCreator</text>
</g>
<!-- OneCreator&#45;&gt;NotOneCreator -->
<g id="edge3" class="edge">
<title>OneCreator&#45;&gt;NotOneCreator</title>
<path fill="none" stroke="#000000" d="M55.9954,-150.2238C55.9954,-134.4821 55.9954,-117.3774 55.9954,-101.6518"/>
<polygon fill="#000000" stroke="#000000" points="59.4955,-101.5451 55.9954,-91.5452 52.4955,-101.5452 59.4955,-101.5451"/>
<text text-anchor="start" x="59.9954" y="-117.7386" font-family="Times,serif" font-style="italic" font-size="14.00" fill="#000000">&quot;OneCreator&quot; &#45;&gt; &quot;NotOneCreator&quot;</text>
</g>
<!-- Uninitialised -->
<g id="node3" class="node">
<title>Uninitialised</title>
<ellipse fill="none" stroke="#000000" cx="55.9954" cy="-360.4294" rx="55.7903" ry="18"/>
<text text-anchor="middle" x="55.9954" y="-356.7294" font-family="Times,serif" font-size="14.00" fill="#000000">Uninitialised</text>
</g>
<!-- Uninitialised&#45;&gt;OneCreator -->
<g id="edge2" class="edge">
<title>Uninitialised&#45;&gt;OneCreator</title>
<path fill="none" stroke="#000000" d="M55.9954,-342.1594C55.9954,-325.0035 55.9954,-298.2712 55.9954,-273.0519"/>
<polygon fill="#000000" stroke="#000000" points="59.4955,-272.7432 55.9954,-262.7432 52.4955,-272.7432 59.4955,-272.7432"/>
<text text-anchor="start" x="59.9954" y="-310.2294" font-family="Times,serif" font-style="italic" font-size="14.00" fill="#000000">&quot;Uninitialised&quot; &#45;&gt; &quot;OneCreator&quot;</text>
<text text-anchor="start" x="133.9954" y="-288.2294" font-family="Times,serif" font-size="14.00" fill="#000000">Email</text>
</g>
<!-- _start -->
<g id="node4" class="node">
<title>_start</title>
<ellipse fill="#000000" stroke="#000000" cx="55.9954" cy="-439.2294" rx="1.8" ry="1.8"/>
</g>
<!-- _start&#45;&gt;Uninitialised -->
<g id="edge1" class="edge">
<title>_start&#45;&gt;Uninitialised</title>
<path fill="none" stroke="#000000" d="M55.9954,-437.2815C55.9954,-430.5625 55.9954,-407.7217 55.9954,-388.6728"/>
<polygon fill="#000000" stroke="#000000" points="59.4955,-388.6066 55.9954,-378.6066 52.4955,-388.6067 59.4955,-388.6066"/>
<text text-anchor="start" x="59.9954" y="-404.7294" font-family="Times,serif" font-weight="bold" font-style="italic" font-size="14.00" fill="#000000"> &#45;&gt; &quot;Uninitialised&quot;</text>
</g>
</g>
</svg>
