<?xml version="1.0" encoding="UTF-8" standalone="no"?>
<!DOCTYPE svg PUBLIC "-//W3C//DTD SVG 1.1//EN"
 "http://www.w3.org/Graphics/SVG/1.1/DTD/svg11.dtd">
<!-- Generated by graphviz version 2.40.1 (20161225.0304)
 -->
<!-- Title: ev_stm Pages: 1 -->
<svg width="281pt" height="496pt"
 viewBox="0.00 0.00 280.99 495.58" xmlns="http://www.w3.org/2000/svg" xmlns:xlink="http://www.w3.org/1999/xlink">
<g id="graph0" class="graph" transform="scale(1 1) rotate(0) translate(4 491.5792)">
<title>ev_stm</title>
<polygon fill="#ffffff" stroke="transparent" points="-4,4 -4,-491.5792 276.9942,-491.5792 276.9942,4 -4,4"/>
<!-- NotOneCreator -->
<g id="node1" class="node">
<title>NotOneCreator</title>
<ellipse fill="none" stroke="#000000" cx="68.9942" cy="-68.9942" rx="64.9888" ry="64.9888"/>
<ellipse fill="none" stroke="#000000" cx="68.9942" cy="-68.9942" rx="68.9885" ry="68.9885"/>
<text text-anchor="middle" x="68.9942" y="-65.2942" font-family="Times,serif" font-size="14.00" fill="#000000">NotOneCreator</text>
</g>
<!-- OneCreator -->
<g id="node2" class="node">
<title>OneCreator</title>
<ellipse fill="none" stroke="#000000" cx="68.9942" cy="-252.9839" rx="51.9911" ry="51.9911"/>
<ellipse fill="none" stroke="#000000" cx="68.9942" cy="-252.9839" rx="55.9908" ry="55.9908"/>
<text text-anchor="middle" x="68.9942" y="-249.2839" font-family="Times,serif" font-size="14.00" fill="#000000">OneCreator</text>
</g>
<!-- OneCreator&#45;&gt;NotOneCreator -->
<g id="edge3" class="edge">
<title>OneCreator&#45;&gt;NotOneCreator</title>
<path fill="none" stroke="#000000" d="M68.9942,-196.7812C68.9942,-181.4659 68.9942,-164.5826 68.9942,-148.246"/>
<polygon fill="#000000" stroke="#000000" points="72.4943,-148.1637 68.9942,-138.1637 65.4943,-148.1638 72.4943,-148.1637"/>
<text text-anchor="start" x="72.9942" y="-164.2885" font-family="Times,serif" font-style="italic" font-size="14.00" fill="#000000">&quot;OneCreator&quot; &#45;&gt; &quot;NotOneCreator&quot;</text>
</g>
<!-- Uninitialised -->
<g id="node3" class="node">
<title>Uninitialised</title>
<ellipse fill="none" stroke="#000000" cx="68.9942" cy="-406.9792" rx="55.7903" ry="18"/>
<text text-anchor="middle" x="68.9942" y="-403.2792" font-family="Times,serif" font-size="14.00" fill="#000000">Uninitialised</text>
</g>
<!-- Uninitialised&#45;&gt;OneCreator -->
<g id="edge2" class="edge">
<title>Uninitialised&#45;&gt;OneCreator</title>
<path fill="none" stroke="#000000" d="M68.9942,-388.7092C68.9942,-371.5534 68.9942,-344.821 68.9942,-319.6018"/>
<polygon fill="#000000" stroke="#000000" points="72.4943,-319.293 68.9942,-309.2931 65.4943,-319.2931 72.4943,-319.293"/>
<text text-anchor="start" x="72.9942" y="-356.7792" font-family="Times,serif" font-style="italic" font-size="14.00" fill="#000000">&quot;Uninitialised&quot; &#45;&gt; &quot;OneCreator&quot;</text>
<text text-anchor="start" x="146.9942" y="-334.7792" font-family="Times,serif" font-size="14.00" fill="#000000">Email</text>
</g>
<!-- _start -->
<g id="node4" class="node">
<title>_start</title>
<ellipse fill="#000000" stroke="#000000" cx="68.9942" cy="-485.7792" rx="1.8" ry="1.8"/>
</g>
<!-- _start&#45;&gt;Uninitialised -->
<g id="edge1" class="edge">
<title>_start&#45;&gt;Uninitialised</title>
<path fill="none" stroke="#000000" d="M68.9942,-483.8314C68.9942,-477.1123 68.9942,-454.2716 68.9942,-435.2227"/>
<polygon fill="#000000" stroke="#000000" points="72.4943,-435.1565 68.9942,-425.1565 65.4943,-435.1565 72.4943,-435.1565"/>
<text text-anchor="start" x="72.9942" y="-451.2792" font-family="Times,serif" font-weight="bold" font-style="italic" font-size="14.00" fill="#000000"> &#45;&gt; &quot;Uninitialised&quot;</text>
</g>
</g>
</svg>
