<?xml version="1.0" encoding="UTF-8" standalone="no"?>
<!DOCTYPE svg PUBLIC "-//W3C//DTD SVG 1.1//EN"
 "http://www.w3.org/Graphics/SVG/1.1/DTD/svg11.dtd">
<!-- Generated by graphviz version 2.40.1 (20161225.0304)
 -->
<!-- Title: ev_stm Pages: 1 -->
<svg width="277pt" height="318pt"
 viewBox="0.00 0.00 276.99 317.60" xmlns="http://www.w3.org/2000/svg" xmlns:xlink="http://www.w3.org/1999/xlink">
<g id="graph0" class="graph" transform="scale(1 1) rotate(0) translate(4 313.6)">
<title>ev_stm</title>
<polygon fill="#ffffff" stroke="transparent" points="-4,4 -4,-313.6 272.9942,-313.6 272.9942,4 -4,4"/>
<!-- NotOneCreator -->
<g id="node1" class="node">
<title>NotOneCreator</title>
<ellipse fill="none" stroke="#000000" cx="64.9942" cy="-18" rx="64.9885" ry="18"/>
<text text-anchor="middle" x="64.9942" y="-14.3" font-family="Times,serif" font-size="14.00" fill="#000000">NotOneCreator</text>
</g>
<!-- OneCreator -->
<g id="node2" class="node">
<title>OneCreator</title>
<ellipse fill="none" stroke="#000000" cx="64.9942" cy="-113" rx="51.9908" ry="18"/>
<text text-anchor="middle" x="64.9942" y="-109.3" font-family="Times,serif" font-size="14.00" fill="#000000">OneCreator</text>
</g>
<!-- OneCreator&#45;&gt;NotOneCreator -->
<g id="edge3" class="edge">
<title>OneCreator&#45;&gt;NotOneCreator</title>
<path fill="none" stroke="#000000" d="M64.9942,-94.683C64.9942,-81.0149 64.9942,-62.0833 64.9942,-46.4508"/>
<polygon fill="#000000" stroke="#000000" points="68.4943,-46.2607 64.9942,-36.2607 61.4943,-46.2608 68.4943,-46.2607"/>
<text text-anchor="start" x="68.9942" y="-62.3" font-family="Times,serif" font-style="italic" font-size="14.00" fill="#000000">&quot;OneCreator&quot; &#45;&gt; &quot;NotOneCreator&quot;</text>
</g>
<!-- Uninitialised -->
<g id="node3" class="node">
<title>Uninitialised</title>
<ellipse fill="none" stroke="#000000" cx="64.9942" cy="-229" rx="55.7903" ry="18"/>
<text text-anchor="middle" x="64.9942" y="-225.3" font-family="Times,serif" font-size="14.00" fill="#000000">Uninitialised</text>
</g>
<!-- Uninitialised&#45;&gt;OneCreator -->
<g id="edge2" class="edge">
<title>Uninitialised&#45;&gt;OneCreator</title>
<path fill="none" stroke="#000000" d="M64.9942,-210.875C64.9942,-192.3412 64.9942,-163.2787 64.9942,-141.6311"/>
<polygon fill="#000000" stroke="#000000" points="68.4943,-141.3805 64.9942,-131.3805 61.4943,-141.3806 68.4943,-141.3805"/>
<text text-anchor="start" x="68.9942" y="-178.8" font-family="Times,serif" font-style="italic" font-size="14.00" fill="#000000">&quot;Uninitialised&quot; &#45;&gt; &quot;OneCreator&quot;</text>
<text text-anchor="start" x="142.9942" y="-156.8" font-family="Times,serif" font-size="14.00" fill="#000000">Email</text>
</g>
<!-- _start -->
<g id="node4" class="node">
<title>_start</title>
<ellipse fill="#000000" stroke="#000000" cx="64.9942" cy="-307.8" rx="1.8" ry="1.8"/>
</g>
<!-- _start&#45;&gt;Uninitialised -->
<g id="edge1" class="edge">
<title>_start&#45;&gt;Uninitialised</title>
<path fill="none" stroke="#000000" d="M64.9942,-305.8521C64.9942,-299.1331 64.9942,-276.2923 64.9942,-257.2434"/>
<polygon fill="#000000" stroke="#000000" points="68.4943,-257.1772 64.9942,-247.1773 61.4943,-257.1773 68.4943,-257.1772"/>
<text text-anchor="start" x="68.9942" y="-273.3" font-family="Times,serif" font-weight="bold" font-style="italic" font-size="14.00" fill="#000000"> &#45;&gt; &quot;Uninitialised&quot;</text>
</g>
</g>
</svg>
