<?xml version="1.0" encoding="UTF-8" standalone="no"?>
<!DOCTYPE svg PUBLIC "-//W3C//DTD SVG 1.1//EN"
 "http://www.w3.org/Graphics/SVG/1.1/DTD/svg11.dtd">
<!-- Generated by graphviz version 2.40.1 (20161225.0304)
 -->
<!-- Title: ev_stm Pages: 1 -->
<svg width="138pt" height="245pt"
 viewBox="0.00 0.00 137.99 244.60" xmlns="http://www.w3.org/2000/svg" xmlns:xlink="http://www.w3.org/1999/xlink">
<g id="graph0" class="graph" transform="scale(1 1) rotate(0) translate(4 240.6)">
<title>ev_stm</title>
<polygon fill="#ffffff" stroke="transparent" points="-4,4 -4,-240.6 133.9885,-240.6 133.9885,4 -4,4"/>
<!-- NotOneCreator -->
<g id="node1" class="node">
<title>NotOneCreator</title>
<ellipse fill="none" stroke="#000000" cx="64.9942" cy="-18" rx="64.9885" ry="18"/>
<text text-anchor="middle" x="64.9942" y="-14.3" font-family="Times,serif" font-size="14.00" fill="#000000">NotOneCreator</text>
</g>
<!-- OneCreator -->
<g id="node2" class="node">
<title>OneCreator</title>
<ellipse fill="none" stroke="#000000" cx="64.9942" cy="-91" rx="51.9908" ry="18"/>
<text text-anchor="middle" x="64.9942" y="-87.3" font-family="Times,serif" font-size="14.00" fill="#000000">OneCreator</text>
</g>
<!-- OneCreator&#45;&gt;NotOneCreator -->
<g id="edge3" class="edge">
<title>OneCreator&#45;&gt;NotOneCreator</title>
<path fill="none" stroke="#000000" d="M64.9942,-72.9551C64.9942,-64.8828 64.9942,-55.1764 64.9942,-46.1817"/>
<polygon fill="#000000" stroke="#000000" points="68.4943,-46.0903 64.9942,-36.0904 61.4943,-46.0904 68.4943,-46.0903"/>
</g>
<!-- Uninitialised -->
<g id="node3" class="node">
<title>Uninitialised</title>
<ellipse fill="none" stroke="#000000" cx="64.9942" cy="-178" rx="55.7903" ry="18"/>
<text text-anchor="middle" x="64.9942" y="-174.3" font-family="Times,serif" font-size="14.00" fill="#000000">Uninitialised</text>
</g>
<!-- Uninitialised&#45;&gt;OneCreator -->
<g id="edge2" class="edge">
<title>Uninitialised&#45;&gt;OneCreator</title>
<path fill="none" stroke="#000000" d="M64.9942,-159.9735C64.9942,-148.1918 64.9942,-132.5607 64.9942,-119.1581"/>
<polygon fill="#000000" stroke="#000000" points="68.4943,-119.0033 64.9942,-109.0034 61.4943,-119.0034 68.4943,-119.0033"/>
<text text-anchor="middle" x="81.9942" y="-130.8" font-family="Times,serif" font-size="14.00" fill="#000000">Email</text>
</g>
<!-- _start -->
<g id="node4" class="node">
<title>_start</title>
<ellipse fill="#000000" stroke="#000000" cx="64.9942" cy="-234.8" rx="1.8" ry="1.8"/>
</g>
<!-- _start&#45;&gt;Uninitialised -->
<g id="edge1" class="edge">
<title>_start&#45;&gt;Uninitialised</title>
<path fill="none" stroke="#000000" d="M64.9942,-232.9102C64.9942,-228.5478 64.9942,-217.2893 64.9942,-206.0942"/>
<polygon fill="#000000" stroke="#000000" points="68.4943,-206.0304 64.9942,-196.0304 61.4943,-206.0304 68.4943,-206.0304"/>
</g>
</g>
</svg>
