<?xml version="1.0" encoding="UTF-8" standalone="no"?>
<!DOCTYPE svg PUBLIC "-//W3C//DTD SVG 1.1//EN"
 "http://www.w3.org/Graphics/SVG/1.1/DTD/svg11.dtd">
<!-- Generated by graphviz version 2.40.1 (20161225.0304)
 -->
<!-- Title: ev_stm Pages: 1 -->
<svg width="272pt" height="533pt"
 viewBox="0.00 0.00 271.90 532.82" xmlns="http://www.w3.org/2000/svg" xmlns:xlink="http://www.w3.org/1999/xlink">
<g id="graph0" class="graph" transform="scale(1 1) rotate(0) translate(4 528.8195)">
<title>ev_stm</title>
<polygon fill="#ffffff" stroke="transparent" points="-4,4 -4,-528.8195 267.895,-528.8195 267.895,4 -4,4"/>
<!-- NotOneCreator -->
<g id="node1" class="node">
<title>NotOneCreator</title>
<ellipse fill="none" stroke="#000000" cx="59.895" cy="-45.7193" rx="41.9204" ry="41.9204"/>
<ellipse fill="none" stroke="#000000" cx="59.895" cy="-45.7193" rx="45.9397" ry="45.9397"/>
<text text-anchor="middle" x="59.895" y="-49.5193" font-family="Times,serif" font-size="14.00" fill="#000000">NotOne</text>
<text text-anchor="middle" x="59.895" y="-34.5193" font-family="Times,serif" font-size="14.00" fill="#000000">Creator</text>
</g>
<!-- OneCreator -->
<g id="node2" class="node">
<title>OneCreator</title>
<ellipse fill="none" stroke="#000000" cx="59.895" cy="-206.434" rx="51.9911" ry="51.9911"/>
<ellipse fill="none" stroke="#000000" cx="59.895" cy="-206.434" rx="55.9908" ry="55.9908"/>
<text text-anchor="middle" x="59.895" y="-202.734" font-family="Times,serif" font-size="14.00" fill="#000000">OneCreator</text>
</g>
<!-- OneCreator&#45;&gt;NotOneCreator -->
<g id="edge3" class="edge">
<title>OneCreator&#45;&gt;NotOneCreator</title>
<path fill="none" stroke="#000000" d="M59.895,-150.2238C59.895,-134.4821 59.895,-117.3774 59.895,-101.6518"/>
<polygon fill="#000000" stroke="#000000" points="63.3951,-101.5451 59.895,-91.5452 56.3951,-101.5452 63.3951,-101.5451"/>
<text text-anchor="start" x="63.895" y="-117.7386" font-family="Times,serif" font-style="italic" font-size="14.00" fill="#000000">&quot;OneCreator&quot; &#45;&gt; &quot;NotOneCreator&quot;</text>
</g>
<!-- Uninitialised -->
<g id="node3" class="node">
<title>Uninitialised</title>
<ellipse fill="none" stroke="#000000" cx="59.895" cy="-402.3244" rx="55.7973" ry="55.7973"/>
<ellipse fill="none" stroke="#000000" cx="59.895" cy="-402.3244" rx="59.7903" ry="59.7903"/>
<text text-anchor="middle" x="59.895" y="-398.6244" font-family="Times,serif" font-size="14.00" fill="#000000">Uninitialised</text>
</g>
<!-- Uninitialised&#45;&gt;OneCreator -->
<g id="edge2" class="edge">
<title>Uninitialised&#45;&gt;OneCreator</title>
<path fill="none" stroke="#000000" d="M59.895,-342.2196C59.895,-320.2754 59.895,-295.3367 59.895,-272.8727"/>
<polygon fill="#000000" stroke="#000000" points="63.3951,-272.7451 59.895,-262.7452 56.3951,-272.7452 63.3951,-272.7451"/>
<text text-anchor="start" x="63.895" y="-310.2294" font-family="Times,serif" font-style="italic" font-size="14.00" fill="#000000">&quot;Uninitialised&quot; &#45;&gt; &quot;OneCreator&quot;</text>
<text text-anchor="start" x="137.895" y="-288.2294" font-family="Times,serif" font-size="14.00" fill="#000000">Email</text>
</g>
<!-- _start -->
<g id="node4" class="node">
<title>_start</title>
<ellipse fill="#000000" stroke="#000000" cx="59.895" cy="-523.0195" rx="1.8" ry="1.8"/>
</g>
<!-- _start&#45;&gt;Uninitialised -->
<g id="edge1" class="edge">
<title>_start&#45;&gt;Uninitialised</title>
<path fill="none" stroke="#000000" d="M59.895,-520.9246C59.895,-514.5454 59.895,-494.4552 59.895,-472.5793"/>
<polygon fill="#000000" stroke="#000000" points="63.3951,-472.4454 59.895,-462.4454 56.3951,-472.4454 63.3951,-472.4454"/>
<text text-anchor="start" x="63.895" y="-488.5195" font-family="Times,serif" font-weight="bold" font-style="italic" font-size="14.00" fill="#000000"> &#45;&gt; &quot;Uninitialised&quot;</text>
</g>
</g>
</svg>
