<?xml version="1.0" encoding="UTF-8" standalone="no"?>
<!DOCTYPE svg PUBLIC "-//W3C//DTD SVG 1.1//EN"
 "http://www.w3.org/Graphics/SVG/1.1/DTD/svg11.dtd">
<!-- Generated by graphviz version 2.40.1 (20161225.0304)
 -->
<!-- Title: example_stm Pages: 1 -->
<svg width="769pt" height="563pt"
 viewBox="0.00 0.00 769.25 563.43" xmlns="http://www.w3.org/2000/svg" xmlns:xlink="http://www.w3.org/1999/xlink">
<g id="graph0" class="graph" transform="scale(1 1) rotate(0) translate(4 559.4278)">
<title>example_stm</title>
<polygon fill="#ffffff" stroke="transparent" points="-4,4 -4,-559.4278 765.2474,-559.4278 765.2474,4 -4,4"/>
<!-- Error -->
<g id="node1" class="node">
<title>Error</title>
<ellipse fill="none" stroke="#000000" cx="33.2474" cy="-180.8403" rx="29.4667" ry="29.4667"/>
<ellipse fill="none" stroke="#000000" cx="33.2474" cy="-180.8403" rx="33.4967" ry="33.4967"/>
<text text-anchor="middle" x="33.2474" y="-177.1403" font-family="Times,serif" font-size="14.00" fill="#000000">Error</text>
</g>
<!-- LoadingConfig -->
<g id="node2" class="node">
<title>LoadingConfig</title>
<ellipse fill="none" stroke="#000000" cx="249.2474" cy="-444.9577" rx="43.6818" ry="26.7407"/>
<text text-anchor="middle" x="249.2474" y="-448.7577" font-family="Times,serif" font-size="14.00" fill="#000000">Loading</text>
<text text-anchor="middle" x="249.2474" y="-433.7577" font-family="Times,serif" font-size="14.00" fill="#000000">Config</text>
</g>
<!-- LoadingConfig&#45;&gt;Error -->
<g id="edge7" class="edge">
<title>LoadingConfig&#45;&gt;Error</title>
<path fill="none" stroke="#000000" d="M206.4194,-438.4217C153.3346,-427.7736 65.0212,-401.1323 25.2474,-338.0877 3.5039,-303.6225 9.7974,-255.9729 18.8475,-222.1821"/>
<polygon fill="#000000" stroke="#000000" points="22.3263,-222.7475 21.7167,-212.1702 15.5972,-220.819 22.3263,-222.7475"/>
<text text-anchor="start" x="29.7474" y="-323.8877" font-family="Times,serif" font-style="italic" font-size="14.00" fill="#000000">&quot;LoadingConfig&quot; &#45;&gt; &quot;Error&quot;</text>
<text text-anchor="start" x="92.2474" y="-301.8877" font-family="Times,serif" font-size="14.00" fill="#000000">String</text>
</g>
<!-- Retrieving -->
<g id="node5" class="node">
<title>Retrieving</title>
<ellipse fill="none" stroke="#000000" cx="249.2474" cy="-316.0877" rx="48.1917" ry="18"/>
<text text-anchor="middle" x="249.2474" y="-312.3877" font-family="Times,serif" font-size="14.00" fill="#000000">Retrieving</text>
</g>
<!-- LoadingConfig&#45;&gt;Retrieving -->
<g id="edge3" class="edge">
<title>LoadingConfig&#45;&gt;Retrieving</title>
<path fill="none" stroke="#000000" d="M249.2474,-417.9423C249.2474,-396.377 249.2474,-366.254 249.2474,-344.364"/>
<polygon fill="#000000" stroke="#000000" points="252.7475,-344.3528 249.2474,-334.3528 245.7475,-344.3529 252.7475,-344.3528"/>
<text text-anchor="start" x="253.2474" y="-385.8877" font-family="Times,serif" font-style="italic" font-size="14.00" fill="#000000">&quot;LoadingConfig&quot; &#45;&gt; &quot;Retrieving&quot;</text>
<text text-anchor="start" x="306.7474" y="-363.8877" font-family="Times,serif" font-size="14.00" fill="#000000">RefreshToken</text>
</g>
<!-- PollEvents -->
<g id="node3" class="node">
<title>PollEvents</title>
<ellipse fill="none" stroke="#000000" cx="405.2474" cy="-180.8403" rx="48.9926" ry="18"/>
<text text-anchor="middle" x="405.2474" y="-177.1403" font-family="Times,serif" font-size="14.00" fill="#000000">PollEvents</text>
</g>
<!-- PollEvents&#45;&gt;LoadingConfig -->
<g id="edge2" class="edge">
<title>PollEvents&#45;&gt;LoadingConfig</title>
<path fill="none" stroke="#000000" d="M449.9062,-188.1547C495.0432,-196.566 560.2182,-211.8598 575.2474,-232.0877 586.9102,-247.7847 582.9438,-258.1103 575.2474,-276.0877 543.8224,-349.4905 515.5701,-362.2693 445.2474,-400.0877 400.7499,-424.0177 343.9176,-435.2315 302.9212,-440.4587"/>
<polygon fill="#000000" stroke="#000000" points="302.3701,-436.9996 292.8567,-441.6628 303.2017,-443.95 302.3701,-436.9996"/>
<text text-anchor="start" x="570.7474" y="-323.8877" font-family="Times,serif" font-style="italic" font-size="14.00" fill="#000000">&quot;PollEvents&quot; &#45;&gt; &quot;LoadingConfig&quot;</text>
<text text-anchor="start" x="641.7474" y="-301.8877" font-family="Times,serif" font-size="14.00" fill="#000000">PathBuf</text>
</g>
<!-- Quitting -->
<g id="node4" class="node">
<title>Quitting</title>
<ellipse fill="none" stroke="#000000" cx="405.2474" cy="-44.2964" rx="40.1121" ry="40.1121"/>
<ellipse fill="none" stroke="#000000" cx="405.2474" cy="-44.2964" rx="44.0938" ry="44.0938"/>
<text text-anchor="middle" x="405.2474" y="-40.5964" font-family="Times,serif" font-size="14.00" fill="#000000">Quitting</text>
</g>
<!-- PollEvents&#45;&gt;Quitting -->
<g id="edge6" class="edge">
<title>PollEvents&#45;&gt;Quitting</title>
<path fill="none" stroke="#000000" d="M405.2474,-162.7083C405.2474,-146.4148 405.2474,-121.6297 405.2474,-98.9386"/>
<polygon fill="#000000" stroke="#000000" points="408.7475,-98.6983 405.2474,-88.6983 401.7475,-98.6984 408.7475,-98.6983"/>
<text text-anchor="start" x="409.2474" y="-114.8928" font-family="Times,serif" font-style="italic" font-size="14.00" fill="#000000">&quot;PollEvents&quot; &#45;&gt; &quot;Quitting&quot;</text>
</g>
<!-- PollEvents&#45;&gt;Retrieving -->
<g id="edge4" class="edge">
<title>PollEvents&#45;&gt;Retrieving</title>
<path fill="none" stroke="#000000" d="M406.1537,-199.1197C406.1782,-220.3656 402.8786,-255.1771 383.2474,-276.0877 371.9152,-288.1584 334.6221,-298.7211 302.2475,-305.9565"/>
<polygon fill="#000000" stroke="#000000" points="301.4236,-302.5537 292.3923,-308.0931 302.9068,-309.3947 301.4236,-302.5537"/>
<text text-anchor="start" x="406.7474" y="-261.8877" font-family="Times,serif" font-style="italic" font-size="14.00" fill="#000000">&quot;PollEvents&quot; &#45;&gt; &quot;Retrieving&quot;</text>
<text text-anchor="start" x="448.7474" y="-239.8877" font-family="Times,serif" font-size="14.00" fill="#000000">RefreshToken</text>
</g>
<!-- Retrieving&#45;&gt;Error -->
<g id="edge8" class="edge">
<title>Retrieving&#45;&gt;Error</title>
<path fill="none" stroke="#000000" d="M216.1598,-302.9543C206.9165,-299.669 196.7888,-296.4207 187.2474,-294.0877 159.1313,-287.2129 79.8858,-295.3115 58.2474,-276.0877 43.6892,-263.154 37.1368,-242.8731 34.3481,-224.3438"/>
<polygon fill="#000000" stroke="#000000" points="37.8092,-223.8075 33.1591,-214.2877 30.8576,-224.6295 37.8092,-223.8075"/>
<text text-anchor="start" x="62.7474" y="-261.8877" font-family="Times,serif" font-style="italic" font-size="14.00" fill="#000000">&quot;Retrieving&quot; &#45;&gt; &quot;Error&quot;</text>
<text text-anchor="start" x="112.2474" y="-239.8877" font-family="Times,serif" font-size="14.00" fill="#000000">String</text>
</g>
<!-- Retrieving&#45;&gt;PollEvents -->
<g id="edge5" class="edge">
<title>Retrieving&#45;&gt;PollEvents</title>
<path fill="none" stroke="#000000" d="M227.5226,-299.6381C220.6527,-293.1404 213.9022,-285.0716 210.2474,-276.0877 202.8783,-257.9737 198.3055,-247.5735 210.2474,-232.0877 227.1308,-210.1939 297.428,-195.8064 348.7906,-187.998"/>
<polygon fill="#000000" stroke="#000000" points="349.4068,-191.4451 358.7893,-186.5238 348.3857,-184.52 349.4068,-191.4451"/>
<text text-anchor="start" x="214.7474" y="-261.8877" font-family="Times,serif" font-style="italic" font-size="14.00" fill="#000000">&quot;Retrieving&quot; &#45;&gt; &quot;PollEvents&quot;</text>
<text text-anchor="start" x="256.7474" y="-239.8877" font-family="Times,serif" font-size="14.00" fill="#000000">RefreshToken</text>
</g>
<!-- _start -->
<g id="node6" class="node">
<title>_start</title>
<ellipse fill="#000000" stroke="#000000" cx="249.2474" cy="-553.6278" rx="1.8" ry="1.8"/>
</g>
<!-- _start&#45;&gt;LoadingConfig -->
<g id="edge1" class="edge">
<title>_start&#45;&gt;LoadingConfig</title>
<path fill="none" stroke="#000000" d="M249.2474,-551.7416C249.2474,-543.4695 249.2474,-509.5905 249.2474,-482.1813"/>
<polygon fill="#000000" stroke="#000000" points="252.7475,-482.0601 249.2474,-472.0601 245.7475,-482.0601 252.7475,-482.0601"/>
<text text-anchor="start" x="253.7474" y="-519.6278" font-family="Times,serif" font-weight="bold" font-style="italic" font-size="14.00" fill="#000000"> &#45;&gt; &quot;LoadingConfig&quot;</text>
<text text-anchor="start" x="291.7474" y="-497.6278" font-family="Times,serif" font-size="14.00" fill="#000000">PathBuf</text>
</g>
</g>
</svg>
