<?xml version="1.0" encoding="UTF-8" standalone="no"?>
<!DOCTYPE svg PUBLIC "-//W3C//DTD SVG 1.1//EN"
 "http://www.w3.org/Graphics/SVG/1.1/DTD/svg11.dtd">
<!-- Generated by graphviz version 2.40.1 (20161225.0304)
 -->
<!-- Title: button_stm Pages: 1 -->
<svg width="1204pt" height="603pt"
 viewBox="0.00 0.00 1203.87 602.72" xmlns="http://www.w3.org/2000/svg" xmlns:xlink="http://www.w3.org/1999/xlink">
<g id="graph0" class="graph" transform="scale(1 1) rotate(0) translate(4 598.7151)">
<title>button_stm</title>
<polygon fill="#ffffff" stroke="transparent" points="-4,4 -4,-598.7151 1199.871,-598.7151 1199.871,4 -4,4"/>
<!-- LongPressed -->
<g id="node1" class="node">
<title>LongPressed</title>
<ellipse fill="none" stroke="#000000" cx="414.871" cy="-534.8201" rx="55.7973" ry="55.7973"/>
<ellipse fill="none" stroke="#000000" cx="414.871" cy="-534.8201" rx="59.7903" ry="59.7903"/>
<text text-anchor="middle" x="414.871" y="-531.1201" font-family="Times,serif" font-size="14.00" fill="#000000">LongPressed</text>
</g>
<!-- NotPressed -->
<g id="node2" class="node">
<title>NotPressed</title>
<ellipse fill="none" stroke="#000000" cx="824.871" cy="-361.2296" rx="50.8774" ry="50.8774"/>
<ellipse fill="none" stroke="#000000" cx="824.871" cy="-361.2296" rx="54.8917" ry="54.8917"/>
<text text-anchor="middle" x="824.871" y="-357.5296" font-family="Times,serif" font-size="14.00" fill="#000000">NotPressed</text>
</g>
<!-- LongPressed&#45;&gt;NotPressed -->
<g id="edge4" class="edge">
<title>LongPressed&#45;&gt;NotPressed</title>
<path fill="none" stroke="#000000" d="M468.5064,-508.0838C494.1347,-494.2744 524.6441,-476.277 549.871,-456.9251 561.3411,-448.1261 559.8021,-440.1051 572.871,-433.9251 646.7525,-398.9875 680.1017,-446.554 755.871,-415.9251 763.0456,-413.0248 770.081,-409.1326 776.7516,-404.7543"/>
<polygon fill="#000000" stroke="#000000" points="778.8049,-407.5893 784.9889,-398.9865 774.7899,-401.8552 778.8049,-407.5893"/>
<text text-anchor="start" x="577.371" y="-442.2251" font-family="Times,serif" font-style="italic" font-size="14.00" fill="#000000">&quot;LongPressed&quot; &#45;&gt; &quot;NotPressed&quot;</text>
</g>
<!-- PressedPending -->
<g id="node3" class="node">
<title>PressedPending</title>
<ellipse fill="none" stroke="#000000" cx="538.871" cy="-200.4005" rx="43.256" ry="43.256"/>
<ellipse fill="none" stroke="#000000" cx="538.871" cy="-200.4005" rx="47.2674" ry="47.2674"/>
<text text-anchor="middle" x="538.871" y="-204.2005" font-family="Times,serif" font-size="14.00" fill="#000000">Pressed</text>
<text text-anchor="middle" x="538.871" y="-189.2005" font-family="Times,serif" font-size="14.00" fill="#000000">Pending</text>
</g>
<!-- LongPressed&#45;&gt;PressedPending -->
<g id="edge9" class="edge">
<title>LongPressed&#45;&gt;PressedPending</title>
<path fill="none" stroke="#000000" d="M367.0138,-498.5698C343.1579,-477.4141 316.7139,-448.5011 303.871,-415.9251 286.0392,-370.695 271.5634,-342.8653 303.871,-306.5341 326.6203,-280.9515 426.3373,-304.0161 456.871,-288.5341 475.6014,-279.0368 492.2615,-263.4165 505.5908,-247.9432"/>
<polygon fill="#000000" stroke="#000000" points="508.5699,-249.8332 512.2509,-239.8983 503.1779,-245.3693 508.5699,-249.8332"/>
<text text-anchor="start" x="308.371" y="-358.0296" font-family="Times,serif" font-style="italic" font-size="14.00" fill="#000000">&quot;LongPressed&quot; &#45;&gt; &quot;PressedPending&quot;</text>
</g>
<!-- ReleasePending -->
<g id="node4" class="node">
<title>ReleasePending</title>
<ellipse fill="none" stroke="#000000" cx="286.871" cy="-47.1335" rx="43.256" ry="43.256"/>
<ellipse fill="none" stroke="#000000" cx="286.871" cy="-47.1335" rx="47.2674" ry="47.2674"/>
<text text-anchor="middle" x="286.871" y="-50.9335" font-family="Times,serif" font-size="14.00" fill="#000000">Release</text>
<text text-anchor="middle" x="286.871" y="-35.9335" font-family="Times,serif" font-size="14.00" fill="#000000">Pending</text>
</g>
<!-- LongPressed&#45;&gt;ReleasePending -->
<g id="edge6" class="edge">
<title>LongPressed&#45;&gt;ReleasePending</title>
<path fill="none" stroke="#000000" d="M356.556,-520.6461C261.7208,-493.9632 77.8346,-426.1415 9.871,-288.5341 -44.1345,-179.188 137.015,-98.5279 232.2064,-64.6931"/>
<polygon fill="#000000" stroke="#000000" points="233.4133,-67.979 241.6969,-61.3735 231.102,-61.3715 233.4133,-67.979"/>
<text text-anchor="start" x="13.871" y="-273.8341" font-family="Times,serif" font-style="italic" font-size="14.00" fill="#000000">&quot;LongPressed&quot; &#45;&gt; &quot;ReleasePending&quot;</text>
</g>
<!-- NotPressed&#45;&gt;LongPressed -->
<g id="edge10" class="edge">
<title>NotPressed&#45;&gt;LongPressed</title>
<path fill="none" stroke="#000000" d="M795.4786,-407.7129C780.8016,-430.3092 765.0784,-453.3769 759.871,-456.9251 715.6964,-487.0235 572.0319,-512.2114 484.6368,-525.2464"/>
<polygon fill="#000000" stroke="#000000" points="483.9124,-521.8153 474.5302,-526.7371 484.9339,-528.7404 483.9124,-521.8153"/>
<text text-anchor="start" x="782.371" y="-442.2251" font-family="Times,serif" font-style="italic" font-size="14.00" fill="#000000">&quot;NotPressed&quot; &#45;&gt; &quot;LongPressed&quot;</text>
</g>
<!-- NotPressed&#45;&gt;PressedPending -->
<g id="edge7" class="edge">
<title>NotPressed&#45;&gt;PressedPending</title>
<path fill="none" stroke="#000000" d="M784.9956,-323.4561C776.0033,-316.7747 766.0792,-310.6483 755.871,-306.5341 717.1498,-290.9284 601.6109,-314.4369 568.871,-288.5341 558.8691,-280.6208 552.1827,-269.2127 547.7183,-257.2159"/>
<polygon fill="#000000" stroke="#000000" points="550.9933,-255.9675 544.5934,-247.5241 544.3311,-258.1156 550.9933,-255.9675"/>
<text text-anchor="start" x="572.871" y="-273.8341" font-family="Times,serif" font-style="italic" font-size="14.00" fill="#000000">&quot;NotPressed&quot; &#45;&gt; &quot;PressedPending&quot;</text>
</g>
<!-- PressedPending&#45;&gt;LongPressed -->
<g id="edge12" class="edge">
<title>PressedPending&#45;&gt;LongPressed</title>
<path fill="none" stroke="#000000" d="M541.9937,-247.8211C543.1576,-292.8931 540.1594,-361.6606 516.871,-415.9251 505.4555,-442.5243 485.9021,-467.5566 466.9503,-487.7274"/>
<polygon fill="#000000" stroke="#000000" points="464.427,-485.3019 460.0114,-494.9328 469.4691,-490.1575 464.427,-485.3019"/>
<text text-anchor="start" x="545.371" y="-358.0296" font-family="Times,serif" font-style="italic" font-size="14.00" fill="#000000">&quot;PressedPending&quot; &#45;&gt; &quot;LongPressed&quot;</text>
</g>
<!-- PressedPending&#45;&gt;NotPressed -->
<g id="edge3" class="edge">
<title>PressedPending&#45;&gt;NotPressed</title>
<path fill="none" stroke="#000000" d="M585.5287,-208.5069C646.1548,-219.8142 747.7127,-241.6396 776.871,-265.5341 788.0844,-274.7231 796.9206,-287.1965 803.7874,-300.0996"/>
<polygon fill="#000000" stroke="#000000" points="800.6547,-301.6607 808.2316,-309.0662 806.9266,-298.552 800.6547,-301.6607"/>
<text text-anchor="start" x="800.871" y="-273.8341" font-family="Times,serif" font-style="italic" font-size="14.00" fill="#000000">&quot;PressedPending&quot; &#45;&gt; &quot;NotPressed&quot;</text>
</g>
<!-- PressedPending&#45;&gt;ReleasePending -->
<g id="edge5" class="edge">
<title>PressedPending&#45;&gt;ReleasePending</title>
<path fill="none" stroke="#000000" d="M536.1791,-152.8934C533.1351,-138.2505 527.4072,-123.1388 516.871,-112.267 492.9471,-87.5813 403.6674,-67.5688 343.6386,-56.519"/>
<polygon fill="#000000" stroke="#000000" points="343.9955,-53.0269 333.5324,-54.6921 342.7503,-59.9153 343.9955,-53.0269"/>
<text text-anchor="start" x="536.371" y="-120.567" font-family="Times,serif" font-style="italic" font-size="14.00" fill="#000000">&quot;PressedPending&quot; &#45;&gt; &quot;ReleasePending&quot;</text>
</g>
<!-- ReleasePending&#45;&gt;LongPressed -->
<g id="edge11" class="edge">
<title>ReleasePending&#45;&gt;LongPressed</title>
<path fill="none" stroke="#000000" d="M269.3663,-91.0187C252.2622,-139.2683 230.2358,-219.1624 240.871,-288.5341 253.1272,-368.4798 253.3317,-399.0904 309.871,-456.9251 323.7204,-471.0918 340.3322,-484.6535 356.2126,-496.3758"/>
<polygon fill="#000000" stroke="#000000" points="354.2806,-499.2981 364.4318,-502.3316 358.3879,-493.6298 354.2806,-499.2981"/>
<text text-anchor="start" x="244.871" y="-273.8341" font-family="Times,serif" font-style="italic" font-size="14.00" fill="#000000">&quot;ReleasePending&quot; &#45;&gt; &quot;LongPressed&quot;</text>
</g>
<!-- ReleasePending&#45;&gt;NotPressed -->
<g id="edge2" class="edge">
<title>ReleasePending&#45;&gt;NotPressed</title>
<path fill="none" stroke="#000000" d="M334.2006,-50.9656C438.7381,-59.851 686.2772,-83.3261 764.871,-112.267 883.2854,-155.8713 943.3417,-154.8113 1003.871,-265.5341 1031.4512,-315.9851 951.157,-340.9995 889.2959,-352.5072"/>
<polygon fill="#000000" stroke="#000000" points="888.3925,-349.1127 879.1576,-354.3056 889.6152,-356.0051 888.3925,-349.1127"/>
<text text-anchor="start" x="995.871" y="-197.2005" font-family="Times,serif" font-style="italic" font-size="14.00" fill="#000000">&quot;ReleasePending&quot; &#45;&gt; &quot;NotPressed&quot;</text>
</g>
<!-- ReleasePending&#45;&gt;PressedPending -->
<g id="edge8" class="edge">
<title>ReleasePending&#45;&gt;PressedPending</title>
<path fill="none" stroke="#000000" d="M274.3362,-92.8677C272.9504,-107.7248 274.6677,-123.4176 283.871,-135.267 307.9308,-166.2448 414.411,-184.9673 481.9396,-193.9396"/>
<polygon fill="#000000" stroke="#000000" points="481.6482,-197.431 492.015,-195.2446 482.5474,-190.489 481.6482,-197.431"/>
<text text-anchor="start" x="288.371" y="-120.567" font-family="Times,serif" font-style="italic" font-size="14.00" fill="#000000">&quot;ReleasePending&quot; &#45;&gt; &quot;PressedPending&quot;</text>
</g>
<!-- _start -->
<g id="node5" class="node">
<title>_start</title>
<ellipse fill="#000000" stroke="#000000" cx="991.871" cy="-534.8201" rx="1.8" ry="1.8"/>
</g>
<!-- _start&#45;&gt;NotPressed -->
<g id="edge1" class="edge">
<title>_start&#45;&gt;NotPressed</title>
<path fill="none" stroke="#000000" d="M992.019,-532.917C992.767,-521.9814 995.1649,-466.4905 969.871,-433.9251 949.3852,-407.5501 916.7618,-390.011 887.6428,-378.7814"/>
<polygon fill="#000000" stroke="#000000" points="888.5182,-375.3743 877.9246,-375.2113 886.1043,-381.945 888.5182,-375.3743"/>
<text text-anchor="start" x="987.371" y="-442.2251" font-family="Times,serif" font-weight="bold" font-style="italic" font-size="14.00" fill="#000000"> &#45;&gt; &quot;NotPressed&quot;</text>
</g>
</g>
</svg>
