<?xml version="1.0" encoding="UTF-8" standalone="no"?>
<!DOCTYPE svg PUBLIC "-//W3C//DTD SVG 1.1//EN"
 "http://www.w3.org/Graphics/SVG/1.1/DTD/svg11.dtd">
<!-- Generated by graphviz version 2.40.1 (20161225.0304)
 -->
<!-- Title: long_press_button_stm Pages: 1 -->
<svg width="1203pt" height="329pt"
 viewBox="0.00 0.00 1203.26 329.00" xmlns="http://www.w3.org/2000/svg" xmlns:xlink="http://www.w3.org/1999/xlink">
<g id="graph0" class="graph" transform="scale(1 1) rotate(0) translate(4 325)">
<title>long_press_button_stm</title>
<polygon fill="#ffffff" stroke="transparent" points="-4,4 -4,-325 1199.2554,-325 1199.2554,4 -4,4"/>
<!-- LongPressed -->
<g id="node1" class="node">
<title>LongPressed</title>
<ellipse fill="none" stroke="#000000" cx="416.2554" cy="-303" rx="55.7903" ry="18"/>
<text text-anchor="middle" x="416.2554" y="-299.3" font-family="Times,serif" font-size="14.00" fill="#000000">LongPressed</text>
</g>
<!-- NotPressed -->
<g id="node2" class="node">
<title>NotPressed</title>
<ellipse fill="none" stroke="#000000" cx="822.2554" cy="-208" rx="50.8918" ry="18"/>
<text text-anchor="middle" x="822.2554" y="-204.3" font-family="Times,serif" font-size="14.00" fill="#000000">NotPressed</text>
</g>
<!-- LongPressed&#45;&gt;NotPressed -->
<g id="edge4" class="edge">
<title>LongPressed&#45;&gt;NotPressed</title>
<path fill="none" stroke="#000000" d="M467.7494,-295.8203C494.0175,-290.5772 525.7234,-281.7206 551.2554,-267 563.7793,-259.7793 561.1866,-250.1801 574.2554,-244 648.1369,-209.0625 676.9106,-240.9608 757.2554,-226 762.6514,-224.9952 768.2507,-223.7549 773.7978,-222.399"/>
<polygon fill="#000000" stroke="#000000" points="774.8583,-225.7402 783.6712,-219.8594 773.1145,-218.9609 774.8583,-225.7402"/>
<text text-anchor="start" x="578.7554" y="-252.3" font-family="Times,serif" font-style="italic" font-size="14.00" fill="#000000">&quot;LongPressed&quot; &#45;&gt; &quot;NotPressed&quot;</text>
</g>
<!-- PressedPending -->
<g id="node3" class="node">
<title>PressedPending</title>
<ellipse fill="none" stroke="#000000" cx="540.2554" cy="-113" rx="66.0889" ry="18"/>
<text text-anchor="middle" x="540.2554" y="-109.3" font-family="Times,serif" font-size="14.00" fill="#000000">PressedPending</text>
</g>
<!-- LongPressed&#45;&gt;PressedPending -->
<g id="edge9" class="edge">
<title>LongPressed&#45;&gt;PressedPending</title>
<path fill="none" stroke="#000000" d="M382.9276,-288.287C339.4715,-267.1478 272.6364,-226.6815 305.2554,-190 328.0047,-164.4174 426.3427,-184.3927 458.2554,-172 478.8088,-164.0185 498.9509,-149.6473 514.1289,-137.0872"/>
<polygon fill="#000000" stroke="#000000" points="516.6895,-139.5031 522.0214,-130.3477 512.1439,-134.1797 516.6895,-139.5031"/>
<text text-anchor="start" x="309.7554" y="-204.8" font-family="Times,serif" font-style="italic" font-size="14.00" fill="#000000">&quot;LongPressed&quot; &#45;&gt; &quot;PressedPending&quot;</text>
</g>
<!-- ReleasePending -->
<g id="node4" class="node">
<title>ReleasePending</title>
<ellipse fill="none" stroke="#000000" cx="288.2554" cy="-18" rx="66.8882" ry="18"/>
<text text-anchor="middle" x="288.2554" y="-14.3" font-family="Times,serif" font-size="14.00" fill="#000000">ReleasePending</text>
</g>
<!-- LongPressed&#45;&gt;ReleasePending -->
<g id="edge6" class="edge">
<title>LongPressed&#45;&gt;ReleasePending</title>
<path fill="none" stroke="#000000" d="M364.4823,-295.9844C326.977,-290.1669 275.3319,-280.6302 231.2554,-267 129.505,-235.5347 69.7633,-260.9946 11.2554,-172 -43.8298,-88.2116 119.8891,-45.6747 218.8034,-28.1188"/>
<polygon fill="#000000" stroke="#000000" points="219.4966,-31.551 228.7538,-26.3977 218.3036,-24.6534 219.4966,-31.551"/>
<text text-anchor="start" x="15.2554" y="-157.3" font-family="Times,serif" font-style="italic" font-size="14.00" fill="#000000">&quot;LongPressed&quot; &#45;&gt; &quot;ReleasePending&quot;</text>
</g>
<!-- NotPressed&#45;&gt;LongPressed -->
<g id="edge10" class="edge">
<title>NotPressed&#45;&gt;LongPressed</title>
<path fill="none" stroke="#000000" d="M801.5434,-224.5383C794.5501,-230.4352 786.8497,-237.2848 780.2554,-244 770.9654,-253.4604 772.9408,-260.7347 761.2554,-267 737.2441,-279.8741 574.7814,-292.5362 481.6082,-298.8528"/>
<polygon fill="#000000" stroke="#000000" points="481.1758,-295.3739 471.4328,-299.5361 481.6448,-302.3581 481.1758,-295.3739"/>
<text text-anchor="start" x="784.7554" y="-252.3" font-family="Times,serif" font-style="italic" font-size="14.00" fill="#000000">&quot;NotPressed&quot; &#45;&gt; &quot;LongPressed&quot;</text>
</g>
<!-- NotPressed&#45;&gt;PressedPending -->
<g id="edge7" class="edge">
<title>NotPressed&#45;&gt;PressedPending</title>
<path fill="none" stroke="#000000" d="M783.6737,-196.1271C775.0453,-193.8056 765.8907,-191.5987 757.2554,-190 716.2053,-182.4004 604.7541,-195.5096 570.2554,-172 559.5325,-164.6927 552.4322,-152.3523 547.8451,-140.8408"/>
<polygon fill="#000000" stroke="#000000" points="551.0383,-139.369 544.433,-131.0853 544.4308,-141.6801 551.0383,-139.369"/>
<text text-anchor="start" x="574.2554" y="-157.3" font-family="Times,serif" font-style="italic" font-size="14.00" fill="#000000">&quot;NotPressed&quot; &#45;&gt; &quot;PressedPending&quot;</text>
</g>
<!-- PressedPending&#45;&gt;LongPressed -->
<g id="edge12" class="edge">
<title>PressedPending&#45;&gt;LongPressed</title>
<path fill="none" stroke="#000000" d="M540.5996,-131.2749C540.2194,-154.9002 536.6758,-196.5028 518.2554,-226 503.1747,-250.1492 477.5847,-269.4352 455.81,-282.6659"/>
<polygon fill="#000000" stroke="#000000" points="453.9256,-279.7134 447.0645,-287.7866 457.4626,-285.754 453.9256,-279.7134"/>
<text text-anchor="start" x="537.7554" y="-204.8" font-family="Times,serif" font-style="italic" font-size="14.00" fill="#000000">&quot;PressedPending&quot; &#45;&gt; &quot;LongPressed&quot;</text>
</g>
<!-- PressedPending&#45;&gt;NotPressed -->
<g id="edge3" class="edge">
<title>PressedPending&#45;&gt;NotPressed</title>
<path fill="none" stroke="#000000" d="M604.8818,-117.2543C665.1188,-122.1978 749.806,-131.944 778.2554,-149 785.2676,-153.204 796.2639,-167.9478 805.509,-181.6437"/>
<polygon fill="#000000" stroke="#000000" points="802.841,-183.955 811.2721,-190.3712 808.6824,-180.0978 802.841,-183.955"/>
<text text-anchor="start" x="803.2554" y="-157.3" font-family="Times,serif" font-style="italic" font-size="14.00" fill="#000000">&quot;PressedPending&quot; &#45;&gt; &quot;NotPressed&quot;</text>
</g>
<!-- PressedPending&#45;&gt;ReleasePending -->
<g id="edge5" class="edge">
<title>PressedPending&#45;&gt;ReleasePending</title>
<path fill="none" stroke="#000000" d="M538.3599,-94.9958C535.9623,-81.6204 530.5353,-64.0235 518.2554,-54 495.1427,-35.1342 422.1937,-26.0552 364.5767,-21.7494"/>
<polygon fill="#000000" stroke="#000000" points="364.6015,-18.2424 354.3784,-21.0243 364.105,-25.2248 364.6015,-18.2424"/>
<text text-anchor="start" x="537.7554" y="-62.3" font-family="Times,serif" font-style="italic" font-size="14.00" fill="#000000">&quot;PressedPending&quot; &#45;&gt; &quot;ReleasePending&quot;</text>
</g>
<!-- ReleasePending&#45;&gt;LongPressed -->
<g id="edge11" class="edge">
<title>ReleasePending&#45;&gt;LongPressed</title>
<path fill="none" stroke="#000000" d="M275.622,-36.105C257.0967,-64.9762 226.3934,-123.1695 242.2554,-172 258.3774,-221.631 269.2889,-235.9843 311.2554,-267 325.3764,-277.4363 342.7472,-285.0041 359.2654,-290.4232"/>
<polygon fill="#000000" stroke="#000000" points="358.2746,-293.7802 368.8615,-293.3711 360.3302,-287.0888 358.2746,-293.7802"/>
<text text-anchor="start" x="246.2554" y="-157.3" font-family="Times,serif" font-style="italic" font-size="14.00" fill="#000000">&quot;ReleasePending&quot; &#45;&gt; &quot;LongPressed&quot;</text>
</g>
<!-- ReleasePending&#45;&gt;NotPressed -->
<g id="edge2" class="edge">
<title>ReleasePending&#45;&gt;NotPressed</title>
<path fill="none" stroke="#000000" d="M354.9335,-20.5294C467.3813,-25.2122 689.9287,-36.3896 766.2554,-54 877.6353,-79.698 941.0697,-54.4164 1005.2554,-149 1010.9954,-157.4585 1011.7486,-164.105 1005.2554,-172 989.8301,-190.7554 929.6575,-199.8914 882.4692,-204.2415"/>
<polygon fill="#000000" stroke="#000000" points="881.9739,-200.7713 872.3143,-205.1237 882.5798,-207.745 881.9739,-200.7713"/>
<text text-anchor="start" x="995.2554" y="-109.8" font-family="Times,serif" font-style="italic" font-size="14.00" fill="#000000">&quot;ReleasePending&quot; &#45;&gt; &quot;NotPressed&quot;</text>
</g>
<!-- ReleasePending&#45;&gt;PressedPending -->
<g id="edge8" class="edge">
<title>ReleasePending&#45;&gt;PressedPending</title>
<path fill="none" stroke="#000000" d="M281.3183,-36.1387C277.6717,-49.055 275.704,-66.0055 285.2554,-77 297.0631,-90.5918 394.968,-101.332 465.9487,-107.4281"/>
<polygon fill="#000000" stroke="#000000" points="465.9537,-110.9408 476.2124,-108.2936 466.5419,-103.9656 465.9537,-110.9408"/>
<text text-anchor="start" x="289.7554" y="-62.3" font-family="Times,serif" font-style="italic" font-size="14.00" fill="#000000">&quot;ReleasePending&quot; &#45;&gt; &quot;PressedPending&quot;</text>
</g>
<!-- _start -->
<g id="node5" class="node">
<title>_start</title>
<ellipse fill="#000000" stroke="#000000" cx="993.2554" cy="-303" rx="1.8" ry="1.8"/>
</g>
<!-- _start&#45;&gt;NotPressed -->
<g id="edge1" class="edge">
<title>_start&#45;&gt;NotPressed</title>
<path fill="none" stroke="#000000" d="M993.1401,-300.7746C992.5638,-292.061 989.2495,-259.9572 971.2554,-244 957.56,-231.8549 915.5576,-222.367 879.6255,-216.1877"/>
<polygon fill="#000000" stroke="#000000" points="880.1192,-212.7218 869.6803,-214.5331 878.9703,-219.6269 880.1192,-212.7218"/>
<text text-anchor="start" x="990.7554" y="-252.3" font-family="Times,serif" font-weight="bold" font-style="italic" font-size="14.00" fill="#000000"> &#45;&gt; &quot;NotPressed&quot;</text>
</g>
</g>
</svg>
