<?xml version="1.0" encoding="UTF-8" standalone="no"?>
<!DOCTYPE svg PUBLIC "-//W3C//DTD SVG 1.1//EN"
 "http://www.w3.org/Graphics/SVG/1.1/DTD/svg11.dtd">
<!-- Generated by graphviz version 2.40.1 (20161225.0304)
 -->
<!-- Title: long_press_button_stm Pages: 1 -->
<svg width="203pt" height="260pt"
 viewBox="0.00 0.00 202.59 260.00" xmlns="http://www.w3.org/2000/svg" xmlns:xlink="http://www.w3.org/1999/xlink">
<g id="graph0" class="graph" transform="scale(1 1) rotate(0) translate(4 256)">
<title>long_press_button_stm</title>
<polygon fill="#ffffff" stroke="transparent" points="-4,4 -4,-256 198.5905,-256 198.5905,4 -4,4"/>
<!-- LongPressed -->
<g id="node1" class="node">
<title>LongPressed</title>
<ellipse fill="none" stroke="#000000" cx="138.6955" cy="-234" rx="55.7903" ry="18"/>
<text text-anchor="middle" x="138.6955" y="-230.3" font-family="Times,serif" font-size="14.00" fill="#000000">LongPressed</text>
</g>
<!-- NotPressed -->
<g id="node2" class="node">
<title>NotPressed</title>
<ellipse fill="none" stroke="#000000" cx="50.6955" cy="-162" rx="50.8918" ry="18"/>
<text text-anchor="middle" x="50.6955" y="-158.3" font-family="Times,serif" font-size="14.00" fill="#000000">NotPressed</text>
</g>
<!-- LongPressed&#45;&gt;NotPressed -->
<g id="edge4" class="edge">
<title>LongPressed&#45;&gt;NotPressed</title>
<path fill="none" stroke="#000000" d="M112.9661,-217.6621C100.551,-208.3579 85.8719,-196.5261 73.8165,-186.1657"/>
<polygon fill="#000000" stroke="#000000" points="75.7789,-183.2318 65.9497,-179.2773 71.1674,-188.4982 75.7789,-183.2318"/>
</g>
<!-- PressedPending -->
<g id="node3" class="node">
<title>PressedPending</title>
<ellipse fill="none" stroke="#000000" cx="91.6955" cy="-90" rx="66.0889" ry="18"/>
<text text-anchor="middle" x="91.6955" y="-86.3" font-family="Times,serif" font-size="14.00" fill="#000000">PressedPending</text>
</g>
<!-- LongPressed&#45;&gt;PressedPending -->
<g id="edge9" class="edge">
<title>LongPressed&#45;&gt;PressedPending</title>
<path fill="none" stroke="#000000" d="M126.6518,-216.3485C118.9204,-198.158 109.9822,-169.0084 101.6955,-144 98.8953,-135.5492 95.7284,-126.4008 93.1798,-118.0776"/>
<polygon fill="#000000" stroke="#000000" points="96.5411,-117.1016 90.4441,-108.4369 89.807,-119.0126 96.5411,-117.1016"/>
</g>
<!-- ReleasePending -->
<g id="node4" class="node">
<title>ReleasePending</title>
<ellipse fill="none" stroke="#000000" cx="91.6955" cy="-18" rx="66.8882" ry="18"/>
<text text-anchor="middle" x="91.6955" y="-14.3" font-family="Times,serif" font-size="14.00" fill="#000000">ReleasePending</text>
</g>
<!-- LongPressed&#45;&gt;ReleasePending -->
<g id="edge6" class="edge">
<title>LongPressed&#45;&gt;ReleasePending</title>
<path fill="none" stroke="#000000" d="M143.3154,-215.8907C155.591,-184.7391 182.1588,-119.7581 157.6955,-72 150.9853,-58.9001 139.4537,-48.2546 127.8318,-39.9867"/>
<polygon fill="#000000" stroke="#000000" points="129.6843,-37.0153 119.421,-34.3855 125.8042,-42.8416 129.6843,-37.0153"/>
</g>
<!-- NotPressed&#45;&gt;LongPressed -->
<g id="edge10" class="edge">
<title>NotPressed&#45;&gt;LongPressed</title>
<path fill="none" stroke="#000000" d="M75.6994,-177.7951C88.2863,-187.1948 103.3341,-199.3122 115.6367,-209.8878"/>
<polygon fill="#000000" stroke="#000000" points="113.4416,-212.6178 123.2714,-216.5708 118.0522,-207.3507 113.4416,-212.6178"/>
</g>
<!-- NotPressed&#45;&gt;PressedPending -->
<g id="edge7" class="edge">
<title>NotPressed&#45;&gt;PressedPending</title>
<path fill="none" stroke="#000000" d="M55.0891,-143.8314C58.9824,-135.5829 64.4346,-125.6635 70.0076,-116.5992"/>
<polygon fill="#000000" stroke="#000000" points="73.124,-118.2226 75.5675,-107.9134 67.2284,-114.4487 73.124,-118.2226"/>
</g>
<!-- PressedPending&#45;&gt;LongPressed -->
<g id="edge12" class="edge">
<title>PressedPending&#45;&gt;LongPressed</title>
<path fill="none" stroke="#000000" d="M106.0695,-107.9434C110.9442,-118.4245 115.6942,-131.9245 119.6955,-144 126.5047,-164.5493 133.7537,-187.8946 137.9276,-205.6585"/>
<polygon fill="#000000" stroke="#000000" points="134.5514,-206.6097 140.0505,-215.6656 141.399,-205.1569 134.5514,-206.6097"/>
</g>
<!-- PressedPending&#45;&gt;NotPressed -->
<g id="edge3" class="edge">
<title>PressedPending&#45;&gt;NotPressed</title>
<path fill="none" stroke="#000000" d="M87.3717,-108.0206C83.3813,-116.4951 77.7281,-126.7579 71.9833,-136.0497"/>
<polygon fill="#000000" stroke="#000000" points="68.968,-134.2677 66.4987,-144.5708 74.8541,-138.0564 68.968,-134.2677"/>
</g>
<!-- PressedPending&#45;&gt;ReleasePending -->
<g id="edge5" class="edge">
<title>PressedPending&#45;&gt;ReleasePending</title>
<path fill="none" stroke="#000000" d="M85.7431,-71.8314C84.9927,-64.131 84.7718,-54.9743 85.0804,-46.4166"/>
<polygon fill="#000000" stroke="#000000" points="88.5747,-46.6161 85.7195,-36.4133 81.589,-46.1697 88.5747,-46.6161"/>
</g>
<!-- ReleasePending&#45;&gt;LongPressed -->
<g id="edge11" class="edge">
<title>ReleasePending&#45;&gt;LongPressed</title>
<path fill="none" stroke="#000000" d="M132.108,-32.3584C149.033,-41.2832 166.6983,-54.4353 175.6955,-72 198.1754,-115.8861 177.5636,-174.3156 159.0164,-207.6739"/>
<polygon fill="#000000" stroke="#000000" points="155.944,-205.9936 153.8774,-216.3849 161.9731,-209.5504 155.944,-205.9936"/>
</g>
<!-- ReleasePending&#45;&gt;NotPressed -->
<g id="edge2" class="edge">
<title>ReleasePending&#45;&gt;NotPressed</title>
<path fill="none" stroke="#000000" d="M57.3346,-33.4678C41.9361,-42.3598 25.327,-55.1493 16.6955,-72 6.0288,-92.824 17.2151,-117.8056 29.533,-136.16"/>
<polygon fill="#000000" stroke="#000000" points="26.9076,-138.5049 35.5801,-144.5908 32.5957,-134.4249 26.9076,-138.5049"/>
</g>
<!-- ReleasePending&#45;&gt;PressedPending -->
<g id="edge8" class="edge">
<title>ReleasePending&#45;&gt;PressedPending</title>
<path fill="none" stroke="#000000" d="M97.6715,-36.4133C98.4026,-44.0593 98.6158,-53.1084 98.311,-61.5726"/>
<polygon fill="#000000" stroke="#000000" points="94.8003,-61.6264 97.6479,-71.8314 101.7857,-62.078 94.8003,-61.6264"/>
</g>
<!-- _start -->
<g id="node5" class="node">
<title>_start</title>
<ellipse fill="#000000" stroke="#000000" cx="50.6955" cy="-234" rx="1.8" ry="1.8"/>
</g>
<!-- _start&#45;&gt;NotPressed -->
<g id="edge1" class="edge">
<title>_start&#45;&gt;NotPressed</title>
<path fill="none" stroke="#000000" d="M50.6955,-231.9228C50.6955,-225.7569 50.6955,-206.9566 50.6955,-190.4022"/>
<polygon fill="#000000" stroke="#000000" points="54.1956,-190.0032 50.6955,-180.0032 47.1956,-190.0032 54.1956,-190.0032"/>
</g>
</g>
</svg>
