<?xml version="1.0" encoding="UTF-8" standalone="no"?>
<!DOCTYPE svg PUBLIC "-//W3C//DTD SVG 1.1//EN"
 "http://www.w3.org/Graphics/SVG/1.1/DTD/svg11.dtd">
<!-- Generated by graphviz version 2.40.1 (20161225.0304)
 -->
<!-- Title: tokenising_stm Pages: 1 -->
<svg width="1212pt" height="392pt"
 viewBox="0.00 0.00 1211.61 391.60" xmlns="http://www.w3.org/2000/svg" xmlns:xlink="http://www.w3.org/1999/xlink">
<g id="graph0" class="graph" transform="scale(1 1) rotate(0) translate(4 387.6)">
<title>tokenising_stm</title>
<polygon fill="#ffffff" stroke="transparent" points="-4,4 -4,-387.6 1207.6081,-387.6 1207.6081,4 -4,4"/>
<!-- BuildingBreakable -->
<g id="node1" class="node">
<title>BuildingBreakable</title>
<ellipse fill="none" stroke="#000000" cx="239.6081" cy="-303" rx="77.1866" ry="18"/>
<text text-anchor="middle" x="239.6081" y="-299.3" font-family="Times,serif" font-size="14.00" fill="#000000">BuildingBreakable</text>
</g>
<!-- TokenComplete -->
<g id="node5" class="node">
<title>TokenComplete</title>
<ellipse fill="none" stroke="#000000" cx="351.6081" cy="-208" rx="67.6881" ry="18"/>
<text text-anchor="middle" x="351.6081" y="-204.3" font-family="Times,serif" font-size="14.00" fill="#000000">TokenComplete</text>
</g>
<!-- BuildingBreakable&#45;&gt;TokenComplete -->
<g id="edge8" class="edge">
<title>BuildingBreakable&#45;&gt;TokenComplete</title>
<path fill="none" stroke="#000000" d="M170.3988,-294.9167C125.9246,-286.9393 80.5985,-271.7626 104.6081,-244 115.8313,-231.0224 207.697,-220.3241 276.1338,-214.0516"/>
<polygon fill="#000000" stroke="#000000" points="276.8281,-217.5034 286.4741,-213.1209 276.2005,-210.5316 276.8281,-217.5034"/>
<text text-anchor="start" x="109.1081" y="-252.3" font-family="Times,serif" font-style="italic" font-size="14.00" fill="#000000">&quot;BuildingBreakable&quot; &#45;&gt; &quot;TokenComplete&quot;</text>
</g>
<!-- Empty -->
<g id="node2" class="node">
<title>Empty</title>
<ellipse fill="none" stroke="#000000" cx="827.6081" cy="-303" rx="34.394" ry="18"/>
<text text-anchor="middle" x="827.6081" y="-299.3" font-family="Times,serif" font-size="14.00" fill="#000000">Empty</text>
</g>
<!-- StartedBuildingNonBreakable -->
<g id="node4" class="node">
<title>StartedBuildingNonBreakable</title>
<ellipse fill="none" stroke="#000000" cx="428.6081" cy="-18" rx="116.9792" ry="18"/>
<text text-anchor="middle" x="428.6081" y="-14.3" font-family="Times,serif" font-size="14.00" fill="#000000">StartedBuildingNonBreakable</text>
</g>
<!-- Empty&#45;&gt;StartedBuildingNonBreakable -->
<g id="edge4" class="edge">
<title>Empty&#45;&gt;StartedBuildingNonBreakable</title>
<path fill="none" stroke="#000000" d="M849.5276,-289.0221C857.8119,-282.9764 866.8585,-275.3663 873.6081,-267 934.9291,-190.9901 994.1342,-125.4986 927.6081,-54 914.9507,-40.3966 696.2005,-28.8923 552.5711,-22.7602"/>
<polygon fill="#000000" stroke="#000000" points="552.5026,-19.2543 542.3635,-22.328 552.2064,-26.248 552.5026,-19.2543"/>
<text text-anchor="start" x="955.6081" y="-157.3" font-family="Times,serif" font-style="italic" font-size="14.00" fill="#000000">&quot;Empty&quot; &#45;&gt; &quot;StartedBuildingNonBreakable&quot;</text>
</g>
<!-- Empty&#45;&gt;TokenComplete -->
<g id="edge7" class="edge">
<title>Empty&#45;&gt;TokenComplete</title>
<path fill="none" stroke="#000000" d="M797.657,-293.979C754.7777,-281.332 673.263,-258.2821 602.6081,-244 542.9637,-231.9435 474.5513,-222.4112 424.2285,-216.1922"/>
<polygon fill="#000000" stroke="#000000" points="424.4448,-212.6927 414.0941,-214.9543 423.596,-219.641 424.4448,-212.6927"/>
<text text-anchor="start" x="699.6081" y="-252.3" font-family="Times,serif" font-style="italic" font-size="14.00" fill="#000000">&quot;Empty&quot; &#45;&gt; &quot;TokenComplete&quot;</text>
</g>
<!-- NotStartedBuildingNonBreakable -->
<g id="node3" class="node">
<title>NotStartedBuildingNonBreakable</title>
<ellipse fill="none" stroke="#000000" cx="783.6081" cy="-113" rx="129.9769" ry="18"/>
<text text-anchor="middle" x="783.6081" y="-109.3" font-family="Times,serif" font-size="14.00" fill="#000000">NotStartedBuildingNonBreakable</text>
</g>
<!-- NotStartedBuildingNonBreakable&#45;&gt;StartedBuildingNonBreakable -->
<g id="edge5" class="edge">
<title>NotStartedBuildingNonBreakable&#45;&gt;StartedBuildingNonBreakable</title>
<path fill="none" stroke="#000000" d="M688.8198,-100.6237C618.8477,-91.342 534.4511,-79.7792 526.6081,-77 502.8534,-68.5825 478.5681,-54.0122 460.1155,-41.4576"/>
<polygon fill="#000000" stroke="#000000" points="462.0193,-38.5183 451.8125,-35.6769 458.0195,-44.2631 462.0193,-38.5183"/>
<text text-anchor="start" x="531.1081" y="-62.3" font-family="Times,serif" font-style="italic" font-size="14.00" fill="#000000">&quot;NotStartedBuildingNonBreakable&quot; &#45;&gt; &quot;StartedBuildingNonBreakable&quot;</text>
</g>
<!-- StartedBuildingNonBreakable&#45;&gt;TokenComplete -->
<g id="edge9" class="edge">
<title>StartedBuildingNonBreakable&#45;&gt;TokenComplete</title>
<path fill="none" stroke="#000000" d="M397.916,-35.5302C377.7804,-48.9323 353.1209,-69.4361 341.6081,-95 329.4205,-122.062 335.0471,-156.4209 341.738,-180.108"/>
<polygon fill="#000000" stroke="#000000" points="338.4506,-181.3266 344.724,-189.8644 345.1442,-179.2779 338.4506,-181.3266"/>
<text text-anchor="start" x="346.1081" y="-109.8" font-family="Times,serif" font-style="italic" font-size="14.00" fill="#000000">&quot;StartedBuildingNonBreakable&quot; &#45;&gt; &quot;TokenComplete&quot;</text>
</g>
<!-- TokenComplete&#45;&gt;BuildingBreakable -->
<g id="edge2" class="edge">
<title>TokenComplete&#45;&gt;BuildingBreakable</title>
<path fill="none" stroke="#000000" d="M356.0139,-226.0261C358.012,-238.7205 358.2867,-255.4452 349.6081,-267 343.6191,-274.9738 325.7378,-282.1762 306.0865,-288.0067"/>
<polygon fill="#000000" stroke="#000000" points="305.0155,-284.6721 296.3416,-290.7561 306.9163,-291.4091 305.0155,-284.6721"/>
<text text-anchor="start" x="362.1081" y="-252.3" font-family="Times,serif" font-style="italic" font-size="14.00" fill="#000000">&quot;TokenComplete&quot; &#45;&gt; &quot;BuildingBreakable&quot;</text>
</g>
<!-- TokenComplete&#45;&gt;NotStartedBuildingNonBreakable -->
<g id="edge3" class="edge">
<title>TokenComplete&#45;&gt;NotStartedBuildingNonBreakable</title>
<path fill="none" stroke="#000000" d="M400.9354,-195.4908C450.4983,-183.0821 529.1438,-163.8281 597.6081,-149 629.3701,-142.1209 664.3222,-135.1891 695.2703,-129.2701"/>
<polygon fill="#000000" stroke="#000000" points="695.9998,-132.6942 705.1686,-127.3853 694.6903,-125.8177 695.9998,-132.6942"/>
<text text-anchor="start" x="601.6081" y="-157.3" font-family="Times,serif" font-style="italic" font-size="14.00" fill="#000000">&quot;TokenComplete&quot; &#45;&gt; &quot;NotStartedBuildingNonBreakable&quot;</text>
</g>
<!-- TokenComplete&#45;&gt;StartedBuildingNonBreakable -->
<g id="edge6" class="edge">
<title>TokenComplete&#45;&gt;StartedBuildingNonBreakable</title>
<path fill="none" stroke="#000000" d="M286.6346,-202.9312C196.8219,-194.4216 41.8966,-173.8121 7.6081,-131 -2.394,-118.5116 -2.6375,-107.2894 7.6081,-95 45.0095,-50.1374 195.2542,-31.3368 305.6355,-23.5074"/>
<polygon fill="#000000" stroke="#000000" points="306.1154,-26.9828 315.8521,-22.8058 305.6357,-19.9992 306.1154,-26.9828"/>
<text text-anchor="start" x="12.1081" y="-109.8" font-family="Times,serif" font-style="italic" font-size="14.00" fill="#000000">&quot;TokenComplete&quot; &#45;&gt; &quot;StartedBuildingNonBreakable&quot;</text>
</g>
<!-- _start -->
<g id="node6" class="node">
<title>_start</title>
<ellipse fill="#000000" stroke="#000000" cx="827.6081" cy="-381.8" rx="1.8" ry="1.8"/>
</g>
<!-- _start&#45;&gt;Empty -->
<g id="edge1" class="edge">
<title>_start&#45;&gt;Empty</title>
<path fill="none" stroke="#000000" d="M827.6081,-379.8521C827.6081,-373.1331 827.6081,-350.2923 827.6081,-331.2434"/>
<polygon fill="#000000" stroke="#000000" points="831.1082,-331.1772 827.6081,-321.1773 824.1082,-331.1773 831.1082,-331.1772"/>
<text text-anchor="start" x="832.1081" y="-347.3" font-family="Times,serif" font-weight="bold" font-style="italic" font-size="14.00" fill="#000000"> &#45;&gt; &quot;Empty&quot;</text>
</g>
</g>
</svg>
