<?xml version="1.0" encoding="UTF-8" standalone="no"?>
<!DOCTYPE svg PUBLIC "-//W3C//DTD SVG 1.1//EN"
 "http://www.w3.org/Graphics/SVG/1.1/DTD/svg11.dtd">
<!-- Generated by graphviz version 2.40.1 (20161225.0304)
 -->
<!-- Title: tokenising_stm Pages: 1 -->
<svg width="1130pt" height="677pt"
 viewBox="0.00 0.00 1130.48 676.71" xmlns="http://www.w3.org/2000/svg" xmlns:xlink="http://www.w3.org/1999/xlink">
<g id="graph0" class="graph" transform="scale(1 1) rotate(0) translate(4 672.7097)">
<title>tokenising_stm</title>
<polygon fill="#ffffff" stroke="transparent" points="-4,4 -4,-672.7097 1126.4849,-672.7097 1126.4849,4 -4,4"/>
<!-- BuildingBreakable -->
<g id="node1" class="node">
<title>BuildingBreakable</title>
<ellipse fill="none" stroke="#000000" cx="231.4849" cy="-551.9052" rx="50.3948" ry="50.3948"/>
<ellipse fill="none" stroke="#000000" cx="231.4849" cy="-551.9052" rx="54.4099" ry="54.4099"/>
<text text-anchor="middle" x="231.4849" y="-555.7052" font-family="Times,serif" font-size="14.00" fill="#000000">Building</text>
<text text-anchor="middle" x="231.4849" y="-540.7052" font-family="Times,serif" font-size="14.00" fill="#000000">Breakable</text>
</g>
<!-- TokenComplete -->
<g id="node5" class="node">
<title>TokenComplete</title>
<ellipse fill="none" stroke="#000000" cx="358.4849" cy="-420.7006" rx="67.6881" ry="18"/>
<text text-anchor="middle" x="358.4849" y="-417.0006" font-family="Times,serif" font-size="14.00" fill="#000000">TokenComplete</text>
</g>
<!-- BuildingBreakable&#45;&gt;TokenComplete -->
<g id="edge8" class="edge">
<title>BuildingBreakable&#45;&gt;TokenComplete</title>
<path fill="none" stroke="#000000" d="M178.8165,-537.2903C128.893,-520.8969 65.7616,-491.9341 96.4849,-456.7006 108.6793,-442.7161 209.9353,-432.0387 282.918,-426.0676"/>
<polygon fill="#000000" stroke="#000000" points="283.3287,-429.546 293.0164,-425.2565 282.7682,-422.5685 283.3287,-429.546"/>
<text text-anchor="start" x="100.9849" y="-465.0006" font-family="Times,serif" font-style="italic" font-size="14.00" fill="#000000">&quot;BuildingBreakable&quot; &#45;&gt; &quot;TokenComplete&quot;</text>
</g>
<!-- Empty -->
<g id="node2" class="node">
<title>Empty</title>
<ellipse fill="none" stroke="#000000" cx="745.4849" cy="-551.9052" rx="34.3995" ry="34.3995"/>
<ellipse fill="none" stroke="#000000" cx="745.4849" cy="-551.9052" rx="38.394" ry="38.394"/>
<text text-anchor="middle" x="745.4849" y="-548.2052" font-family="Times,serif" font-size="14.00" fill="#000000">Empty</text>
</g>
<!-- StartedBuildingNonBreakable -->
<g id="node4" class="node">
<title>StartedBuildingNonBreakable</title>
<ellipse fill="none" stroke="#000000" cx="390.4849" cy="-71.1751" rx="67.3409" ry="67.3409"/>
<ellipse fill="none" stroke="#000000" cx="390.4849" cy="-71.1751" rx="71.3507" ry="71.3507"/>
<text text-anchor="middle" x="390.4849" y="-82.4751" font-family="Times,serif" font-size="14.00" fill="#000000">Started</text>
<text text-anchor="middle" x="390.4849" y="-67.4751" font-family="Times,serif" font-size="14.00" fill="#000000">Building</text>
<text text-anchor="middle" x="390.4849" y="-52.4751" font-family="Times,serif" font-size="14.00" fill="#000000">NonBreakable</text>
</g>
<!-- Empty&#45;&gt;StartedBuildingNonBreakable -->
<g id="edge4" class="edge">
<title>Empty&#45;&gt;StartedBuildingNonBreakable</title>
<path fill="none" stroke="#000000" d="M777.9633,-530.9487C794.5187,-518.3007 813.0969,-500.5961 822.4849,-479.7006 880.6705,-350.1931 920.3564,-270.2633 830.4849,-160.3503 786.0656,-106.0253 586.4462,-84.0037 471.9323,-75.7193"/>
<polygon fill="#000000" stroke="#000000" points="472.0242,-72.2172 461.8031,-75.0063 471.5326,-79.1999 472.0242,-72.2172"/>
<text text-anchor="start" x="874.4849" y="-370.0006" font-family="Times,serif" font-style="italic" font-size="14.00" fill="#000000">&quot;Empty&quot; &#45;&gt; &quot;StartedBuildingNonBreakable&quot;</text>
</g>
<!-- Empty&#45;&gt;TokenComplete -->
<g id="edge7" class="edge">
<title>Empty&#45;&gt;TokenComplete</title>
<path fill="none" stroke="#000000" d="M715.7932,-527.3705C687.2833,-505.1903 642.0806,-473.5155 597.4849,-456.7006 567.9316,-445.5574 490.4889,-435.0708 431.6992,-428.3219"/>
<polygon fill="#000000" stroke="#000000" points="432.0267,-424.8367 421.6962,-427.1888 431.2387,-431.7922 432.0267,-424.8367"/>
<text text-anchor="start" x="648.4849" y="-465.0006" font-family="Times,serif" font-style="italic" font-size="14.00" fill="#000000">&quot;Empty&quot; &#45;&gt; &quot;TokenComplete&quot;</text>
</g>
<!-- NotStartedBuildingNonBreakable -->
<g id="node3" class="node">
<title>NotStartedBuildingNonBreakable</title>
<ellipse fill="none" stroke="#000000" cx="745.4849" cy="-272.5254" rx="67.3409" ry="67.3409"/>
<ellipse fill="none" stroke="#000000" cx="745.4849" cy="-272.5254" rx="71.3507" ry="71.3507"/>
<text text-anchor="middle" x="745.4849" y="-283.8254" font-family="Times,serif" font-size="14.00" fill="#000000">NotStarted</text>
<text text-anchor="middle" x="745.4849" y="-268.8254" font-family="Times,serif" font-size="14.00" fill="#000000">Building</text>
<text text-anchor="middle" x="745.4849" y="-253.8254" font-family="Times,serif" font-size="14.00" fill="#000000">NonBreakable</text>
</g>
<!-- NotStartedBuildingNonBreakable&#45;&gt;StartedBuildingNonBreakable -->
<g id="edge5" class="edge">
<title>NotStartedBuildingNonBreakable&#45;&gt;StartedBuildingNonBreakable</title>
<path fill="none" stroke="#000000" d="M694.8969,-221.7485C684.2807,-213.635 672.603,-206.2952 660.4849,-201.3503 612.8123,-181.897 470.2559,-214.7961 429.4849,-183.3503 418.6464,-174.9907 410.8065,-163.4232 405.139,-150.8737"/>
<polygon fill="#000000" stroke="#000000" points="408.3795,-149.5511 401.3842,-141.594 401.8906,-152.1767 408.3795,-149.5511"/>
<text text-anchor="start" x="433.9849" y="-168.6503" font-family="Times,serif" font-style="italic" font-size="14.00" fill="#000000">&quot;NotStartedBuildingNonBreakable&quot; &#45;&gt; &quot;StartedBuildingNonBreakable&quot;</text>
</g>
<!-- StartedBuildingNonBreakable&#45;&gt;TokenComplete -->
<g id="edge9" class="edge">
<title>StartedBuildingNonBreakable&#45;&gt;TokenComplete</title>
<path fill="none" stroke="#000000" d="M373.0069,-140.3453C368.767,-159.9379 364.7937,-181.3717 362.4849,-201.3503 354.6013,-269.5707 355.8386,-350.5046 357.2595,-392.402"/>
<polygon fill="#000000" stroke="#000000" points="353.7628,-392.5576 357.6289,-402.4219 360.758,-392.2997 353.7628,-392.5576"/>
<text text-anchor="start" x="366.9849" y="-269.3254" font-family="Times,serif" font-style="italic" font-size="14.00" fill="#000000">&quot;StartedBuildingNonBreakable&quot; &#45;&gt; &quot;TokenComplete&quot;</text>
</g>
<!-- TokenComplete&#45;&gt;BuildingBreakable -->
<g id="edge2" class="edge">
<title>TokenComplete&#45;&gt;BuildingBreakable</title>
<path fill="none" stroke="#000000" d="M356.5873,-438.9335C354.5332,-451.4047 350.2769,-467.7738 341.4849,-479.7006 328.0866,-497.8761 308.6355,-512.7806 289.8032,-524.2303"/>
<polygon fill="#000000" stroke="#000000" points="287.8014,-521.3461 280.9288,-529.4095 291.3298,-527.3918 287.8014,-521.3461"/>
<text text-anchor="start" x="356.9849" y="-465.0006" font-family="Times,serif" font-style="italic" font-size="14.00" fill="#000000">&quot;TokenComplete&quot; &#45;&gt; &quot;BuildingBreakable&quot;</text>
</g>
<!-- TokenComplete&#45;&gt;NotStartedBuildingNonBreakable -->
<g id="edge3" class="edge">
<title>TokenComplete&#45;&gt;NotStartedBuildingNonBreakable</title>
<path fill="none" stroke="#000000" d="M389.7437,-404.6967C417.9417,-390.9991 460.9393,-371.9209 500.4849,-361.7006 569.7682,-343.7947 594.7021,-371.868 660.4849,-343.7006 669.5086,-339.8367 678.3104,-334.6876 686.6206,-328.9186"/>
<polygon fill="#000000" stroke="#000000" points="688.7517,-331.6962 694.7569,-322.9676 684.6192,-326.0462 688.7517,-331.6962"/>
<text text-anchor="start" x="504.4849" y="-370.0006" font-family="Times,serif" font-style="italic" font-size="14.00" fill="#000000">&quot;TokenComplete&quot; &#45;&gt; &quot;NotStartedBuildingNonBreakable&quot;</text>
</g>
<!-- TokenComplete&#45;&gt;StartedBuildingNonBreakable -->
<g id="edge6" class="edge">
<title>TokenComplete&#45;&gt;StartedBuildingNonBreakable</title>
<path fill="none" stroke="#000000" d="M294.3115,-415.0346C207.8596,-405.9204 61.0314,-384.7154 28.4849,-343.7006 -10.8416,-294.1414 -7.9035,-253.1052 28.4849,-201.3503 61.6433,-154.1895 214.7109,-111.4354 310.8799,-88.5925"/>
<polygon fill="#000000" stroke="#000000" points="311.9356,-91.9398 320.8684,-86.2428 310.3326,-85.1258 311.9356,-91.9398"/>
<text text-anchor="start" x="32.9849" y="-269.3254" font-family="Times,serif" font-style="italic" font-size="14.00" fill="#000000">&quot;TokenComplete&quot; &#45;&gt; &quot;StartedBuildingNonBreakable&quot;</text>
</g>
<!-- _start -->
<g id="node6" class="node">
<title>_start</title>
<ellipse fill="#000000" stroke="#000000" cx="745.4849" cy="-666.9097" rx="1.8" ry="1.8"/>
</g>
<!-- _start&#45;&gt;Empty -->
<g id="edge1" class="edge">
<title>_start&#45;&gt;Empty</title>
<path fill="none" stroke="#000000" d="M745.4849,-664.9136C745.4849,-657.085 745.4849,-627.5849 745.4849,-600.6897"/>
<polygon fill="#000000" stroke="#000000" points="748.985,-600.5599 745.4849,-590.56 741.985,-600.56 748.985,-600.5599"/>
<text text-anchor="start" x="749.9849" y="-632.4097" font-family="Times,serif" font-weight="bold" font-style="italic" font-size="14.00" fill="#000000"> &#45;&gt; &quot;Empty&quot;</text>
</g>
</g>
</svg>
