<?xml version="1.0" encoding="UTF-8" standalone="no"?>
<!DOCTYPE svg PUBLIC "-//W3C//DTD SVG 1.1//EN"
 "http://www.w3.org/Graphics/SVG/1.1/DTD/svg11.dtd">
<!-- Generated by graphviz version 2.40.1 (20161225.0304)
 -->
<!-- Title: tokenising_stm Pages: 1 -->
<svg width="1279pt" height="1063pt"
 viewBox="0.00 0.00 1279.11 1063.43" xmlns="http://www.w3.org/2000/svg" xmlns:xlink="http://www.w3.org/1999/xlink">
<g id="graph0" class="graph" transform="scale(1 1) rotate(0) translate(4 1059.4305)">
<title>tokenising_stm</title>
<polygon fill="#ffffff" stroke="transparent" points="-4,4 -4,-1059.4305 1275.109,-1059.4305 1275.109,4 -4,4"/>
<!-- BuildingBreakable -->
<g id="node1" class="node">
<title>BuildingBreakable</title>
<ellipse fill="none" stroke="#000000" cx="284.109" cy="-911.4873" rx="77.1943" ry="77.1943"/>
<ellipse fill="none" stroke="#000000" cx="284.109" cy="-911.4873" rx="81.1866" ry="81.1866"/>
<text text-anchor="middle" x="284.109" y="-907.7873" font-family="Times,serif" font-size="14.00" fill="#000000">BuildingBreakable</text>
</g>
<!-- TokenComplete -->
<g id="node5" class="node">
<title>TokenComplete</title>
<ellipse fill="none" stroke="#000000" cx="395.109" cy="-699.5502" rx="67.6829" ry="67.6829"/>
<ellipse fill="none" stroke="#000000" cx="395.109" cy="-699.5502" rx="71.6881" ry="71.6881"/>
<text text-anchor="middle" x="395.109" y="-695.8502" font-family="Times,serif" font-size="14.00" fill="#000000">TokenComplete</text>
</g>
<!-- BuildingBreakable&#45;&gt;TokenComplete -->
<g id="edge8" class="edge">
<title>BuildingBreakable&#45;&gt;TokenComplete</title>
<path fill="none" stroke="#000000" d="M208.5475,-880.2616C165.2615,-857.6602 124.0763,-824.9023 149.109,-789.1442 168.8512,-760.9432 251.3562,-734.7478 315.4392,-718.0579"/>
<polygon fill="#000000" stroke="#000000" points="316.3365,-721.4411 325.1516,-715.5637 314.5953,-714.6611 316.3365,-721.4411"/>
<text text-anchor="start" x="153.609" y="-797.4442" font-family="Times,serif" font-style="italic" font-size="14.00" fill="#000000">&quot;BuildingBreakable&quot; &#45;&gt; &quot;TokenComplete&quot;</text>
</g>
<!-- Empty -->
<g id="node2" class="node">
<title>Empty</title>
<ellipse fill="none" stroke="#000000" cx="877.109" cy="-911.4873" rx="34.394" ry="18"/>
<text text-anchor="middle" x="877.109" y="-907.7873" font-family="Times,serif" font-size="14.00" fill="#000000">Empty</text>
</g>
<!-- StartedBuildingNonBreakable -->
<g id="node4" class="node">
<title>StartedBuildingNonBreakable</title>
<ellipse fill="none" stroke="#000000" cx="475.109" cy="-120.9896" rx="116.9796" ry="116.9796"/>
<ellipse fill="none" stroke="#000000" cx="475.109" cy="-120.9896" rx="120.9792" ry="120.9792"/>
<text text-anchor="middle" x="475.109" y="-117.2896" font-family="Times,serif" font-size="14.00" fill="#000000">StartedBuildingNonBreakable</text>
</g>
<!-- Empty&#45;&gt;StartedBuildingNonBreakable -->
<g id="edge4" class="edge">
<title>Empty&#45;&gt;StartedBuildingNonBreakable</title>
<path fill="none" stroke="#000000" d="M888.0551,-894.1554C937.8653,-812.8842 1134.089,-464.9052 978.109,-259.9792 933.0075,-200.7251 738.4235,-160.2587 604.9295,-138.8842"/>
<polygon fill="#000000" stroke="#000000" points="605.45,-135.4231 595.0255,-137.3154 604.3547,-142.3369 605.45,-135.4231"/>
<text text-anchor="start" x="1023.109" y="-595.2562" font-family="Times,serif" font-style="italic" font-size="14.00" fill="#000000">&quot;Empty&quot; &#45;&gt; &quot;StartedBuildingNonBreakable&quot;</text>
</g>
<!-- Empty&#45;&gt;TokenComplete -->
<g id="edge7" class="edge">
<title>Empty&#45;&gt;TokenComplete</title>
<path fill="none" stroke="#000000" d="M854.0523,-897.8391C813.1033,-873.9283 724.601,-823.723 646.109,-789.1442 589.4427,-764.1805 523.4285,-740.8325 473.3259,-724.2331"/>
<polygon fill="#000000" stroke="#000000" points="474.118,-720.8091 463.525,-721.0048 471.928,-727.4577 474.118,-720.8091"/>
<text text-anchor="start" x="695.109" y="-797.4442" font-family="Times,serif" font-style="italic" font-size="14.00" fill="#000000">&quot;Empty&quot; &#45;&gt; &quot;TokenComplete&quot;</text>
</g>
<!-- NotStartedBuildingNonBreakable -->
<g id="node3" class="node">
<title>NotStartedBuildingNonBreakable</title>
<ellipse fill="none" stroke="#000000" cx="830.109" cy="-434.9677" rx="129.9773" ry="129.9773"/>
<ellipse fill="none" stroke="#000000" cx="830.109" cy="-434.9677" rx="133.9769" ry="133.9769"/>
<text text-anchor="middle" x="830.109" y="-431.2677" font-family="Times,serif" font-size="14.00" fill="#000000">NotStartedBuildingNonBreakable</text>
</g>
<!-- NotStartedBuildingNonBreakable&#45;&gt;StartedBuildingNonBreakable -->
<g id="edge5" class="edge">
<title>NotStartedBuildingNonBreakable&#45;&gt;StartedBuildingNonBreakable</title>
<path fill="none" stroke="#000000" d="M737.6539,-337.2808C720.3785,-323.2911 701.5888,-310.4556 682.109,-300.9792 639.5322,-280.267 616.47,-309.2944 577.109,-282.9792 559.8953,-271.4709 545.0187,-255.9692 532.3613,-239.0996"/>
<polygon fill="#000000" stroke="#000000" points="535.01,-236.7884 526.3254,-230.7198 529.3301,-240.8797 535.01,-236.7884"/>
<text text-anchor="start" x="581.609" y="-268.2792" font-family="Times,serif" font-style="italic" font-size="14.00" fill="#000000">&quot;NotStartedBuildingNonBreakable&quot; &#45;&gt; &quot;StartedBuildingNonBreakable&quot;</text>
</g>
<!-- StartedBuildingNonBreakable&#45;&gt;TokenComplete -->
<g id="edge9" class="edge">
<title>StartedBuildingNonBreakable&#45;&gt;TokenComplete</title>
<path fill="none" stroke="#000000" d="M412.3296,-224.8953C400.6699,-249.0611 390.2401,-275.2638 384.109,-300.9792 358.4365,-408.6555 369.1288,-537.3296 380.7724,-618.7547"/>
<polygon fill="#000000" stroke="#000000" points="377.352,-619.5529 382.2688,-628.9377 384.2776,-618.5351 377.352,-619.5529"/>
<text text-anchor="start" x="388.609" y="-431.7677" font-family="Times,serif" font-style="italic" font-size="14.00" fill="#000000">&quot;StartedBuildingNonBreakable&quot; &#45;&gt; &quot;TokenComplete&quot;</text>
</g>
<!-- TokenComplete&#45;&gt;BuildingBreakable -->
<g id="edge2" class="edge">
<title>TokenComplete&#45;&gt;BuildingBreakable</title>
<path fill="none" stroke="#000000" d="M403.2314,-770.8373C402.4492,-784.9866 399.8411,-799.3966 394.109,-812.1442 386.1558,-829.8312 373.3522,-845.7141 359.2433,-859.3222"/>
<polygon fill="#000000" stroke="#000000" points="356.7368,-856.8726 351.765,-866.2285 361.486,-862.0152 356.7368,-856.8726"/>
<text text-anchor="start" x="405.609" y="-797.4442" font-family="Times,serif" font-style="italic" font-size="14.00" fill="#000000">&quot;TokenComplete&quot; &#45;&gt; &quot;BuildingBreakable&quot;</text>
</g>
<!-- TokenComplete&#45;&gt;NotStartedBuildingNonBreakable -->
<g id="edge3" class="edge">
<title>TokenComplete&#45;&gt;NotStartedBuildingNonBreakable</title>
<path fill="none" stroke="#000000" d="M460.8354,-670.9211C539.2859,-636.5505 662.4087,-581.9024 682.109,-568.9562 697.1393,-559.0789 712.1572,-547.7007 726.5501,-535.8359"/>
<polygon fill="#000000" stroke="#000000" points="729.0558,-538.3029 734.478,-529.2007 724.563,-532.9349 729.0558,-538.3029"/>
<text text-anchor="start" x="650.109" y="-595.2562" font-family="Times,serif" font-style="italic" font-size="14.00" fill="#000000">&quot;TokenComplete&quot; &#45;&gt; &quot;NotStartedBuildingNonBreakable&quot;</text>
</g>
<!-- TokenComplete&#45;&gt;StartedBuildingNonBreakable -->
<g id="edge6" class="edge">
<title>TokenComplete&#45;&gt;StartedBuildingNonBreakable</title>
<path fill="none" stroke="#000000" d="M325.2521,-683.0436C234.0531,-659.9165 82.2296,-615.4598 50.109,-568.9562 -17.5787,-470.9593 -15.668,-400.2687 50.109,-300.9792 115.2066,-202.7152 245.8198,-157.9497 345.1619,-137.6457"/>
<polygon fill="#000000" stroke="#000000" points="345.851,-141.0773 354.9785,-135.6977 344.4884,-134.2112 345.851,-141.0773"/>
<text text-anchor="start" x="54.609" y="-431.7677" font-family="Times,serif" font-style="italic" font-size="14.00" fill="#000000">&quot;TokenComplete&quot; &#45;&gt; &quot;StartedBuildingNonBreakable&quot;</text>
</g>
<!-- _start -->
<g id="node6" class="node">
<title>_start</title>
<ellipse fill="#000000" stroke="#000000" cx="877.109" cy="-1053.6305" rx="1.8" ry="1.8"/>
</g>
<!-- _start&#45;&gt;Empty -->
<g id="edge1" class="edge">
<title>_start&#45;&gt;Empty</title>
<path fill="none" stroke="#000000" d="M877.109,-1051.6211C877.109,-1039.6741 877.109,-977.2408 877.109,-939.8571"/>
<polygon fill="#000000" stroke="#000000" points="880.6091,-939.5913 877.109,-929.5913 873.6091,-939.5913 880.6091,-939.5913"/>
<text text-anchor="start" x="881.609" y="-1019.1305" font-family="Times,serif" font-weight="bold" font-style="italic" font-size="14.00" fill="#000000"> &#45;&gt; &quot;Empty&quot;</text>
</g>
</g>
</svg>
