<?xml version="1.0" encoding="UTF-8" standalone="no"?>
<!DOCTYPE svg PUBLIC "-//W3C//DTD SVG 1.1//EN"
 "http://www.w3.org/Graphics/SVG/1.1/DTD/svg11.dtd">
<!-- Generated by graphviz version 2.40.1 (20161225.0304)
 -->
<!-- Title: tokenising_stm Pages: 1 -->
<svg width="1146pt" height="748pt"
 viewBox="0.00 0.00 1146.47 747.70" xmlns="http://www.w3.org/2000/svg" xmlns:xlink="http://www.w3.org/1999/xlink">
<g id="graph0" class="graph" transform="scale(1 1) rotate(0) translate(4 743.7047)">
<title>tokenising_stm</title>
<polygon fill="#ffffff" stroke="transparent" points="-4,4 -4,-743.7047 1142.4659,-743.7047 1142.4659,4 -4,4"/>
<!-- BuildingBreakable -->
<g id="node1" class="node">
<title>BuildingBreakable</title>
<ellipse fill="none" stroke="#000000" cx="230.4659" cy="-622.9001" rx="50.3948" ry="50.3948"/>
<ellipse fill="none" stroke="#000000" cx="230.4659" cy="-622.9001" rx="54.4099" ry="54.4099"/>
<text text-anchor="middle" x="230.4659" y="-626.7001" font-family="Times,serif" font-size="14.00" fill="#000000">Building</text>
<text text-anchor="middle" x="230.4659" y="-611.7001" font-family="Times,serif" font-size="14.00" fill="#000000">Breakable</text>
</g>
<!-- TokenComplete -->
<g id="node5" class="node">
<title>TokenComplete</title>
<ellipse fill="none" stroke="#000000" cx="357.4659" cy="-456.1981" rx="49.4951" ry="49.4951"/>
<ellipse fill="none" stroke="#000000" cx="357.4659" cy="-456.1981" rx="53.4949" ry="53.4949"/>
<text text-anchor="middle" x="357.4659" y="-459.9981" font-family="Times,serif" font-size="14.00" fill="#000000">Token</text>
<text text-anchor="middle" x="357.4659" y="-444.9981" font-family="Times,serif" font-size="14.00" fill="#000000">Complete</text>
</g>
<!-- BuildingBreakable&#45;&gt;TokenComplete -->
<g id="edge8" class="edge">
<title>BuildingBreakable&#45;&gt;TokenComplete</title>
<path fill="none" stroke="#000000" d="M177.8221,-608.7536C128.8186,-592.937 67.2674,-564.6203 95.4659,-527.6955 119.5021,-496.2212 224.8112,-475.2669 294.3799,-464.5791"/>
<polygon fill="#000000" stroke="#000000" points="295.0026,-468.0249 304.3709,-463.0767 293.9616,-461.1027 295.0026,-468.0249"/>
<text text-anchor="start" x="99.9659" y="-535.9955" font-family="Times,serif" font-style="italic" font-size="14.00" fill="#000000">&quot;BuildingBreakable&quot; &#45;&gt; &quot;TokenComplete&quot;</text>
</g>
<!-- Empty -->
<g id="node2" class="node">
<title>Empty</title>
<ellipse fill="none" stroke="#000000" cx="744.4659" cy="-622.9001" rx="34.394" ry="18"/>
<text text-anchor="middle" x="744.4659" y="-619.2001" font-family="Times,serif" font-size="14.00" fill="#000000">Empty</text>
</g>
<!-- StartedBuildingNonBreakable -->
<g id="node4" class="node">
<title>StartedBuildingNonBreakable</title>
<ellipse fill="none" stroke="#000000" cx="389.4659" cy="-71.1751" rx="67.3409" ry="67.3409"/>
<ellipse fill="none" stroke="#000000" cx="389.4659" cy="-71.1751" rx="71.3507" ry="71.3507"/>
<text text-anchor="middle" x="389.4659" y="-82.4751" font-family="Times,serif" font-size="14.00" fill="#000000">Started</text>
<text text-anchor="middle" x="389.4659" y="-67.4751" font-family="Times,serif" font-size="14.00" fill="#000000">Building</text>
<text text-anchor="middle" x="389.4659" y="-52.4751" font-family="Times,serif" font-size="14.00" fill="#000000">NonBreakable</text>
</g>
<!-- Empty&#45;&gt;StartedBuildingNonBreakable -->
<g id="edge4" class="edge">
<title>Empty&#45;&gt;StartedBuildingNonBreakable</title>
<path fill="none" stroke="#000000" d="M765.4943,-608.4522C782.3806,-595.5116 804.9489,-574.8786 815.4659,-550.6955 884.6987,-391.5001 939.3529,-294.7423 829.4659,-160.3503 785.0465,-106.0253 585.4271,-84.0037 470.9133,-75.7193"/>
<polygon fill="#000000" stroke="#000000" points="471.0051,-72.2172 460.784,-75.0063 470.5135,-79.1999 471.0051,-72.2172"/>
<text text-anchor="start" x="890.4659" y="-370.0006" font-family="Times,serif" font-style="italic" font-size="14.00" fill="#000000">&quot;Empty&quot; &#45;&gt; &quot;StartedBuildingNonBreakable&quot;</text>
</g>
<!-- Empty&#45;&gt;TokenComplete -->
<g id="edge7" class="edge">
<title>Empty&#45;&gt;TokenComplete</title>
<path fill="none" stroke="#000000" d="M724.764,-607.7706C697.1734,-587.1933 644.8499,-550.3562 595.4659,-527.6955 538.2372,-501.4352 468.9075,-481.8792 419.8744,-469.9183"/>
<polygon fill="#000000" stroke="#000000" points="420.5808,-466.4885 410.0398,-467.5546 418.945,-473.2947 420.5808,-466.4885"/>
<text text-anchor="start" x="641.4659" y="-535.9955" font-family="Times,serif" font-style="italic" font-size="14.00" fill="#000000">&quot;Empty&quot; &#45;&gt; &quot;TokenComplete&quot;</text>
</g>
<!-- NotStartedBuildingNonBreakable -->
<g id="node3" class="node">
<title>NotStartedBuildingNonBreakable</title>
<ellipse fill="none" stroke="#000000" cx="744.4659" cy="-272.5254" rx="67.3409" ry="67.3409"/>
<ellipse fill="none" stroke="#000000" cx="744.4659" cy="-272.5254" rx="71.3507" ry="71.3507"/>
<text text-anchor="middle" x="744.4659" y="-283.8254" font-family="Times,serif" font-size="14.00" fill="#000000">NotStarted</text>
<text text-anchor="middle" x="744.4659" y="-268.8254" font-family="Times,serif" font-size="14.00" fill="#000000">Building</text>
<text text-anchor="middle" x="744.4659" y="-253.8254" font-family="Times,serif" font-size="14.00" fill="#000000">NonBreakable</text>
</g>
<!-- NotStartedBuildingNonBreakable&#45;&gt;StartedBuildingNonBreakable -->
<g id="edge5" class="edge">
<title>NotStartedBuildingNonBreakable&#45;&gt;StartedBuildingNonBreakable</title>
<path fill="none" stroke="#000000" d="M693.8778,-221.7485C683.2616,-213.635 671.584,-206.2952 659.4659,-201.3503 611.7933,-181.897 469.2369,-214.7961 428.4659,-183.3503 417.6273,-174.9907 409.7875,-163.4232 404.1199,-150.8737"/>
<polygon fill="#000000" stroke="#000000" points="407.3605,-149.5511 400.3652,-141.594 400.8715,-152.1767 407.3605,-149.5511"/>
<text text-anchor="start" x="432.9659" y="-168.6503" font-family="Times,serif" font-style="italic" font-size="14.00" fill="#000000">&quot;NotStartedBuildingNonBreakable&quot; &#45;&gt; &quot;StartedBuildingNonBreakable&quot;</text>
</g>
<!-- StartedBuildingNonBreakable&#45;&gt;TokenComplete -->
<g id="edge9" class="edge">
<title>StartedBuildingNonBreakable&#45;&gt;TokenComplete</title>
<path fill="none" stroke="#000000" d="M371.9547,-140.3415C367.7145,-159.934 363.7493,-181.3688 361.4659,-201.3503 354.0713,-266.0594 353.8575,-340.6041 355.0117,-392.2836"/>
<polygon fill="#000000" stroke="#000000" points="351.5133,-392.3944 355.259,-402.3049 358.5111,-392.2216 351.5133,-392.3944"/>
<text text-anchor="start" x="365.9659" y="-269.3254" font-family="Times,serif" font-style="italic" font-size="14.00" fill="#000000">&quot;StartedBuildingNonBreakable&quot; &#45;&gt; &quot;TokenComplete&quot;</text>
</g>
<!-- TokenComplete&#45;&gt;BuildingBreakable -->
<g id="edge2" class="edge">
<title>TokenComplete&#45;&gt;BuildingBreakable</title>
<path fill="none" stroke="#000000" d="M355.3885,-510.0453C352.8814,-524.1469 348.3695,-538.7357 340.4659,-550.6955 327.8511,-569.7843 308.2689,-584.989 289.1024,-596.4268"/>
<polygon fill="#000000" stroke="#000000" points="287.3045,-593.4229 280.3519,-601.4174 290.7724,-599.5035 287.3045,-593.4229"/>
<text text-anchor="start" x="354.9659" y="-535.9955" font-family="Times,serif" font-style="italic" font-size="14.00" fill="#000000">&quot;TokenComplete&quot; &#45;&gt; &quot;BuildingBreakable&quot;</text>
</g>
<!-- TokenComplete&#45;&gt;NotStartedBuildingNonBreakable -->
<g id="edge3" class="edge">
<title>TokenComplete&#45;&gt;NotStartedBuildingNonBreakable</title>
<path fill="none" stroke="#000000" d="M398.3788,-421.2945C425.304,-400.358 462.3244,-375.2416 499.4659,-361.7006 566.6968,-337.1896 593.683,-371.868 659.4659,-343.7006 668.4896,-339.8367 677.2914,-334.6876 685.6016,-328.9186"/>
<polygon fill="#000000" stroke="#000000" points="687.7326,-331.6962 693.7379,-322.9676 683.6002,-326.0462 687.7326,-331.6962"/>
<text text-anchor="start" x="503.4659" y="-370.0006" font-family="Times,serif" font-style="italic" font-size="14.00" fill="#000000">&quot;TokenComplete&quot; &#45;&gt; &quot;NotStartedBuildingNonBreakable&quot;</text>
</g>
<!-- TokenComplete&#45;&gt;StartedBuildingNonBreakable -->
<g id="edge6" class="edge">
<title>TokenComplete&#45;&gt;StartedBuildingNonBreakable</title>
<path fill="none" stroke="#000000" d="M304.628,-445.9038C220.0144,-428.226 60.2692,-389.5403 27.4659,-343.7006 -9.3523,-292.2505 -8.9225,-253.1052 27.4659,-201.3503 60.6242,-154.1895 213.6918,-111.4354 309.8609,-88.5925"/>
<polygon fill="#000000" stroke="#000000" points="310.9165,-91.9398 319.8493,-86.2428 309.3135,-85.1258 310.9165,-91.9398"/>
<text text-anchor="start" x="31.9659" y="-269.3254" font-family="Times,serif" font-style="italic" font-size="14.00" fill="#000000">&quot;TokenComplete&quot; &#45;&gt; &quot;StartedBuildingNonBreakable&quot;</text>
</g>
<!-- _start -->
<g id="node6" class="node">
<title>_start</title>
<ellipse fill="#000000" stroke="#000000" cx="744.4659" cy="-737.9047" rx="1.8" ry="1.8"/>
</g>
<!-- _start&#45;&gt;Empty -->
<g id="edge1" class="edge">
<title>_start&#45;&gt;Empty</title>
<path fill="none" stroke="#000000" d="M744.4659,-735.9086C744.4659,-726.0265 744.4659,-681.6135 744.4659,-651.4971"/>
<polygon fill="#000000" stroke="#000000" points="747.966,-651.1388 744.4659,-641.1388 740.966,-651.1388 747.966,-651.1388"/>
<text text-anchor="start" x="748.9659" y="-703.4047" font-family="Times,serif" font-weight="bold" font-style="italic" font-size="14.00" fill="#000000"> &#45;&gt; &quot;Empty&quot;</text>
</g>
</g>
</svg>
