<?xml version="1.0" encoding="UTF-8" standalone="no"?>
<!DOCTYPE svg PUBLIC "-//W3C//DTD SVG 1.1//EN"
 "http://www.w3.org/Graphics/SVG/1.1/DTD/svg11.dtd">
<!-- Generated by graphviz version 2.40.1 (20161225.0304)
 -->
<!-- Title: tokenising_stm Pages: 1 -->
<svg width="362pt" height="300pt"
 viewBox="0.00 0.00 362.09 299.60" xmlns="http://www.w3.org/2000/svg" xmlns:xlink="http://www.w3.org/1999/xlink">
<g id="graph0" class="graph" transform="scale(1 1) rotate(0) translate(4 295.6)">
<title>tokenising_stm</title>
<polygon fill="#ffffff" stroke="transparent" points="-4,4 -4,-295.6 358.0938,-295.6 358.0938,4 -4,4"/>
<!-- BuildingBreakable -->
<g id="node1" class="node">
<title>BuildingBreakable</title>
<ellipse fill="none" stroke="#000000" cx="117.9896" cy="-234" rx="77.1866" ry="18"/>
<text text-anchor="middle" x="117.9896" y="-230.3" font-family="Times,serif" font-size="14.00" fill="#000000">BuildingBreakable</text>
</g>
<!-- TokenComplete -->
<g id="node5" class="node">
<title>TokenComplete</title>
<ellipse fill="none" stroke="#000000" cx="117.9896" cy="-162" rx="67.6881" ry="18"/>
<text text-anchor="middle" x="117.9896" y="-158.3" font-family="Times,serif" font-size="14.00" fill="#000000">TokenComplete</text>
</g>
<!-- BuildingBreakable&#45;&gt;TokenComplete -->
<g id="edge8" class="edge">
<title>BuildingBreakable&#45;&gt;TokenComplete</title>
<path fill="none" stroke="#000000" d="M112.0372,-215.8314C111.2868,-208.131 111.0659,-198.9743 111.3745,-190.4166"/>
<polygon fill="#000000" stroke="#000000" points="114.8688,-190.6161 112.0136,-180.4133 107.8831,-190.1697 114.8688,-190.6161"/>
</g>
<!-- Empty -->
<g id="node2" class="node">
<title>Empty</title>
<ellipse fill="none" stroke="#000000" cx="303.9896" cy="-234" rx="34.394" ry="18"/>
<text text-anchor="middle" x="303.9896" y="-230.3" font-family="Times,serif" font-size="14.00" fill="#000000">Empty</text>
</g>
<!-- StartedBuildingNonBreakable -->
<g id="node4" class="node">
<title>StartedBuildingNonBreakable</title>
<ellipse fill="none" stroke="#000000" cx="116.9896" cy="-18" rx="116.9792" ry="18"/>
<text text-anchor="middle" x="116.9896" y="-14.3" font-family="Times,serif" font-size="14.00" fill="#000000">StartedBuildingNonBreakable</text>
</g>
<!-- Empty&#45;&gt;StartedBuildingNonBreakable -->
<g id="edge4" class="edge">
<title>Empty&#45;&gt;StartedBuildingNonBreakable</title>
<path fill="none" stroke="#000000" d="M316.0279,-216.8391C336.8416,-184.8626 374.1936,-115.4751 339.9896,-72 324.6052,-52.4456 271.1343,-39.1168 220.4109,-30.5941"/>
<polygon fill="#000000" stroke="#000000" points="220.747,-27.1029 210.315,-28.9532 219.6239,-34.0122 220.747,-27.1029"/>
</g>
<!-- Empty&#45;&gt;TokenComplete -->
<g id="edge7" class="edge">
<title>Empty&#45;&gt;TokenComplete</title>
<path fill="none" stroke="#000000" d="M276.1435,-223.2209C247.0564,-211.9613 200.8811,-194.087 165.9166,-180.5524"/>
<polygon fill="#000000" stroke="#000000" points="166.9648,-177.2051 156.3756,-176.8591 164.4378,-183.7331 166.9648,-177.2051"/>
</g>
<!-- NotStartedBuildingNonBreakable -->
<g id="node3" class="node">
<title>NotStartedBuildingNonBreakable</title>
<ellipse fill="none" stroke="#000000" cx="200.9896" cy="-90" rx="129.9769" ry="18"/>
<text text-anchor="middle" x="200.9896" y="-86.3" font-family="Times,serif" font-size="14.00" fill="#000000">NotStartedBuildingNonBreakable</text>
</g>
<!-- NotStartedBuildingNonBreakable&#45;&gt;StartedBuildingNonBreakable -->
<g id="edge5" class="edge">
<title>NotStartedBuildingNonBreakable&#45;&gt;StartedBuildingNonBreakable</title>
<path fill="none" stroke="#000000" d="M180.2256,-72.2022C169.7254,-63.2021 156.8222,-52.1423 145.4157,-42.3652"/>
<polygon fill="#000000" stroke="#000000" points="147.6763,-39.6931 137.8059,-35.8425 143.1207,-45.0079 147.6763,-39.6931"/>
</g>
<!-- StartedBuildingNonBreakable&#45;&gt;TokenComplete -->
<g id="edge9" class="edge">
<title>StartedBuildingNonBreakable&#45;&gt;TokenComplete</title>
<path fill="none" stroke="#000000" d="M99.1851,-35.9433C88.8514,-45.2571 76.9956,-57.6864 70.9896,-72 64.7989,-86.7538 64.7326,-93.2742 70.9896,-108 75.81,-119.3447 84.3108,-129.4637 92.8474,-137.7891"/>
<polygon fill="#000000" stroke="#000000" points="90.5422,-140.4243 100.2669,-144.6293 95.287,-135.2778 90.5422,-140.4243"/>
</g>
<!-- TokenComplete&#45;&gt;BuildingBreakable -->
<g id="edge2" class="edge">
<title>TokenComplete&#45;&gt;BuildingBreakable</title>
<path fill="none" stroke="#000000" d="M123.9656,-180.4133C124.6967,-188.0593 124.9099,-197.1084 124.6051,-205.5726"/>
<polygon fill="#000000" stroke="#000000" points="121.0944,-205.6264 123.942,-215.8314 128.0798,-206.078 121.0944,-205.6264"/>
</g>
<!-- TokenComplete&#45;&gt;NotStartedBuildingNonBreakable -->
<g id="edge3" class="edge">
<title>TokenComplete&#45;&gt;NotStartedBuildingNonBreakable</title>
<path fill="none" stroke="#000000" d="M138.0816,-144.5708C148.4506,-135.576 161.2749,-124.4513 172.6341,-114.5976"/>
<polygon fill="#000000" stroke="#000000" points="174.9555,-117.2173 180.2159,-108.0206 170.3685,-111.9295 174.9555,-117.2173"/>
</g>
<!-- TokenComplete&#45;&gt;StartedBuildingNonBreakable -->
<g id="edge6" class="edge">
<title>TokenComplete&#45;&gt;StartedBuildingNonBreakable</title>
<path fill="none" stroke="#000000" d="M85.9241,-146.0289C72.8823,-136.5648 59.539,-123.4137 52.9896,-108 46.7326,-93.2742 46.7989,-86.7538 52.9896,-72 57.7627,-60.6247 66.2304,-50.4394 75.5331,-42.0623"/>
<polygon fill="#000000" stroke="#000000" points="78.0223,-44.5448 83.481,-35.4644 73.5511,-39.1588 78.0223,-44.5448"/>
</g>
<!-- _start -->
<g id="node6" class="node">
<title>_start</title>
<ellipse fill="#000000" stroke="#000000" cx="303.9896" cy="-289.8" rx="1.8" ry="1.8"/>
</g>
<!-- _start&#45;&gt;Empty -->
<g id="edge1" class="edge">
<title>_start&#45;&gt;Empty</title>
<path fill="none" stroke="#000000" d="M303.9896,-287.9434C303.9896,-283.7589 303.9896,-273.1154 303.9896,-262.3776"/>
<polygon fill="#000000" stroke="#000000" points="307.4897,-262.2613 303.9896,-252.2614 300.4897,-262.2614 307.4897,-262.2613"/>
</g>
</g>
</svg>
